<?xml version="1.0" encoding="utf-8"?>
<!-- Generator: Adobe Illustrator 16.0.0, SVG Export Plug-In . SVG Version: 6.00 Build 0)  -->
<!DOCTYPE svg PUBLIC "-//W3C//DTD SVG 1.1//EN" "http://www.w3.org/Graphics/SVG/1.1/DTD/svg11.dtd">
<svg version="1.1" xmlns="http://www.w3.org/2000/svg" xmlns:xlink="http://www.w3.org/1999/xlink" x="0px" y="0px"
	 width="543.585px" height="83.783px" viewBox="0 0 543.585 83.783" enable-background="new 0 0 543.585 83.783"
	 xml:space="preserve">
<g id="Layer_1">
</g>
<g id="Layer_2">
	<path fill="#970200" d="M45.274,56.938h9.962L29.078,0.394h-2.999L0,56.937l9.967-0.001l3.614-7.75h26.196h1.883L45.274,56.938z
		 M16.085,41.622l8.729-20.333l2.681-6.249l11.709,26.583H16.085z"/>
	<path fill="#970200" d="M105.596,52.198c2.632-2.881,4.099-7.001,4.139-11.771c-0.078-4.628-1.777-7.854-5.783-9.96l-4.024-2.051
		l3.483-2.868c2.151-1.675,3.832-5.627,3.77-8.379c-0.019-9.014-7.147-15.95-16.246-15.98H67.55v55.748h25.938
		C99.113,56.915,102.951,55.066,105.596,52.198z M76.876,12.326V9.369l12.825-0.002c2.371-0.028,4.534,1.035,5.833,2.611
		c1.317,1.573,1.886,3.483,1.889,5.351c-0.002,1.849-0.562,3.748-1.864,5.308c-1.264,1.549-3.369,2.602-5.68,2.602
		c-0.031,0-0.061,0-0.091-0.001H76.876V12.326z M92.432,48.845H76.876V35.407v-2.96l15.466,0.003
		c2.426-0.032,4.624,1.122,5.897,2.755c1.302,1.629,1.853,3.58,1.861,5.495c-0.006,1.884-0.543,3.816-1.833,5.426
		c-1.246,1.599-3.379,2.719-5.73,2.719C92.502,48.845,92.467,48.845,92.432,48.845z"/>
	<path fill="#970200" d="M141.238,56.938V9.368h15.062c0-2.743,0-5.464,0.001-8.179h-39.893c0,2.715,0,5.436,0,8.179h15.153v47.571
		C134.788,56.938,138.013,56.938,141.238,56.938z"/>
	<path fill="#141413" d="M254.776,1.188h-23.384v55.748h25.94c5.623-0.021,9.462-1.87,12.105-4.738
		c2.633-2.881,4.099-7.001,4.14-11.771c-0.077-4.632-1.777-7.854-5.784-9.96l-4.023-2.051l3.483-2.868
		c2.151-1.675,3.833-5.627,3.769-8.379C271.005,8.155,263.875,1.219,254.776,1.188z M240.719,12.326V9.369h12.824
		c2.371-0.03,4.538,1.033,5.834,2.608c1.316,1.573,1.885,3.483,1.892,5.351c-0.006,1.849-0.566,3.748-1.866,5.308
		c-1.266,1.546-3.372,2.602-5.681,2.602c-0.032,0-0.061,0-0.093-0.001h-12.911V12.326z M263.944,40.7
		c-0.006,1.884-0.543,3.816-1.833,5.429c-1.246,1.596-3.38,2.717-5.73,2.717c-0.036,0-0.071,0-0.105,0h-15.557V35.407v-2.96
		l15.47,0.003c2.426-0.032,4.62,1.122,5.897,2.755C263.385,36.834,263.938,38.79,263.944,40.7z"/>
	<path fill="#141413" d="M314.067,29.028l-4.073-2.184l3.683-2.781c2.692-1.98,4.229-5.858,4.203-9.094
		c-0.003-3.757-1.411-7.45-4.203-10.213c-2.796-2.752-7.007-4.699-13.101-4.716c-4.769-0.008-9.051,1.168-11.93,3.275
		c-2.407,1.8-3.987,4.088-4.459,7.462h8.714c0.493-0.896,1.198-1.665,2.028-2.176c1.649-1.068,3.558-1.425,5.646-1.435
		c2.564-0.022,4.867,1,6.348,2.619c1.494,1.613,2.201,3.677,2.201,5.709c0,2.027-0.712,4.116-2.243,5.731
		c-1.522,1.627-3.867,2.62-6.483,2.601l-1.183-0.002v6.949h1.36c3.287-0.016,6.126,1.141,8.029,3.049
		c1.912,1.899,2.856,4.425,2.854,6.915c0.003,2.486-0.941,5.01-2.854,6.911c-1.9,1.908-4.742,3.064-8.029,3.049
		c-2.946,0.011-5.728-1.028-7.695-3.024c-1.316-1.321-2.223-3.016-2.677-4.904H282.1c0.494,4.792,2.179,8.264,4.71,10.71
		c3.041,2.918,7.59,4.594,13.766,4.602c7.417-0.002,12.596-1.966,15.887-4.856c3.282-2.902,4.92-6.806,4.94-11.564
		C321.264,35.432,319.467,32.068,314.067,29.028z"/>
	<path fill="#141413" d="M365.635,1.188c-10.708,0-21.787,0-32.494,0v55.75c3.385,0,6.766,0,10.117,0V9.368h22.377
		C365.635,6.506,365.635,4.016,365.635,1.188z"/>
	<polygon fill="#141413" points="407.404,56.938 417.323,56.938 391.164,0.394 388.163,0.394 362.085,56.938 372,56.938 
		389.601,16.388 	"/>
	<path fill="#141413" d="M471.628,56.938c0-18.561,0-37.119,0-55.75c-7.963,0-16.093,0-24.077,0
		c-6.663,0.044-11.279,2.403-14.441,5.854c-3.144,3.463-4.783,8.182-4.783,12.953c0.008,6.124,2.674,12.113,7.837,15.607
		l2.345,1.587l-12.187,19.749h12.03l10.572-18.149h12.854v18.149C465.081,56.938,468.392,56.938,471.628,56.938z M461.774,12.326
		c0,5.02,0,10.305,0,15.24v2.955l-14.232,0.003c-0.03,0.001-0.061,0.001-0.092,0.001c-3.033,0-5.652-1.533-7.174-3.596
		c-1.568-2.086-2.262-4.606-2.269-7.098c0.007-2.426,0.668-4.907,2.247-6.958c1.551-2.057,4.209-3.511,7.206-3.505
		c1.274-0.034,2.555-0.04,3.826-0.04c2.549,0,5.097,0.04,7.532,0.04h2.955V12.326z"/>
	<path fill="#141413" d="M481.01,49.196l2.615,7.719h9.134h36.472h14.354l-3.348-7.715h-6.407L511.982,0.393h-2.922l-21.144,48.804
		H481.01z M510.409,15.663l13.323,33.36h-21.81h-4.308L510.409,15.663z"/>
	<path fill="#141413" d="M183.533,29.044c0-10.69,15.859-10.69,15.859,0C199.393,39.757,183.533,39.757,183.533,29.044z"/>
	<path fill="#970200" d="M191.461,0c-7.251-0.003-14.455,2.452-19.766,7.235c-5.302,4.796-8.876,11.854-8.901,21.783
		c0.024,9.95,3.602,17.03,8.904,21.835c5.312,4.791,12.516,7.253,19.763,7.249c7.25,0.004,14.454-2.458,19.765-7.249
		c5.302-4.805,8.879-11.881,8.905-21.835c-0.025-9.927-3.603-16.987-8.905-21.783C205.916,2.455,198.711-0.003,191.461,0z
		 M204.188,43.733c-3.496,3.369-8.103,5.022-12.67,5.022c-0.004,0-0.009,0-0.013,0c-4.568,0.003-9.184-1.651-12.68-5.022
		c-3.509-3.362-5.756-8.444-5.737-14.714c-0.019-6.231,2.235-11.289,5.744-14.623c3.502-3.347,8.112-4.985,12.673-4.985
		c4.566,0,9.174,1.639,12.674,4.985c3.511,3.334,5.765,8.392,5.747,14.623C209.943,35.289,207.697,40.371,204.188,43.733z"/>
	<polygon fill="#970200" points="191.562,54.086 166.63,44.552 191.463,83.783 216.295,44.552 	"/>
</g>
</svg>
