<svg width="21" height="35" viewBox="0 0 21 35" fill="none" xmlns="http://www.w3.org/2000/svg">
<path d="M10.8683 18.0302C15.8409 18.0302 19.8834 13.9876 19.8834 9.01723C19.8855 4.0447 15.843 0 10.8683 0C5.89791 0 1.85321 4.0447 1.85321 9.01723C1.85321 13.9876 5.89791 18.0302 10.8683 18.0302ZM10.8683 5.28464C12.9278 5.28464 14.6009 6.95985 14.6009 9.01723C14.6009 11.0746 12.9278 12.7498 10.8683 12.7498C8.81094 12.7498 7.13573 11.0746 7.13573 9.01723C7.13573 6.95773 8.81306 5.28464 10.8683 5.28464Z" fill="#BE2729"/>
<path d="M14.5158 25.3851C16.3503 24.9668 18.121 24.2407 19.7517 23.2173C20.9852 22.4402 21.3568 20.8075 20.5797 19.5739C19.8026 18.3382 18.1741 17.9666 16.9363 18.7437C13.244 21.0665 8.48808 21.0644 4.79796 18.7437C3.56225 17.9666 1.93164 18.3382 1.15667 19.5739C0.379578 20.8096 0.749015 22.4381 1.98472 23.2173C3.61533 24.2407 5.38396 24.9668 7.22053 25.3851L2.18005 30.4256C1.1503 31.4574 1.1503 33.1284 2.18005 34.1603C2.69599 34.6762 3.37117 34.9331 4.04634 34.9331C4.72364 34.9331 5.39882 34.6741 5.91476 34.1603L10.8661 29.2068L15.8216 34.1603C16.8514 35.1921 18.5244 35.1921 19.5563 34.1603C20.5882 33.1284 20.5882 31.4553 19.5563 30.4256L14.5158 25.3851Z" fill="#BE2729"/>
</svg>
