<svg width="183" height="30" viewBox="0 0 183 30" fill="none" xmlns="http://www.w3.org/2000/svg">
<g clip-path="url(#clip0_857_863)">
<path fill-rule="evenodd" clip-rule="evenodd" d="M0 0H20.9617C26.0778 0 30.2633 4.1491 30.2633 9.22066V30H25.1564V11.9984C25.1564 8.18371 22.0078 5.06245 18.1596 5.06245H0V0ZM0 7.49545V12.5579H14.4597C16.1843 12.5579 17.5952 13.9565 17.5952 15.6661V30H22.7021V13.1265C22.7021 10.0299 20.1454 7.49545 17.0216 7.49545H0ZM0 14.9909V28.4244C0 29.2909 0.715305 30 1.58942 30H15.1409V16.5665C15.1409 15.7 14.4255 14.9909 13.5514 14.9909H0ZM3.80621 18.7653V21.1983H7.99698C8.4826 21.1983 8.87897 21.5912 8.87897 22.0726V26.2269H11.3333V20.5855C11.3333 19.5837 10.5065 18.7653 9.49716 18.7653H3.80621Z" fill="#BE2729"/>
<path fill-rule="evenodd" clip-rule="evenodd" d="M36.1302 0C39.5873 0 43.0444 0 46.5015 0L59.2772 15.7819V0C73.4403 0 87.6033 0 101.766 0L106.016 15.7221L110.5 0H110.636H118.233H118.369L122.853 15.7221L127.103 0H153.667V7.40437H146.686H145.719C144.691 7.40437 144.157 8.15639 144.157 9.17512V9.24798C144.157 9.64351 144.37 10.082 144.715 10.2797L151.05 13.9058C153.238 15.1574 154.585 17.4707 154.585 19.974V21.517C154.585 26.2022 150.754 30 146.027 30H136.037V22.5956H144.935C145.903 22.5956 146.686 21.8189 146.686 20.86C146.686 20.4645 146.474 20.0989 146.128 19.9011L139.571 16.1488C137.385 14.8972 136.037 12.5839 136.037 10.0807V8.75098C136.037 8.2904 136.083 7.84023 136.168 7.40437H133.614L127.507 30H126.925H119.713L114.436 13.319L109.158 30H101.946H101.365L95.2551 7.40437H81.7102V11.2972H90.2059V18.7015H81.7102V22.5943H92.7587V29.9987C86.8906 29.9987 81.0225 29.9987 75.1544 29.9987C74.2868 29.9987 73.5767 29.2948 73.5767 28.4348V7.40437H67.4094V28.4361C67.4094 29.2961 66.6993 30 65.8318 30H65.0613H60.6973L47.8546 14.1361V30H39.7225V7.40437H36.1302V0Z" fill="#46494F"/>
<path d="M160.346 8.27197H157.345V11.2475H160.346V8.27197Z" fill="#BE2729"/>
<path fill-rule="evenodd" clip-rule="evenodd" d="M161.827 0H163.45H163.781H164.386H165.818H167.921C169.687 0 171.132 1.43247 171.132 3.18371V3.9032C171.132 5.15092 170.399 6.23731 169.337 6.75774L172.715 11.2477H169.762L166.631 7.08691H165.818V11.2477H163.45V2.20531H161.827V0ZM165.818 2.14156V4.94535H167.305C168.003 4.94535 168.576 4.37809 168.576 3.68592V3.40099C168.576 2.70882 168.003 2.14156 167.305 2.14156H165.818Z" fill="#BE2729"/>
<path fill-rule="evenodd" clip-rule="evenodd" d="M172.507 0H173.907H174.461H176.21V6.96721C176.21 8.06661 177.117 8.96565 178.226 8.96565H178.682C179.791 8.96565 180.698 8.06661 180.698 6.96721V2.20531H179.269V0H180.698H181.223H183.001V7.1988C183.001 9.42623 181.163 11.2477 178.916 11.2477H177.993C175.746 11.2477 173.907 9.42493 173.907 7.1988V2.20531H172.507V0Z" fill="#BE2729"/>
</g>
<defs>
<clipPath id="clip0_857_863">
<rect width="183" height="30" fill="white"/>
</clipPath>
</defs>
</svg>
