<svg width="49" height="34" viewBox="0 0 49 34" fill="none" xmlns="http://www.w3.org/2000/svg">
<path d="M47.9755 5.29638C47.4131 3.21175 45.751 1.57031 43.6434 1.01222C39.8236 0 24.5 0 24.5 0C24.5 0 9.17636 0 5.35659 1.01222C3.24903 1.57031 1.58693 3.21175 1.02455 5.29638C0 9.07716 0 16.9615 0 16.9615C0 16.9615 0 24.8459 1.02455 28.6267C1.58693 30.7113 3.24903 32.3528 5.35659 32.9109C9.17636 33.9231 24.5 33.9231 24.5 33.9231C24.5 33.9231 39.8236 33.9231 43.6434 32.9109C45.751 32.3528 47.4131 30.7113 47.9755 28.6267C49 24.8459 49 16.9615 49 16.9615C49 16.9615 49 9.07716 47.9755 5.29638Z" fill="#BE2729"/>
<path d="M19.4885 24.1211V9.80225L32.2953 16.9617L19.4885 24.1211Z" fill="white"/>
</svg>
