<svg width="49" height="28" viewBox="0 0 49 28" fill="none" xmlns="http://www.w3.org/2000/svg">
<path fill-rule="evenodd" clip-rule="evenodd" d="M26.8953 27.8688C26.8953 27.8688 27.7858 27.7656 28.2311 27.2909C28.6359 26.8368 28.6359 26.0112 28.6359 26.0112C28.6359 26.0112 28.5752 22.069 30.3968 21.491C32.1981 20.9131 34.5055 25.2888 36.9545 26.9813C38.7963 28.261 40.2131 27.972 40.2131 27.972L46.7506 27.8895C46.7506 27.8895 50.1712 27.6831 48.552 24.9792C48.4103 24.7522 47.6007 22.9771 43.6944 19.3445C39.5857 15.5261 40.1322 16.1453 45.091 9.56109C48.1067 5.53627 49.3009 3.10074 48.9365 2.0481C48.5722 1.03674 46.3661 1.30506 46.3661 1.30506L38.9987 1.34634C38.9987 1.34634 38.4523 1.26378 38.0475 1.51146C37.6427 1.7385 37.3998 2.29578 37.3998 2.29578C37.3998 2.29578 36.2259 5.41243 34.6876 8.05436C31.4088 13.6272 30.0932 13.9161 29.5669 13.5859C28.2716 12.7603 28.5954 10.3248 28.5954 8.591C28.5954 3.1833 29.4253 0.933537 26.9965 0.355615C26.1869 0.169855 25.5999 0.025374 23.5557 0.00473395C20.9245 -0.0159061 18.6981 0.00473392 17.4432 0.623936C16.6134 1.03674 15.9657 1.96554 16.3503 2.00682C16.836 2.08938 17.9492 2.31642 18.5362 3.10074C19.2851 4.13275 19.2648 6.44444 19.2648 6.44444C19.2648 6.44444 19.6899 12.8016 18.2528 13.5859C17.2408 14.1432 15.8848 13.0286 12.9702 7.9718C11.4725 5.37115 10.339 2.52282 10.339 2.52282C10.339 2.52282 10.1164 1.98618 9.73183 1.69722C9.24607 1.34634 8.5984 1.24314 8.5984 1.24314L1.59539 1.28442C1.59539 1.28442 0.542912 1.30506 0.158353 1.77978C-0.185725 2.19258 0.138114 3.01818 0.138114 3.01818C0.138114 3.01818 5.62313 15.8563 11.8368 22.3167C17.5242 28.2404 23.9807 27.8482 23.9807 27.8482H26.8953V27.8688Z" fill="#BE2729"/>
</svg>
