<svg xmlns="http://www.w3.org/2000/svg" fill="none" viewBox="0 0 20 20"><g fill-rule="evenodd" clip-path="url(#a)" clip-rule="evenodd"><path fill="url(#b)" d="M1.4 18.6C2.82 20 5.09 20 9.6 20h.8c4.53 0 6.79 0 8.2-1.4 1.4-1.41 1.4-3.68 1.4-8.2v-.8c0-4.53 0-6.79-1.4-8.2C17.18 0 14.91 0 10.4 0h-.8C5.08 0 2.81 0 1.4 1.4 0 2.82 0 5.08 0 9.6v.8c0 4.53 0 6.79 1.4 8.2Z"/><path fill="#fff" d="M8.72 11.6h.8l-.4-.94-.4.94Zm-.2.47-.23.55h-.54L8.9 10h.47l1.15 2.62h-.56l-.24-.55h-1.2Zm8.73.54h.53V10h-.53v2.62Zm-2.08-1.12h.96v-.47h-.96v-.54h1.4V10h-1.93v2.62h1.98v-.48h-1.45v-.65Zm-2.09.31L12.5 10h-.43l-.6 1.8-.58-1.8h-.56l.91 2.62h.44l.6-1.72.6 1.72h.44l.9-2.62h-.55l-.58 1.8Zm-6.14-.3c0 .43-.2.65-.59.65-.39 0-.6-.23-.6-.67V10h-.53v1.5c0 .73.4 1.16 1.12 1.16.72 0 1.14-.43 1.14-1.18V10h-.54v1.5ZM3.95 10h.53v2.62h-.53v-1.06h-1.2v1.06h-.53V10h.53v1.06h1.2V10ZM10 6.67a3.34 3.34 0 0 1-3.33-3.34h.47a2.87 2.87 0 0 0 5.72 0h.47A3.34 3.34 0 0 1 10 6.67Z"/></g><defs><linearGradient id="b" x1="10" x2="10" y1="20" y2="0" gradientUnits="userSpaceOnUse"><stop stop-color="#ED3E45"/><stop offset="1" stop-color="#FB6361"/></linearGradient><clipPath id="a"><path fill="#fff" d="M0 0h20v20H0z"/></clipPath></defs></svg>