<svg xmlns="http://www.w3.org/2000/svg" fill="none" viewBox="0 0 20 20"><g clip-path="url(#a)"><path fill="#2B71F6" fill-rule="evenodd" d="M1.4 18.6C2.82 20 5.09 20 9.6 20h.8c4.53 0 6.79 0 8.2-1.4 1.4-1.41 1.4-3.68 1.4-8.2v-.8c0-4.53 0-6.79-1.4-8.2C17.18 0 14.91 0 10.4 0h-.8C5.08 0 2.81 0 1.4 1.4 0 2.82 0 5.08 0 9.6v.8c0 4.53 0 6.79 1.4 8.2Zm14.04-5.3-1.35-.35a.4.4 0 0 1-.28-.36l-.17-4.97a1.55 1.55 0 0 0-1.05-1.34c-.03 0-.06 0-.08.03a.06.06 0 0 0 .02.08c.12.1.47.42.47.97v6.5a.97.97 0 0 1-1.2.93l-1.38-.34a.4.4 0 0 1-.26-.36l-.17-4.97a1.55 1.55 0 0 0-1.05-1.34c-.03 0-.06 0-.07.03a.06.06 0 0 0 0 .08c.13.1.48.41.48.96v6.5a.97.97 0 0 1-1.2.94l-3.88-.96a1.2 1.2 0 0 1-.92-1.18v-6.5c0-.64.6-1.1 1.2-.94L7 7.3V6.15c0-.63.6-1.09 1.2-.93l2.45.6V4.65a.96.96 0 0 1 1.2-.93l3.88.96c.54.14.91.62.91 1.17v6.52a.97.97 0 0 1-1.2.93Z" clip-rule="evenodd"/></g><defs><clipPath id="a"><path fill="#fff" d="M0 0h20v20H0z"/></clipPath></defs></svg>