<svg xmlns="http://www.w3.org/2000/svg" fill="none" viewBox="0 0 47 16"><path fill="#000" d="M3.227 0c.399 0 .722.347.722.775V12.18h6.329c.398 0 .722.347.722.774v2.271c0 .428-.324.775-.722.775H.722C.324 16 0 15.652 0 15.226V.774C0 .347.324.001.722.001L3.227 0zM16.268 0c.404 0 .732.347.732.775v14.45c0 .428-.328.775-.732.775h-2.536c-.404 0-.732-.347-.732-.774V.774c0-.427.328-.773.732-.773L16.268 0zM32.232 0c.424 0 .768.347.768.775v2.25a.77.77 0 01-.768.774h-7.034v2.849h6.154c.423 0 .768.346.768.774v2.27a.77.77 0 01-.768.775h-6.154v4.758a.772.772 0 01-.768.775h-2.662a.77.77 0 01-.768-.774V.774a.77.77 0 01.768-.773L32.232 0zM45.97 0c.414 0 .75.347.75.775v2.25a.762.762 0 01-.75.774H39.1v2.209h6.01c.414 0 .75.346.75.774v2.209a.762.762 0 01-.75.774H39.1V12.2h7.15c.414 0 .75.347.75.775v2.25a.763.763 0 01-.75.774h-10.5a.762.762 0 01-.75-.774V.774c0-.427.336-.773.75-.773L45.97 0z"/></svg>