<svg width="111" height="20" viewBox="0 0 111 20" fill="none" xmlns="http://www.w3.org/2000/svg">
<path d="M33.0106 10.1461C33.0106 8.32846 33.0658 6.82246 33.1763 5.62804C33.2867 4.43363 33.4523 3.48588 33.6732 2.78481C33.8941 2.08374 34.1766 1.59039 34.5209 1.30477C34.8652 1.01915 35.2777 0.876339 35.7584 0.876339C36.2391 0.876339 36.6581 1.00617 37.0154 1.26582C37.3726 1.52548 37.6715 1.90847 37.9118 2.4148C38.1522 2.92113 38.3308 3.55079 38.4477 4.3038C38.5647 5.0568 38.6231 5.93963 38.6231 6.95229H39.4026C39.4156 5.73191 39.3442 4.68679 39.1883 3.81694C39.0324 2.94709 38.792 2.2298 38.4672 1.66504C38.1424 1.10029 37.7267 0.684843 37.22 0.418695C36.7133 0.152548 36.1157 0.019474 35.4271 0.019474C34.6216 0.019474 33.9038 0.246674 33.2737 0.701071C32.6436 1.15547 32.1077 1.81435 31.666 2.6777C31.2242 3.54106 30.8864 4.59916 30.6526 5.852C30.4187 7.10484 30.3018 8.53619 30.3018 10.1461C30.3018 11.8338 30.4252 13.2911 30.6721 14.518C30.9189 15.7449 31.2697 16.764 31.7244 17.5755C32.1791 18.3869 32.7248 18.9873 33.3614 19.3768C33.998 19.7663 34.7061 19.9611 35.4856 19.9611C36.1612 19.9611 36.7588 19.815 37.2785 19.5229C37.7981 19.2308 38.2301 18.7829 38.5744 18.1792C38.9187 17.5755 39.1785 16.803 39.3539 15.8617C39.5293 14.9205 39.617 13.8007 39.617 12.5024H38.8375C38.8375 13.606 38.7693 14.5699 38.6329 15.3944C38.4964 16.2188 38.2951 16.9068 38.0287 17.4586C37.7624 18.0104 37.4409 18.4226 37.0641 18.6952C36.6873 18.9679 36.2521 19.1042 35.7584 19.1042C35.3427 19.1042 34.9659 18.9873 34.6281 18.7537C34.2903 18.52 34.0012 18.0785 33.7609 17.4294C33.5205 16.7803 33.3322 15.8715 33.1958 14.703C33.0593 13.5346 32.9911 12.0156 32.9911 10.1461H33.0106ZM48.6789 19.8247H49.4584V0.155794H48.6789V8.80234H43.5146V0.155794H40.9227V19.8247H43.5146V9.54236H48.6789V19.8247ZM73.0192 19.9611C73.7337 19.9611 74.3736 19.7728 74.9387 19.3963C75.5039 19.0198 75.9813 18.4323 76.3711 17.6339C76.7608 16.8354 77.0629 15.8066 77.2773 14.5472C77.4916 13.2879 77.5988 11.7754 77.5988 10.0097C77.5988 8.29601 77.5079 6.80948 77.326 5.55015C77.1441 4.29081 76.8648 3.25219 76.488 2.43427C76.1113 1.61636 75.6338 1.00941 75.0557 0.613438C74.4775 0.217463 73.7922 0.019474 72.9997 0.019474C72.2592 0.019474 71.5836 0.243427 70.973 0.691334C70.3623 1.13924 69.8427 1.78838 69.4139 2.63875C68.9852 3.48913 68.6507 4.53424 68.4103 5.7741C68.17 7.01396 68.0498 8.42584 68.0498 10.0097C68.0498 11.7105 68.1765 13.184 68.4298 14.4304C68.6831 15.6767 69.0339 16.7121 69.4821 17.5365C69.9304 18.3609 70.4598 18.9711 71.0704 19.3671C71.681 19.7631 72.3371 19.9611 73.0387 19.9611H73.0192ZM56.0063 19.9611C56.7078 19.9611 57.3412 19.7728 57.9064 19.3963C58.4715 19.0198 58.9522 18.4323 59.3485 17.6339C59.7447 16.8354 60.05 15.8066 60.2644 14.5472C60.4787 13.2879 60.5859 11.7754 60.5859 10.0097C60.5859 8.29601 60.495 6.80948 60.3131 5.55015C60.1312 4.29081 59.8486 3.25219 59.4654 2.43427C59.0821 1.61636 58.6014 1.00941 58.0233 0.613438C57.4451 0.217463 56.7663 0.019474 55.9868 0.019474C55.2333 0.019474 54.5479 0.240181 53.9308 0.681597C53.3137 1.12301 52.7875 1.76891 52.3523 2.61928C51.9171 3.46965 51.5825 4.51801 51.3487 5.76436C51.1148 7.01071 50.9979 8.42584 50.9979 10.0097C50.9979 11.7105 51.1246 13.184 51.3779 14.4304C51.6313 15.6767 51.9788 16.7121 52.4205 17.5365C52.8622 18.3609 53.3884 18.9711 53.999 19.3671C54.6097 19.7631 55.2722 19.9611 55.9868 19.9611H56.0063ZM62.2424 19.8247H68.576V19.0847H64.8538V0.175268H62.2424V19.8247ZM95.6056 19.8247H101.92V19.0847L98.178 19.0847V9.07498H101.53V8.33496H98.178V0.876339H101.764V0.155794H95.6251V19.8247H95.6056ZM90.8701 19.8247H93.4619V0.155794H90.909V19.8247H90.8701ZM27.3007 19.8247V12.2103L30.3992 0.155794H29.5613L26.8525 10.8861L24.0462 0.155794H21.3764L24.7283 12.2103V19.8247H27.3202H27.3007ZM6.54611 11.5093C7.48153 11.5093 8.29027 11.3729 8.97235 11.1003C9.65442 10.8277 10.2228 10.4447 10.6775 9.95131C11.1323 9.45797 11.4733 8.86076 11.7006 8.15969C11.928 7.45862 12.0417 6.67316 12.0417 5.80331C12.0417 4.94645 11.928 4.17072 11.7006 3.47614C11.4733 2.78156 11.1323 2.1876 10.6775 1.69426C10.2228 1.20091 9.65442 0.821161 8.97235 0.555014C8.29027 0.288866 7.48153 0.155794 6.54611 0.155794H3.66191L3.66191 19.8247H6.2343L6.2343 11.5093H6.54611ZM76.8193 9.97079C76.8193 11.5547 76.7316 12.9211 76.5562 14.0701C76.3808 15.2191 76.134 16.1636 75.8157 16.9036C75.4974 17.6436 75.1271 18.1921 74.7049 18.5492C74.2827 18.9062 73.8247 19.0847 73.331 19.0847C73.0192 19.0847 72.7074 18.9646 72.3956 18.7244C72.0838 18.4843 71.8077 18.0331 71.5673 17.371C71.327 16.7089 71.1321 15.7871 70.9827 14.6056C70.8333 13.4242 70.7586 11.8922 70.7586 10.0097C70.7586 8.02337 70.8235 6.43298 70.9535 5.23856C71.0834 4.04414 71.2653 3.12236 71.4991 2.47322C71.733 1.82408 72.0058 1.39565 72.3176 1.18793C72.6294 0.9802 72.9672 0.876339 73.331 0.876339C73.8637 0.876339 74.3444 1.05485 74.7731 1.41188C75.2018 1.76891 75.5688 2.31743 75.8742 3.05745C76.1795 3.79747 76.4133 4.74197 76.5757 5.89094C76.7381 7.03992 76.8193 8.39987 76.8193 9.97079ZM59.7869 9.97079C59.7869 11.5547 59.696 12.9211 59.5141 14.0701C59.3322 15.2191 59.0854 16.1636 58.7736 16.9036C58.4618 17.6436 58.0947 18.1921 57.6725 18.5492C57.2503 18.9062 56.7923 19.0847 56.2986 19.0847C55.9868 19.0847 55.675 18.9646 55.3632 18.7244C55.0514 18.4843 54.7753 18.0331 54.535 17.371C54.2946 16.7089 54.0965 15.7871 53.9406 14.6056C53.7847 13.4242 53.7067 11.8922 53.7067 10.0097C53.7067 8.02337 53.7749 6.43298 53.9113 5.23856C54.0478 4.04414 54.2296 3.12236 54.457 2.47322C54.6844 1.82408 54.9572 1.39565 55.2755 1.18793C55.5938 0.9802 55.9348 0.876339 56.2986 0.876339C56.8313 0.876339 57.312 1.05485 57.7407 1.41188C58.1694 1.76891 58.5365 2.31743 58.8418 3.05745C59.1471 3.79747 59.3809 4.74197 59.5433 5.89094C59.7057 7.03992 59.7869 8.39987 59.7869 9.97079ZM6.60457 0.915287C7.38409 0.915287 8.06291 1.02564 8.64105 1.24635C9.21919 1.46706 9.69989 1.79163 10.0832 2.22006C10.4664 2.64849 10.749 3.16456 10.9309 3.76826C11.1128 4.37196 11.2037 5.0568 11.2037 5.82278C11.2037 6.57579 11.1095 7.25738 10.9211 7.86758C10.7327 8.47777 10.4469 8.99708 10.0637 9.42551C9.68041 9.85394 9.1997 10.1818 8.62156 10.409C8.04343 10.6362 7.37109 10.7498 6.60457 10.7498H6.2343L6.2343 0.915287H6.60457ZM15.491 3.46641C15.491 2.63551 15.6599 2.0026 15.9977 1.56767C16.3355 1.13275 16.8097 0.915287 17.4203 0.915287C18.3428 0.915287 19.0281 1.3567 19.4763 2.23953C19.9245 3.12236 20.1486 4.43363 20.1486 6.17332H20.9281C20.9411 5.10873 20.8729 4.1902 20.7235 3.41772C20.5741 2.64524 20.3403 2.00909 20.022 1.50925C19.7037 1.00941 19.2977 0.639402 18.804 0.399221C18.3103 0.15904 17.7191 0.0389481 17.0306 0.0389481C16.4589 0.0389481 15.936 0.139566 15.4618 0.340799C14.9876 0.542032 14.5784 0.830898 14.2341 1.2074C13.8898 1.5839 13.6234 2.04155 13.4351 2.58033C13.2467 3.11912 13.1525 3.72606 13.1525 4.40117C13.1525 5.72541 13.4481 6.83544 14.0392 7.73126C14.6303 8.62707 15.2832 9.48718 15.9977 10.3116C16.7123 11.136 17.3651 12.0058 17.9562 12.9211C18.5474 13.8364 18.8429 14.9757 18.8429 16.3389C18.8429 17.2736 18.5766 17.9714 18.0439 18.4323C17.5113 18.8932 16.9591 19.1237 16.3875 19.1237C15.8678 19.1237 15.3968 19.0198 14.9746 18.8121C14.5524 18.6043 14.1918 18.2798 13.893 17.8384C13.5942 17.3969 13.3604 16.8257 13.1915 16.1246C13.0226 15.4236 12.9381 14.5797 12.9381 13.593H12.1586C12.1586 14.6965 12.2561 15.654 12.4509 16.4654C12.6458 17.2769 12.9349 17.9422 13.3181 18.4615C13.7014 18.9809 14.1659 19.3638 14.7115 19.6105C15.2572 19.8572 15.8743 19.9805 16.5629 19.9805C17.2774 19.9805 17.9173 19.8734 18.4824 19.6592C19.0476 19.445 19.5315 19.1302 19.9343 18.7147C20.337 18.2993 20.6423 17.7962 20.8502 17.2055C21.0581 16.6147 21.162 15.9494 21.162 15.2093C21.162 14.0019 20.8664 12.9341 20.2753 12.0058C19.6842 11.0776 19.0346 10.1753 18.3265 9.29893C17.6185 8.42259 16.9656 7.52678 16.368 6.61149C15.7704 5.6962 15.4715 4.65433 15.4715 3.48588L15.491 3.46641ZM104.901 3.42746C104.901 2.62252 105.073 2.0026 105.418 1.56767C105.762 1.13275 106.246 0.915287 106.87 0.915287C107.818 0.915287 108.523 1.35346 108.984 2.2298C109.445 3.10613 109.676 4.42064 109.676 6.17332H110.455C110.455 5.10873 110.381 4.1902 110.231 3.41772C110.082 2.64524 109.845 2.00909 109.52 1.50925C109.195 1.00941 108.783 0.639402 108.282 0.399221C107.782 0.15904 107.188 0.0389481 106.499 0.0389481C105.915 0.0389481 105.382 0.139566 104.901 0.340799C104.421 0.542032 104.008 0.830898 103.664 1.2074C103.32 1.5839 103.05 2.04155 102.855 2.58033C102.66 3.11912 102.563 3.72606 102.563 4.40117C102.563 5.75138 102.858 6.88413 103.449 7.79942C104.041 8.7147 104.69 9.59104 105.398 10.4284C106.106 11.2658 106.756 12.1519 107.347 13.0867C107.938 14.0214 108.234 15.1834 108.234 16.5725C108.234 17.2996 108.049 17.9065 107.678 18.3934C107.308 18.8802 106.759 19.1237 106.032 19.1237C105.551 19.1237 105.112 19.023 104.716 18.8218C104.32 18.6206 103.979 18.296 103.693 17.8481C103.407 17.4002 103.186 16.8257 103.03 16.1246C102.875 15.4236 102.797 14.5797 102.797 13.593H102.017C102.017 14.7095 102.108 15.6702 102.29 16.4752C102.472 17.2801 102.738 17.9422 103.089 18.4615C103.44 18.9809 103.868 19.3638 104.375 19.6105C104.882 19.8572 105.46 19.987 106.11 20C106.798 20 107.419 19.8961 107.971 19.6884C108.523 19.4807 108.991 19.1756 109.374 18.7731C109.757 18.3707 110.049 17.8838 110.251 17.3126C110.452 16.7413 110.553 16.1052 110.553 15.4041C110.553 14.1707 110.257 13.0769 109.666 12.1227C109.075 11.1685 108.425 10.2467 107.717 9.35735C107.009 8.46803 106.363 7.55923 105.778 6.63096C105.194 5.70269 104.901 4.64135 104.901 3.44693V3.42746ZM86.6022 19.8247H88.8043V10.6329H84.0493V11.3535H86.2125V15.112C86.2125 16.579 86.0241 17.6079 85.6473 18.1986C85.2706 18.7894 84.8028 19.0847 84.2442 19.0847C83.8544 19.0847 83.5101 18.9679 83.2113 18.7342C82.9125 18.5005 82.6657 18.0591 82.4708 17.4099C82.2759 16.7608 82.1265 15.852 82.0226 14.6835C81.9186 13.5151 81.8667 11.9961 81.8667 10.1266C81.8667 8.30899 81.9251 6.80623 82.0421 5.61831C82.159 4.43038 82.3409 3.48264 82.5877 2.77507C82.8346 2.06751 83.1464 1.57417 83.5231 1.29503C83.8999 1.0159 84.3481 0.876339 84.8678 0.876339C85.3225 0.876339 85.722 1.00292 86.0663 1.25609C86.4106 1.50925 86.6964 1.889 86.9238 2.39533C87.1511 2.90166 87.3233 3.53132 87.4402 4.28432C87.5571 5.03733 87.6156 5.92016 87.6156 6.93281H88.3951C88.3951 5.72541 88.3204 4.68354 88.171 3.80721C88.0216 2.93087 87.7877 2.21032 87.4694 1.64557C87.1511 1.08082 86.7484 0.665369 86.2612 0.399221C85.774 0.133074 85.1991 0 84.5365 0C83.692 0 82.9385 0.2272 82.2759 0.681597C81.6133 1.13599 81.0482 1.79812 80.5805 2.66796C80.1128 3.53781 79.7555 4.59916 79.5086 5.852C79.2618 7.10484 79.1384 8.53619 79.1384 10.1461C79.1384 11.8208 79.2488 13.2749 79.4697 14.5083C79.6905 15.7416 80.0088 16.7608 80.4246 17.5657C80.8403 18.3707 81.3437 18.9711 81.9349 19.3671C82.526 19.7631 83.1853 19.9611 83.9129 19.9611H83.9519H83.9714C84.556 19.9611 85.0692 19.7923 85.5109 19.4547C85.9526 19.1172 86.2579 18.6887 86.4268 18.1694L86.6022 19.8247ZM0.953094 0.545277H1.53773V0.662123C1.55072 0.662123 1.55722 0.668613 1.55722 0.681597V0.720545C1.55722 0.798441 1.52799 0.869846 1.46952 0.934761C1.41106 0.999676 1.33636 1.03862 1.24541 1.05161C1.15447 1.03862 1.07977 0.999676 1.0213 0.934761C0.962838 0.869846 0.933606 0.798441 0.933606 0.720545C0.933606 0.707561 0.936854 0.697824 0.94335 0.691334C0.949846 0.684843 0.953094 0.675106 0.953094 0.662123V0.545277ZM0.641288 0.155794L0.641288 0.720545V0.759493V0.778969C0.641288 0.869848 0.65428 0.954237 0.680264 1.03213C0.706248 1.11003 0.745223 1.18143 0.797191 1.24635C0.849159 1.29828 0.914118 1.34372 0.99207 1.38267C1.07002 1.42162 1.14797 1.44109 1.22592 1.44109H1.24541H1.25516H1.2649C1.35584 1.44109 1.44029 1.42162 1.51824 1.38267C1.59619 1.34372 1.66765 1.29179 1.73261 1.22688L1.77158 1.11003L1.81056 0.993183L2.60956 1.59688V1.1295L1.84954 0.603701V0.545277H2.60956V0.155794H0.6218H0.641288ZM0.641288 3.66115H2.60956V3.38851L1.28439 2.27848H2.60956V1.889H0.641288V2.16164L1.94697 3.27167H0.641288V3.64167V3.66115ZM0.641288 3.93379L0.641288 5.00487H2.60956V4.61539H0.972582L0.972582 3.93379H0.641288ZM2.29776 6.44596H2.3075C2.3075 6.44596 2.31075 6.45245 2.31724 6.46543C2.31724 6.63421 2.25228 6.78351 2.12237 6.91334C1.99245 7.04317 1.83654 7.10808 1.65466 7.10808H1.64491H1.61568H1.60594H1.57671C1.40781 7.10808 1.2584 7.04317 1.12848 6.91334C0.998566 6.78351 0.933606 6.63421 0.933606 6.46543V6.44596V6.42649V6.40701C0.933606 6.23823 0.998566 6.08893 1.12848 5.9591C1.2584 5.82928 1.40781 5.76436 1.57671 5.76436H1.60594H1.61568H1.64491H1.65466C1.83654 5.76436 1.99245 5.82928 2.12237 5.9591C2.25228 6.08893 2.31724 6.23823 2.31724 6.40701C2.31724 6.41999 2.314 6.42649 2.3075 6.42649C2.301 6.42649 2.29776 6.43298 2.29776 6.44596ZM0.582825 6.44596V6.4557V6.48491C0.582825 6.77053 0.683512 7.01396 0.884886 7.21519C1.08626 7.41642 1.32986 7.51704 1.61568 7.51704C1.9015 7.51704 2.14185 7.41642 2.33673 7.21519C2.53161 7.01396 2.62905 6.77053 2.62905 6.48491V6.4557V6.42649V6.41675V6.38754C2.62905 6.10191 2.53161 5.85849 2.33673 5.65725C2.14185 5.45602 1.9015 5.3554 1.61568 5.3554C1.32986 5.3554 1.08626 5.45602 0.884886 5.65725C0.683512 5.85849 0.582825 6.10191 0.582825 6.38754V6.41675V6.44596ZM0.641288 9.23077H1.77158H1.8203H1.86902C1.93398 9.23077 1.99894 9.24051 2.0639 9.25998C2.12886 9.27945 2.18732 9.30217 2.23929 9.32814C2.25228 9.35411 2.26528 9.38332 2.27827 9.41577C2.29126 9.44823 2.29776 9.47744 2.29776 9.50341V9.53262V9.56183V9.59104V9.62025H2.62905C2.62905 9.60727 2.6323 9.59429 2.63879 9.5813C2.64529 9.56832 2.64854 9.55534 2.64854 9.54236C2.64854 9.52937 2.64529 9.51639 2.63879 9.50341C2.6323 9.49043 2.62905 9.47744 2.62905 9.46446V9.44499C2.62905 9.36709 2.61931 9.29568 2.59982 9.23077C2.58033 9.16586 2.5446 9.10743 2.49263 9.0555C2.42768 8.99059 2.34972 8.93866 2.25878 8.89971C2.16784 8.86076 2.0704 8.84129 1.96646 8.84129H1.89825H1.84954H0.972582L0.972582 8.23759H2.60956V7.86758H0.641288L0.641288 9.23077ZM2.29776 10.8471L2.3075 10.8569L2.31724 10.8666C2.31724 11.0484 2.25228 11.2042 2.12237 11.334C1.99245 11.4638 1.83654 11.5287 1.65466 11.5287H1.64491H1.61568H1.60594H1.57671C1.40781 11.5287 1.2584 11.4638 1.12848 11.334C0.998566 11.2042 0.933606 11.0484 0.933606 10.8666V10.8569V10.8471V10.8374V10.8277C0.933606 10.6459 0.998566 10.4933 1.12848 10.37C1.2584 10.2467 1.40781 10.185 1.57671 10.185H1.60594H1.61568H1.64491H1.65466C1.83654 10.185 1.99245 10.2467 2.12237 10.37C2.25228 10.4933 2.31724 10.6459 2.31724 10.8277L2.3075 10.8374L2.29776 10.8471ZM0.582825 10.8471V10.8763V10.9056C0.582825 11.1782 0.683512 11.4151 0.884886 11.6164C1.08626 11.8176 1.32986 11.9182 1.61568 11.9182C1.9015 11.9182 2.14185 11.8176 2.33673 11.6164C2.53161 11.4151 2.62905 11.1782 2.62905 10.9056V10.8763V10.8471V10.8179V10.7887C2.62905 10.5161 2.53161 10.2791 2.33673 10.0779C2.14185 9.87666 1.9015 9.77605 1.61568 9.77605C1.32986 9.77605 1.08626 9.87666 0.884886 10.0779C0.683512 10.2791 0.582825 10.5161 0.582825 10.7887V10.8277V10.8471ZM2.62905 13.8462V13.3593L1.86902 12.9114L2.59007 12.4635V11.9961L1.57671 12.6777L0.641288 12.074L0.641288 12.5414L1.24541 12.9114L0.641288 13.2619V13.7293L1.57671 13.1256L2.62905 13.8462ZM0.660776 15.8909H2.62905V15.6378L1.30388 14.5278H2.62905V14.1383H0.660776V14.4109L1.96646 15.5209H0.660776L0.660776 15.9104V15.8909ZM2.12237 16.2804C2.18732 16.3324 2.23929 16.4005 2.27827 16.4849C2.31724 16.5693 2.33673 16.6569 2.33673 16.7478V16.777V16.7868C2.33673 16.9685 2.27177 17.1243 2.14185 17.2541C2.01193 17.384 1.85603 17.4489 1.67414 17.4489H1.64491H1.61568H1.59619C1.41431 17.4489 1.2584 17.384 1.12848 17.2541C0.998566 17.1243 0.933606 16.9685 0.933606 16.7868C0.933606 16.6829 0.953094 16.5888 0.99207 16.5044C1.03105 16.42 1.08951 16.3518 1.16746 16.2999H0.71924C0.680264 16.3648 0.647784 16.4395 0.6218 16.5239C0.595817 16.6082 0.582825 16.6959 0.582825 16.7868V16.7965V16.8062V16.816L0.582825 16.8452C0.582825 16.975 0.605561 17.0983 0.651032 17.2152C0.696504 17.332 0.764711 17.4359 0.855655 17.5268C0.946598 17.6306 1.05703 17.7118 1.18695 17.7702C1.31687 17.8286 1.45328 17.8578 1.59619 17.8578H1.60594H1.63517H1.64491H1.65466C1.79757 17.8578 1.93073 17.8286 2.05416 17.7702C2.17758 17.7118 2.28476 17.6306 2.37571 17.5268C2.46665 17.4359 2.53811 17.332 2.59007 17.2152C2.64204 17.0983 2.66803 16.9685 2.66803 16.8257V16.816V16.7868V16.777V16.7673C2.66803 16.6764 2.65503 16.5888 2.62905 16.5044C2.60307 16.42 2.57059 16.3453 2.53161 16.2804H2.08339H2.12237ZM0.660776 19.7858H2.62905V19.3963H0.99207L0.99207 18.5979H2.62905V18.2084H0.660776L0.660776 19.8053V19.7858Z" fill="#ABABAB"/>
</svg>
