<svg width="99" height="20" viewBox="0 0 99 20" fill="none" xmlns="http://www.w3.org/2000/svg">
<path d="M0.582825 19.6436L0.582825 0.48218H7.44949C8.4125 0.48218 9.26735 0.583508 10.014 0.786163C10.7607 0.988819 11.3853 1.28581 11.8877 1.67715C12.3901 2.08246 12.767 2.57862 13.0182 3.16562C13.2694 3.75262 13.395 4.43746 13.395 5.22013C13.395 5.8211 13.3462 6.36967 13.2485 6.86583C13.1508 7.36199 12.9973 7.81272 12.7879 8.21803C12.5786 8.60936 12.3273 8.96226 12.0343 9.27673C11.7412 9.5912 11.3992 9.85325 11.0084 10.0629C10.6316 10.2865 10.2199 10.4752 9.77328 10.6289C9.32666 10.7827 8.84516 10.9015 8.32876 10.9853C8.06359 11.0273 7.79143 11.0657 7.5123 11.1006C7.23317 11.1356 6.94705 11.16 6.65396 11.174C6.36088 11.202 6.05732 11.2229 5.74329 11.2369C5.42927 11.2509 5.0978 11.2579 4.74888 11.2579L4.74888 19.6436C4.05105 19.5318 3.35671 19.4759 2.66585 19.4759C1.975 19.4759 1.28066 19.5318 0.582825 19.6436ZM4.74888 9.7065C4.95823 9.7065 5.15363 9.70301 5.33506 9.69602C5.5165 9.68903 5.677 9.67855 5.81657 9.66457C5.95613 9.65059 6.09221 9.62963 6.2248 9.60168C6.35739 9.57372 6.47951 9.54577 6.59116 9.51782C7.02382 9.40601 7.39716 9.2348 7.71118 9.00419C8.02521 8.77359 8.27991 8.48358 8.47531 8.13417C8.6707 7.79874 8.81725 7.42837 8.91494 7.02306C9.01264 6.61775 9.06149 6.1775 9.06149 5.70231C9.06149 5.15723 9.00217 4.66108 8.88354 4.21384C8.76491 3.7666 8.57998 3.37526 8.32876 3.03983C8.0915 2.69043 7.81586 2.43187 7.50183 2.26415C7.18781 2.09644 6.84936 2.01258 6.48649 2.01258H4.74888L4.74888 9.7065ZM13.6253 13.8155L12.9345 15.7652L12.1808 17.9245L11.6784 19.5807C11.2317 19.5108 10.7921 19.4759 10.3595 19.4759C9.9268 19.4759 9.48716 19.5108 9.04055 19.5807L16.9958 0.251572C17.3587 0.307476 17.7146 0.33543 18.0635 0.33543C18.4124 0.33543 18.7614 0.307476 19.1103 0.251572L26.8981 19.6436H26.8771C26.0677 19.5318 25.2721 19.4759 24.4906 19.4759C23.709 19.4759 22.9135 19.5318 22.104 19.6436C21.6853 18.3159 21.3119 17.1663 20.9839 16.195C20.656 15.2236 20.3664 14.4305 20.1151 13.8155L13.6253 13.8155ZM19.4871 12.0964L16.9958 5.59748L14.379 12.0964L19.4871 12.0964ZM27.7355 0.48218H33.681C34.7836 0.48218 35.7117 0.531097 36.4654 0.628931C37.219 0.726765 37.7982 0.866528 38.203 1.04822C39.0124 1.4675 39.6161 2.01258 40.0138 2.68344C40.4116 3.3543 40.6105 4.14396 40.6105 5.05241C40.6105 5.70929 40.5163 6.31377 40.3279 6.86583C40.1394 7.41789 39.8498 7.91055 39.4591 8.34382C39.0683 8.7631 38.6077 9.1195 38.0774 9.413C37.547 9.7065 36.9469 9.92313 36.2769 10.0629L37.6796 12.4319L39.5219 15.3249L41.1967 17.9036L42.2853 19.6436C41.4618 19.5318 40.6489 19.4759 39.8464 19.4759C39.0438 19.4759 38.2309 19.5318 37.4074 19.6436H37.3237H37.24L33.9322 13.7736L33.0111 12.2013L32.1109 10.6918H31.9225V19.6436C31.2107 19.5318 30.5128 19.4759 29.829 19.4759C29.1451 19.4759 28.4473 19.5318 27.7355 19.6436L27.7355 0.503145V0.48218ZM31.9225 9.47589L32.6133 9.51782C33.8415 9.51782 34.7626 9.18239 35.3767 8.51153C35.9908 7.84067 36.2979 6.83438 36.2979 5.49266C36.2979 5.39483 36.2944 5.29001 36.2874 5.1782C36.2804 5.06639 36.27 4.94759 36.256 4.8218C36.2421 4.69602 36.2281 4.57372 36.2141 4.45493C36.2002 4.33613 36.1792 4.21384 36.1513 4.08805C36.0816 3.65479 35.9559 3.29839 35.7745 3.01887C35.5931 2.73934 35.3558 2.5297 35.0627 2.38994C34.7696 2.26415 34.4312 2.16981 34.0474 2.10692C33.6636 2.04403 33.2344 2.01258 32.7599 2.01258H31.9225L31.9225 9.47589ZM53.6739 2.89308C52.7109 2.7673 51.6921 2.67296 50.6174 2.61006C49.5427 2.54717 48.4122 2.51572 47.2259 2.51572V8.30189H50.1359C50.6802 8.30189 51.2385 8.28092 51.8107 8.23899C52.3829 8.19707 52.9621 8.13417 53.5483 8.05031C53.4925 8.45563 53.4646 8.92383 53.4646 9.45493C53.4646 9.98602 53.4855 10.4542 53.5274 10.8595C53.2343 10.8176 52.9447 10.7792 52.6586 10.7442C52.3724 10.7093 52.0828 10.6848 51.7898 10.6709C51.5106 10.6429 51.2315 10.6254 50.9524 10.6184C50.6732 10.6115 50.4011 10.608 50.1359 10.608H47.2259V17.4843C47.8819 17.4843 48.4925 17.4773 49.0577 17.4633C49.623 17.4493 50.1568 17.4284 50.6593 17.4004C51.1477 17.3725 51.6432 17.334 52.1456 17.2851C52.6481 17.2362 53.1505 17.1768 53.653 17.1069C53.6111 17.5122 53.5867 17.9106 53.5797 18.3019C53.5727 18.6932 53.6041 19.0915 53.6739 19.4969L43.0599 19.4969V0.48218L53.653 0.48218C53.5971 0.887491 53.5692 1.28931 53.5692 1.68763C53.5692 2.08595 53.6041 2.48777 53.6739 2.89308ZM57.1282 0.503145L59.8916 3.45912L62.969 6.77149L66.2349 10.2935C66.3605 10.4333 66.5035 10.5905 66.664 10.7652C66.8245 10.9399 67.0025 11.1391 67.1979 11.3627C67.477 11.6562 67.7003 11.8938 67.8678 12.0755C68.0353 12.2572 68.14 12.3829 68.1818 12.4528C68.3912 12.6765 68.5761 12.8826 68.7366 13.0713C68.8971 13.26 69.0402 13.4242 69.1658 13.5639V0.503145L69.7101 0.545073C69.7101 0.545073 69.8985 0.552061 70.2753 0.566038C70.4568 0.566038 70.6417 0.55905 70.8301 0.545073C71.0185 0.531096 71.2104 0.517122 71.4058 0.503145V19.6436C71.0011 19.5877 70.6068 19.5563 70.223 19.5493C69.8392 19.5423 69.4519 19.5667 69.0611 19.6226H69.0192L65.5859 15.7652L62.5294 12.3899C62.32 12.1663 62.0967 11.9252 61.8595 11.6667C61.6222 11.4081 61.364 11.1251 61.0849 10.8176C60.8895 10.608 60.6697 10.3739 60.4254 10.1153C60.1812 9.85674 59.9125 9.57372 59.6194 9.26625L56.5839 6.07966V19.5597C56.207 19.5038 55.8372 19.4759 55.4743 19.4759C55.1114 19.4759 54.7416 19.4969 54.3648 19.5388V0.503145C54.8253 0.55905 55.2859 0.583508 55.7465 0.576519C56.207 0.56953 56.6676 0.545074 57.1282 0.503145ZM77.3932 19.6436V2.47379C76.6535 2.47379 75.851 2.50524 74.9857 2.56813C74.1204 2.63103 73.1992 2.73236 72.2223 2.87212C72.2781 2.46681 72.306 2.06848 72.306 1.67715C72.306 1.28581 72.2781 0.887491 72.2223 0.48218L86.5627 0.48218C86.5069 0.887491 86.479 1.28581 86.479 1.67715C86.479 2.06848 86.5069 2.46681 86.5627 2.87212C85.4462 2.73236 84.4727 2.63103 83.6423 2.56813C82.8119 2.50524 82.1245 2.47379 81.5802 2.47379V19.6436C80.8684 19.5318 80.1706 19.4759 79.4867 19.4759C78.8028 19.4759 78.105 19.5318 77.3932 19.6436ZM96.2347 4.08805C95.9276 3.27743 95.5054 2.66946 94.9681 2.26415C94.4308 1.85884 93.7853 1.65619 93.0316 1.65619C92.0128 1.65619 91.2487 1.88679 90.7393 2.34801C90.2298 2.80923 89.9751 3.49406 89.9751 4.40252C89.9751 4.80783 90.0414 5.16073 90.174 5.46122C90.3066 5.76171 90.5125 6.00978 90.7916 6.20545C91.0428 6.38714 91.4266 6.62474 91.943 6.91824C92.4594 7.21174 93.1014 7.55416 93.869 7.94549C94.6367 8.3508 95.3101 8.7631 95.8893 9.18239C96.4685 9.60168 96.9465 10.021 97.3233 10.4403C97.7001 10.8735 97.9828 11.3732 98.1712 11.9392C98.3596 12.5052 98.4538 13.1447 98.4538 13.8574C98.4538 14.4444 98.3735 15.0035 98.213 15.5346C98.0525 16.0657 97.8188 16.5618 97.5117 17.0231C97.2047 17.4983 96.8313 17.9175 96.3917 18.2809C95.9521 18.6443 95.4461 18.9588 94.8739 19.2243C94.3157 19.4899 93.7155 19.6855 93.0735 19.8113C92.4315 19.9371 91.7616 20 91.0638 20C90.1984 20 89.389 19.9022 88.6353 19.7065C87.8816 19.5108 87.1908 19.2103 86.5627 18.805C86.7721 18.0922 86.943 17.4389 87.0756 16.8449C87.2082 16.2509 87.3094 15.7233 87.3792 15.2621H87.9026C88.0142 15.7233 88.1817 16.1426 88.405 16.5199C88.6283 16.8973 88.9144 17.2257 89.2633 17.5052C89.6123 17.7848 89.9961 17.9944 90.4148 18.1342C90.8335 18.2739 91.2801 18.3438 91.7546 18.3438C92.2012 18.3438 92.6199 18.2774 93.0107 18.1447C93.4015 18.0119 93.7574 17.8197 94.0784 17.5681C94.3854 17.3166 94.6192 17.0126 94.7797 16.6562C94.9402 16.2998 95.0205 15.891 95.0205 15.4298C95.0205 14.9406 94.9472 14.5178 94.8006 14.1614C94.6541 13.805 94.4343 13.515 94.1412 13.2914C93.8481 13.0678 93.4468 12.8162 92.9374 12.5367C92.428 12.2572 91.8104 11.9427 91.0847 11.5933C90.345 11.2439 89.703 10.8805 89.1587 10.5031C88.6144 10.1258 88.1608 9.74144 87.7979 9.3501C87.435 8.94479 87.1629 8.44864 86.9814 7.86164C86.8 7.27463 86.7093 6.60377 86.7093 5.84906C86.7093 5.44375 86.7442 5.05241 86.8139 4.67505C86.8837 4.29769 86.9884 3.92732 87.128 3.56394C87.2536 3.21454 87.4211 2.8826 87.6304 2.56813C87.8398 2.25367 88.084 1.96366 88.3631 1.69811C88.6283 1.43256 88.9319 1.19497 89.2738 0.985325C89.6157 0.775681 89.9891 0.59399 90.3938 0.440252C90.8125 0.286514 91.2487 0.174704 91.7023 0.104822C92.1559 0.0349407 92.6409 0 93.1572 0C93.6318 0 94.0889 0.0314465 94.5285 0.0943394C94.9681 0.157232 95.3903 0.25856 95.7951 0.398323C96.1998 0.538086 96.5487 0.684835 96.8418 0.838573C97.1349 0.992311 97.3722 1.16003 97.5536 1.34172C97.5117 1.4116 97.4698 1.51642 97.428 1.65619C97.3861 1.79595 97.3303 1.97065 97.2605 2.18029C97.1488 2.5297 97.0442 2.86164 96.9465 3.1761C96.8488 3.49056 96.7511 3.79455 96.6534 4.08805H96.2347Z" fill="#ABABAB"/>
</svg>
