<svg width="118" height="50" viewBox="0 0 118 50" fill="none" xmlns="http://www.w3.org/2000/svg">
<path d="M112.692 21.6338H88.0211C84.486 21.6338 83.1874 23.6521 82.726 26.9287C82.726 26.9287 80.6426 38.539 80.5705 39.5945C80.3348 43.0196 82.5634 44.8895 85.8656 44.8895H87.6132C87.6132 45.1184 87.6132 48.7532 87.6132 48.8458C87.6382 49.8122 88.3771 50.2595 89.2476 49.8454C89.4019 49.7675 89.5465 49.6732 89.6799 49.564C91.6692 48.0175 95.6651 44.8964 95.6735 44.8895H110.532C114.067 44.8895 115.365 42.8711 115.827 39.5945C115.827 39.5945 117.909 27.9824 117.982 26.9287C118.223 23.5036 115.995 21.6338 112.692 21.6338Z" fill="#FFDF00"/>
<path d="M10.8238 26.7105C7.99824 26.7081 5.21738 26.005 2.73042 24.6642L0 31.4881C1.60822 32.61 4.92425 33.7791 10.0425 33.877C17.3073 33.877 24.0845 30.4152 24.0845 22.4221C24.0845 18.5218 21.452 15.7921 17.4542 13.7458C17.2212 13.616 16.9916 13.4894 16.7666 13.3654L16.7657 13.365C14.5416 12.1393 12.7729 11.1647 12.7729 9.7493C12.7729 8.33555 14.1871 7.16471 17.1116 7.16471C19.8437 7.06864 22.3312 7.99477 23.4045 8.52954L25.9881 1.56051C24.4271 0.828317 22.0882 0 17.7478 0C10.0932 0 3.99777 4.14331 3.99253 11.1228C3.99253 15.6559 7.74733 18.2387 10.9165 19.8953C13.7449 21.4068 15.2079 22.2841 15.2079 23.9407C15.2079 25.8822 13.1103 26.7594 10.8238 26.7105Z" fill="#E30E24"/>
<path d="M38.3729 9.3572L39.6402 2.5332L31.115 4.8731L30.2847 9.35541H27.3585L26.1349 15.6464H29.0663L27.4092 24.0781C27.0683 25.9304 26.9215 27.1974 26.9215 28.5132C26.9215 31.7304 29.1642 33.8763 33.6986 33.8763C35.3103 33.8763 37.2576 33.6806 38.282 33.2909L39.343 26.8094C38.6596 26.8584 37.9778 26.8584 37.3923 26.8584C35.8802 26.8584 35.4414 26.0301 35.4414 25.006C35.4414 24.2756 35.6372 23.0558 35.7823 22.2764L37.1475 15.6482H42.0245L43.2482 9.3572H38.3729Z" fill="#E30E24"/>
<path fill-rule="evenodd" clip-rule="evenodd" d="M56.8518 33.3406C56.8762 32.6582 56.9126 31.9636 56.9495 31.269C56.9864 30.5743 57.0227 29.8797 57.0471 29.1973H56.9495C54.9024 32.7552 51.9273 33.8771 49.3927 33.8771C45.1012 33.8771 41.981 30.5568 41.981 25.3458C41.981 17.3528 47.0503 8.82324 59.3877 8.82324C62.2964 8.84937 65.186 9.29134 67.969 10.1356L65.3854 22.7176C64.8978 25.3021 64.3613 30.2318 64.459 33.3441L56.8518 33.3406ZM58.6083 15.2034C58.1094 15.1128 57.6033 15.0637 57.0966 15.0566C53.2506 15.0566 50.66 20.2728 50.66 23.7818C50.66 26.0239 51.6354 27.1929 53.0495 27.1929C54.5599 27.1929 56.5595 25.6831 57.633 20.0282L58.6083 15.2034Z" fill="#E30E24"/>
<path d="M70.6014 19.5939L67.969 33.3398H76.3109L77.8209 25.1509C78.6515 20.8119 80.3085 16.9133 85.2327 16.9133C85.4411 16.9133 85.6501 16.9273 85.8442 16.9403C86.0121 16.9516 86.1693 16.9622 86.3062 16.9622L87.9633 8.87128C87.4929 8.83056 87.0208 8.81419 86.5492 8.82235C83.2327 8.82235 80.5443 11.0154 78.7962 14.1837H78.6515C78.7962 12.5742 78.8944 10.9665 78.9921 9.35711H71.825C71.7517 9.94943 71.6743 10.752 71.5838 11.6882C71.3695 13.9115 71.0825 16.8885 70.6014 19.5939Z" fill="#E30E24"/>
<path d="M86.4492 41.0278L89.4579 25.0889H92.6916L91.4788 31.4427L91.524 31.4655C92.4225 30.4554 93.5675 29.8036 95.0197 29.8036C96.7262 29.8036 97.7819 30.8818 97.7819 32.7744C97.7647 33.4367 97.6974 34.0968 97.5807 34.749L96.3904 41.04H93.1704L94.2927 35.0233C94.3916 34.5738 94.4446 34.1154 94.4499 33.6551C94.4499 32.9369 94.1355 32.4196 93.3281 32.4196C92.204 32.4196 91.0554 33.7897 90.6327 36.0125L89.6901 41.04L86.4492 41.0278Z" fill="black"/>
<path d="M98.5303 41.0276L100.628 30.0498H103.851L101.764 41.0276H98.5303Z" fill="black"/>
<path d="M101.066 27.1106C101.066 26.8667 101.114 26.6252 101.208 26.4002C101.303 26.1751 101.44 25.9709 101.613 25.7996C101.787 25.6282 101.993 25.4929 102.219 25.4018C102.446 25.3107 102.687 25.2654 102.932 25.2687C103.874 25.2687 104.549 25.8978 104.549 26.8624C104.549 28.007 103.675 28.6816 102.64 28.6816C101.736 28.6816 101.066 28.0752 101.066 27.1106Z" fill="black"/>
<path d="M110.049 30.0574L110.634 26.9766L107.33 27.7385L106.879 30.0574H105.463L105.013 32.5039H106.412L105.559 36.8726C105.419 37.5494 105.345 38.2383 105.338 38.9294C105.338 40.2978 106.268 41.2868 108.192 41.2868C108.887 41.2868 109.695 41.196 110.1 41.0387L110.482 38.5031C110.183 38.5394 109.883 38.554 109.583 38.5468C108.887 38.5468 108.661 38.1658 108.661 37.6276C108.68 37.1574 108.738 36.6897 108.837 36.2296L109.578 32.5039H111.913L112.385 30.0574H110.049Z" fill="black"/>
</svg>
