<svg width="71" height="20" viewBox="0 0 71 20" fill="none" xmlns="http://www.w3.org/2000/svg">
<g clip-path="url(#clip0_3728_368)">
<path d="M53.5528 5.82035H56.1266V6.80496C56.5965 6.15601 57.2231 5.64133 58.4314 5.64133C59.2596 5.64133 59.6624 5.7756 59.998 6.02192L59.0804 8.4386C58.5881 8.14778 58.3196 8.05827 57.7826 8.05827C56.8874 8.05827 56.4175 8.55066 56.1265 9.13256V15.8908H53.5529L53.5528 5.82035ZM13.1507 15.9357H10.8456L8.36169 10.7333L5.87762 15.9357H3.68455L0.417175 5.82053H3.4328C3.4328 5.82053 4.98261 12.1762 5.07212 12.646C5.18392 12.2208 8.38451 5.82053 8.38451 5.82053H8.56256C8.56256 5.82053 11.8304 12.1985 11.9423 12.6686C12.0319 12.1985 13.4695 5.82053 13.4695 5.82053H16.3286L13.1507 15.9357ZM34.6875 12.9369V11.9075C34.2399 11.5719 33.6582 11.4151 32.9198 11.4151C32.0691 11.4151 31.3084 11.8179 31.3084 12.6684C31.3084 13.4293 31.935 13.8545 32.7406 13.8545C33.8147 13.8545 34.3742 13.3845 34.6875 12.9369ZM29.518 6.53669C30.3908 6.02192 31.7559 5.57438 33.0762 5.57438C36.0526 5.57438 37.1044 7.09604 37.1044 9.75904V15.8911H34.8667V14.7274C34.3294 15.4881 33.2554 16.0252 31.8901 16.0252C30.0552 16.0252 28.7348 14.8838 28.7348 12.9369C28.7348 10.7212 30.3685 9.66944 32.4049 9.66944C33.2999 9.66944 34.1951 9.96053 34.6876 10.3186C34.7547 8.64017 34.3072 7.72261 32.8077 7.72261C31.6441 7.72261 30.9056 8.08074 30.167 8.4164L29.518 6.53669ZM49.5276 12.5565C50.4899 12.5565 51.1613 13.4293 51.1613 14.2126C51.1613 15.1301 50.4899 16.003 49.5275 16.003C48.4086 16.003 47.7373 15.1301 47.7373 14.2125C47.7373 13.4293 48.4087 12.5565 49.5276 12.5565ZM70.5833 15.8909H68.0097V14.6601C67.4055 15.3985 66.3538 16.137 64.787 16.137C62.8179 16.137 61.2514 14.8616 61.2514 11.9747V5.82053H63.8248V11.4374C63.8248 12.7802 64.3396 13.7423 65.7494 13.7423C66.5999 13.7423 67.428 13.2725 68.0097 12.5117V5.82053H70.5833V15.8909ZM40.4985 20H43.2556C43.4429 19.6 44.5026 16.3912 44.7077 15.8909L48.6687 5.82053H45.7371L43.4355 12.4593L40.7242 5.82053H37.6361L42.1153 15.5114L40.4985 20ZM16.9322 10.969C18.0624 10.4828 18.151 9.75949 18.6666 8.49756C19.3468 6.83293 20.6713 6.31869 20.6713 6.31869C20.6713 6.31869 19.439 7.26662 18.9426 8.5155C18.5358 9.53909 18.4556 10.6742 17.1452 11.313C16.8319 11.4658 16.558 11.5697 16.3226 11.6406C16.3753 12.3321 16.5518 13.0084 16.8435 13.6375C18.6906 13.3939 19.394 12.048 19.9263 10.4447C20.7429 7.98448 21.6534 7.48329 21.6534 7.48329C21.6534 7.48329 21.0378 7.97489 19.882 11.4716C19.2635 13.3426 17.9084 13.8917 17.0546 14.0486C17.1976 14.3017 17.3593 14.5438 17.5384 14.7728C18.0249 14.8042 18.6155 14.7941 19.1647 14.6547C19.8581 14.4789 20.4706 14.1591 20.8978 13.8943C22.2381 13.0237 23.0201 11.5623 23.5172 10.6544C23.6233 10.4608 24.2065 9.55454 24.4275 8.91216C24.6818 8.173 24.6774 7.56996 24.6005 7.0702C24.9681 7.4103 25.152 7.77695 25.2529 8.01769C25.316 8.16803 25.3737 8.40769 25.4111 8.67107C25.5476 8.63751 25.7342 8.567 25.9279 8.41595C26.3018 8.12434 26.8232 7.45319 25.3676 6.34125C24.4416 5.72187 23.3301 5.3585 22.1325 5.3585C18.9162 5.3585 16.3084 7.96352 16.3037 11.1787C16.5186 11.1263 16.7288 11.0562 16.9322 10.969ZM20.5109 14.5698C20.105 14.7632 19.5875 14.9518 18.9426 15.0784C18.5251 15.1604 18.1586 15.1667 17.8429 15.1331C18.2657 15.5926 18.7593 15.9814 19.3051 16.2848C19.5675 15.9484 20.0604 15.3057 20.5109 14.5698Z" fill="#ABABAB"/>
<path d="M25.4222 0V6.0388C26.0507 6.50695 26.6713 7.14026 26.6192 7.79196C26.5591 8.54347 25.8988 8.84903 25.443 8.97175C25.4498 9.0611 25.4535 9.15067 25.454 9.24028C25.454 9.47116 25.6461 9.62478 25.6461 9.62478C25.8659 9.82209 26.3001 10.1243 26.4071 10.2028C26.5206 10.2941 26.4246 10.4812 26.3497 10.5478C26.2083 10.6476 26.1611 10.6099 26.1271 10.769C26.1214 10.9166 26.1975 10.9767 26.2656 11.0022C26.277 11.0031 26.3043 11.0147 26.3158 11.0145C26.3158 11.0145 26.3505 11.0249 26.3658 11.0681C26.3822 11.1125 26.3783 11.1605 26.3771 11.1741C26.3643 11.3338 26.2099 11.4124 25.9044 11.5263C26.0934 11.5367 26.3519 11.5858 26.2909 11.7819C26.2752 11.8856 26.1984 11.916 26.1224 11.9573C26.0426 11.9958 26.0148 12.1341 26.0106 12.1766C26.0063 12.3551 26.1923 12.4589 26.1802 12.6997C26.1723 12.7968 26.1263 12.952 26.0145 13.0469C25.6215 13.3806 24.5944 13.1985 24.0982 13.3062C23.507 13.4184 22.7764 15.2737 22.6916 16.9891C25.6485 16.7076 27.996 14.2181 27.996 11.1874V0H25.4222Z" fill="#ABABAB"/>
</g>
<defs>
<clipPath id="clip0_3728_368">
<rect width="70.1656" height="20" fill="white" transform="translate(0.417175)"/>
</clipPath>
</defs>
</svg>
