<svg width="38" height="20" viewBox="0 0 38 20" fill="none" xmlns="http://www.w3.org/2000/svg">
<path d="M4.14803 3.29679C4.14803 3.63891 4.36676 3.67001 4.80422 3.67001V4.78967C1.83572 4.91408 2.33568 4.69637 2.30443 2.05271H1.92946C1.92946 1.835 1.92946 1.39957 1.92946 1.18186H2.27318V0.186596C2.74189 0.186596 3.67931 0.186596 4.14803 0.186596V1.18186H4.64799C4.64799 1.39957 4.64799 1.835 4.64799 2.05271H4.14803V3.29679Z" fill="#ABABAB"/>
<path d="M9.1789 2.79917C9.1789 3.39011 9.1789 4.26096 9.1789 4.8208H7.42904C7.42904 4.57198 7.42904 3.14129 7.42904 2.92358C7.42904 2.67476 7.39779 2.39485 7.14781 2.36375C6.99158 2.36375 6.89783 2.42595 6.86659 2.58146C6.80409 2.79917 6.83534 3.2657 6.83534 3.51452V4.78969C6.39788 4.78969 5.52295 4.78969 5.08548 4.78969V0C5.4917 0 6.0854 0 6.86659 0V1.52399C8.02274 0.435425 9.33513 1.33738 9.1789 2.79917Z" fill="#ABABAB"/>
<path d="M11.085 1.08855C11.4287 0.995248 11.9599 1.08855 12.2724 1.15076C12.7099 1.30627 13.0848 1.49288 13.3348 1.77279C13.6473 2.11492 13.7723 2.64365 13.7723 3.04798H11.2412C11.2412 3.32789 11.2725 3.73221 11.3662 3.85662C11.5849 4.16764 11.9287 3.79442 11.8974 3.4834C12.3661 3.4834 13.2098 3.4834 13.741 3.4523C13.741 3.63891 13.7098 3.70111 13.616 3.94993C13.5535 4.07434 13.5535 4.04323 13.491 4.16764C12.9598 4.97629 11.5537 4.94519 10.8975 4.82078L10.7413 4.78968C8.67894 4.35425 9.02266 1.30627 11.085 1.08855ZM12.0537 2.67475V2.64365C11.9599 1.64839 11.2725 1.8039 11.2412 2.70585C11.46 2.64365 11.8349 2.67475 12.0537 2.67475Z" fill="#ABABAB"/>
<path d="M8.52268 13.7159C8.42893 13.9026 8.33519 14.1203 7.89773 14.338C7.27278 14.6179 6.49159 14.7423 5.61667 14.7423C3.11687 14.8356 0.835809 12.9073 0.835809 10.4191C0.742067 7.58887 2.86689 5.22513 5.74166 5.31843C7.14779 5.28733 8.2102 5.81606 9.11638 6.68691L9.24137 5.69165C10.3663 5.69165 12.6161 5.69165 13.741 5.69165C13.7097 7.21565 13.8347 14.4624 13.6785 15.8309C13.5223 17.8525 12.2411 18.8478 10.585 19.5009C10.6163 19.5009 10.1788 19.6875 9.61634 19.8119C9.17887 19.9363 8.58517 20.0607 6.46035 19.9674C6.24161 19.9674 5.58542 19.8741 4.96047 19.7186C2.8044 19.1899 1.21078 18.008 0.898305 15.7065C2.27319 15.7376 5.52292 15.6754 6.96031 15.7065C6.92906 16.173 7.14779 16.9194 7.64775 16.9194C8.02272 16.9194 8.2727 16.7017 8.39769 16.2663C8.58517 15.862 8.61642 14.338 8.52268 13.7159ZM8.84091 10.202C8.87216 8.61583 8.39769 7.55777 7.71024 7.58887C6.67908 7.65107 6.61658 9.14396 6.58534 9.92151C6.58534 10.0148 6.58534 10.2325 6.58534 10.4813C6.52284 12.0986 8.05397 13.9026 8.74141 11.1656C8.78014 11.0114 8.84091 10.5441 8.84091 10.202Z" fill="#ABABAB"/>
<path d="M20.2405 2.39483V4.75858H14.8972C14.8972 3.79442 14.8659 3.23458 14.8659 2.42593L20.2405 2.39483ZM20.2405 15.9864C20.2405 15.9864 14.9909 15.9864 14.8659 15.9864C14.8659 15.9553 14.9909 8.17978 14.9909 5.66053C16.3346 5.66053 18.8344 5.66053 20.178 5.69163C20.2092 5.87824 20.2405 15.7064 20.2405 15.9864Z" fill="#ABABAB"/>
<path d="M21.3341 5.66054C22.4903 5.66054 24.8026 5.66054 25.9275 5.66054C26.0213 6.18927 26.3337 8.05539 26.365 8.1798H26.6774C26.9274 7.02903 27.5211 6.34478 28.2398 5.87825C28.2711 5.84715 28.3648 5.78495 28.5523 5.69165L28.646 5.66054C29.4272 5.31842 29.9584 5.25622 30.6771 5.31842V10.1392C27.1149 9.54828 27.4274 13.4982 27.4899 15.9864C25.9588 15.9864 22.8653 15.9864 21.3341 15.9864C21.3341 13.436 21.3341 8.242 21.3341 5.66054Z" fill="#ABABAB"/>
<path d="M31.7707 2.45707C31.7707 2.45707 35.6767 2.45707 37.0828 2.45707V15.9864H31.7707V2.45707Z" fill="#ABABAB"/>
</svg>
