<svg width="49" height="20" viewBox="0 0 49 20" fill="none" xmlns="http://www.w3.org/2000/svg">
<path d="M2.08753 9.86636C3.07834 10.4027 4.18618 10.6839 5.31184 10.6848C6.22462 10.7044 7.05941 10.3535 7.05941 9.5735C7.05941 8.9109 6.47666 8.56003 5.35013 7.95544C4.08784 7.29283 2.59301 6.26188 2.59301 4.44462C2.59301 1.65721 5.02011 0 8.06897 0C9.79774 0 10.73 0.331302 11.3511 0.623462L10.322 3.41297C9.89452 3.19839 8.90446 2.82795 7.81553 2.86709C6.65002 2.86709 6.08676 3.33469 6.08676 3.90013C6.08676 4.5243 6.94175 4.93388 7.9513 5.49933C9.54361 6.3178 10.5928 7.40956 10.5928 8.96961C10.5928 12.1666 7.89282 13.5505 4.99923 13.5505C2.96202 13.5121 1.64124 13.0417 1 12.5958L2.08753 9.86636Z" fill="#ABABAB"/>
<path d="M16.7887 1.01488L16.2812 3.74567H18.223L17.7356 6.26188H15.7987L15.2549 8.9137C15.1964 9.22543 15.1191 9.71329 15.1191 10.0055C15.1191 10.415 15.2939 10.7463 15.8954 10.7463C16.1287 10.7463 16.4009 10.7463 16.6725 10.7268L16.245 13.3199C15.8377 13.4757 15.0613 13.5533 14.4194 13.5533C12.6133 13.5533 11.7201 12.6957 11.7201 11.4089C11.7201 10.8826 11.7786 10.3759 11.9143 9.63501L12.5751 6.26188H11.4075L11.8948 3.74567H13.0603L13.3904 1.95217L16.7887 1.01488Z" fill="#ABABAB"/>
<path d="M23.6446 13.3366C23.6641 12.7908 23.7031 12.2253 23.7219 11.6794H23.6836C22.8676 13.1025 21.6833 13.5505 20.6731 13.5505C18.9645 13.5505 17.721 12.2225 17.721 10.139C17.721 6.94196 19.7401 3.52969 24.6542 3.52969C25.8126 3.54095 26.9635 3.71817 28.0721 4.056L27.043 9.08843C26.8488 10.1215 26.635 12.0939 26.674 13.3387L23.6446 13.3366ZM24.3409 6.08365C24.142 6.04799 23.9406 6.02859 23.7386 6.02564C22.2069 6.02564 21.1751 8.1113 21.1751 9.51549C21.1751 10.4122 21.5636 10.8798 22.1268 10.8798C22.7291 10.8798 23.5249 10.2752 23.9524 8.01415L24.3409 6.08365Z" fill="#ABABAB"/>
<path d="M28.0721 13.3367L29.1206 7.83872C29.3928 6.30103 29.5091 4.54388 29.608 3.74428H32.4626C32.4236 4.38801 32.3846 5.03104 32.3268 5.67478H32.3846C33.0808 4.40758 34.1524 3.5297 35.4724 3.5297C35.6604 3.52645 35.8484 3.53298 36.0357 3.54927L35.3757 6.7861C35.2594 6.7861 35.1034 6.76653 34.9482 6.76653C32.9868 6.76653 32.3268 8.32589 31.9968 10.0614L31.3945 13.3367H28.0721Z" fill="#ABABAB"/>
<path fill-rule="evenodd" clip-rule="evenodd" d="M36.0587 8.65439H45.8855C47.2007 8.65439 48.0884 9.40226 47.993 10.7715C47.9637 11.1937 47.1345 15.8382 47.1345 15.8382C46.9507 17.148 46.4334 17.9553 45.0256 17.9553H39.1075C39.1033 17.9588 37.5117 19.2071 36.7194 19.8257C36.6663 19.8693 36.6087 19.9071 36.5474 19.9382C36.2007 20.1039 35.9062 19.9249 35.8965 19.5384V17.9553H35.2002C33.885 17.9553 32.9973 17.2081 33.0913 15.8382C33.1205 15.416 33.9497 10.7722 33.9497 10.7722C34.1336 9.46168 34.6509 8.65439 36.0587 8.65439ZM36.631 10.0362L35.4327 16.4113L36.718 16.4162L37.0933 14.4046C37.2618 13.5163 37.7199 12.9683 38.1669 12.9683C38.4886 12.9683 38.6139 13.1752 38.6139 13.4625C38.6119 13.6466 38.5909 13.83 38.5512 14.0097L38.1042 16.4162H39.3923L39.8664 13.9C39.9129 13.6391 39.9397 13.3751 39.9465 13.1102C39.9465 12.3532 39.5267 11.922 38.8464 11.922C38.2678 11.922 37.8118 12.182 37.4539 12.5867L37.4365 12.5776L37.919 10.0362H36.631ZM40.2445 16.4113L41.08 12.0205H42.368L41.5325 16.4113H40.2445ZM41.2554 10.8442C41.255 10.7466 41.2739 10.6498 41.3111 10.5596C41.3483 10.4694 41.4031 10.3875 41.4722 10.3188C41.5413 10.25 41.6234 10.1958 41.7136 10.1593C41.8038 10.1228 41.9004 10.1047 41.9976 10.1061C42.3729 10.1061 42.6416 10.3577 42.6416 10.7436C42.6416 11.2014 42.2935 11.4712 41.8814 11.4712C41.5235 11.4733 41.2554 11.2307 41.2554 10.8442ZM44.8327 12.0205L45.0653 10.7904L43.7529 11.0986L43.5739 12.0233H43.0072L42.8282 13.0018H43.3852L43.0455 14.7527C42.9893 15.0218 42.9593 15.2956 42.9557 15.5705C42.9557 16.1178 43.3261 16.5127 44.0919 16.5127C44.369 16.5127 44.6914 16.477 44.8522 16.4141L45.004 15.3992C44.8853 15.4144 44.7657 15.4205 44.6461 15.4174C44.369 15.4174 44.2799 15.2651 44.2799 15.0491C44.2871 14.861 44.3104 14.674 44.3495 14.4899L44.6448 12.9991H45.5749L45.7629 12.0205H44.8327Z" fill="#ABABAB"/>
</svg>
