<svg width="93" height="20" viewBox="0 0 93 20" fill="none" xmlns="http://www.w3.org/2000/svg">
<path d="M26.8265 0.8V0H21.138V0.8H23.8684L19.7413 15.1L15.7566 0.8H18.211V0H11.0064V0.8H13.2531L9.12495 15.1L5.13932 0.8H7.59472V0H0.417175V0.8H2.22636L7.5897 20H8.48376L13.5049 2.7L13.6354 2.1L18.206 20H19.1031L24.6872 0.8H26.8265ZM47.3386 16.865V17C47.3386 17 47.4279 15.795 47.3386 16.865L47.3487 5.4H48.5759V4.9H45.1221L41.4625 15L37.9927 4.9H34.5639V5.4H35.7731L35.7721 17H34.6372V17.6H38.2365V17H36.5387V6L40.6096 18H41.1756L45.4572 6.1L45.4381 17H44.1156V17.6H48.7103V17H47.3276L47.3386 16.865ZM55.2507 4.6H54.5383L50.5687 17H49.3254V17.6H53.0421V17H51.253L52.4652 13.2H55.8517L56.9144 17H55.5036V17.6H59.9999V17H58.7838L55.2507 4.6ZM67.0099 5.4H68.8602V13.8L63.4668 4.9H60.32V5.4H61.4368V17H60.32V17.6H63.8802V17H62.0058V6.5L68.8542 17.9L68.8602 17.8V17.9H69.4272V5.4H70.6443V4.9H67.0099V5.4ZM28.8725 4.8H28.8564C25.9364 4.8 24.2256 6.6 24.2156 9.9H24.2125V12.7H24.2156C24.2316 16 25.9385 17.8 28.8564 17.8H28.8725C31.7905 17.8 33.4973 16 33.5134 12.7H33.5184V9.9H33.5134C33.5043 6.6 31.7935 4.8 28.8725 4.8ZM80.9486 7.2C80.9275 7.2 80.9124 7.2 80.8924 7.1H80.8843C80.8211 7.1 80.7519 7 80.6807 7C80.4467 6.86401 80.1798 6.79481 79.909 6.8C78.9768 6.8 78.5403 7.2 78.1299 7.8C77.863 8.2 77.5811 8.8 77.4185 9.1C77.4085 8.9 77.3633 8.6 77.1606 8C76.8907 7.3 76.6348 7.1 76.5937 7H74.3891V7.6H75.7849V16H74.3891V16.5H79.4033V16H77.4225V10.2C77.6382 9.6 77.9674 9 78.4591 8.2C78.9608 7.6 79.2187 7.4 79.5056 7.4C79.6321 7.4 79.6351 8 79.6291 8.3C79.6291 8.3 79.6271 8.4 79.623 8.4C79.623 9.7 79.9943 10 80.4529 10C80.9084 10 81.2777 9.7 81.2777 8.4C81.2777 8 81.1523 7.5 80.9606 7.2H80.9486ZM31.2386 14.2C31.2386 16.9 30.4549 17.3 28.8564 17.3H28.8534C27.268 17.3 26.4793 16.9 26.4622 14.2V8.5C26.4743 5.8 27.268 5.4 28.8534 5.4H28.8564C30.4549 5.4 31.2386 5.8 31.2386 8.5H31.2366V14.2H31.2386ZM52.6227 12.7L54.1991 7.8H54.3235L55.7093 12.7H52.6227ZM72.0351 14.1C71.3528 14.1 70.7989 14.7 70.7989 15.4C70.7989 16.2 71.3528 16.8 72.0351 16.8C72.7174 16.8 73.2733 16.2 73.2733 15.4C73.2733 14.7 72.7174 14.1 72.0351 14.1ZM91.7505 16V16.5H89.4527C89.0051 16.5 88.7041 15.9 88.7262 15H88.7252C88.5476 15.3 87.6053 16.8 85.9266 16.8C83.421 16.8 83.4883 14.5 83.4883 14.5V7.6H82.0443V7H85.1299V15.4C85.1299 15.8 85.3747 16.2 86.1433 16.2C87.6354 16.2 88.7021 14.2 88.7252 14.2V7H90.3658V15.7C90.3658 15.7 90.4029 16 90.6487 16H91.7505Z" fill="#ABABAB"/>
</svg>
