<svg width="125" height="20" viewBox="0 0 125 20" fill="none" xmlns="http://www.w3.org/2000/svg">
<path d="M0.680544 19.8047L0.709859 19.6777C0.709859 19.6777 0.726146 19.6029 0.758719 19.4531C0.791292 19.3034 0.801064 19.2057 0.788034 19.1602L0.797806 18.9648L0.836894 9.70703L0.797806 8.53516V8.51562V8.49609C0.797806 8.32682 0.778263 8.15755 0.739175 7.98828C0.700087 7.81901 0.647971 7.65625 0.582825 7.5L5.35151 5V7.5C5.37757 7.47396 5.49809 7.32747 5.71307 7.06055C5.92805 6.79362 6.22446 6.51693 6.60231 6.23047C6.98016 5.94401 7.43618 5.69661 7.97038 5.48828C8.50457 5.27995 9.0974 5.21484 9.74886 5.29297C11.0648 5.44922 11.8466 5.85937 12.0941 6.52344C12.3417 7.1875 12.4785 7.51953 12.5045 7.51953C12.5306 7.50651 12.6479 7.36979 12.8563 7.10937C13.0648 6.84896 13.3547 6.57227 13.726 6.2793C14.0974 5.98633 14.5436 5.72917 15.0648 5.50781C15.5859 5.28646 16.1657 5.21484 16.8042 5.29297C17.9768 5.4362 18.7227 5.82682 19.0419 6.46484C19.3611 7.10286 19.5208 7.57812 19.5208 7.89062V19.1992L19.5403 19.3359C19.5403 19.3359 19.5468 19.3945 19.5598 19.5117L19.6576 19.8047H18.8954H17.2341H15.5827L14.8302 19.8047C14.8563 19.7786 14.8791 19.7428 14.8986 19.6973C14.9182 19.6517 14.9345 19.6029 14.9475 19.5508C14.9605 19.4727 14.9703 19.3783 14.9768 19.2676L14.9866 19.1016L14.9084 10.0195C14.8954 9.74609 14.8009 9.51172 14.625 9.31641C14.4491 9.12109 14.2309 8.9974 13.9703 8.94531C13.4361 8.84115 13.0583 9.02018 12.8368 9.48242L12.5045 10.1758L12.4068 19.1797C12.4198 19.2448 12.4296 19.3099 12.4361 19.375C12.4426 19.4401 12.4589 19.5052 12.485 19.5703L12.5632 19.8047H7.67722C7.69025 19.7656 7.70654 19.7201 7.72608 19.668C7.74562 19.6159 7.76191 19.5638 7.77494 19.5117V19.4336V19.3555V19.2773V19.1992L7.77494 10.0586C7.76191 9.77214 7.65442 9.528 7.45247 9.32617C7.25051 9.12435 7.01273 9.01042 6.73912 8.98438C6.34824 8.98438 6.03554 9.18294 5.80102 9.58008C5.56649 9.97721 5.42317 10.3125 5.37105 10.5859L5.29288 19.1797L5.37105 19.5312L5.46877 19.8047H4.71634H3.06489H1.40366H0.641456H0.680544ZM25.2275 16.6602C25.7096 17.3633 26.2243 17.5814 26.7715 17.3145C27.3187 17.0475 27.6119 16.8555 27.651 16.7383L27.4751 16.0937C27.4751 16.0937 27.3415 15.6152 27.0744 14.6582C26.8073 13.7012 26.664 13.2161 26.6445 13.2031C26.6249 13.1901 26.5435 12.9622 26.4002 12.5195L25.3448 13.5156C25.3448 13.5156 25.2992 14.5573 25.208 16.6406L25.2275 16.6602ZM30.5044 19.7461C30.3089 19.694 30.12 19.6322 29.9376 19.5605C29.7552 19.4889 29.5858 19.4076 29.4295 19.3164C29.247 19.1732 29.0744 19.0299 28.9115 18.8867C28.7487 18.7435 28.5891 18.6003 28.4327 18.457C28.3936 18.4701 28.3513 18.4896 28.3057 18.5156C28.2601 18.5417 28.2177 18.5677 28.1787 18.5937C27.9181 18.776 27.6347 18.9583 27.3285 19.1406C27.0223 19.3229 26.7064 19.4987 26.3806 19.668C26.107 19.7852 25.8367 19.8698 25.5696 19.9219C25.3025 19.974 25.0256 20 24.7389 20C24.4653 20 24.195 19.974 23.9279 19.9219C23.6608 19.8698 23.4035 19.7917 23.1559 19.6875C22.4263 19.349 21.8367 18.8379 21.3872 18.1543C20.9377 17.4707 20.7129 16.7057 20.7129 15.8594V15.7812V15.7031C20.7129 15.4167 20.7781 14.7917 20.9084 13.8281C21.0387 12.8646 21.6185 12.0573 22.6478 11.4062C23.1559 11.1068 23.7031 10.8561 24.2894 10.6543C24.8758 10.4525 25.4881 10.3125 26.1266 10.2344C26.778 10.1693 26.8432 9.78841 26.322 9.0918C25.8008 8.39518 25.2406 7.90365 24.6412 7.61719C24.4718 7.55208 24.2927 7.49675 24.1038 7.45117C23.9149 7.4056 23.7162 7.38281 23.5077 7.38281C23.2471 7.38281 22.9898 7.41862 22.7357 7.49023C22.4816 7.56185 22.2504 7.66276 22.0419 7.79297L22.0614 5.54687C22.5305 5.36458 23.0321 5.21484 23.5663 5.09766C24.1005 4.98047 24.6477 4.91536 25.208 4.90234C25.2471 4.90234 25.2862 4.89909 25.3253 4.89258C25.3643 4.88607 25.4034 4.88281 25.4425 4.88281C25.9376 4.88281 26.4165 4.93164 26.879 5.0293C27.3415 5.12695 27.7878 5.26693 28.2177 5.44922C28.4653 5.57943 28.8822 5.91797 29.4685 6.46484C30.0549 7.01172 30.4783 7.96224 30.7389 9.31641L31.5597 14.4727C31.6249 14.8893 31.6965 15.3353 31.7747 15.8105C31.8529 16.2858 32.0027 16.6797 32.2242 16.9922C32.3024 17.1484 32.4131 17.2721 32.5565 17.3633C32.6998 17.4544 32.8626 17.5 33.0451 17.5H33.0939H33.1428H33.2014V19.8242H32.8008H32.361C32.0483 19.8242 31.7324 19.8177 31.4132 19.8047C31.0939 19.7917 30.778 19.7721 30.4653 19.7461H30.5044ZM33.9636 19.8242L34.0809 19.6094L34.1395 19.3164L34.1786 8.76953C34.1656 8.57422 34.146 8.38867 34.12 8.21289C34.0939 8.03711 34.0613 7.86458 34.0222 7.69531L33.8464 7.30469L38.8886 4.80469V6.91406C39.0059 6.79687 39.1525 6.63086 39.3284 6.41602C39.5043 6.20117 39.6965 5.97656 39.9049 5.74219C40.1525 5.42969 40.4587 5.17904 40.8235 4.99023C41.1883 4.80143 41.5857 4.70703 42.0157 4.70703H42.0254H42.0547C42.3023 4.70703 42.5303 4.7526 42.7388 4.84375C42.9472 4.9349 43.1362 5.05859 43.3055 5.21484L42.3088 8.92578C42.1134 8.8737 41.9016 8.83464 41.6736 8.80859C41.4456 8.78255 41.2144 8.76953 40.9798 8.76953H40.7453C40.7453 8.76953 40.6671 8.77604 40.5108 8.78906C40.2502 8.8151 40.0092 8.903 39.7877 9.05273C39.5662 9.20247 39.3903 9.39453 39.26 9.62891C39.1557 9.94141 39.0678 10.2702 38.9961 10.6152C38.9245 10.9603 38.8886 11.3151 38.8886 11.6797V19.2969C38.9017 19.362 38.9147 19.4238 38.9277 19.4824C38.9408 19.541 38.9603 19.5964 38.9864 19.6484L39.0645 19.8047H33.9636V19.8242ZM43.3837 19.8242C43.3968 19.7852 43.4098 19.7396 43.4228 19.6875C43.4358 19.6354 43.4489 19.5898 43.4619 19.5508C43.4749 19.5117 43.4814 19.4759 43.4814 19.4434V19.3359V19.2383C43.4814 19.2383 43.4749 19.2057 43.4619 19.1406V7.1875L48.2697 4.74609V19.1211C48.2697 19.1992 48.2729 19.2741 48.2794 19.3457C48.286 19.4173 48.2957 19.4857 48.3088 19.5508L48.4456 19.8437L43.3642 19.8437L43.3837 19.8242ZM53.9765 12.1289L57.2012 11.0742V10.4883C57.2012 10.4883 57.1556 10.0586 57.0644 9.19922C56.9732 8.33984 56.8136 7.91667 56.5855 7.92969C56.3575 7.94271 56.009 7.77344 55.54 7.42187C55.0839 7.46094 54.7452 7.72786 54.5237 8.22266C54.3022 8.71745 54.1491 9.25456 54.0644 9.83398C53.9797 10.4134 53.9406 10.9408 53.9471 11.416C53.9537 11.8913 53.9634 12.1289 53.9765 12.1289ZM57.0839 17.2656C58.1914 17.3568 58.9894 17.2526 59.478 16.9531L60.2109 16.5039V18.9844C60.1458 19.0365 59.8038 19.1797 59.1849 19.4141C58.566 19.6484 57.6507 19.7786 56.439 19.8047C56.3608 19.8177 56.2794 19.8242 56.1947 19.8242H55.9308C55.3315 19.8242 54.7615 19.7493 54.2207 19.5996C53.68 19.4499 53.1686 19.2383 52.6866 18.9648C51.8657 18.3789 51.1784 17.6465 50.6247 16.7676C50.071 15.8887 49.7159 14.9219 49.5596 13.8672C49.5205 13.6198 49.4912 13.3691 49.4716 13.1152C49.4521 12.8613 49.4423 12.6042 49.4423 12.3437C49.4423 11.5755 49.527 10.8301 49.6964 10.1074C49.8657 9.38477 50.1068 8.70443 50.4195 8.06641C50.8625 7.23307 51.4716 6.52669 52.2468 5.94727C53.0221 5.36784 53.8983 4.98047 54.8755 4.78516C55.6963 4.64193 56.4194 4.63216 57.0448 4.75586C57.6702 4.87956 58.2142 5.07487 58.6767 5.3418C59.1393 5.60872 59.5204 5.91471 59.82 6.25977C60.1197 6.60482 60.3542 6.92708 60.5236 7.22656C60.8624 7.89062 61.1555 8.60352 61.4031 9.36523C61.6506 10.127 61.8396 10.918 61.9699 11.7383C62.035 12.1419 61.68 12.4967 60.9047 12.8027C60.1295 13.1087 59.263 13.3691 58.3054 13.584C57.3478 13.7988 56.465 13.9616 55.6572 14.0723C54.8494 14.1829 54.439 14.2513 54.426 14.2773C54.4129 14.3294 54.5823 14.8112 54.9341 15.7227C55.2859 16.6341 56.009 17.1354 57.1035 17.2266L57.0839 17.2656ZM46.1003 4.58984H46.0221H45.944C45.2795 4.58984 44.7094 4.36523 44.2339 3.91602C43.7583 3.4668 43.4945 2.92318 43.4424 2.28516C43.4424 1.67318 43.6932 1.13932 44.1948 0.683594C44.6964 0.227865 45.3316 0 46.1003 0C46.869 0 47.5075 0.221354 48.0156 0.664062C48.5237 1.10677 48.7778 1.63412 48.7778 2.24609C48.7257 2.91016 48.4586 3.47005 47.9765 3.92578C47.4944 4.38151 46.9146 4.60937 46.2371 4.60937H46.1687H46.1003V4.58984ZM97.0705 19.8242C97.0966 19.7852 97.1194 19.7396 97.1389 19.6875C97.1585 19.6354 97.1747 19.5898 97.1878 19.5508V19.2383V7.46094L102.015 4.84375V19.1797C102.028 19.2578 102.041 19.3294 102.054 19.3945C102.067 19.4596 102.087 19.5247 102.113 19.5898L102.152 19.707C102.152 19.707 102.171 19.7461 102.211 19.8242L97.051 19.8242H97.0705ZM93.4744 19.707C93.266 19.668 93.0738 19.6126 92.8979 19.541C92.722 19.4694 92.5494 19.3815 92.38 19.2773C92.2106 19.1471 92.0445 19.0104 91.8816 18.8672C91.7188 18.724 91.5592 18.5742 91.4028 18.418L91.266 18.4863C91.266 18.4863 91.2269 18.5091 91.1487 18.5547C90.8751 18.75 90.582 18.9421 90.2693 19.1309C89.9566 19.3197 89.6374 19.4987 89.3116 19.668C89.038 19.7721 88.7677 19.8503 88.5006 19.9023C88.2335 19.9544 87.9631 19.9805 87.6895 19.9805C87.4028 19.9805 87.1227 19.9544 86.8491 19.9023C86.5755 19.8503 86.3149 19.7721 86.0674 19.668C85.3507 19.3294 84.7644 18.8184 84.3084 18.1348C83.8524 17.4512 83.6244 16.6797 83.6244 15.8203V15.752V15.6836C83.6244 15.3971 83.6928 14.7721 83.8296 13.8086C83.9664 12.8451 84.5429 12.0378 85.5592 11.3867C86.0674 11.0872 86.6178 10.8366 87.2107 10.6348C87.8035 10.4329 88.4191 10.293 89.0575 10.2148C89.696 10.1367 89.7546 9.7526 89.2334 9.0625C88.7123 8.3724 88.152 7.88411 87.5527 7.59766C87.3833 7.51953 87.2042 7.46094 87.0152 7.42187C86.8263 7.38281 86.6341 7.36328 86.4387 7.36328C86.1651 7.36328 85.9045 7.39909 85.6569 7.4707C85.4094 7.54232 85.1749 7.64323 84.9534 7.77344L84.9729 5.52734C85.4419 5.34505 85.9436 5.19531 86.4778 5.07812C87.012 4.96094 87.5657 4.89583 88.139 4.88281H88.2367H88.354C88.8491 4.88281 89.3312 4.93164 89.8002 5.0293C90.2693 5.12695 90.7123 5.26693 91.1292 5.44922C91.3898 5.56641 91.81 5.89844 92.3898 6.44531C92.9696 6.99219 93.3963 7.94271 93.6699 9.29687L94.4907 14.4531C94.5428 14.8698 94.6113 15.3158 94.6959 15.791C94.7806 16.2663 94.9272 16.6602 95.1357 16.9727C95.2269 17.1289 95.3441 17.2526 95.4875 17.3437C95.6308 17.4349 95.7936 17.4805 95.9761 17.4805H96.064C96.064 17.4805 96.0933 17.474 96.1519 17.4609L96.1324 19.8242C96.0151 19.8242 95.8848 19.8275 95.7415 19.834C95.5982 19.8405 95.4484 19.8437 95.292 19.8437C94.9793 19.8437 94.6666 19.8372 94.3539 19.8242C94.0412 19.8112 93.7285 19.7917 93.4158 19.7656L93.4744 19.707ZM89.6048 12.5781C89.0966 12.8255 88.6862 13.1868 88.3735 13.6621C88.0608 14.1374 87.9045 14.6745 87.9045 15.2734C87.9045 15.5078 87.9338 15.7389 87.9924 15.9668C88.051 16.1947 88.126 16.4128 88.2172 16.6211C88.3214 16.8034 88.4745 16.9564 88.6764 17.0801C88.8784 17.2038 89.1032 17.2656 89.3507 17.2656C89.4028 17.2656 89.4582 17.2624 89.5168 17.2559C89.5755 17.2493 89.6374 17.2396 89.7025 17.2266C89.8588 17.1745 90.0087 17.1061 90.152 17.0215C90.2953 16.9368 90.4191 16.8294 90.5233 16.6992C90.5103 16.6211 90.4614 16.3737 90.3768 15.957C90.2921 15.5404 90.1976 15.0911 90.0934 14.6094C89.9891 14.1276 89.8914 13.6849 89.8002 13.2812C89.709 12.8776 89.6439 12.6432 89.6048 12.5781ZM99.748 4.66797H99.6894H99.6112C98.9467 4.66797 98.3767 4.44336 97.9011 3.99414C97.4256 3.54492 97.1617 3.0013 97.1096 2.36328C97.1096 1.73828 97.3637 1.20117 97.8718 0.751953C98.3799 0.302734 99.0119 0.078125 99.7675 0.078125C100.536 0.078125 101.178 0.299479 101.693 0.742187C102.207 1.1849 102.465 1.71224 102.465 2.32422C102.412 2.97526 102.142 3.52865 101.654 3.98437C101.165 4.4401 100.588 4.66797 99.9239 4.66797H99.8457H99.7675H99.748ZM76.6668 19.2383L75.8753 19.5508C75.8753 19.5508 75.0381 19.6615 73.3639 19.8828C71.9828 19.9089 70.9665 19.7201 70.3151 19.3164L69.3379 18.7109L68.9861 18.4082C68.9861 18.4082 68.7255 18.0794 68.2043 17.4219C67.6832 16.7643 67.4063 16.1686 67.3737 15.6348C67.3411 15.1009 67.175 14.2057 66.8754 12.9492C66.8363 10.8919 67.0643 9.41406 67.5594 8.51562C68.0545 7.61719 68.3932 7.05729 68.5757 6.83594C69.1099 6.1849 69.7678 5.66732 70.5496 5.2832C71.3313 4.89909 72.1717 4.70703 73.0707 4.70703H73.1782H73.2857C73.846 4.78516 74.3834 4.88281 74.8981 5C75.4127 5.11719 75.9111 5.25391 76.3932 5.41016L76.2759 7.83203C75.9893 7.72786 75.6798 7.63346 75.3476 7.54883C75.0153 7.46419 74.6733 7.39583 74.3215 7.34375C73.9176 7.35677 73.5496 7.44792 73.2173 7.61719C72.8851 7.78646 72.6147 8.01432 72.4062 8.30078C72.1717 8.5612 71.947 9.04948 71.732 9.76562C71.517 10.4818 71.4291 11.2695 71.4681 12.1289C71.4942 12.7539 71.5854 13.3561 71.7418 13.9355C71.8981 14.515 72.1066 15.0651 72.3672 15.5859C72.4323 15.7031 72.6831 15.9993 73.1196 16.4746C73.5561 16.9499 74.1326 17.2135 74.8492 17.2656H74.8688H74.9079C75.2336 17.2656 75.5495 17.2168 75.8557 17.1191C76.1619 17.0215 76.4453 16.8815 76.7059 16.6992L76.6668 19.2383ZM77.7026 19.8242L77.7417 19.5898C77.7547 19.5378 77.7645 19.4792 77.771 19.4141C77.7775 19.349 77.7808 19.2839 77.7808 19.2187V3.96484C77.7678 3.78255 77.7287 3.60677 77.6635 3.4375C77.5984 3.26823 77.5072 3.11849 77.3899 2.98828C77.3378 2.92318 77.5788 2.74088 78.113 2.44141C78.6472 2.14193 79.2466 1.82943 79.9111 1.50391C80.5755 1.17838 81.1879 0.888672 81.7482 0.634766C82.3084 0.380859 82.582 0.266928 82.569 0.292969V19.1602L82.6081 19.3945C82.6081 19.3945 82.6276 19.4727 82.6667 19.6289C82.6667 19.668 82.6798 19.7135 82.7058 19.7656L82.7449 19.8437L77.7026 19.8242ZM116.399 12.0508C117.051 11.8815 117.653 11.7057 118.207 11.5234C118.761 11.3411 119.298 11.1458 119.819 10.9375C119.806 10.9245 119.787 10.7259 119.761 10.3418C119.735 9.95768 119.666 9.53776 119.556 9.08203C119.445 8.6263 119.269 8.21615 119.028 7.85156C118.787 7.48698 118.432 7.32422 117.963 7.36328C117.507 7.40234 117.158 7.66927 116.917 8.16406C116.676 8.65885 116.51 9.19596 116.419 9.77539C116.328 10.3548 116.289 10.8822 116.302 11.3574C116.315 11.8327 116.347 12.0703 116.399 12.0703V12.0508ZM103.442 7.28516L108.523 4.72656V5.82031V6.91406L109.52 5.74219C109.767 5.42969 110.074 5.18229 110.438 5C110.803 4.81771 111.201 4.72656 111.631 4.72656C112.152 4.73958 112.487 4.83073 112.637 5L112.862 5.25391L111.885 8.86719C111.702 8.82812 111.507 8.79883 111.298 8.7793C111.09 8.75977 110.881 8.75 110.673 8.75C110.569 8.75 110.471 8.75325 110.38 8.75977C110.289 8.76628 110.191 8.76953 110.087 8.76953C109.826 8.80859 109.585 8.903 109.364 9.05273C109.142 9.20247 108.966 9.39453 108.836 9.62891C108.693 9.92839 108.569 10.2441 108.465 10.5762C108.36 10.9082 108.282 11.2565 108.23 11.6211L108.504 19.1602L108.523 19.3262C108.523 19.3262 108.53 19.3945 108.543 19.5312C108.556 19.5833 108.572 19.6322 108.592 19.6777C108.611 19.7233 108.634 19.7656 108.66 19.8047H103.539C103.566 19.7526 103.585 19.7005 103.598 19.6484C103.611 19.5964 103.624 19.5378 103.637 19.4727C103.663 19.3685 103.68 19.2546 103.686 19.1309C103.693 19.0072 103.696 18.8802 103.696 18.75V8.78906V8.76953C103.696 8.60026 103.689 8.43425 103.676 8.27148C103.663 8.10872 103.644 7.94922 103.618 7.79297C103.592 7.70182 103.562 7.61068 103.53 7.51953C103.497 7.42839 103.461 7.33724 103.422 7.24609L103.442 7.28516ZM119.448 17.2266C120.543 17.3307 121.337 17.2201 121.832 16.8945L122.575 16.4062V18.9453C122.51 18.9974 122.168 19.1406 121.549 19.375C120.93 19.6094 120.015 19.7396 118.803 19.7656C118.725 19.7786 118.64 19.7852 118.549 19.7852H118.276C117.689 19.7852 117.122 19.7103 116.575 19.5605C116.028 19.4108 115.52 19.1992 115.051 18.9258C114.217 18.3529 113.523 17.627 112.969 16.748C112.416 15.8691 112.061 14.9089 111.904 13.8672C111.865 13.6198 111.836 13.3691 111.816 13.1152C111.797 12.8613 111.787 12.6042 111.787 12.3437C111.787 11.5755 111.868 10.8301 112.031 10.1074C112.194 9.38477 112.432 8.70443 112.745 8.06641C113.188 7.23307 113.797 6.52669 114.572 5.94727C115.347 5.36784 116.223 4.98047 117.201 4.78516C117.37 4.75911 117.546 4.73633 117.728 4.7168C117.911 4.69727 118.093 4.6875 118.276 4.6875C119.227 4.6875 120.106 4.91862 120.914 5.38086C121.722 5.8431 122.367 6.45182 122.849 7.20703C123.044 7.48047 123.227 7.87109 123.396 8.37891C123.565 8.88672 123.715 9.39453 123.845 9.90234C123.976 10.4102 124.07 10.8529 124.129 11.2305C124.188 11.6081 124.204 11.8099 124.178 11.8359C124.152 11.862 123.754 11.9987 122.986 12.2461C122.217 12.4935 121.373 12.7637 120.455 13.0566C119.536 13.3496 118.692 13.6198 117.924 13.8672C117.155 14.1146 116.771 14.2513 116.771 14.2773C116.758 14.3164 116.924 14.7917 117.269 15.7031C117.614 16.6146 118.341 17.1224 119.448 17.2266Z" fill="#ABABAB"/>
</svg>
