<svg width="74" height="20" viewBox="0 0 74 20" fill="none" xmlns="http://www.w3.org/2000/svg">
<path d="M15.2738 11.0115L15.2967 8.55172C15.2967 5.33333 13.899 3.97701 11.7911 3.97701C9.82062 3.97701 8.58335 5.4023 7.87306 6.89655C7.46064 4.85058 6.22336 3.97701 4.52784 3.97701C2.46572 3.97701 1.22845 5.51724 0.518161 7.08046L0.541074 4.34483C0.541074 4.29885 0.518161 4.27586 0.472336 4.27586H0.151562C0.105737 4.27586 0.0828247 4.29885 0.0828247 4.34483L0.12865 11.0345L0.0828247 16.023C0.0828247 16.069 0.105737 16.092 0.151562 16.092H0.472336C0.518161 16.092 0.541074 16.069 0.541074 16.023L0.518161 11.0115V7.81609C1.43466 5.74713 2.6032 4.36782 4.48202 4.36782C6.33793 4.36782 7.59811 5.49425 7.59811 8.62069V11.0115L7.5752 16.023C7.5752 16.069 7.59811 16.092 7.64394 16.092H7.96471C8.01053 16.092 8.03345 16.069 8.03345 16.023L8.01053 11.0115L8.03345 8.55172C8.03345 8.16092 8.01053 7.7931 7.96471 7.44828C8.8583 5.58621 9.95809 4.39081 11.7453 4.39081C13.6012 4.39081 14.8614 5.51724 14.8614 8.62069V11.0345L14.8384 16.023C14.8384 16.069 14.8614 16.092 14.9072 16.092H15.228C15.2738 16.092 15.2967 16.069 15.2967 16.023L15.2738 11.0115Z" fill="#ABABAB"/>
<path d="M18.8898 20H19.1648C19.2106 20 19.2335 20 19.2564 19.954L24.6867 4.34483C24.7096 4.29885 24.6867 4.25287 24.6179 4.25287H24.2972C24.2513 4.25287 24.2284 4.27586 24.2055 4.29885L20.4021 15.4253L16.1174 4.29885C16.0945 4.27586 16.0716 4.25287 16.0258 4.25287H15.705C15.6363 4.25287 15.6363 4.29885 15.6363 4.34483L20.2188 16.069L18.844 19.931C18.8211 19.977 18.844 20 18.8898 20Z" fill="#ABABAB"/>
<path d="M26.0065 10.069C26.0065 7.1954 27.175 4.87356 29.8329 4.87356C32.2158 4.87356 33.6134 6.91954 33.5905 10.2989C33.5676 13.7011 32.0783 15.4253 29.787 15.4253C27.175 15.4253 26.0065 13.0345 26.0065 10.069ZM34.5299 16.092C34.5986 16.092 34.6445 16.046 34.6445 15.977L34.5986 6.45977L34.6445 0.114943C34.6445 0.0459779 34.5986 0 34.5299 0H33.5905C33.5218 0 33.4759 0.0459779 33.4759 0.114943L33.4988 6.48276C32.7427 4.87356 31.3909 4 29.5808 4C26.5335 4 24.8609 6.78161 24.8609 10.1839C24.8609 13.6322 26.5106 16.3218 29.5808 16.3218C31.4596 16.3218 32.8115 15.3333 33.5447 13.7241L33.4988 15.977C33.4988 16.046 33.5447 16.092 33.6134 16.092H34.5299Z" fill="#ABABAB"/>
<path d="M44.6547 11.908C44.586 11.908 44.5401 11.954 44.5172 12.023C44.1506 14.1609 42.9592 15.4483 40.8054 15.4483C38.0101 15.4483 36.5895 13.4943 36.5895 10.1609L45.5941 10.1379C45.6629 10.1379 45.7087 10.092 45.7087 10.023C45.6629 6.2069 43.784 4 40.645 4C37.4831 4 35.4668 6.57471 35.4668 10.2069C35.4668 13.8391 37.2998 16.3448 40.7825 16.3448C43.6236 16.3448 45.2275 14.6667 45.6399 12.023C45.6629 11.954 45.617 11.908 45.5483 11.908H44.6547ZM44.4943 9.21839H36.6353C36.9103 6.57471 38.308 4.89655 40.645 4.89655C43.1654 4.89655 44.4714 6.82759 44.4943 9.21839Z" fill="#ABABAB"/>
<path d="M56.2219 11.8391C56.2219 11.7701 56.1761 11.7241 56.1074 11.7241H55.2596C55.1909 11.7241 55.145 11.7701 55.145 11.8391C54.9388 14.023 53.6557 15.4483 51.2957 15.4483C48.5462 15.4253 47.2632 13.4253 47.2632 10.2069C47.2632 6.98851 48.5692 4.91954 51.3187 4.91954C53.4724 4.91954 54.7097 6.13793 54.9846 8.16092C55.0076 8.22989 55.0534 8.27586 55.1221 8.27586H55.9699C56.0386 8.27586 56.0844 8.2069 56.0844 8.16092C55.8553 5.67816 54.1598 4 51.3187 4C47.9047 4 46.1175 6.50575 46.1175 10.2069C46.1175 13.908 47.9047 16.3448 51.2728 16.3448C54.3202 16.3448 56.0157 14.4368 56.2219 11.8391Z" fill="#ABABAB"/>
<path d="M67.0848 10.1839C67.0848 6.48276 65.2059 4 61.8149 4C58.4009 4 56.545 6.48276 56.545 10.1839C56.545 13.8851 58.4009 16.3448 61.8149 16.3448C65.2059 16.3448 67.0848 13.8621 67.0848 10.1839ZM57.6906 10.1839C57.6906 6.96552 59.0654 4.91954 61.8149 4.89655C64.5415 4.89655 65.9162 6.98851 65.9162 10.1839C65.9162 13.4023 64.5644 15.4483 61.8149 15.4483C59.0883 15.4483 57.6906 13.4023 57.6906 10.1839Z" fill="#ABABAB"/>
<path d="M68.9525 16.092C69.0212 16.092 69.067 16.046 69.067 15.977L69.0212 8.91954C69.3191 6.29885 71.1292 5.10345 72.8705 5.10345C73.2142 5.10345 73.4891 5.14943 73.7183 5.21839C73.787 5.21839 73.8328 5.17241 73.8328 5.12644V4.36782C73.8328 4.29885 73.787 4.22989 73.7183 4.2069C73.4891 4.13793 73.1684 4.11494 72.8476 4.11494C71.2437 4.11494 69.7773 5.01149 68.9754 6.52874L69.067 4.36782C69.067 4.29885 69.0212 4.25287 68.9525 4.25287H68.0131C67.9443 4.25287 67.8985 4.29885 67.8985 4.36782L67.9443 9.97701L67.8985 15.977C67.8985 16.046 67.9443 16.092 68.0131 16.092H68.9525Z" fill="#ABABAB"/>
</svg>
