<svg width="22" height="22" viewBox="0 0 22 22" fill="none" xmlns="http://www.w3.org/2000/svg">
<path d="M9.5 6C9.5 5.1716 10.1716 4.5 11 4.5C11.8284 4.5 12.5 5.1716 12.5 6C12.5 6.8284 11.8284 7.5 11 7.5C10.1716 7.5 9.5 6.8284 9.5 6ZM9.5 11C9.5 10.1716 10.1716 9.5 11 9.5C11.8284 9.5 12.5 10.1716 12.5 11C12.5 11.8284 11.8284 12.5 11 12.5C10.1716 12.5 9.5 11.8284 9.5 11ZM9.5 16C9.5 15.1716 10.1716 14.5 11 14.5C11.8284 14.5 12.5 15.1716 12.5 16C12.5 16.8284 11.8284 17.5 11 17.5C10.1716 17.5 9.5 16.8284 9.5 16Z" fill="#CFD1D6"/>
</svg>
