<svg width="16" height="18" viewBox="0 0 16 18" fill="none" xmlns="http://www.w3.org/2000/svg">
<path d="M7.2 2C5.91513 2 5.04169 2.00117 4.36656 2.05633C3.70893 2.11006 3.37263 2.20745 3.13803 2.32698C2.57354 2.6146 2.1146 3.07354 1.82698 3.63803C1.70745 3.87263 1.61006 4.20893 1.55633 4.86656C1.50117 5.54169 1.5 6.41513 1.5 7.7V10.3C1.5 10.8848 1.50117 11.2332 1.52227 11.4914C1.53128 11.6017 1.5423 11.6673 1.55 11.7028V11.8C1.55 12.5611 1.55 13.0636 1.61838 13.4418C1.41332 13.4096 1.24429 13.3596 1.09202 13.282C0.715695 13.0903 0.409734 12.7843 0.217987 12.408C0 11.9802 0 11.4201 0 10.3V7.7C0 5.17976 0 3.91965 0.490471 2.95704C0.921901 2.11031 1.61031 1.4219 2.45704 0.990471C3.41965 0.5 4.67976 0.5 7.2 0.5H9.2C10.3201 0.5 10.8802 0.5 11.308 0.717987C11.6843 0.909734 11.9903 1.21569 12.182 1.59202C12.2519 1.72915 12.2994 1.87986 12.3316 2.05824C11.9605 2 11.4714 2 10.75 2H7.2Z" fill="#99A2AD"/>
<path fill-rule="evenodd" clip-rule="evenodd" d="M3.1 6.7C3.1 5.5799 3.1 5.01984 3.31799 4.59202C3.50973 4.21569 3.81569 3.90973 4.19202 3.71799C4.61984 3.5 5.17989 3.5 6.3 3.5H12.3C13.4201 3.5 13.9802 3.5 14.408 3.71799C14.7843 3.90973 15.0903 4.21569 15.282 4.59202C15.5 5.01984 15.5 5.5799 15.5 6.7V14.3C15.5 15.4201 15.5 15.9802 15.282 16.408C15.0903 16.7843 14.7843 17.0903 14.408 17.282C13.9802 17.5 13.4201 17.5 12.3 17.5H6.3C5.1799 17.5 4.61984 17.5 4.19202 17.282C3.81569 17.0903 3.50973 16.7843 3.31799 16.408C3.1 15.9802 3.1 15.4201 3.1 14.3V6.7ZM6.3 5H12.3C12.8848 5 13.2332 5.00117 13.4914 5.02227C13.6491 5.03514 13.7153 5.05214 13.7331 5.05765C13.8224 5.10469 13.8953 5.17765 13.9424 5.26693C13.9479 5.28468 13.9649 5.35094 13.9777 5.50855C13.9988 5.76681 14 6.1152 14 6.7V14.3C14 14.8848 13.9988 15.2332 13.9777 15.4914C13.9649 15.6491 13.9479 15.7153 13.9424 15.7331C13.8953 15.8224 13.8224 15.8953 13.7331 15.9424C13.7153 15.9479 13.6491 15.9649 13.4914 15.9777C13.2332 15.9988 12.8848 16 12.3 16H6.3C5.7152 16 5.36681 15.9988 5.10855 15.9777C4.95094 15.9649 4.88469 15.9479 4.86693 15.9424C4.77765 15.8953 4.70469 15.8224 4.65765 15.7331C4.65214 15.7153 4.63514 15.6491 4.62227 15.4914C4.60117 15.2332 4.6 14.8848 4.6 14.3V6.7C4.6 6.1152 4.60117 5.76681 4.62227 5.50855C4.63514 5.35093 4.65214 5.28468 4.65765 5.26693C4.70469 5.17765 4.77765 5.10469 4.86693 5.05765C4.88468 5.05214 4.95094 5.03514 5.10855 5.02227C5.36681 5.00117 5.7152 5 6.3 5ZM13.7383 5.05945L13.7352 5.05833C13.7374 5.05904 13.7383 5.05943 13.7383 5.05945ZM13.9405 5.26175C13.9406 5.26169 13.941 5.26264 13.9417 5.26478L13.9405 5.26175ZM13.9405 15.7383L13.9417 15.7352C13.941 15.7373 13.9406 15.7383 13.9405 15.7383ZM13.7382 15.9405C13.7383 15.9406 13.7374 15.9409 13.7353 15.9417L13.7382 15.9405ZM4.86175 15.9405L4.86478 15.9417C4.86265 15.941 4.86169 15.9406 4.86175 15.9405ZM4.65945 15.7383C4.65943 15.7383 4.65904 15.7374 4.65833 15.7352L4.65945 15.7383ZM4.65945 5.26175L4.65833 5.26478C4.65904 5.26264 4.65943 5.26169 4.65945 5.26175ZM4.86214 5.05927C4.86212 5.05926 4.86185 5.05938 4.86214 5.05927L4.86478 5.05833C4.86347 5.05877 4.8626 5.05908 4.86214 5.05927Z" fill="#99A2AD"/>
</svg>
