<svg width="16" height="16" viewBox="0 0 16 16" fill="none" xmlns="http://www.w3.org/2000/svg">
<path d="M10.5165 2.17572C11.4278 1.27476 12.9088 1.27476 13.8201 2.17572C14.7266 3.07199 14.7266 4.52155 13.8201 5.41782L13.1334 6.09671C12.8389 6.38793 12.8361 6.8628 13.1274 7.15735C13.4186 7.45191 13.8935 7.45462 14.188 7.1634L14.8747 6.48451C16.3751 5.0011 16.3751 2.59244 14.8747 1.10904C13.379 -0.369678 10.9576 -0.369679 9.46192 1.10904L6.12529 4.40787C4.62489 5.89128 4.62489 8.29994 6.12529 9.78334C6.41985 10.0746 6.89471 10.0719 7.18594 9.7773C7.47716 9.48274 7.47445 9.00788 7.17989 8.71666C6.27336 7.82039 6.27336 6.37083 7.17989 5.47456L10.5165 2.17572Z" fill="#99A2AD"/>
<path d="M5.48346 13.8243C4.57217 14.7252 3.09119 14.7252 2.1799 13.8243C1.27337 12.928 1.27337 11.4784 2.1799 10.5822L2.86657 9.90329C3.16113 9.61207 3.16383 9.1372 2.87261 8.84265C2.58139 8.54809 2.10653 8.54538 1.81197 8.8366L1.1253 9.51549C-0.375101 10.9989 -0.375101 13.4076 1.1253 14.891C2.62096 16.3697 5.0424 16.3697 6.53806 14.891L9.87469 11.5921C11.3751 10.1087 11.3751 7.70006 9.87469 6.21666C9.58013 5.92544 9.10526 5.92814 8.81404 6.2227C8.52282 6.51726 8.52553 6.99212 8.82009 7.28334C9.72662 8.17961 9.72662 9.62917 8.82009 10.5254L5.48346 13.8243Z" fill="#99A2AD"/>
</svg>
