<svg width="16" height="18" viewBox="0 0 16 18" fill="none" xmlns="http://www.w3.org/2000/svg">
<path fill-rule="evenodd" clip-rule="evenodd" d="M9.1 2H6.9C5.75514 2 4.98671 2.00117 4.39496 2.04952C3.82071 2.09643 3.54615 2.1802 3.36502 2.27248C2.89462 2.51217 2.51217 2.89462 2.27248 3.36502C2.1802 3.54615 2.09643 3.82071 2.04952 4.39496C2.00117 4.98671 2 5.75514 2 6.9V11.1C2 12.2449 2.00117 13.0133 2.04952 13.605C2.09643 14.1793 2.1802 14.4539 2.27248 14.635C2.51217 15.1054 2.89462 15.4878 3.36502 15.7275C3.54615 15.8198 3.82071 15.9036 4.39496 15.9505C4.98671 15.9988 5.75514 16 6.9 16H9.1C10.2449 16 11.0133 15.9988 11.605 15.9505C12.1793 15.9036 12.4539 15.8198 12.635 15.7275C13.1054 15.4878 13.4878 15.1054 13.7275 14.635C13.8198 14.4539 13.9036 14.1793 13.9505 13.605C13.9988 13.0133 14 12.2449 14 11.1V6.9C14 5.75514 13.9988 4.98671 13.9505 4.39496C13.9036 3.82071 13.8198 3.54615 13.7275 3.36502C13.4878 2.89462 13.1054 2.51217 12.635 2.27248C12.4539 2.1802 12.1793 2.09643 11.605 2.04952C11.0133 2.00117 10.2449 2 9.1 2ZM0.935974 2.68404C0.5 3.53969 0.5 4.65979 0.5 6.9V11.1C0.5 13.3402 0.5 14.4603 0.935974 15.316C1.31947 16.0686 1.93139 16.6805 2.68404 17.064C3.53969 17.5 4.65979 17.5 6.9 17.5H9.1C11.3402 17.5 12.4603 17.5 13.316 17.064C14.0686 16.6805 14.6805 16.0686 15.064 15.316C15.5 14.4603 15.5 13.3402 15.5 11.1V6.9C15.5 4.65979 15.5 3.53969 15.064 2.68404C14.6805 1.93139 14.0686 1.31947 13.316 0.935974C12.4603 0.5 11.3402 0.5 9.1 0.5H6.9C4.65979 0.5 3.53969 0.5 2.68404 0.935974C1.93139 1.31947 1.31947 1.93139 0.935974 2.68404Z" fill="#99A2AD"/>
<path d="M10 6C10 7.10457 9.10457 8 8 8C6.89543 8 6 7.10457 6 6C6 4.89543 6.89543 4 8 4C9.10457 4 10 4.89543 10 6Z" fill="#99A2AD"/>
<path d="M4 10.25C4 9.83579 4.33579 9.5 4.75 9.5H11.25C11.6642 9.5 12 9.83579 12 10.25C12 10.6642 11.6642 11 11.25 11H4.75C4.33579 11 4 10.6642 4 10.25Z" fill="#99A2AD"/>
<path d="M4 13.25C4 12.8358 4.33579 12.5 4.75 12.5H11.25C11.6642 12.5 12 12.8358 12 13.25C12 13.6642 11.6642 14 11.25 14H4.75C4.33579 14 4 13.6642 4 13.25Z" fill="#99A2AD"/>
</svg>
