<svg width="100%" height="100%" viewBox="0 0 44 44" fill="none" xmlns="http://www.w3.org/2000/svg" preserveAspectRatio="none"><path d="M0 22C0 9.84974 9.84974 0 22 0C34.1503 0 44 9.84974 44 22C44 34.1503 34.1503 44 22 44C9.84974 44 0 34.1503 0 22Z" fill="#FFDD2D" data-color-group="0"/><path fill-rule="evenodd" clip-rule="evenodd" d="M20.7071 28.7071C20.3166 29.0976 19.6834 29.0976 19.2929 28.7071C18.9024 28.3166 18.9024 27.6834 19.2929 27.2929L24.5858 22L19.2929 16.7071C18.9024 16.3166 18.9024 15.6834 19.2929 15.2929C19.6834 14.9024 20.3166 14.9024 20.7071 15.2929L26 20.5858C26.781 21.3668 26.781 22.6332 26 23.4142L20.7071 28.7071Z" fill="#333333" data-color-group="1"/></svg>