<svg xmlns="http://www.w3.org/2000/svg" width="144.398" height="23"><path fill="#FFF" stroke="#FFF" stroke-width=".011" d="M.681 9.06h1.942V6.244h.556c.273 0 .489.064.648.193.159.129.287.356.386.681.045.152.102.318.17.5.068.182.14.363.216.545a7.703 7.703 0 0 0 .442.897h2.135a9.912 9.912 0 0 1-.391-.687c-.133-.254-.26-.507-.38-.76a18.744 18.744 0 0 1-.57-1.313c-.106-.28-.247-.488-.425-.625-.178-.136-.449-.234-.812-.295v-.114c.348-.053.605-.15.772-.295.166-.144.306-.363.42-.658a32.15 32.15 0 0 1 1.238-2.612H5.007a3.986 3.986 0 0 0-.22.443c-.08.182-.158.37-.234.568-.075.196-.144.39-.204.579-.06.189-.114.352-.16.488-.09.265-.215.47-.374.613-.159.144-.37.216-.636.216h-.556V1.702H.681zm9.266-1.056a.842.842 0 0 1-.596-.216.724.724 0 0 1-.233-.556c0-.136.028-.263.085-.38a.777.777 0 0 1 .284-.307c.132-.087.31-.157.534-.21.223-.053.505-.087.846-.102v.42c0 .174-.016.342-.046.505-.03.163-.083.307-.159.432a.92.92 0 0 1-.29.3.768.768 0 0 1-.425.114zm-.818 1.215c.258 0 .483-.03.676-.09.193-.061.363-.14.51-.24.148-.098.273-.213.376-.346.102-.132.19-.274.266-.425l.148.079c-.045.144-.087.286-.125.426a1.44 1.44 0 0 0-.057.369v.068h1.806V5.109c0-.303-.036-.58-.108-.83a1.45 1.45 0 0 0-.386-.647c-.186-.181-.443-.321-.772-.42-.33-.098-.748-.147-1.255-.147-.515 0-.944.056-1.289.17-.344.114-.615.265-.812.454-.196.19-.329.407-.397.653a1.858 1.858 0 0 0-.045.767h1.544a1.108 1.108 0 0 1-.012-.352.639.639 0 0 1 .12-.301.675.675 0 0 1 .272-.21 1.06 1.06 0 0 1 .437-.08c.288 0 .5.07.636.21.136.14.205.339.205.596v.409c-.371.015-.761.05-1.17.102a4.03 4.03 0 0 0-1.124.307c-.34.151-.62.369-.84.653-.22.284-.33.668-.33 1.152a1.623 1.623 0 0 0 .449 1.113 1.723 1.723 0 0 0 1.277.511zM16.59 8.06c-.296 0-.538-.147-.727-.442-.19-.295-.284-.78-.284-1.453 0-.682.094-1.17.284-1.465.189-.295.431-.443.726-.443.288 0 .526.148.716.443.19.295.284.783.284 1.465 0 .673-.095 1.158-.284 1.453-.19.295-.428.443-.716.443zm.692-4.995a1.563 1.563 0 0 0-1.005.324 1.724 1.724 0 0 0-.346.357c-.099.136-.193.28-.284.431l-.17-.08a3.02 3.02 0 0 0 .102-.425c.023-.14.034-.263.034-.369v-.068H13.75v7.846h1.862V9.378c0-.197-.02-.392-.063-.585a4.69 4.69 0 0 0-.153-.55l.182-.069a1.979 1.979 0 0 0 1.045.931c.189.076.405.114.647.114.318 0 .615-.062.891-.187s.517-.315.721-.568a2.85 2.85 0 0 0 .483-.954c.117-.382.176-.83.176-1.345 0-1-.201-1.766-.602-2.3-.401-.534-.954-.8-1.658-.8zm4.065 5.995h1.862V4.711h1.408V3.235H19.94v1.476h1.408zm6.211-1.056a.842.842 0 0 1-.596-.216.724.724 0 0 1-.233-.556.87.87 0 0 1 .085-.38.777.777 0 0 1 .284-.307c.133-.087.31-.157.534-.21.223-.053.505-.087.846-.102v.42c0 .174-.015.342-.045.505-.03.163-.084.307-.16.432a.92.92 0 0 1-.289.3.768.768 0 0 1-.426.114zm-.817 1.215c.257 0 .482-.03.675-.09.193-.061.364-.14.511-.24.148-.098.273-.213.375-.346a2.62 2.62 0 0 0 .267-.425l.147.079c-.045.144-.087.286-.125.426a1.44 1.44 0 0 0-.056.369v.068h1.805V5.109c0-.303-.036-.58-.108-.83a1.45 1.45 0 0 0-.386-.647c-.185-.181-.443-.321-.772-.42-.33-.098-.747-.147-1.255-.147-.514 0-.944.056-1.288.17-.345.114-.616.265-.812.454-.197.19-.33.407-.398.653a1.858 1.858 0 0 0-.045.767h1.544a1.108 1.108 0 0 1-.011-.352.639.639 0 0 1 .119-.301.675.675 0 0 1 .273-.21 1.06 1.06 0 0 1 .437-.08c.287 0 .5.07.636.21.136.14.204.339.204.596v.409c-.371.015-.76.05-1.17.102a4.03 4.03 0 0 0-1.124.307c-.34.151-.62.369-.84.653-.22.284-.33.668-.33 1.152 0 .197.039.394.114.59.076.197.188.372.335.523.148.151.328.274.54.369.212.095.458.142.738.142zm11.911-2.453h-1.567c.038.273.036.49-.006.653a.77.77 0 0 1-.198.375.697.697 0 0 1-.313.176 1.38 1.38 0 0 1-.346.045 1.31 1.31 0 0 1-.477-.08.685.685 0 0 1-.335-.289 1.682 1.682 0 0 1-.199-.573 5.21 5.21 0 0 1-.068-.931c0-.364.021-.664.063-.903.041-.238.104-.43.187-.573a.68.68 0 0 1 .33-.301c.136-.057.295-.085.476-.085.136 0 .265.017.386.05a.644.644 0 0 1 .307.188c.083.09.144.214.182.37.037.154.034.353-.012.595h1.567c.091-.757-.074-1.35-.494-1.777-.42-.428-1.065-.641-1.936-.641-.462 0-.88.062-1.254.187a2.466 2.466 0 0 0-.954.568 2.501 2.501 0 0 0-.602.96c-.14.385-.21.84-.21 1.362 0 .53.07.988.21 1.374.14.386.34.706.602.96.26.253.579.44.954.561a4.06 4.06 0 0 0 1.254.182c.47 0 .869-.062 1.198-.187.33-.125.594-.298.795-.517.2-.22.337-.479.409-.778.072-.299.089-.622.05-.97zm4.315-1.43h-.16v-.148c0-.303.023-.573.069-.812a1.82 1.82 0 0 1 .238-.63c.114-.182.27-.335.466-.46.197-.125.446-.225.75-.3.204-.054.397-.097.578-.131l.54-.103a8.49 8.49 0 0 0 .533-.119c.178-.045.358-.102.54-.17L46.419.737c-.16.068-.309.129-.449.182-.14.053-.293.102-.46.147-.166.046-.354.091-.562.136l-.766.17c-.553.122-1.005.307-1.357.557-.352.25-.63.55-.835.903a3.544 3.544 0 0 0-.42 1.198 8.56 8.56 0 0 0-.113 1.43c0 .583.053 1.108.158 1.573.106.466.275.86.506 1.181.23.322.532.57.902.744.371.174.818.261 1.34.261a2.93 2.93 0 0 0 1.204-.233 2.52 2.52 0 0 0 .874-.63 2.69 2.69 0 0 0 .534-.931c.121-.356.182-.734.182-1.136 0-.378-.05-.728-.148-1.05a2.515 2.515 0 0 0-.42-.829 1.939 1.939 0 0 0-.676-.545A2.04 2.04 0 0 0 45 3.666c-.318 0-.592.04-.823.12a1.73 1.73 0 0 0-.59.335 1.709 1.709 0 0 0-.398.522 2.52 2.52 0 0 0-.221.693zm1.328 2.395c-.303 0-.526-.094-.67-.283-.144-.19-.215-.508-.215-.954 0-.454.075-.787.227-1 .151-.211.37-.317.658-.317.303 0 .528.098.676.295.147.197.221.518.221.965 0 .454-.075.784-.227.988-.151.204-.375.306-.67.306zm9.13-.613h-1.613c.03.356-.042.606-.216.75-.174.144-.412.215-.715.215a.912.912 0 0 1-.494-.124.98.98 0 0 1-.324-.335 1.558 1.558 0 0 1-.181-.489 2.981 2.981 0 0 1-.057-.596h3.61a3.27 3.27 0 0 0 .046-.465c.008-.182.012-.326.012-.432 0-.34-.044-.666-.13-.976a2.097 2.097 0 0 0-.444-.824 2.16 2.16 0 0 0-.823-.567c-.34-.14-.76-.21-1.26-.21-.523 0-.97.083-1.34.25a2.461 2.461 0 0 0-.914.686 2.794 2.794 0 0 0-.523 1.011c-.11.382-.164.79-.164 1.22 0 .44.056.84.17 1.204.114.364.288.678.522.943.235.265.536.47.903.619.367.147.804.221 1.312.221.431 0 .819-.047 1.163-.142.345-.095.63-.233.858-.414.227-.182.393-.402.5-.659.105-.257.14-.553.102-.886zM50.88 4.166c.34 0 .575.108.704.324.129.215.193.539.193.97v.057h-1.953c.008-.416.098-.745.273-.988.174-.242.435-.363.783-.363zm8.824 2.6h-1.567c.038.273.036.49-.006.653a.77.77 0 0 1-.199.375.697.697 0 0 1-.312.176 1.38 1.38 0 0 1-.346.045 1.31 1.31 0 0 1-.477-.08.685.685 0 0 1-.335-.289 1.682 1.682 0 0 1-.199-.573 5.21 5.21 0 0 1-.068-.931c0-.364.02-.664.063-.903.041-.238.104-.43.187-.573a.68.68 0 0 1 .33-.301c.135-.057.294-.085.476-.085.136 0 .265.017.386.05a.644.644 0 0 1 .307.188c.083.09.144.214.181.37.038.154.034.353-.01.595h1.566c.09-.757-.074-1.35-.494-1.777-.42-.428-1.065-.641-1.936-.641-.462 0-.88.062-1.255.187a2.466 2.466 0 0 0-.953.568 2.501 2.501 0 0 0-.602.96c-.14.385-.21.84-.21 1.362 0 .53.07.988.21 1.374.14.386.34.706.602.96.26.253.579.44.953.561.375.121.793.182 1.255.182.47 0 .869-.062 1.198-.187.33-.125.594-.298.795-.517.2-.22.337-.479.409-.778.072-.299.089-.622.05-.97zm.931 2.294h1.862V4.711h1.567V9.06h1.862V3.235h-5.291zm5.972-1.442v1.43c.621.084 1.117.086 1.488.006a1.29 1.29 0 0 0 .852-.579c.196-.306.325-.744.386-1.311.06-.568.09-1.302.09-2.203v-.42h1.011V9.06h1.862V3.235h-4.655v1.43c0 .705-.014 1.26-.04 1.664-.026.405-.076.71-.148.914-.071.205-.176.328-.312.37-.136.04-.314.043-.534.005zm9.084.386a.842.842 0 0 1-.596-.216.724.724 0 0 1-.233-.556.777.777 0 0 1 .369-.687c.133-.087.31-.157.534-.21.224-.053.505-.087.846-.102v.42c0 .174-.015.342-.045.505-.03.163-.084.307-.16.432a.92.92 0 0 1-.289.3.768.768 0 0 1-.426.114zm-.817 1.215c.257 0 .482-.03.675-.09.193-.061.364-.14.511-.24.148-.098.273-.213.375-.346a2.62 2.62 0 0 0 .267-.425l.148.079a8.75 8.75 0 0 0-.125.426 1.44 1.44 0 0 0-.057.369v.068h1.805V5.109c0-.303-.036-.58-.108-.83-.071-.25-.2-.465-.386-.647-.185-.181-.442-.321-.772-.42-.33-.098-.747-.147-1.254-.147-.515 0-.945.056-1.29.17-.344.114-.614.265-.811.454-.197.19-.33.407-.398.653a1.858 1.858 0 0 0-.045.767h1.544a1.108 1.108 0 0 1-.011-.352.639.639 0 0 1 .12-.301.675.675 0 0 1 .272-.21 1.06 1.06 0 0 1 .437-.08c.287 0 .5.07.636.21.136.14.204.339.204.596v.409c-.37.015-.76.05-1.17.102a4.03 4.03 0 0 0-1.124.307c-.34.151-.62.369-.84.653-.22.284-.33.668-.33 1.152 0 .197.039.394.114.59.076.197.188.372.335.523.148.151.328.274.54.369.212.095.458.142.738.142zm5.632-.159h1.862V4.711h1.408V3.235h-4.678v1.476h1.408zm4.008 0h1.862V6.88h1.67v2.18h1.862V3.235h-1.863v2.169h-1.669V3.235h-1.862zm12.15 0h1.862V3.235h-1.862zm-3.759-4.303V3.235h-1.862V9.06h2.51c.5 0 .914-.07 1.243-.21.33-.14.592-.316.789-.528.197-.212.337-.445.42-.698.083-.254.125-.494.125-.721 0-.296-.04-.574-.12-.835a1.564 1.564 0 0 0-.42-.681 2.128 2.128 0 0 0-.794-.46c-.33-.114-.744-.17-1.243-.17zm.523 2.895h-.523V6.165h.523c.242 0 .435.058.579.176.144.117.215.308.215.573 0 .265-.071.454-.215.568-.144.113-.337.17-.58.17zm8.459-1.124.466 1.885h1.896l.465-1.885a13.08 13.08 0 0 0 .341-1.987h.148a6.579 6.579 0 0 0-.034.505 23.714 23.714 0 0 0 .006 1.573c.01.31.031.632.062.965l.125 1.476h1.748l-.42-5.825h-2.555l-.5 2.27a6.34 6.34 0 0 0-.096.495l-.074.482c-.022.152-.041.294-.056.426a2.93 2.93 0 0 0-.023.313h-.17c0-.076-.008-.18-.023-.313a18.003 18.003 0 0 0-.136-.908c-.03-.17-.061-.335-.091-.494l-.5-2.271h-2.555l-.42 5.825h1.749l.125-1.476c.03-.333.05-.655.062-.965a23.714 23.714 0 0 0 .006-1.573 6.579 6.579 0 0 0-.034-.505h.147a13.08 13.08 0 0 0 .34 1.987zM3.327 20.59c.961 0 1.696-.263 2.203-.789.507-.526.76-1.289.76-2.288 0-1-.253-1.764-.76-2.294s-1.242-.794-2.203-.794c-.977 0-1.718.265-2.226.794-.507.53-.76 1.295-.76 2.294 0 1 .253 1.762.76 2.288.508.526 1.25.79 2.226.79zm0-1.203c-.174 0-.326-.03-.454-.091a.734.734 0 0 1-.318-.301 1.698 1.698 0 0 1-.188-.573 5.497 5.497 0 0 1-.062-.909c0-.356.02-.653.062-.891.042-.239.105-.432.188-.58a.756.756 0 0 1 .318-.317.993.993 0 0 1 .454-.097c.167 0 .312.032.437.097.125.064.23.17.312.318.084.147.146.34.188.579.041.238.062.535.062.891 0 .364-.02.666-.062.909a1.698 1.698 0 0 1-.188.573.742.742 0 0 1-.312.3.992.992 0 0 1-.437.092zm5.212-2.691h-.16v-.148a4.4 4.4 0 0 1 .069-.812 1.82 1.82 0 0 1 .238-.63c.114-.182.27-.335.466-.46.197-.125.447-.225.75-.3.204-.054.397-.097.579-.131l.539-.103a8.52 8.52 0 0 0 .534-.119c.177-.045.357-.102.539-.17l-.102-1.726c-.16.068-.309.129-.449.182-.14.053-.293.102-.46.147-.166.046-.354.091-.562.136l-.766.17c-.553.122-1.005.307-1.357.557-.352.25-.63.55-.835.903a3.544 3.544 0 0 0-.42 1.198 8.56 8.56 0 0 0-.113 1.43c0 .583.053 1.108.159 1.573.106.466.274.86.505 1.181.23.322.532.57.903.744.37.174.817.261 1.34.261a2.93 2.93 0 0 0 1.203-.233 2.52 2.52 0 0 0 .874-.63 2.69 2.69 0 0 0 .534-.931c.121-.356.182-.734.182-1.136 0-.378-.05-.728-.148-1.05a2.515 2.515 0 0 0-.42-.829 1.939 1.939 0 0 0-.676-.545 2.04 2.04 0 0 0-.914-.199c-.318 0-.592.04-.823.12a1.73 1.73 0 0 0-.59.335 1.709 1.709 0 0 0-.398.522 2.52 2.52 0 0 0-.221.693zm1.328 2.395c-.302 0-.526-.094-.67-.283-.143-.19-.215-.508-.215-.954 0-.454.075-.787.227-1 .151-.211.37-.317.658-.317.303 0 .528.098.676.295.148.197.221.518.221.965 0 .454-.075.784-.227.988-.151.204-.374.306-.67.306zm9.073-.965h-1.567c.038.273.036.49-.006.653a.77.77 0 0 1-.198.375.697.697 0 0 1-.313.176 1.38 1.38 0 0 1-.346.045 1.31 1.31 0 0 1-.477-.08.685.685 0 0 1-.335-.289 1.682 1.682 0 0 1-.199-.573 5.21 5.21 0 0 1-.068-.931c0-.364.021-.664.063-.903.041-.238.104-.43.187-.573a.68.68 0 0 1 .33-.301c.136-.057.295-.085.476-.085.136 0 .265.017.386.05a.644.644 0 0 1 .307.188c.083.09.144.214.182.37.037.154.034.353-.012.595h1.567c.091-.757-.074-1.35-.494-1.777-.42-.428-1.065-.641-1.936-.641-.462 0-.88.062-1.254.187a2.466 2.466 0 0 0-.954.568 2.501 2.501 0 0 0-.602.96c-.14.385-.21.84-.21 1.362 0 .53.07.988.21 1.374.14.386.34.706.602.96.26.253.579.44.954.561a4.06 4.06 0 0 0 1.254.182c.47 0 .869-.062 1.198-.187.33-.125.594-.298.795-.517.2-.22.337-.479.409-.778.072-.299.089-.622.05-.97zm.477.852v1.43c.62.084 1.116.086 1.487.006a1.29 1.29 0 0 0 .852-.579c.197-.306.325-.744.386-1.311.06-.568.09-1.302.09-2.203v-.42h1.011v4.519h1.863v-5.825H20.45v1.43c0 .705-.013 1.26-.04 1.664-.026.405-.075.71-.147.914-.072.205-.176.328-.313.37-.136.04-.314.043-.533.005zm9.333.125h-.17a4.51 4.51 0 0 0-.04-.477 12.94 12.94 0 0 0-.125-.79 29.669 29.669 0 0 0-.21-1.021 23.18 23.18 0 0 0-.295-1.175l-.295-1.045H25.73l1.964 6.563-.42 1.283h1.953l2.35-7.846h-1.839l-.295 1.079c-.113.4-.212.785-.295 1.152a28.36 28.36 0 0 0-.21 1.005c-.057.303-.1.564-.13.784-.031.22-.05.382-.058.488zm8.403-4.508h-1.862v2.169h-.307a.412.412 0 0 1-.278-.085c-.064-.057-.123-.165-.176-.324a19.433 19.433 0 0 0-.12-.34 9.36 9.36 0 0 0-.198-.512 17.953 17.953 0 0 0-.227-.522 2.127 2.127 0 0 0-.216-.386h-2.01c.13.129.239.276.33.443.09.166.17.34.238.522l.205.557c.068.189.143.367.227.533.113.227.244.396.391.505.148.11.343.192.585.245v.102c-.287.053-.505.14-.653.261-.147.121-.27.31-.369.568-.128.34-.274.702-.437 1.084a4.378 4.378 0 0 1-.585 1.005h1.987c.061-.076.127-.193.2-.352.071-.159.14-.33.204-.511a11.577 11.577 0 0 0 .278-.897.653.653 0 0 1 .153-.307c.072-.075.184-.113.335-.113h.443v2.18h1.862v-2.18h.386c.151 0 .263.038.335.113a.653.653 0 0 1 .153.307 11.577 11.577 0 0 0 .278.897c.065.182.133.352.205.511.072.159.138.276.199.352h2.044a4.378 4.378 0 0 1-.585-1.005 28.43 28.43 0 0 1-.437-1.084c-.099-.258-.222-.447-.37-.568-.147-.121-.365-.208-.652-.261V17.4c.242-.053.437-.135.584-.245a1.38 1.38 0 0 0 .392-.505c.083-.166.16-.344.227-.533.068-.19.137-.375.205-.557.068-.182.147-.356.238-.522.09-.167.2-.314.33-.443h-1.976c-.068.09-.14.22-.216.386-.076.167-.151.34-.227.522-.076.182-.142.352-.199.511l-.12.341c-.052.159-.11.267-.175.324a.412.412 0 0 1-.278.085h-.341zm4.224 5.825h2.373l.806-1.783a22.198 22.198 0 0 0 .812-2.22c.065-.215.112-.38.142-.494l.16.023c-.024.121-.05.292-.08.511a25.405 25.405 0 0 0-.153 1.499c-.02.265-.029.5-.029.704v1.76h1.794v-5.825H44.84l-.806 1.783c-.106.234-.21.486-.312.755-.102.269-.197.528-.284.778a18.04 18.04 0 0 0-.37 1.18l-.147-.022a14.44 14.44 0 0 0 .159-1.232c.023-.261.044-.524.063-.79.019-.264.028-.503.028-.715v-1.737h-1.794zm6.961-5.825v5.825h2.804c.326 0 .636-.025.931-.074.296-.049.553-.134.772-.255a1.44 1.44 0 0 0 .528-.494c.133-.208.2-.475.2-.8 0-.145-.026-.29-.075-.438a1.106 1.106 0 0 0-.25-.409 1.43 1.43 0 0 0-.47-.318 2.067 2.067 0 0 0-.727-.153v-.136a2.08 2.08 0 0 0 .601-.205c.167-.09.301-.196.403-.317.103-.122.178-.25.228-.387.049-.136.073-.268.073-.397 0-.53-.193-.903-.579-1.118-.386-.216-.908-.324-1.567-.324zm2.713 4.655h-.908v-1.146h.931c.174 0 .335.041.483.125.147.083.221.23.221.442 0 .205-.066.352-.199.443-.132.091-.308.136-.528.136zm-.215-2.316h-.693v-1.18h.783a.79.79 0 0 1 .449.124c.125.083.187.227.187.432 0 .212-.072.369-.215.47a.86.86 0 0 1-.511.154zm5.847 2.43a.842.842 0 0 1-.596-.216.724.724 0 0 1-.233-.556.777.777 0 0 1 .369-.687c.133-.087.31-.157.534-.21.224-.053.505-.087.846-.102v.42c0 .174-.015.342-.045.505-.03.163-.084.307-.16.432a.92.92 0 0 1-.289.3.768.768 0 0 1-.426.114zm-.817 1.215c.257 0 .482-.03.675-.09.193-.061.364-.14.511-.24.148-.098.273-.213.375-.346a2.62 2.62 0 0 0 .267-.425l.148.079a8.75 8.75 0 0 0-.125.426 1.44 1.44 0 0 0-.057.369v.068h1.805v-3.951c0-.303-.036-.58-.108-.83-.071-.25-.2-.465-.386-.647-.185-.181-.442-.321-.772-.42-.33-.098-.747-.147-1.254-.147-.515 0-.945.056-1.29.17-.344.114-.614.265-.811.454-.197.19-.33.407-.398.653a1.858 1.858 0 0 0-.045.767h1.544a1.108 1.108 0 0 1-.011-.352.639.639 0 0 1 .12-.301.675.675 0 0 1 .272-.21 1.06 1.06 0 0 1 .437-.08c.287 0 .5.07.636.21.136.14.204.339.204.596v.409c-.37.015-.76.05-1.17.102a4.03 4.03 0 0 0-1.124.307c-.34.151-.62.369-.84.653-.22.284-.33.668-.33 1.152 0 .197.039.394.114.59.076.197.188.372.335.523.148.151.328.274.54.369.212.095.458.142.738.142zm4.621-.159h1.862v-2.18h1.67v2.18h1.862v-5.825h-1.862v2.169h-1.67v-2.169h-1.862zm6.529 0h2.373l.807-1.783a22.198 22.198 0 0 0 .812-2.22c.064-.215.111-.38.141-.494l.16.023c-.023.121-.05.292-.08.511a25.405 25.405 0 0 0-.153 1.499c-.02.265-.029.5-.029.704v1.76h1.794v-5.825H70.48l-.806 1.783c-.106.234-.21.486-.312.755-.102.269-.197.528-.284.778a18.04 18.04 0 0 0-.369 1.18l-.147-.022a14.44 14.44 0 0 0 .159-1.232c.022-.261.043-.524.062-.79.019-.264.028-.503.028-.715v-1.737h-1.794zm12.264-1.942h-1.613c.03.356-.042.606-.216.75-.174.144-.412.215-.715.215a.912.912 0 0 1-.494-.124.98.98 0 0 1-.324-.335 1.558 1.558 0 0 1-.181-.489 2.981 2.981 0 0 1-.057-.596h3.61a3.27 3.27 0 0 0 .046-.465c.008-.182.012-.326.012-.432a3.6 3.6 0 0 0-.131-.976 2.097 2.097 0 0 0-.443-.824 2.16 2.16 0 0 0-.823-.567c-.34-.14-.76-.21-1.26-.21-.523 0-.97.083-1.34.25a2.461 2.461 0 0 0-.914.686 2.794 2.794 0 0 0-.523 1.011c-.11.382-.164.79-.164 1.22 0 .44.056.84.17 1.204.114.364.288.678.522.943.235.265.536.47.903.619.367.147.804.221 1.312.221.431 0 .819-.047 1.163-.142.345-.095.63-.233.858-.414.227-.182.393-.402.5-.659.105-.257.14-.553.101-.886zm-2.544-2.952c.34 0 .575.108.704.324.129.215.193.539.193.97v.057H75.68c.008-.416.098-.745.273-.988.174-.242.435-.363.783-.363zm5.632 2.362.466 1.885h1.896l.465-1.885a13.08 13.08 0 0 0 .341-1.987h.148a6.579 6.579 0 0 0-.034.505 23.714 23.714 0 0 0 .006 1.573c.01.31.031.632.062.965l.125 1.476h1.748l-.42-5.825h-2.555l-.5 2.27a6.34 6.34 0 0 0-.096.495l-.074.482c-.022.152-.041.294-.056.426a2.93 2.93 0 0 0-.023.313h-.17c0-.076-.008-.18-.023-.313a18.003 18.003 0 0 0-.136-.908c-.03-.17-.061-.335-.091-.494l-.5-2.271h-2.555l-.42 5.825h1.749l.125-1.476c.03-.333.05-.655.062-.965a23.714 23.714 0 0 0 .006-1.573 6.579 6.579 0 0 0-.034-.505h.147a13.08 13.08 0 0 0 .34 1.987zM90.6 20.42h1.862v-2.18h1.67v2.18h1.862v-5.825h-1.862v2.169h-1.67v-2.169H90.6zm8.789-1.056a.842.842 0 0 1-.596-.216.724.724 0 0 1-.233-.556c0-.136.028-.263.085-.38a.777.777 0 0 1 .284-.307c.133-.087.31-.157.534-.21.223-.053.505-.087.846-.102v.42c0 .174-.015.342-.046.505-.03.163-.083.307-.159.432a.92.92 0 0 1-.29.3.768.768 0 0 1-.425.114zm-.818 1.215c.258 0 .483-.03.676-.09.193-.061.363-.14.51-.24a1.54 1.54 0 0 0 .376-.346c.102-.132.19-.274.266-.425l.148.079c-.045.144-.087.286-.125.426a1.44 1.44 0 0 0-.057.369v.068h1.806v-3.951c0-.303-.036-.58-.108-.83a1.45 1.45 0 0 0-.386-.647c-.186-.181-.443-.321-.772-.42-.33-.098-.748-.147-1.255-.147-.515 0-.944.056-1.289.17-.344.114-.615.265-.812.454-.196.19-.329.407-.397.653a1.858 1.858 0 0 0-.045.767h1.544a1.108 1.108 0 0 1-.012-.352.639.639 0 0 1 .12-.301.675.675 0 0 1 .272-.21c.118-.053.263-.08.437-.08.288 0 .5.07.636.21.137.14.205.339.205.596v.409c-.371.015-.761.05-1.17.102a4.03 4.03 0 0 0-1.124.307c-.34.151-.62.369-.84.653-.22.284-.33.668-.33 1.152a1.623 1.623 0 0 0 .449 1.113c.148.151.327.274.54.369.211.095.457.142.737.142zm4.622-5.984v5.825h2.804c.326 0 .636-.025.932-.074a2.41 2.41 0 0 0 .772-.255 1.44 1.44 0 0 0 .528-.494c.132-.208.198-.475.198-.8 0-.145-.024-.29-.073-.438a1.106 1.106 0 0 0-.25-.409 1.43 1.43 0 0 0-.471-.318 2.067 2.067 0 0 0-.727-.153v-.136a2.08 2.08 0 0 0 .602-.205c.166-.09.3-.196.403-.317.102-.122.178-.25.227-.387.049-.136.074-.268.074-.397 0-.53-.193-.903-.58-1.118-.386-.216-.908-.324-1.566-.324zm2.714 4.655h-.909v-1.146h.931c.174 0 .335.041.483.125.147.083.221.23.221.442 0 .205-.066.352-.198.443-.133.091-.309.136-.528.136zm-.216-2.316h-.693v-1.18h.784a.79.79 0 0 1 .448.124c.125.083.188.227.188.432 0 .212-.072.369-.216.47a.86.86 0 0 1-.511.154zm8.834 1.192h-1.567c.038.273.036.49-.006.653a.77.77 0 0 1-.198.375.697.697 0 0 1-.313.176 1.38 1.38 0 0 1-.346.045 1.31 1.31 0 0 1-.477-.08.685.685 0 0 1-.335-.289 1.682 1.682 0 0 1-.199-.573 5.21 5.21 0 0 1-.068-.931c0-.364.021-.664.063-.903.041-.238.104-.43.187-.573a.68.68 0 0 1 .33-.301c.136-.057.295-.085.476-.085.137 0 .265.017.386.05a.644.644 0 0 1 .307.188c.083.09.144.214.182.37.037.154.034.353-.012.595h1.567c.091-.757-.074-1.35-.494-1.777-.42-.428-1.065-.641-1.936-.641-.462 0-.88.062-1.254.187a2.466 2.466 0 0 0-.954.568 2.501 2.501 0 0 0-.602.96c-.14.385-.21.84-.21 1.362 0 .53.07.988.21 1.374.14.386.34.706.602.96.26.253.579.44.954.561a4.06 4.06 0 0 0 1.254.182c.47 0 .869-.062 1.198-.187.33-.125.594-.298.795-.517.2-.22.337-.479.409-.778.072-.299.089-.622.05-.97zm6.29.352h-1.612c.03.356-.042.606-.216.75-.174.144-.412.215-.715.215a.912.912 0 0 1-.494-.124.98.98 0 0 1-.324-.335 1.558 1.558 0 0 1-.181-.489 2.981 2.981 0 0 1-.057-.596h3.61a3.27 3.27 0 0 0 .046-.465c.008-.182.012-.326.012-.432a3.6 3.6 0 0 0-.131-.976 2.097 2.097 0 0 0-.443-.824 2.16 2.16 0 0 0-.823-.567c-.34-.14-.76-.21-1.26-.21-.523 0-.97.083-1.34.25a2.461 2.461 0 0 0-.914.686 2.794 2.794 0 0 0-.523 1.011c-.11.382-.164.79-.164 1.22 0 .44.056.84.17 1.204.114.364.288.678.522.943.235.265.536.47.903.619.367.147.804.221 1.312.221.431 0 .819-.047 1.163-.142.345-.095.63-.233.858-.414.227-.182.393-.402.5-.659.105-.257.14-.553.101-.886zm-2.543-2.952c.34 0 .575.108.704.324.129.215.193.539.193.97v.057h-1.953c.008-.416.098-.745.273-.988.174-.242.435-.363.783-.363zm3.52 4.894h1.862v-4.349h1.999v-1.476h-3.861zM132 18.944h-.613v-4.349h-4.656v1.499c0 .303-.01.62-.028.954a4.8 4.8 0 0 1-.136.92c-.072.28-.178.512-.318.698a.669.669 0 0 1-.562.278h-.091v2.884h1.714V20.42h2.975v1.408H132zm-2.475 0h-2.022v-.114c.197-.09.356-.204.477-.34.122-.137.214-.313.279-.528a3.51 3.51 0 0 0 .124-.784c.02-.306.029-.675.029-1.107h1.113zm5.473.42a.842.842 0 0 1-.596-.216.724.724 0 0 1-.233-.556c0-.136.028-.263.085-.38a.777.777 0 0 1 .284-.307 1.68 1.68 0 0 1 .533-.21c.224-.053.506-.087.846-.102v.42c0 .174-.015.342-.045.505-.03.163-.083.307-.159.432a.92.92 0 0 1-.29.3.768.768 0 0 1-.425.114zm-.818 1.215c.258 0 .483-.03.676-.09.193-.061.363-.14.51-.24.148-.098.273-.213.375-.346a2.49 2.49 0 0 0 .267-.425l.148.079a10.03 10.03 0 0 0-.125.426 1.44 1.44 0 0 0-.057.369v.068h1.806v-3.951c0-.303-.036-.58-.108-.83a1.45 1.45 0 0 0-.386-.647c-.186-.181-.443-.321-.772-.42-.33-.098-.748-.147-1.255-.147-.515 0-.945.056-1.289.17-.344.114-.615.265-.812.454-.197.19-.33.407-.397.653a1.858 1.858 0 0 0-.046.767h1.545a1.108 1.108 0 0 1-.012-.352.639.639 0 0 1 .12-.301.675.675 0 0 1 .272-.21 1.06 1.06 0 0 1 .437-.08c.288 0 .5.07.636.21.136.14.204.339.204.596v.409c-.37.015-.76.05-1.17.102a4.03 4.03 0 0 0-1.123.307c-.34.151-.621.369-.84.653-.22.284-.33.668-.33 1.152a1.623 1.623 0 0 0 .449 1.113 1.723 1.723 0 0 0 1.277.511z"/></svg>