<svg xmlns="http://www.w3.org/2000/svg" width="104.122" height="22"><path fill="#FFF" stroke="#FFF" stroke-width=".011" d="M6.134 3.46c0-.427-.079-.762-.237-1.005a1.54 1.54 0 0 0-.597-.548 2.145 2.145 0 0 0-.785-.22 8.889 8.889 0 0 0-.801-.04H.664V8.81H3.88c.331 0 .646-.03.945-.088.298-.06.56-.16.784-.304.225-.144.404-.341.536-.592.133-.25.2-.563.2-.94 0-.19-.026-.379-.078-.563a1.55 1.55 0 0 0-.663-.906 1.814 1.814 0 0 0-.597-.243v-.1c.236-.066.427-.164.575-.293a1.509 1.509 0 0 0 .508-.884c.03-.158.044-.304.044-.437zM3.747 7.373H2.553v-1.47h1.194c.28 0 .5.05.658.15.158.099.237.289.237.569 0 .294-.086.493-.26.596a1.222 1.222 0 0 1-.635.155zM2.553 3.085h.995c.31 0 .538.077.685.232a.736.736 0 0 1 .221.52.717.717 0 0 1-.22.513c-.148.151-.377.227-.686.227h-.995zm6.765 4.697a.82.82 0 0 1-.58-.21.705.705 0 0 1-.227-.542.756.756 0 0 1 .36-.669 1.64 1.64 0 0 1 .519-.204 4.52 4.52 0 0 1 .823-.1v.41c0 .17-.015.333-.044.492a1.24 1.24 0 0 1-.155.42.895.895 0 0 1-.282.293.748.748 0 0 1-.414.11zm-.796 1.183c.25 0 .47-.03.657-.089.188-.059.354-.136.498-.232a1.53 1.53 0 0 0 .365-.337c.1-.129.186-.267.26-.414l.143.077c-.044.14-.085.278-.122.414a1.402 1.402 0 0 0-.055.36v.066h1.758V4.964a2.91 2.91 0 0 0-.105-.807 1.416 1.416 0 0 0-.376-.63c-.18-.177-.431-.313-.752-.41-.32-.095-.727-.143-1.221-.143-.501 0-.92.055-1.255.166-.335.11-.598.258-.79.442-.191.184-.32.396-.387.635a1.81 1.81 0 0 0-.044.747h1.503a1.078 1.078 0 0 1-.01-.343.622.622 0 0 1 .115-.293.657.657 0 0 1 .265-.204c.115-.052.257-.078.426-.078.28 0 .486.068.619.205.133.136.199.33.199.58v.398c-.361.015-.74.048-1.139.1a3.924 3.924 0 0 0-1.094.298 2.09 2.09 0 0 0-.818.635c-.213.277-.32.65-.32 1.122a1.59 1.59 0 0 0 .436 1.083c.144.148.319.268.525.36.207.092.446.138.719.138zm12.081-.155V3.14H18.79v4.233h-1.072V3.14h-1.813v4.233h-1.072V3.14H13.02v5.67zm6.267-1.89H25.3c.03.346-.04.59-.21.73-.17.14-.401.21-.696.21a.888.888 0 0 1-.48-.122.953.953 0 0 1-.316-.326 1.516 1.516 0 0 1-.177-.475 2.902 2.902 0 0 1-.055-.58h3.515c.022-.126.037-.277.044-.454.007-.177.011-.317.011-.42 0-.332-.042-.648-.127-.95a2.041 2.041 0 0 0-.431-.802 2.102 2.102 0 0 0-.801-.552c-.332-.137-.741-.205-1.227-.205-.509 0-.943.081-1.305.243a2.396 2.396 0 0 0-.89.669 2.72 2.72 0 0 0-.508.984c-.107.372-.16.768-.16 1.188 0 .427.055.818.166 1.171.11.354.28.66.508.918.229.258.522.459.879.602.357.144.783.216 1.277.216.42 0 .797-.046 1.132-.138a2.29 2.29 0 0 0 .835-.404c.221-.177.383-.39.486-.64a1.73 1.73 0 0 0 .1-.863zm-2.476-2.874c.332 0 .56.105.685.315.125.21.188.525.188.945v.055h-1.901c.007-.405.096-.725.265-.961.17-.236.424-.354.763-.354zM29.81 8.81h1.813V6.688h.486c.147 0 .256.037.326.11.07.074.12.174.15.299a11.27 11.27 0 0 0 .27.873c.063.177.129.343.199.497.07.155.134.27.193.343h1.99a4.262 4.262 0 0 1-.57-.978 27.52 27.52 0 0 1-.425-1.056c-.096-.25-.215-.434-.36-.552-.143-.118-.355-.203-.635-.255v-.1c.236-.05.426-.13.57-.237.143-.107.27-.27.38-.492a4.49 4.49 0 0 0 .222-.52c.066-.183.133-.364.199-.54.066-.178.144-.347.232-.51a1.88 1.88 0 0 1 .32-.43h-1.923a2.07 2.07 0 0 0-.21.376c-.073.162-.147.331-.22.508-.074.177-.139.343-.194.497-.055.155-.094.266-.116.332-.052.155-.109.26-.172.315-.062.055-.152.083-.27.083h-.442V3.14H29.81zm8.279.166c.935 0 1.65-.256 2.144-.768.494-.512.74-1.255.74-2.228 0-.972-.246-1.716-.74-2.232-.494-.516-1.209-.774-2.144-.774-.951 0-1.673.258-2.167.774-.494.516-.74 1.26-.74 2.232 0 .973.246 1.716.74 2.228.494.512 1.216.768 2.167.768zm0-1.172c-.17 0-.317-.03-.443-.088a.714.714 0 0 1-.309-.293 1.653 1.653 0 0 1-.182-.558 5.302 5.302 0 0 1-.061-.885c0-.346.02-.635.06-.867.041-.232.102-.42.183-.564a.736.736 0 0 1 .31-.31.977.977 0 0 1 .442-.093c.162 0 .304.03.425.094a.746.746 0 0 1 .304.31c.081.143.142.33.182.563.041.232.061.521.061.867 0 .354-.02.649-.06.885a1.664 1.664 0 0 1-.183.558.723.723 0 0 1-.304.293.965.965 0 0 1-.425.088zm8.931-1.227h-1.526c.037.266.035.477-.005.636a.75.75 0 0 1-.194.365.679.679 0 0 1-.304.17c-.114.03-.226.045-.337.045-.177 0-.332-.026-.464-.077a.667.667 0 0 1-.326-.282 1.637 1.637 0 0 1-.194-.558 5.072 5.072 0 0 1-.066-.907c0-.353.02-.646.06-.878.041-.232.102-.418.183-.559a.663.663 0 0 1 .32-.292 1.2 1.2 0 0 1 .465-.083c.133 0 .258.016.376.05a.626.626 0 0 1 .298.182c.081.088.14.208.177.359.037.151.033.345-.011.58h1.525c.089-.737-.072-1.313-.48-1.73-.41-.416-1.038-.624-1.885-.624-.45 0-.857.06-1.221.182a2.4 2.4 0 0 0-.929.553c-.254.247-.45.558-.586.934-.136.376-.204.818-.204 1.326 0 .516.068.962.204 1.338.137.376.332.687.586.934.254.247.564.429.929.547.364.118.771.177 1.22.177.458 0 .846-.061 1.167-.183.32-.121.578-.289.774-.503.195-.213.328-.466.398-.757.07-.29.086-.606.05-.945zm2.962-.232.453 1.835h1.846l.453-1.835a12.733 12.733 0 0 0 .331-1.934h.144a6.09 6.09 0 0 0-.033.492 23.084 23.084 0 0 0 .006 1.53c.01.303.03.616.06.94l.122 1.437h1.702l-.409-5.67H52.17l-.486 2.21a6.17 6.17 0 0 0-.094.481l-.072.47c-.022.147-.04.285-.055.414-.015.13-.022.23-.022.304h-.166c0-.073-.008-.175-.022-.304a17.525 17.525 0 0 0-.133-.884l-.088-.48-.487-2.211h-2.487l-.409 5.67h1.703l.121-1.437c.03-.324.05-.637.06-.94a23.084 23.084 0 0 0 .006-1.53 6.404 6.404 0 0 0-.033-.492h.144a12.733 12.733 0 0 0 .332 1.934zm6.023 2.465h2.31l.785-1.735a21.607 21.607 0 0 0 .79-2.16c.063-.211.11-.371.139-.482l.154.022a11.19 11.19 0 0 0-.077.498 24.73 24.73 0 0 0-.15 1.459 9.718 9.718 0 0 0-.027.685V8.81h1.747V3.14h-2.3l-.784 1.735c-.103.229-.205.474-.304.735-.1.262-.192.514-.276.757a17.56 17.56 0 0 0-.36 1.15l-.143-.022a14.055 14.055 0 0 0 .155-1.2c.021-.254.042-.51.06-.768.019-.258.028-.49.028-.696V3.14h-1.747zM67.71 3.14h-1.812v2.443a1.79 1.79 0 0 1-.354.099c-.125.022-.25.033-.376.033a1.11 1.11 0 0 1-.52-.116c-.146-.077-.22-.223-.22-.436V3.14h-1.813v2.255c0 .346.055.632.166.856.11.225.26.406.448.542.187.136.401.232.64.287.24.055.489.083.747.083.22 0 .442-.015.663-.044.22-.03.427-.074.619-.133V8.81h1.813zm6.268 3.78h-1.57c.03.346-.04.59-.21.73-.17.14-.402.21-.696.21a.888.888 0 0 1-.481-.122.953.953 0 0 1-.315-.326 1.516 1.516 0 0 1-.177-.475 2.902 2.902 0 0 1-.055-.58h3.515c.022-.126.036-.277.044-.454.007-.177.01-.317.01-.42 0-.332-.041-.648-.126-.95a2.041 2.041 0 0 0-.431-.802 2.102 2.102 0 0 0-.802-.552c-.331-.137-.74-.205-1.227-.205-.508 0-.943.081-1.304.243a2.396 2.396 0 0 0-.89.669 2.72 2.72 0 0 0-.508.984c-.107.372-.16.768-.16 1.188 0 .427.055.818.166 1.171.11.354.28.66.508.918.228.258.521.459.879.602.357.144.783.216 1.276.216.42 0 .798-.046 1.133-.138a2.29 2.29 0 0 0 .835-.404c.22-.177.383-.39.486-.64.103-.251.136-.539.1-.863zm-2.476-2.874c.331 0 .56.105.685.315.125.21.188.525.188.945v.055h-1.901c.007-.405.096-.725.265-.961.17-.236.424-.354.763-.354zm8.588 2.531h-1.525c.036.266.035.477-.006.636a.75.75 0 0 1-.193.365.679.679 0 0 1-.304.17 1.33 1.33 0 0 1-.337.045c-.177 0-.332-.026-.465-.077a.667.667 0 0 1-.326-.282 1.637 1.637 0 0 1-.193-.558 5.072 5.072 0 0 1-.067-.907c0-.353.02-.646.061-.878.04-.232.102-.418.183-.559a.663.663 0 0 1 .32-.292 1.2 1.2 0 0 1 .464-.083c.133 0 .258.016.376.05a.626.626 0 0 1 .299.182c.08.088.14.208.177.359.036.151.033.345-.012.58h1.526c.088-.737-.072-1.313-.481-1.73-.409-.416-1.037-.624-1.885-.624-.45 0-.856.06-1.22.182a2.4 2.4 0 0 0-.93.553 2.432 2.432 0 0 0-.585.934c-.136.376-.205.818-.205 1.326 0 .516.069.962.205 1.338.136.376.331.687.586.934.254.247.563.429.928.547.365.118.772.177 1.221.177.457 0 .846-.061 1.167-.183.32-.121.578-.289.773-.503.196-.213.328-.466.398-.757.07-.29.087-.606.05-.945zm.906 2.233h1.813V6.688h.486c.148 0 .256.037.326.11.07.074.12.174.15.299a11.27 11.27 0 0 0 .27.873c.063.177.13.343.2.497.07.155.134.27.193.343h1.99a4.262 4.262 0 0 1-.57-.978 29.35 29.35 0 0 1-.426-1.056c-.095-.25-.215-.434-.359-.552-.143-.118-.355-.203-.635-.255v-.1c.235-.05.425-.13.569-.237.144-.107.27-.27.381-.492a4.67 4.67 0 0 0 .221-.52c.067-.183.133-.364.2-.54.066-.178.143-.347.231-.51.089-.161.196-.305.32-.43h-1.922a2.07 2.07 0 0 0-.21.376 14.821 14.821 0 0 0-.415 1.005c-.055.155-.094.266-.116.332-.051.155-.109.26-.171.315a.4.4 0 0 1-.271.083h-.442V3.14h-1.813zm8.279.166c.936 0 1.65-.256 2.144-.768.494-.512.74-1.255.74-2.228 0-.972-.246-1.716-.74-2.232-.494-.516-1.208-.774-2.144-.774-.95 0-1.673.258-2.166.774-.494.516-.741 1.26-.741 2.232 0 .973.247 1.716.74 2.228.494.512 1.216.768 2.167.768zm0-1.172c-.17 0-.317-.03-.442-.088a.714.714 0 0 1-.31-.293 1.653 1.653 0 0 1-.182-.558c-.04-.236-.06-.53-.06-.885 0-.346.02-.635.06-.867.04-.232.101-.42.182-.564a.736.736 0 0 1 .31-.31.977.977 0 0 1 .442-.093c.162 0 .304.03.425.094a.746.746 0 0 1 .304.31c.081.143.142.33.183.563.04.232.06.521.06.867 0 .354-.02.649-.06.885-.04.235-.102.422-.183.558a.723.723 0 0 1-.304.293.965.965 0 0 1-.425.088zm8.986-.884h-1.57c.03.346-.04.59-.21.73-.169.14-.401.21-.696.21a.888.888 0 0 1-.48-.122.953.953 0 0 1-.316-.326 1.516 1.516 0 0 1-.177-.475 2.902 2.902 0 0 1-.055-.58h3.515c.022-.126.037-.277.044-.454a9.54 9.54 0 0 0 .011-.42c0-.332-.042-.648-.127-.95a2.041 2.041 0 0 0-.43-.802 2.102 2.102 0 0 0-.802-.552c-.332-.137-.74-.205-1.227-.205-.509 0-.943.081-1.304.243a2.396 2.396 0 0 0-.89.669 2.72 2.72 0 0 0-.509.984c-.106.372-.16.768-.16 1.188 0 .427.055.818.166 1.171.11.354.28.66.508.918.229.258.522.459.88.602.356.144.782.216 1.276.216.42 0 .797-.046 1.133-.138a2.29 2.29 0 0 0 .834-.404c.221-.177.383-.39.486-.64.104-.251.137-.539.1-.863zm-2.476-2.874c.332 0 .56.105.685.315.126.21.188.525.188.945v.055h-1.9c.007-.405.095-.725.264-.961.17-.236.424-.354.763-.354zM3.239 20.026c.935 0 1.65-.256 2.144-.768.494-.512.74-1.255.74-2.228 0-.972-.246-1.716-.74-2.232-.494-.516-1.209-.774-2.144-.774-.951 0-1.673.258-2.167.774-.494.516-.74 1.26-.74 2.232 0 .973.246 1.716.74 2.228.494.512 1.216.768 2.167.768zm0-1.172c-.17 0-.317-.03-.443-.088a.714.714 0 0 1-.31-.293 1.653 1.653 0 0 1-.181-.558 5.302 5.302 0 0 1-.061-.885c0-.346.02-.635.06-.867.041-.232.102-.42.183-.564a.736.736 0 0 1 .31-.31.977.977 0 0 1 .442-.093.9.9 0 0 1 .425.094.746.746 0 0 1 .304.31c.081.143.142.33.182.563.041.232.061.521.061.867 0 .354-.02.649-.06.885a1.664 1.664 0 0 1-.183.558.723.723 0 0 1-.304.293.965.965 0 0 1-.425.088zM7.88 19.86h1.813v-4.233h1.371V14.19H6.51v1.437h1.37zm3.902 0h1.813v-2.122h.486c.148 0 .257.037.327.11.07.074.12.174.149.299a11.27 11.27 0 0 0 .27.873c.063.177.13.343.2.497.07.155.134.27.193.343h1.99a4.262 4.262 0 0 1-.57-.978 27.52 27.52 0 0 1-.425-1.056c-.096-.25-.216-.434-.36-.552-.143-.118-.355-.203-.635-.255v-.1c.236-.05.425-.13.57-.237.143-.107.27-.27.38-.492a4.67 4.67 0 0 0 .222-.52c.066-.183.132-.364.199-.54a3.86 3.86 0 0 1 .232-.51 1.88 1.88 0 0 1 .32-.43H15.22a2.07 2.07 0 0 0-.21.376c-.074.162-.147.331-.221.508-.074.177-.138.343-.194.497l-.116.332c-.051.155-.108.26-.17.315a.404.404 0 0 1-.272.083h-.442V14.19h-1.813zm8.798-.973c-.287 0-.522-.143-.707-.43-.184-.288-.276-.76-.276-1.416 0-.663.092-1.138.276-1.425.185-.288.42-.431.708-.431.28 0 .512.143.696.43.184.288.276.763.276 1.426 0 .656-.092 1.128-.276 1.415-.184.288-.416.431-.696.431zm.675-4.863a1.521 1.521 0 0 0-.978.315c-.13.1-.242.216-.337.348a5.908 5.908 0 0 0-.277.42l-.166-.077a2.94 2.94 0 0 0 .1-.415c.022-.136.033-.256.033-.359v-.066h-1.813v7.637h1.813V20.17c0-.191-.02-.38-.06-.569a4.565 4.565 0 0 0-.15-.536l.177-.066a1.926 1.926 0 0 0 1.017.906c.184.074.394.11.63.11.31 0 .599-.06.867-.182.27-.121.503-.305.702-.552.2-.247.356-.557.47-.929.114-.372.171-.808.171-1.31 0-.972-.195-1.718-.585-2.238-.39-.52-.929-.779-1.614-.779zm8.555 5.836h1.813v-5.67H29.81zm-3.659-4.19v-1.48H24.34v5.67h2.442c.487 0 .89-.068 1.21-.204.321-.137.577-.308.769-.514.191-.207.328-.433.409-.68.08-.247.121-.481.121-.702 0-.287-.038-.558-.116-.812a1.522 1.522 0 0 0-.409-.664 2.071 2.071 0 0 0-.773-.447c-.32-.11-.724-.166-1.21-.166zm.509 2.82h-.509v-1.45h.509c.236 0 .423.058.563.172.14.114.21.3.21.558 0 .258-.07.442-.21.553-.14.11-.327.165-.563.165zm7.052 1.37h1.812v-4.233h1.37V14.19h-4.553v1.437h1.37zm3.901 0h2.31l.785-1.735a21.607 21.607 0 0 0 .79-2.16c.063-.211.11-.371.139-.482l.154.022a11.19 11.19 0 0 0-.077.498 24.73 24.73 0 0 0-.15 1.459 9.718 9.718 0 0 0-.027.685v1.713h1.746v-5.67h-2.299l-.784 1.735c-.103.229-.205.474-.304.735-.1.262-.192.514-.277.757a17.56 17.56 0 0 0-.359 1.15l-.144-.022a14.055 14.055 0 0 0 .155-1.2c.022-.254.043-.51.061-.768.018-.258.028-.49.028-.696V14.19h-1.747zm11.937-1.89h-1.569c.03.346-.04.59-.21.73-.17.14-.402.21-.696.21a.888.888 0 0 1-.481-.122.953.953 0 0 1-.315-.326 1.516 1.516 0 0 1-.177-.475 2.902 2.902 0 0 1-.055-.58h3.515c.022-.126.036-.277.044-.454.007-.177.01-.317.01-.42 0-.332-.042-.648-.126-.95a2.041 2.041 0 0 0-.431-.802 2.102 2.102 0 0 0-.802-.552c-.331-.137-.74-.205-1.227-.205-.508 0-.943.081-1.304.243a2.396 2.396 0 0 0-.89.669 2.72 2.72 0 0 0-.508.984c-.107.372-.16.768-.16 1.188 0 .427.055.818.165 1.171.111.354.28.66.509.918.228.258.521.459.879.602.357.144.783.216 1.276.216.42 0 .798-.046 1.133-.138a2.29 2.29 0 0 0 .835-.404c.22-.177.383-.39.486-.64.103-.251.136-.539.1-.863zm-2.475-2.874c.331 0 .56.105.685.315.125.21.188.525.188.945v.055h-1.901c.007-.405.096-.725.265-.961.17-.236.424-.354.763-.354z"/></svg>