<svg width="1792" height="1792" xmlns="http://www.w3.org/2000/svg">

 <g>
  <title>background</title>
  <rect fill="none" id="canvas_background" height="402" width="582" y="-1" x="-1"/>
 </g>
 <g>
  <title>Layer 1</title>
  <path fill="#FF7FB6" id="svg_1" d="m896,384q-204,0 -381.5,69.5t-282,187.5t-104.5,255q0,112 71.5,213.5t201.5,175.5l87,50l-27,96q-24,91 -70,172q152,-63 275,-171l43,-38l57,6q69,8 130,8q204,0 381.5,-69.5t282,-187.5t104.5,-255t-104.5,-255t-282,-187.5t-381.5,-69.5zm896,512q0,174 -120,321.5t-326,233t-450,85.5q-70,0 -145,-8q-198,175 -460,242q-49,14 -114,22l-5,0q-15,0 -27,-10.5t-16,-27.5l0,-1q-3,-4 -0.5,-12t2,-10t4.5,-9.5l6,-9l7,-8.5l8,-9q7,-8 31,-34.5t34.5,-38t31,-39.5t32.5,-51t27,-59t26,-76q-157,-89 -247.5,-220t-90.5,-281q0,-174 120,-321.5t326,-233t450,-85.5t450,85.5t326,233t120,321.5z"/>
 </g>
</svg>