<svg xmlns="http://www.w3.org/2000/svg" fill="none" viewBox="0 0 183 23"><path fill="#000" d="M3.566.241c.303 0 .55.245.55.548v21.126a.549.549 0 01-.55.548H.548A.548.548 0 010 21.915V.789C0 .486.245.241.548.241h3.018zM12.927.241c.167 0 .324.075.428.205l11.699 14.54V.789c0-.303.246-.548.549-.548h3.017c.304 0 .549.245.549.548v21.126a.548.548 0 01-.55.548h-2.473a.547.547 0 01-.428-.204L14.02 7.719v14.196a.549.549 0 01-.55.548h-3.018a.548.548 0 01-.548-.548V.789c0-.303.245-.548.549-.548h2.474zM37.98.241c.194 0 .374.102.472.268l8.337 14.047L55.01.512a.55.55 0 01.474-.27h2.475a.55.55 0 01.55.547l.03 21.125a.548.548 0 01-.549.549h-2.897a.55.55 0 01-.55-.547l-.025-13.404-6.62 11.118a.55.55 0 01-.47.268h-1.389a.546.546 0 01-.47-.267L38.952 8.596v13.319a.548.548 0 01-.55.548h-2.896a.549.549 0 01-.549-.548V.789c0-.303.246-.548.55-.548h2.473zM65.363.241c.191 0 .37.1.468.264l6.292 10.365L78.444.504a.549.549 0 01.468-.263H81.9c.428 0 .691.468.469.833l-8.31 13.69v7.15a.549.549 0 01-.548.549h-2.988a.548.548 0 01-.549-.548v-7.21l-8.309-13.63a.548.548 0 01.469-.834h3.229zM93.923.241c5.775 0 9.361 2.997 9.361 7.912-.008 3.265-1.529 5.434-4.351 6.915l4.612 6.53a.548.548 0 01-.447.865h-3.29a.547.547 0 01-.449-.233l-4.38-6.236a14.98 14.98 0 01-1.056.041h-4.672v5.88a.548.548 0 01-.55.548h-3.016a.549.549 0 01-.55-.548V.789c0-.303.247-.548.55-.548h8.238zm-.09 3.723H89.25v8.409h4.582c3.53 0 5.336-1.49 5.336-4.22 0-2.721-1.797-4.19-5.336-4.19zM117.708 0c6.731 0 11.745 4.833 11.745 11.352 0 6.52-5.014 11.353-11.745 11.352-6.772.001-11.805-4.843-11.805-11.352C105.903 4.844 110.936 0 117.708 0zm0 3.782c-4.44 0-7.689 3.2-7.689 7.57s3.249 7.57 7.689 7.57c4.388 0 7.629-3.209 7.629-7.57 0-4.361-3.241-7.57-7.629-7.57zM143.606 0c6.733 0 11.745 4.833 11.745 11.352 0 6.52-5.012 11.353-11.745 11.352-6.771.001-11.804-4.843-11.804-11.352C131.802 4.844 136.835 0 143.606 0zm0 3.782c-4.44 0-7.689 3.2-7.689 7.57s3.249 7.57 7.689 7.57c4.389 0 7.63-3.209 7.63-7.57 0-4.361-3.241-7.57-7.63-7.57zM162.444.241c.193 0 .373.102.471.268l8.337 14.047L179.474.512a.547.547 0 01.473-.27h2.475c.303 0 .548.244.548.547l.03 21.125a.548.548 0 01-.548.549h-2.897a.549.549 0 01-.549-.547l-.027-13.404-6.618 11.118a.55.55 0 01-.472.268h-1.388a.547.547 0 01-.471-.267l-6.615-11.035v13.319a.548.548 0 01-.549.548h-2.897a.55.55 0 01-.549-.548V.789a.55.55 0 01.549-.548h2.475z"/></svg>