<svg xmlns="http://www.w3.org/2000/svg" fill-rule="evenodd" clip-rule="evenodd" image-rendering="optimizeQuality" shape-rendering="geometricPrecision" text-rendering="geometricPrecision" viewBox="0 0 512 512"><path fill="#a479e2" d="M233.5-.5h44c100.305 12.482 171.805 64.482 214.5 156 10.297 25.187 16.797 51.187 19.5 78v44c-10.594 90.055-54.928 157.888-133 203.5-25.199 13.455-51.866 22.622-80 27.5 6.58-34.146 12.08-68.48 16.5-103a246.239 246.239 0 001-58c-2.409-9.745-7.909-17.245-16.5-22.5-27.558-13.287-55.225-13.62-83-1-9.979 5.309-16.146 13.476-18.5 24.5a453.029 453.029 0 003 72 1884.296 1884.296 0 0014.5 85v3c-92.229-16.735-157.73-67.735-196.5-153-10.297-25.187-16.797-51.187-19.5-78v-44C11.982 133.195 63.982 61.695 155.5 19c25.187-10.297 51.187-16.797 78-19.5z" opacity=".992"/><path fill="#f1f0f1" d="M234.5 25.5c98.843-3.842 173.676 36.158 224.5 120 37.232 72.949 37.899 146.282 2 220-28.837 53.174-71.671 90.174-128.5 111-.298-12.221 1.369-24.221 5-36 70.009-34.22 109.509-90.22 118.5-168 2.419-84.485-32.415-148.318-104.5-191.5-70.736-35.233-139.736-32.233-207 9-56.245 39.818-86.245 94.318-90 163.5 1.521 74.896 33.188 133.062 95 174.5a185.446 185.446 0 0028 14.5 274.285 274.285 0 016 35c-65.704-22.532-112.87-65.532-141.5-129-35.147-92.912-20.147-176.579 45-251 40.675-41.254 89.842-65.254 147.5-72z"/><path fill="#f1f0f1" d="M236.5 104.5c53.858-4.002 99.024 13.665 135.5 53 40.209 50.805 47.542 106.138 22 166-12.3 23.969-29.3 43.969-51 60a2264.686 2264.686 0 01-1-40c35.637-39.352 44.304-84.019 26-134-25.969-51.915-68.136-76.415-126.5-73.5-55.46 9.462-90.626 41.295-105.5 95.5-7.586 45.018 4.581 83.685 36.5 116a763.994 763.994 0 00-1.5 38c-49.922-35.684-72.589-84.351-68-146 11.084-66.752 48.917-110.252 113.5-130.5a737.34 737.34 0 0120-4.5z"/><path fill="#f1f1f1" d="M246.5 182.5c32.588-1.549 53.755 13.118 63.5 44 3.123 35.857-12.711 58.023-47.5 66.5-28.732 1.554-48.565-10.946-59.5-37.5-7.551-37.575 6.949-61.908 43.5-73zM298.5 508.5h-3c-5.889-.05-11.556.616-17 2v1h-45l-10-2c-2.107-.968-4.441-1.302-7-1 .237-1.291-.096-2.291-1-3a1884.296 1884.296 0 01-14.5-85 453.029 453.029 0 01-3-72c2.354-11.024 8.521-19.191 18.5-24.5 27.775-12.62 55.442-12.287 83 1 8.591 5.255 14.091 12.755 16.5 22.5a246.239 246.239 0 01-1 58c-4.42 34.52-9.92 68.854-16.5 103z"/><path fill="#d0bdeb" d="M215.5 505.5c.904.709 1.237 1.709 1 3 2.559-.302 4.893.032 7 1-2.885.306-5.552-.027-8-1v-3z" opacity=".835"/><path fill="#c8b1e9" d="M295.5 508.5c-5.444 1.384-11.111 2.05-17 2 5.444-1.384 11.111-2.05 17-2z" opacity=".808"/></svg>