<svg xmlns="http://www.w3.org/2000/svg" fill="none" viewBox="0 0 40 16"><path fill="#DF0000" d="M38.773 2.574c-.28-1.221-1.28-2.122-2.481-2.256C33.446 0 30.564-.002 27.696 0 24.829 0 21.947 0 19.1.318c-1.202.134-2.2 1.035-2.48 2.256-.4 1.738-.405 3.636-.405 5.426s0 3.688.4 5.426c.28 1.22 1.279 2.121 2.48 2.256 2.847.318 5.728.319 8.596.318 2.87.001 5.75 0 8.597-.318 1.201-.135 2.2-1.035 2.48-2.256.4-1.738.402-3.636.402-5.426s.003-3.688-.397-5.426zM22.763 3.92H21.1v8.828h-1.543V3.921h-1.631V2.475h4.836V3.92zm4.191 8.829h-1.388v-.835c-.551.632-1.075.94-1.585.94-.447 0-.755-.181-.894-.569-.075-.231-.122-.598-.122-1.138V5.094h1.387v5.637c0 .325 0 .494.012.54.034.214.139.324.325.324.278 0 .569-.215.877-.65V5.094h1.388v7.656zm5.27-2.298c0 .708-.047 1.218-.14 1.543-.185.57-.556.86-1.108.86-.494 0-.97-.274-1.434-.847v.742h-1.387V2.475h1.387V5.83c.448-.552.924-.83 1.434-.83.552 0 .923.29 1.108.863.093.308.14.814.14 1.539v3.049zm5.236-1.277h-2.775v1.357c0 .708.232 1.062.709 1.062.342 0 .54-.185.62-.556.012-.075.03-.384.03-.94h1.416v.202c0 .448-.017.756-.03.894a1.978 1.978 0 01-.324.831c-.384.556-.953.83-1.678.83s-1.278-.26-1.679-.784c-.294-.383-.445-.986-.445-1.8V7.59c0-.819.134-1.417.429-1.804.4-.524.953-.785 1.661-.785.696 0 1.248.26 1.637.785.29.387.43.985.43 1.804v1.585h-.001z"/><path fill="#DF0000" d="M35.382 6.25c-.464 0-.697.354-.697 1.061v.709h1.388V7.31c0-.707-.233-1.061-.691-1.061zM30.233 6.25c-.228 0-.46.107-.692.337v4.666c.232.232.464.342.692.342.4 0 .604-.342.604-1.033V7.294c0-.69-.204-1.044-.604-1.044z"/><path fill="#000" d="M11.444 11.916c.497 0 1.014-.31 1.556-.95v.844h1.362V4.082H13v5.906c-.302.439-.588.656-.86.656-.183 0-.29-.111-.32-.328-.017-.046-.017-.217-.017-.545v-5.69h-1.358v6.112c0 .545.046.915.121 1.149.137.391.44.574.878.574zM1.893 7.685v4.23h1.512v-4.23L5.223 1.47H3.694l-1.03 4.102L1.59 1.47H0c.319.969.65 1.942.969 2.91.485 1.458.787 2.556.924 3.305zM7.182 11.916c.664 0 1.18-.261 1.546-.782.279-.382.412-.984.412-1.796V6.664c0-.816-.133-1.413-.412-1.799-.366-.522-.882-.783-1.546-.783-.661 0-1.177.26-1.544.783-.282.386-.415.983-.415 1.799v2.674c0 .812.133 1.414.415 1.796.367.521.883.782 1.544.782zm-.633-5.53c0-.706.205-1.058.633-1.058.427 0 .632.352.632 1.059v3.212c0 .707-.205 1.06-.632 1.06-.428 0-.633-.354-.633-1.06V6.387z"/></svg>