<svg width="64.594" height="4" viewBox="0 0 64.594 4" xmlns="http://www.w3.org/2000/svg"><g fill="#fff" stroke="#000"><path d="M3.01 2.888h-.288V.662H.62v.646c0 .08-.002.174-.005.283-.003.11-.01.223-.02.341-.01.118-.027.234-.05.348a1.515 1.515 0 01-.096.305.674.674 0 01-.148.22.303.303 0 01-.217.083H.066v1.27H.81V3.53h1.478v.629h.722zm-1.045 0H.89v-.062a.43.43 0 00.168-.115.69.69 0 00.137-.254c.038-.114.069-.264.09-.45.023-.185.034-.42.034-.703h.646zM5.409 2.773H4.78c.012.139-.016.236-.084.292a.425.425 0 01-.279.084.355.355 0 01-.192-.048.382.382 0 01-.126-.13.607.607 0 01-.071-.191 1.162 1.162 0 01-.022-.233h1.407a1.4 1.4 0 00.018-.181c.003-.07.004-.127.004-.168 0-.133-.017-.26-.05-.38a.817.817 0 00-.173-.322.842.842 0 00-.321-.221 1.296 1.296 0 00-.491-.082 1.27 1.27 0 00-.523.097.96.96 0 00-.356.268 1.09 1.09 0 00-.204.394 1.716 1.716 0 00-.064.476c0 .171.022.327.067.47a.919.919 0 00.555.609c.143.056.314.085.511.085.168 0 .32-.018.454-.055a.917.917 0 00.334-.162.634.634 0 00.235-.602zm-.992-1.15c.133 0 .225.041.275.125.05.085.075.21.075.379v.022h-.761a.67.67 0 01.106-.385c.068-.094.17-.142.305-.142zM6.312 2.078H6.25v-.057c0-.118.009-.224.026-.317a.71.71 0 01.093-.245.57.57 0 01.182-.18.996.996 0 01.292-.117c.08-.02.155-.038.226-.05l.21-.04c.07-.014.138-.03.208-.047.07-.018.14-.04.21-.067l-.04-.672c-.062.026-.12.05-.175.07-.054.021-.114.04-.179.058a4.427 4.427 0 01-.219.053l-.299.067a1.44 1.44 0 00-.529.216 1.117 1.117 0 00-.325.352c-.08.137-.134.293-.164.467a3.336 3.336 0 00.018 1.17c.041.182.107.336.197.461a.89.89 0 00.352.29c.144.068.318.102.522.102.177 0 .333-.03.47-.09a.982.982 0 00.548-.61c.047-.138.07-.286.07-.442 0-.147-.018-.284-.057-.41a.98.98 0 00-.163-.322.756.756 0 00-.62-.29.989.989 0 00-.321.046.674.674 0 00-.23.13.666.666 0 00-.155.204.982.982 0 00-.086.27zm.518.934c-.119 0-.206-.037-.262-.11-.056-.074-.084-.198-.084-.372 0-.177.03-.307.089-.39a.296.296 0 01.257-.124c.118 0 .205.039.263.115.057.077.086.202.086.377 0 .177-.03.305-.088.385-.06.08-.146.12-.261.12zM10.388 2.773H9.76c.011.139-.017.236-.084.292a.425.425 0 01-.28.084.355.355 0 01-.192-.048.382.382 0 01-.126-.13.607.607 0 01-.07-.191 1.162 1.162 0 01-.023-.233h1.408a1.4 1.4 0 00.017-.181c.003-.07.005-.127.005-.168 0-.133-.017-.26-.051-.38a.817.817 0 00-.173-.322.842.842 0 00-.32-.221 1.296 1.296 0 00-.492-.082 1.27 1.27 0 00-.522.097.96.96 0 00-.357.268 1.09 1.09 0 00-.203.394 1.716 1.716 0 00-.064.476c0 .171.022.327.066.47a.919.919 0 00.555.609c.144.056.314.085.512.085.168 0 .32-.018.453-.055a.917.917 0 00.335-.162.634.634 0 00.234-.602zm-.991-1.15c.132 0 .224.041.274.125.05.085.075.21.075.379v.022h-.761a.67.67 0 01.106-.385c.068-.094.17-.142.306-.142zM11.118 3.53h.726V1.835h.55v-.576H10.57v.576h.548zM13.712 3.596c.375 0 .661-.102.859-.307.198-.205.296-.503.296-.892 0-.39-.098-.688-.296-.894-.198-.207-.484-.31-.859-.31-.38 0-.67.103-.867.31-.198.206-.297.504-.297.894s.099.687.297.892c.197.205.486.307.867.307zm0-.469a.412.412 0 01-.177-.035.286.286 0 01-.124-.117.662.662 0 01-.073-.224 2.143 2.143 0 01-.024-.354c0-.139.008-.255.024-.348a.712.712 0 01.073-.225.295.295 0 01.124-.124.391.391 0 01.177-.038c.065 0 .122.013.17.038.05.025.09.066.122.124a.712.712 0 01.073.225c.017.093.025.21.025.348 0 .142-.008.26-.025.354a.662.662 0 01-.073.224.29.29 0 01-.121.117.387.387 0 01-.17.035zM15.221 1.26v2.27h1.094c.127 0 .248-.01.363-.029a.938.938 0 00.3-.1.561.561 0 00.206-.192.572.572 0 00.078-.312.537.537 0 00-.029-.17.431.431 0 00-.097-.16.558.558 0 00-.184-.124.806.806 0 00-.283-.06v-.052a.81.81 0 00.234-.08.492.492 0 00.274-.43c0-.206-.074-.351-.225-.435-.15-.085-.354-.127-.61-.127zm1.058 1.814h-.354v-.447h.363c.068 0 .13.016.188.049.058.032.087.09.087.172 0 .08-.026.138-.078.173a.358.358 0 01-.206.053zm-.084-.903h-.27v-.46h.306c.067 0 .126.016.174.049.05.032.073.088.073.168 0 .082-.028.144-.084.183a.335.335 0 01-.199.06zM18.475 3.118a.328.328 0 01-.233-.084.282.282 0 01-.09-.217.303.303 0 01.144-.268.657.657 0 01.207-.081 1.81 1.81 0 01.33-.04v.164c0 .068-.006.133-.018.197a.497.497 0 01-.062.168.358.358 0 01-.112.117.3.3 0 01-.166.044zm-.319.474c.1 0 .188-.012.263-.035a.774.774 0 00.2-.093.61.61 0 00.146-.135c.04-.052.074-.107.104-.166l.057.03a4.118 4.118 0 00-.049.167.562.562 0 00-.022.143v.027h.704V1.99c0-.118-.014-.226-.042-.323a.567.567 0 00-.15-.253.714.714 0 00-.301-.163 1.741 1.741 0 00-.49-.058c-.2 0-.368.022-.502.066a.82.82 0 00-.316.177.555.555 0 00-.155.255.724.724 0 00-.018.299h.602a.432.432 0 01-.004-.138.249.249 0 01.046-.117.263.263 0 01.106-.082.414.414 0 01.17-.03c.113 0 .195.027.248.081.054.055.08.132.08.233v.159c-.144.006-.296.02-.456.04-.16.02-.305.06-.438.12a.835.835 0 00-.327.254c-.086.11-.129.26-.129.449a.637.637 0 00.175.434.673.673 0 00.498.199zM20.652 1.994c0-.097.027-.168.08-.212a.282.282 0 01.186-.067h.31v.536h-.288a.31.31 0 01-.2-.071.227.227 0 01-.088-.186zm-.85 1.536h.775c.041-.094.079-.184.113-.27.034-.086.058-.171.073-.257.02-.106.05-.179.09-.219.04-.04.1-.06.18-.06h.195v.806h.726V1.26h-1.209a1.18 1.18 0 00-.307.04.842.842 0 00-.264.119.572.572 0 00-.252.487c0 .067.013.134.038.199a.495.495 0 00.12.177.65.65 0 00.214.133.985.985 0 00.318.062v.057a.602.602 0 00-.356.13.66.66 0 00-.192.3l-.058.161a2.446 2.446 0 01-.137.31.432.432 0 01-.067.095zM23.193 3.53h.726v-.85h.195c.059 0 .102.015.13.044.028.03.048.07.06.12a3.404 3.404 0 00.108.35c.025.07.052.137.08.199a.672.672 0 00.077.137h.797a1.707 1.707 0 01-.228-.392c-.063-.149-.12-.29-.17-.422a.52.52 0 00-.144-.222.56.56 0 00-.255-.102v-.04a.59.59 0 00.228-.095.541.541 0 00.153-.196c.032-.065.062-.135.089-.209.026-.073.053-.146.08-.216.026-.071.057-.14.092-.204a.75.75 0 01.129-.173h-.77a.83.83 0 00-.085.15 6.998 6.998 0 00-.166.404 7.575 7.575 0 00-.046.132.296.296 0 01-.069.127c-.025.022-.061.033-.108.033h-.177v-.846h-.726zM26.446 3.118a.328.328 0 01-.232-.084.282.282 0 01-.091-.217.303.303 0 01.144-.268.657.657 0 01.208-.081 1.81 1.81 0 01.33-.04v.164c0 .068-.006.133-.018.197a.497.497 0 01-.062.168.358.358 0 01-.113.117.3.3 0 01-.166.044zm-.319.474c.1 0 .189-.012.264-.035a.774.774 0 00.199-.093.61.61 0 00.146-.135c.04-.052.074-.107.104-.166l.058.03a4.118 4.118 0 00-.05.167.562.562 0 00-.021.143v.027h.703V1.99c0-.118-.014-.226-.042-.323a.567.567 0 00-.15-.253.714.714 0 00-.301-.163 1.741 1.741 0 00-.49-.058c-.2 0-.367.022-.501.066a.82.82 0 00-.317.177.555.555 0 00-.155.255.724.724 0 00-.018.299h.602a.432.432 0 01-.004-.138.249.249 0 01.046-.117.263.263 0 01.107-.082.414.414 0 01.17-.03c.112 0 .195.027.248.081.053.055.08.132.08.233v.159c-.145.006-.297.02-.456.04-.16.02-.306.06-.438.12a.835.835 0 00-.328.254c-.086.11-.128.26-.128.449a.637.637 0 00.174.434.673.673 0 00.498.199zM29.035 3.14c-.115 0-.21-.057-.283-.172-.074-.115-.11-.304-.11-.567 0-.265.036-.456.11-.57.074-.116.168-.173.283-.173.112 0 .205.057.28.172.073.115.11.306.11.571 0 .263-.037.452-.11.567-.075.115-.168.173-.28.173zm.27-1.947a.61.61 0 00-.392.126.672.672 0 00-.134.14c-.039.053-.076.109-.111.168l-.066-.031a1.178 1.178 0 00.053-.31v-.027h-.726v3.059h.726v-.664c0-.077-.008-.153-.025-.228a1.828 1.828 0 00-.06-.215l.071-.026a.765.765 0 00.215.254.778.778 0 00.193.109c.073.03.158.044.252.044.124 0 .24-.024.347-.073a.762.762 0 00.281-.221 1.1 1.1 0 00.189-.372c.045-.15.068-.324.068-.525 0-.39-.078-.688-.234-.896a.764.764 0 00-.647-.312zM30.89 3.53h.726V1.835h.549v-.576H30.34v.576h.549zM33.311 3.118a.328.328 0 01-.232-.084.282.282 0 01-.091-.217.303.303 0 01.144-.268.657.657 0 01.208-.081 1.81 1.81 0 01.33-.04v.164c0 .068-.006.133-.018.197a.497.497 0 01-.062.168.358.358 0 01-.113.117.3.3 0 01-.166.044zm-.319.474c.1 0 .188-.012.264-.035a.774.774 0 00.199-.093.61.61 0 00.146-.135c.04-.052.074-.107.104-.166l.057.03a4.118 4.118 0 00-.048.167.562.562 0 00-.022.143v.027h.703V1.99c0-.118-.014-.226-.042-.323a.567.567 0 00-.15-.253.714.714 0 00-.301-.163 1.741 1.741 0 00-.49-.058c-.2 0-.367.022-.502.066a.82.82 0 00-.316.177.555.555 0 00-.155.255.724.724 0 00-.018.299h.602a.432.432 0 01-.004-.138.249.249 0 01.046-.117.263.263 0 01.107-.082.414.414 0 01.17-.03c.112 0 .195.027.248.081.053.055.08.132.08.233v.159c-.145.006-.297.02-.456.04-.16.02-.306.06-.439.12a.835.835 0 00-.327.254c-.086.11-.128.26-.128.449a.637.637 0 00.174.434.673.673 0 00.498.199zM37.423 2.92a.476.476 0 00-.133-.346.637.637 0 00-.358-.177v-.058a.645.645 0 00.174-.06.554.554 0 00.146-.108.505.505 0 00.14-.358.48.48 0 00-.08-.277.644.644 0 00-.212-.195 1 1 0 00-.308-.113 1.86 1.86 0 00-.37-.035c-.156 0-.297.016-.424.049a.86.86 0 00-.317.146.53.53 0 00-.18.245.646.646 0 00-.012.348h.548a.235.235 0 01.014-.14.237.237 0 01.075-.09.315.315 0 01.117-.051.632.632 0 01.14-.016.39.39 0 01.219.06c.06.04.09.103.09.188 0 .086-.029.147-.088.184a.402.402 0 01-.217.055h-.261v.465h.266c.088 0 .165.013.23.04.065.026.097.085.097.177 0 .088-.033.154-.1.197a.436.436 0 01-.24.064.446.446 0 01-.277-.082c-.073-.055-.1-.136-.082-.246h-.567a.568.568 0 00.204.604.89.89 0 00.312.151c.122.034.257.051.405.051.16 0 .303-.014.431-.042a1.06 1.06 0 00.33-.126.564.564 0 00.288-.505zM38.613 3.118a.328.328 0 01-.232-.084.282.282 0 01-.09-.217.303.303 0 01.144-.268.657.657 0 01.207-.081 1.81 1.81 0 01.33-.04v.164c0 .068-.006.133-.018.197a.497.497 0 01-.062.168.358.358 0 01-.113.117.3.3 0 01-.166.044zm-.318.474c.1 0 .188-.012.263-.035a.774.774 0 00.2-.093.61.61 0 00.145-.135c.04-.052.075-.107.104-.166l.058.03a4.118 4.118 0 00-.049.167.562.562 0 00-.022.143v.027h.704V1.99c0-.118-.014-.226-.042-.323a.567.567 0 00-.15-.253.714.714 0 00-.302-.163 1.741 1.741 0 00-.489-.058c-.2 0-.368.022-.502.066a.82.82 0 00-.317.177.555.555 0 00-.154.255.724.724 0 00-.018.299h.602a.432.432 0 01-.005-.138.249.249 0 01.047-.117.263.263 0 01.106-.082.414.414 0 01.17-.03c.113 0 .195.027.248.081.053.055.08.132.08.233v.159c-.145.006-.297.02-.456.04-.16.02-.305.06-.438.12a.835.835 0 00-.328.254c-.085.11-.128.26-.128.449a.637.637 0 00.175.434.673.673 0 00.498.199zM41.977 3.6c.148 0 .292-.024.434-.074a.967.967 0 00.38-.253c.113-.118.203-.274.27-.469.069-.195.103-.437.103-.726 0-.277-.036-.511-.107-.701a1.292 1.292 0 00-.274-.458.991.991 0 00-.379-.248 1.247 1.247 0 00-.858 0 .982.982 0 00-.385.252 1.29 1.29 0 00-.275.47c-.07.194-.104.434-.104.72 0 .28.036.516.107.707.07.19.163.343.276.458.114.115.242.197.385.248.143.05.286.075.427.075zm-.009-.623c-.12 0-.215-.077-.283-.23-.068-.154-.102-.37-.102-.651 0-.277.034-.493.102-.646.068-.154.163-.23.283-.23.124 0 .22.078.288.234.068.157.102.376.102.66 0 .277-.035.49-.104.64-.07.148-.165.223-.286.223zM44.553 2.016h-.327v.42h.327v.222h-.327v.42h.327v.452h.757v-.451h.775v-.42h-.775v-.222h.27c.168 0 .323-.018.465-.053.142-.036.263-.09.363-.164a.762.762 0 00.234-.281.895.895 0 00.085-.4.878.878 0 00-.091-.421.75.75 0 00-.241-.27.977.977 0 00-.35-.144 2.01 2.01 0 00-.416-.042h-1.076zm.757-.712h.253c.147 0 .254.028.32.084.067.056.1.144.1.265 0 .133-.038.226-.113.28a.525.525 0 01-.307.079h-.253zM47.9 1.26v2.27h1.093c.127 0 .248-.01.363-.029a.938.938 0 00.3-.1.561.561 0 00.206-.192.572.572 0 00.078-.312.537.537 0 00-.029-.17.431.431 0 00-.097-.16.558.558 0 00-.184-.124.806.806 0 00-.283-.06v-.052a.81.81 0 00.234-.08.492.492 0 00.274-.43c0-.206-.074-.351-.225-.435-.15-.085-.354-.127-.61-.127zm1.057 1.814h-.354v-.447h.363c.068 0 .13.016.188.049.058.032.087.09.087.172 0 .08-.026.138-.078.173a.358.358 0 01-.206.053zm-.084-.903h-.27v-.46h.306c.068 0 .126.016.174.049.05.032.074.088.074.168 0 .082-.029.144-.085.183a.335.335 0 01-.199.06zM51.069 3.53h.725V1.835h.78v-.576h-1.505zM53.892 3.596c.375 0 .661-.102.86-.307.197-.205.296-.503.296-.892 0-.39-.1-.688-.297-.894-.198-.207-.484-.31-.859-.31-.38 0-.67.103-.867.31-.198.206-.297.504-.297.894s.1.687.297.892c.198.205.487.307.867.307zm0-.469a.412.412 0 01-.177-.035.286.286 0 01-.124-.117.662.662 0 01-.073-.224 2.143 2.143 0 01-.024-.354c0-.139.008-.255.024-.348a.712.712 0 01.073-.225.295.295 0 01.124-.124.391.391 0 01.177-.038c.065 0 .122.013.17.038.05.025.09.066.123.124a.712.712 0 01.073.225c.016.093.024.21.024.348 0 .142-.008.26-.024.354a.662.662 0 01-.073.224.29.29 0 01-.122.117.387.387 0 01-.17.035zM57.677 2.955h-.24V1.259h-1.814v.585c0 .118-.004.242-.011.371-.007.13-.025.25-.053.359a.76.76 0 01-.124.272.26.26 0 01-.22.109h-.035v1.124h.669V3.53h1.16v.549h.668zm-.965 0h-.788V2.91a.556.556 0 00.186-.132.535.535 0 00.108-.206c.025-.084.042-.186.05-.306.006-.12.01-.263.01-.431h.434z" stroke-width=".00443"/></g></svg>