<svg xmlns="http://www.w3.org/2000/svg" width="232" height="11"><path fill="#FFF" stroke="#FFF" stroke-width=".01" d="M.6 8V1.36q.5-.13 1.12-.13 1 0 1.5.49.49.49.49 1.4 0 .84-.41 1.38-.26.36-.69.555-.43.195-.9.195-.23 0-.34-.01V8zm.77-6.09V4.6q.18.02.31.02.58 0 .92-.375.34-.375.34-1.075 0-.58-.27-.945T1.8 1.86q-.26 0-.43.05zm5.69 3.74H4.82q.01 1.8 1.14 1.8.46 0 .8-.18l.13.56q-.41.23-1.07.23-.85 0-1.3-.645-.45-.645-.45-1.785 0-1.17.45-1.86.45-.69 1.18-.69.69 0 1.035.615T7.08 5.21q0 .2-.02.44zm-2.23-.57h1.51q.01-.68-.205-1.04t-.515-.36q-.35 0-.555.425-.205.425-.235.975zm3.08-1.92h.75v2.1h.11l1.27-2.1h.85L9.38 5.34q.85.14 1.18 1.37.28 1 .4 1.29h-.79q-.1-.24-.35-1.13-.14-.53-.385-.79t-.695-.26h-.08V8h-.75zm4.12 0h2.56V8h-.77V3.79h-1.06v1.54q0 1.16-.16 1.77-.16.61-.65.85-.24.12-.52.12l-.13-.61q.24-.04.4-.22.33-.33.33-1.86zm6.18 1.64v2.1q0 .79.05 1.1h-.69l-.05-.51h-.03q-.33.59-.96.59-.5 0-.825-.38-.325-.38-.325-1 0-.86.585-1.305.585-.445 1.475-.455v-.15q0-.53-.17-.815-.17-.285-.6-.285-.44 0-.8.25l-.17-.54q.45-.32 1.13-.32 1.38 0 1.38 1.72zm-.75 1.67v-.98q-1.33 0-1.33 1.13 0 .44.175.65.175.21.415.21.26 0 .45-.19t.26-.54q.03-.13.03-.28zM19.14 8l.34-4.84h.9l.64 2.12q.24.82.43 1.55h.02q.25-.99.41-1.55l.62-2.12h.92L23.75 8h-.72l-.1-2.08q-.05-1.03-.07-2.04h-.02q-.25 1.05-.48 1.86l-.66 2.23h-.56l-.63-2.15q-.26-.93-.49-1.94h-.03q0 .7-.06 2.08L19.84 8zm8.09-3.2v2.1q0 .79.05 1.1h-.69l-.05-.51h-.03q-.33.59-.96.59-.5 0-.825-.38-.325-.38-.325-1 0-.86.585-1.305.585-.445 1.475-.455v-.15q0-.53-.17-.815-.17-.285-.6-.285-.44 0-.8.25l-.17-.54q.45-.32 1.13-.32 1.38 0 1.38 1.72zm-.75 1.67v-.98q-1.33 0-1.33 1.13 0 .44.175.65.175.21.415.21.26 0 .45-.19t.26-.54q.03-.13.03-.28zm2.3 1.61h-.01q-.21 0-.355-.16t-.145-.42q0-.25.15-.415.15-.165.36-.165.23 0 .37.16.14.16.14.42 0 .27-.135.425-.135.155-.375.155zM31.89 8V1.36q.5-.13 1.12-.13 1 0 1.5.49.49.49.49 1.4 0 .84-.41 1.38-.26.36-.69.555-.43.195-.9.195-.23 0-.34-.01V8zm.77-6.09V4.6q.18.02.31.02.58 0 .92-.375.34-.375.34-1.075 0-.58-.27-.945t-.87-.365q-.26 0-.43.05zm5.69 3.74h-2.24q.01 1.8 1.14 1.8.46 0 .8-.18l.13.56q-.41.23-1.07.23-.85 0-1.3-.645-.45-.645-.45-1.785 0-1.17.45-1.86.45-.69 1.18-.69.69 0 1.035.615t.345 1.515q0 .2-.02.44zm-2.23-.57h1.51q.01-.68-.205-1.04t-.515-.36q-.35 0-.555.425-.205.425-.235.975zm3.08-1.92h.75v2.1h.11l1.27-2.1h.85l-1.51 2.18q.85.14 1.18 1.37.28 1 .4 1.29h-.79q-.1-.24-.35-1.13-.14-.53-.385-.79t-.695-.26h-.08V8h-.75zm4.12 0h2.56V8h-.77V3.79h-1.06v1.54q0 1.16-.16 1.77-.16.61-.65.85-.24.12-.52.12l-.13-.61q.24-.04.4-.22.33-.33.33-1.86zM49.5 4.8v2.1q0 .79.05 1.1h-.69l-.05-.51h-.03q-.33.59-.96.59-.5 0-.825-.38-.325-.38-.325-1 0-.86.585-1.305.585-.445 1.475-.455v-.15q0-.53-.17-.815-.17-.285-.6-.285-.44 0-.8.25l-.17-.54q.45-.32 1.13-.32 1.38 0 1.38 1.72zm-.75 1.67v-.98q-1.33 0-1.33 1.13 0 .44.175.65.175.21.415.21.26 0 .45-.19t.26-.54q.03-.13.03-.28zM50.43 8l.34-4.84h.9l.64 2.12q.24.82.43 1.55h.02q.25-.99.41-1.55l.62-2.12h.92L55.04 8h-.72l-.1-2.08q-.05-1.03-.07-2.04h-.02q-.25 1.05-.48 1.86l-.66 2.23h-.56l-.63-2.15q-.26-.93-.49-1.94h-.03q0 .7-.06 2.08L51.13 8zm6.87.08h-.01q-.69 0-1.13-.635-.44-.635-.44-1.855 0-1.25.47-1.88.47-.63 1.15-.63.69 0 1.125.635.435.635.435 1.855 0 1.29-.475 1.9-.475.61-1.125.61zm.02-.61h.01q.31 0 .5-.33t.245-.72q.055-.39.055-.84 0-.45-.055-.835-.055-.385-.25-.72-.195-.335-.515-.335-.24 0-.415.185t-.255.49q-.08.305-.115.6t-.035.615q0 .34.035.64t.12.6q.085.3.255.475.17.175.42.175zm2.86-4.31h2.46V7.4l.41.01-.04 1.88h-.59L62.37 8h-2.51l-.05 1.29h-.59l-.04-1.88.32-.01q.31-.47.46-1.03.22-.81.22-1.8zm.68.62v.71q0 1.19-.21 1.92-.15.57-.38.98h1.61V3.78zm5.56 1.02v2.1q0 .79.05 1.1h-.69l-.05-.51h-.03q-.33.59-.96.59-.5 0-.825-.38-.325-.38-.325-1 0-.86.585-1.305.585-.445 1.475-.455v-.15q0-.53-.17-.815-.17-.285-.6-.285-.44 0-.8.25l-.17-.54q.45-.32 1.13-.32 1.38 0 1.38 1.72zm-.75 1.67v-.98q-1.33 0-1.33 1.13 0 .44.175.65.175.21.415.21.26 0 .45-.19t.26-.54q.03-.13.03-.28zm1.31-3.31h2.97v.64h-1.1V8h-.77V3.8h-1.1zm6.21 2.49h-2.24q.01 1.8 1.14 1.8.46 0 .8-.18l.13.56q-.41.23-1.07.23-.85 0-1.3-.645-.45-.645-.45-1.785 0-1.17.45-1.86.45-.69 1.18-.69.69 0 1.035.615t.345 1.515q0 .2-.02.44zm-2.23-.57h1.51q.01-.68-.205-1.04t-.515-.36q-.35 0-.555.425-.205.425-.235.975zm3.32-1.92h2.56V8h-.77V3.79h-1.06v1.54q0 1.16-.16 1.77-.16.61-.65.85-.24.12-.52.12l-.13-.61q.24-.04.4-.22.33-.33.33-1.86zm3.63 0h.76v1.71q.07 0 .23-.015t.23-.015q.8 0 1.325.395.525.395.525 1.165 0 .75-.54 1.18-.57.47-1.54.47-.49 0-.99-.08zm.76 2.3v1.97q.24.02.34.02.51 0 .845-.26.335-.26.335-.76t-.34-.745q-.34-.245-.86-.245-.12 0-.32.02zm3.58 2.62h-.01q-.21 0-.355-.16t-.145-.42q0-.25.15-.415.15-.165.36-.165.23 0 .37.16.14.16.14.42 0 .27-.135.425-.135.155-.375.155zm5.42-2.1h-1.5L85.73 8h-.75l1.54-6.74h.85L88.87 8h-.76zm-1.39-.62h1.28l-.35-1.71q-.1-.49-.27-1.54h-.03q-.15.94-.28 1.55zm4.83 2.72h-.01q-.86 0-1.365-.895T89.23 4.62q0-1.64.54-2.54.54-.9 1.44-.9.86 0 1.35.895.49.895.49 2.505 0 1.79-.535 2.645t-1.405.855zm.04-.68h.01q.31 0 .53-.245.22-.245.34-.665.12-.42.17-.88.05-.46.05-1 0-.51-.05-.965-.05-.455-.17-.875-.12-.42-.345-.665-.225-.245-.535-.245-.41 0-.675.44-.265.44-.355 1.025-.09.585-.09 1.295 0 .53.055.995.055.465.175.88t.35.66q.23.245.54.245zm5.69-3.67-1.03 1.75 1.03 1.74h-.63l-1.02-1.74 1.03-1.75zm1.43 0-1.04 1.75 1.04 1.74h-.63l-1.02-1.74 1.03-1.75zM99.87 8V1.95h-1.23v-.69h3.23v.69h-1.23V8zm1.85-4.84h.7v1.66q0 1.43-.07 2.32h.02q.16-.46.72-1.89l.81-2.09h.81V8H104V6.4q0-1.16.08-2.36h-.03q-.2.73-.58 1.68-.6 1.5-.96 2.28h-.79zm4.06 0h.77v2.05h1.43V3.16h.77V8h-.77V5.87h-1.43V8h-.77zm4.05 0h.76v1.71q.07 0 .23-.015t.23-.015q.8 0 1.325.395.525.395.525 1.165 0 .75-.54 1.18-.57.47-1.54.47-.49 0-.99-.08zm.76 2.3v1.97q.24.02.34.02.51 0 .845-.26.335-.26.335-.76t-.34-.745q-.34-.245-.86-.245-.12 0-.32.02zm3.12-2.3h.75v2.1h.11l1.27-2.1h.85l-1.51 2.18q.85.14 1.18 1.37.28 1 .4 1.29h-.79q-.1-.24-.35-1.13-.14-.53-.385-.79t-.695-.26h-.08V8h-.75zm5.04 4.92h-.01q-.69 0-1.13-.635-.44-.635-.44-1.855 0-1.25.47-1.88.47-.63 1.15-.63.69 0 1.125.635.435.635.435 1.855 0 1.29-.475 1.9-.475.61-1.125.61zm.02-.61h.01q.31 0 .5-.33t.245-.72q.055-.39.055-.84 0-.45-.055-.835-.055-.385-.25-.72-.195-.335-.515-.335-.24 0-.415.185t-.255.49q-.08.305-.115.6t-.035.615q0 .34.035.64t.12.6q.085.3.255.475.17.175.42.175zm3.93-6.31h.7v1.92q.8.1 1.26.73.46.63.46 1.77 0 1.15-.45 1.78-.45.63-1.27.72v1.84h-.7V8.08q-.8-.09-1.25-.715Q121 6.74 121 5.59q0-1.13.45-1.76.45-.63 1.25-.74zm.01 6.39V3.61q-.53.13-.76.69-.23.56-.23 1.28t.23 1.285q.23.565.76.685zm.69-3.94v3.94q1-.24 1-1.97 0-.45-.075-.825-.075-.375-.31-.71-.235-.335-.615-.435zm4.07-2.45h.7v1.92q.8.1 1.26.73.46.63.46 1.77 0 1.15-.45 1.78-.45.63-1.27.72v1.84h-.7V8.08q-.8-.09-1.25-.715-.45-.625-.45-1.775 0-1.13.45-1.76.45-.63 1.25-.74zm.01 6.39V3.61q-.53.13-.76.69-.23.56-.23 1.28t.23 1.285q.23.565.76.685zm.69-3.94v3.94q1-.24 1-1.97 0-.45-.075-.825-.075-.375-.31-.71-.235-.335-.615-.435zm4.22-2.35h2.84v.67h-2.08v2.02q.24-.04.51-.04.89 0 1.44.53.57.54.57 1.47 0 .91-.49 1.46-.58.67-1.79.67-.63 0-1-.07zm.76 3.32v2.81q.19.03.39.03.65 0 1.03-.46.3-.41.3-1 0-.6-.35-1-.38-.41-.99-.41-.17 0-.38.03zm5.9.22v2.1q0 .79.05 1.1h-.69l-.05-.51h-.03q-.33.59-.96.59-.5 0-.825-.38-.325-.38-.325-1 0-.86.585-1.305.585-.445 1.475-.455v-.15q0-.53-.17-.815-.17-.285-.6-.285-.44 0-.8.25l-.17-.54q.45-.32 1.13-.32 1.38 0 1.38 1.72zm-.75 1.67v-.98q-1.33 0-1.33 1.13 0 .44.175.65.175.21.415.21.26 0 .45-.19t.26-.54q.03-.13.03-.28zm1.84-3.31h.77v2.05h1.43V3.16h.77V8h-.77V5.87h-1.43V8h-.77zm4.05 0h.75v2.1h.11l1.27-2.1h.85l-1.51 2.18q.85.14 1.18 1.37.28 1 .4 1.29h-.79q-.1-.24-.35-1.13-.14-.53-.385-.79t-.695-.26h-.08V8h-.75zm4.38 2.32-1.04-1.75h.62l1.03 1.75-1.01 1.74h-.64zm1.42 0-1.03-1.75h.62l1.03 1.75-1.02 1.74h-.63zm1.57 3.71-.53.07q.4-1.12.58-2.33l.87-.1q-.18.63-.45 1.335t-.47 1.025zm3.55-6.03h2.56V8h-.77V3.79h-1.06v1.54q0 1.16-.16 1.77-.16.61-.65.85-.24.12-.52.12l-.13-.61q.24-.04.4-.22.33-.33.33-1.86zm3.63 0h.7v1.66q0 1.43-.07 2.32h.02q.16-.46.72-1.89l.81-2.09h.81V8h-.71V6.4q0-1.16.08-2.36h-.03q-.2.73-.58 1.68-.6 1.5-.96 2.28h-.79zm4.06 0h.77v4.2h1.38v-4.2h.77V7.4l.41.01-.04 1.88h-.59L165.45 8h-2.65zm6.84 2.49h-2.24q.01 1.8 1.14 1.8.46 0 .8-.18l.13.56q-.41.23-1.07.23-.85 0-1.3-.645-.45-.645-.45-1.785 0-1.17.45-1.86.45-.69 1.18-.69.69 0 1.035.615t.345 1.515q0 .2-.02.44zm-2.23-.57h1.51q.01-.68-.205-1.04t-.515-.36q-.35 0-.555.425-.205.425-.235.975zm3.08-1.92h.77v2.05h1.43V3.16h.77V8h-.77V5.87h-1.43V8h-.77zm4.4 2.61.01-.56h.26q.39 0 .69-.23.3-.23.3-.61 0-.35-.215-.535-.215-.185-.555-.185-.41 0-.86.25l-.15-.49q.5-.33 1.2-.33.6 0 .975.32t.375.88q0 .43-.275.73t-.715.42v.01q.52.08.845.4.325.32.325.82 0 .68-.525 1.05t-1.255.37q-.65 0-1.14-.27l.17-.55q.46.24.91.24.47 0 .765-.245.295-.245.295-.595 0-.46-.34-.675-.34-.215-.81-.215zm3.07-2.61h.7v1.66q0 1.43-.07 2.32h.02q.16-.46.72-1.89l.81-2.09h.81V8h-.71V6.4q0-1.16.08-2.36h-.03q-.2.73-.58 1.68-.6 1.5-.96 2.28h-.79zm6.78.03V8h-.75V5.93h-.23q-.46 0-.71.23-.11.1-.2.28-.09.18-.13.33-.04.15-.105.44-.065.29-.105.43-.07.23-.13.36h-.81q.15-.25.22-.5.03-.1.095-.37t.11-.43q.045-.16.135-.365.09-.205.21-.335.23-.25.6-.32v-.02q-.46-.09-.765-.395-.305-.305-.305-.795 0-.63.49-1.01.45-.36 1.34-.36.64 0 1.04.09zm-.75 2.22V3.67q-.13-.04-.33-.04-.44 0-.73.215t-.29.645q0 .43.315.675.315.245.735.245zm8.43-3.95h.01q.56 0 .86.415.3.415.3 1.225 0 .85-.345 1.255-.345.405-.845.405-.54 0-.87-.425-.33-.425-.33-1.225t.345-1.225q.345-.425.875-.425zm-.03.45h-.01q-.29 0-.43.375t-.14.825q0 .47.145.835t.435.365q.59 0 .59-1.2t-.59-1.2zm1.04 3.74h-2.07v-.47h2.07zM188.12 8h-.68V1.33h.71l1.17 3.14q.54 1.43.82 2.33h.01q-.08-1.7-.08-3.06V1.33h.67V8h-.72l-1.2-3.21q-.36-.93-.76-2.27h-.01q.07 1.26.07 3.16zm9.21 0h-3.12v-.5l.54-.74q.43-.6.615-.87t.5-.8q.315-.53.445-.975.13-.445.13-.875 0-.55-.235-.855-.235-.305-.685-.305-.42 0-.94.36l-.19-.58q.53-.44 1.27-.44.77 0 1.16.5.39.5.39 1.28 0 .82-.425 1.65T195.6 6.7l-.43.6v.02h2.16zm3.6-6.58v.65q-.19 0-.46.06-1.35.34-1.67 2.35h.03q.42-.62 1.1-.62.62 0 1.01.54t.39 1.46q0 .96-.425 1.59-.425.63-1.175.63-.83 0-1.27-.74-.44-.74-.44-1.91 0-1.78.84-2.93.28-.4.705-.665.425-.265.875-.355.16-.03.49-.06zm-1.2 6.06h.01q.35 0 .585-.385t.235-1.175q0-.72-.235-1.095t-.635-.375q-.58 0-.85.7-.05.15-.05.39.01.96.265 1.45t.675.49zm2.23-5.98h3.13v.46L202.99 8h-.75l2.06-5.8v-.02h-2.34zm3.76 6.28.17-.61q.45.27.94.27.51 0 .815-.35.305-.35.305-.94 0-.63-.36-.99t-.95-.36h-.18v-.58h.15q.41 0 .79-.305.38-.305.38-.855 0-.48-.235-.74t-.625-.26q-.38 0-.81.31l-.16-.58q.45-.37 1.16-.37.67 0 1.055.42.385.42.385 1.07 0 .5-.25.91-.25.41-.72.62v.02q.49.13.815.56.325.43.325 1.15 0 .82-.5 1.365t-1.36.545q-.71 0-1.14-.3zm4.57.3h-.01q-.21 0-.355-.16t-.145-.42q0-.25.15-.415.15-.165.36-.165.23 0 .37.16.14.16.14.42 0 .27-.135.425-.135.155-.375.155zm4.41 0h-.01q-.76 0-1.19-.87-.43-.87-.43-2.45 0-1.62.45-2.48.45-.86 1.26-.86.78 0 1.19.875.41.875.41 2.445 0 1.69-.465 2.515-.465.825-1.215.825zm.03-.66h.01q.87 0 .87-2.67 0-1.21-.215-1.94t-.655-.73q-.45 0-.675.715-.225.715-.225 1.955-.01 1.23.21 1.95t.68.72zm4.62-4.75h.57v2.38h2.3v.55h-2.3V8h-.57V5.6h-2.29v-.55h2.29z"/></svg>