<svg width="64.594" height="9" viewBox="0 0 64.594 9" xmlns="http://www.w3.org/2000/svg"><g fill="#fff" stroke="#000"><path d="M2.906.703h-.804v1.199H1.086v-1.2H.282V3.75h.804V2.588h1.016V3.75h.804zM5.62 2.946h-.668c.013.147-.017.25-.09.31a.451.451 0 01-.296.09.378.378 0 01-.204-.052.406.406 0 01-.134-.139.645.645 0 01-.075-.202 1.235 1.235 0 01-.024-.247h1.495c.01-.053.016-.118.02-.193l.004-.179a1.49 1.49 0 00-.054-.404.869.869 0 00-.183-.34.894.894 0 00-.341-.236 1.377 1.377 0 00-.522-.087c-.217 0-.402.034-.555.103a1.02 1.02 0 00-.379.285c-.099.12-.17.26-.216.418a1.823 1.823 0 00-.068.506c0 .182.023.348.07.499a.976.976 0 00.59.647c.152.06.333.09.543.09.18 0 .34-.019.482-.058a.974.974 0 00.356-.172.674.674 0 00.206-.272.735.735 0 00.043-.367zM4.566 1.723c.141 0 .239.045.292.134.053.09.08.224.08.402v.024h-.809a.712.712 0 01.113-.41c.072-.1.18-.15.324-.15zM6.024 1.337V3.75h1.162c.135 0 .263-.01.385-.03a.996.996 0 00.32-.106.597.597 0 00.219-.205.608.608 0 00.082-.331.57.57 0 00-.03-.182.458.458 0 00-.104-.169.592.592 0 00-.195-.132.856.856 0 00-.301-.063v-.056a.861.861 0 00.25-.085.523.523 0 00.292-.456c-.001-.22-.081-.374-.241-.463-.16-.09-.376-.135-.649-.135zm1.124 1.929h-.376V2.79h.386a.4.4 0 01.2.051c.06.035.091.096.091.184 0 .084-.027.146-.082.183a.38.38 0 01-.219.057zm-.09-.96h-.286v-.489h.324c.073 0 .134.017.186.052.052.034.078.094.078.179 0 .087-.03.152-.09.195a.356.356 0 01-.211.063zM10.741 2.946h-.668c.013.147-.017.25-.09.31a.451.451 0 01-.295.09.378.378 0 01-.205-.052.406.406 0 01-.134-.139.645.645 0 01-.075-.202 1.235 1.235 0 01-.024-.247h1.496c.01-.053.015-.118.019-.193.003-.075.004-.135.004-.179a1.49 1.49 0 00-.054-.404.869.869 0 00-.183-.34.894.894 0 00-.341-.236 1.377 1.377 0 00-.522-.087c-.216 0-.401.034-.555.103a1.02 1.02 0 00-.379.285c-.098.12-.17.26-.216.418a1.823 1.823 0 00-.068.506c0 .182.023.348.07.499a.976.976 0 00.59.647c.153.06.334.09.544.09.178 0 .34-.019.482-.058a.974.974 0 00.355-.172.674.674 0 00.207-.272.735.735 0 00.042-.367zM9.688 1.723c.14 0 .238.045.291.134.054.09.08.224.08.402v.024H9.25a.712.712 0 01.113-.41c.072-.1.18-.15.325-.15zM13.342 2.8h0-.65a.727.727 0 01-.002.27.32.32 0 01-.082.156.289.289 0 01-.13.073.572.572 0 01-.34-.015.284.284 0 01-.139-.12.697.697 0 01-.082-.237 2.158 2.158 0 01-.028-.386c0-.15.008-.275.025-.373a.728.728 0 01.078-.238.282.282 0 01.136-.125.588.588 0 01.357-.014c.051.014.093.04.128.078.034.038.06.088.075.153a.6.6 0 01-.005.247h.65c.037-.314-.031-.56-.205-.736-.174-.178-.442-.266-.802-.266-.191 0-.365.026-.52.078-.155.051-.287.13-.395.235a1.036 1.036 0 00-.249.397c-.058.16-.087.348-.087.564 0 .22.029.41.087.57.058.16.141.292.25.397.107.105.24.182.394.233.155.05.329.075.52.075.194 0 .36-.026.496-.078a.84.84 0 00.33-.214.718.718 0 00.169-.322c.03-.124.036-.258.02-.402zM14.894 3.82c.398 0 .702-.108.912-.326.21-.218.315-.534.315-.948 0-.414-.105-.73-.315-.95-.21-.22-.514-.33-.912-.33-.405 0-.712.11-.922.33-.21.22-.315.536-.315.95 0 .414.105.73.315.948.21.218.517.327.922.327zm0-.498a.438.438 0 01-.188-.038.304.304 0 01-.132-.124.703.703 0 01-.078-.238 2.277 2.277 0 01-.026-.376c0-.147.009-.27.026-.37a.757.757 0 01.078-.239.313.313 0 01.132-.132.416.416 0 01.188-.04.39.39 0 01.18.04c.052.027.096.071.13.132.034.061.06.141.078.24.017.099.025.222.025.37 0 .15-.008.275-.025.375a.703.703 0 01-.078.238.307.307 0 01-.13.124.41.41 0 01-.18.038zM17.372 2.701l.193.78h.785l.193-.78a5.418 5.418 0 00.141-.823h.061a2.725 2.725 0 00-.014.21 8.139 8.139 0 00.002.65c.005.13.014.263.026.4l.052.612h.724l-.174-2.413h-1.058l-.207.941a2.625 2.625 0 00-.04.205l-.03.2a5.04 5.04 0 00-.024.176c-.006.055-.01.098-.01.13h-.07c0-.032-.003-.075-.01-.13a5.04 5.04 0 00-.056-.376 16.95 16.95 0 00-.037-.205l-.207-.94h-1.058L16.38 3.75h.724l.052-.611a7.397 7.397 0 00.033-.758c0-.11-.002-.207-.005-.293a2.725 2.725 0 00-.014-.21h.06a5.418 5.418 0 00.141.823zM21.03 3.82c.399 0 .703-.108.913-.326.21-.218.315-.534.315-.948 0-.414-.105-.73-.315-.95-.21-.22-.514-.33-.912-.33-.405 0-.712.11-.922.33-.21.22-.315.536-.315.95 0 .414.105.73.315.948.21.218.517.327.922.327zm0-.498a.438.438 0 01-.187-.038.304.304 0 01-.132-.124.703.703 0 01-.078-.238 2.277 2.277 0 01-.026-.376c0-.147.01-.27.026-.37a.757.757 0 01.078-.239.313.313 0 01.132-.132.416.416 0 01.188-.04.39.39 0 01.18.04c.053.027.096.071.13.132.035.061.06.141.078.24.017.099.026.222.026.37 0 .15-.009.275-.026.375a.703.703 0 01-.078.238.307.307 0 01-.13.124.41.41 0 01-.18.038zM24.854 2.946h-.668c.013.147-.017.25-.09.31a.451.451 0 01-.295.09.378.378 0 01-.205-.052.406.406 0 01-.134-.139.645.645 0 01-.075-.202 1.235 1.235 0 01-.024-.247h1.496c.01-.053.015-.118.019-.193.003-.075.004-.135.004-.179a1.49 1.49 0 00-.054-.404.869.869 0 00-.183-.34.894.894 0 00-.341-.236 1.377 1.377 0 00-.522-.087c-.216 0-.401.034-.555.103a1.02 1.02 0 00-.379.285c-.098.12-.17.26-.216.418a1.823 1.823 0 00-.068.506c0 .182.023.348.07.499a.976.976 0 00.59.647c.153.06.334.09.544.09.178 0 .34-.019.482-.058a.974.974 0 00.355-.172.674.674 0 00.207-.272.735.735 0 00.042-.367zm-1.053-1.223c.14 0 .238.045.291.134.053.09.08.224.08.402v.024h-.809a.712.712 0 01.113-.41c.072-.1.18-.15.325-.15z" stroke-width=".0047"/></g><g fill="#fff" stroke="#000"><path d="M1.378 8.52c.398 0 .702-.108.912-.326.21-.218.315-.534.315-.948 0-.414-.105-.73-.315-.95-.21-.22-.514-.33-.912-.33-.405 0-.712.11-.922.33-.21.22-.315.536-.315.95 0 .414.105.73.315.948.21.218.517.327.922.327zm0-.498a.438.438 0 01-.188-.038.304.304 0 01-.132-.124.703.703 0 01-.077-.238 2.277 2.277 0 01-.026-.376c0-.147.008-.27.026-.37a.757.757 0 01.077-.239.313.313 0 01.132-.132.416.416 0 01.188-.04.39.39 0 01.181.04c.052.027.095.071.13.132.034.061.06.141.077.24s.026.222.026.37c0 .15-.009.275-.026.375a.703.703 0 01-.078.238.307.307 0 01-.129.124.41.41 0 01-.181.038zM3.536 6.907h-.065v-.06c0-.126.009-.238.028-.337a.754.754 0 01.099-.26.605.605 0 01.192-.191c.082-.052.185-.094.31-.125a3.6 3.6 0 01.24-.054l.224-.042c.074-.014.147-.03.221-.05.074-.019.148-.042.223-.07l-.042-.715a4.695 4.695 0 01-.186.075 2.095 2.095 0 01-.19.061 4.704 4.704 0 01-.233.057l-.317.07a1.53 1.53 0 00-.562.23 1.187 1.187 0 00-.346.375 1.468 1.468 0 00-.174.496 3.545 3.545 0 00.019 1.244c.044.192.114.355.21.489.095.133.22.236.373.308.154.072.339.108.555.108.188 0 .354-.032.498-.097a1.044 1.044 0 00.584-.646c.05-.148.075-.304.075-.47 0-.157-.02-.302-.061-.435a1.042 1.042 0 00-.174-.344.803.803 0 00-.659-.308 1.05 1.05 0 00-.34.05.716.716 0 00-.245.138.708.708 0 00-.165.217c-.042.084-.073.18-.092.286zm.55.993c-.125 0-.217-.04-.277-.118-.06-.078-.09-.21-.09-.395 0-.188.032-.326.095-.414a.314.314 0 01.273-.131c.125 0 .218.04.28.122.06.081.091.215.091.4 0 .188-.031.324-.094.409-.063.084-.155.127-.277.127zM7.844 7.5h0-.649a.727.727 0 01-.002.27.32.32 0 01-.082.156.289.289 0 01-.13.073.572.572 0 01-.34-.015.284.284 0 01-.14-.12.697.697 0 01-.082-.237 2.158 2.158 0 01-.028-.386c0-.15.009-.275.026-.373a.728.728 0 01.078-.238.282.282 0 01.136-.125.588.588 0 01.357-.014c.05.014.093.04.127.078.035.038.06.088.076.153a.6.6 0 01-.005.247h.649c.037-.314-.03-.56-.205-.736-.174-.178-.441-.266-.802-.266-.19 0-.364.026-.52.078-.154.051-.286.13-.394.235a1.036 1.036 0 00-.25.397c-.058.16-.087.348-.087.564 0 .22.03.41.087.57.058.16.142.292.25.397.108.105.24.182.395.233.155.05.328.075.52.075.194 0 .36-.026.496-.078a.84.84 0 00.329-.214.718.718 0 00.169-.322c.03-.124.037-.258.021-.402zM8.042 7.853h0v.592c.257.035.462.036.616.003a.535.535 0 00.352-.24c.082-.127.135-.308.16-.543.025-.235.038-.54.038-.913v-.174h.419V8.45h.77V6.037H8.47v.593c0 .292-.006.521-.017.689a1.51 1.51 0 01-.06.379c-.03.084-.074.135-.13.152a.49.49 0 01-.221.003zM11.907 7.904h0-.07c0-.04-.006-.106-.017-.197-.01-.09-.028-.2-.051-.327a9.6 9.6 0 00-.21-.91l-.122-.433h-.78l.813 2.719-.174.531h.809l.973-3.25h-.761l-.123.447a9.338 9.338 0 00-.209.894 6.98 6.98 0 00-.078.526zM15.387 6.037h-.77v.899h-.128c-.05 0-.088-.012-.115-.036a.314.314 0 01-.073-.134 8.049 8.049 0 00-.132-.352 7.435 7.435 0 00-.094-.217.88.88 0 00-.089-.16h-.832a.798.798 0 01.136.184c.038.069.07.141.099.216l.084.23c.029.08.06.153.094.222a.575.575 0 00.163.209c.06.045.142.08.242.101v.042a.594.594 0 00-.27.109.552.552 0 00-.153.235c-.054.14-.114.29-.181.449a1.813 1.813 0 01-.243.416h.823a.714.714 0 00.083-.146c.03-.066.058-.136.084-.211a4.795 4.795 0 00.116-.372.27.27 0 01.063-.127c.03-.031.076-.047.139-.047h.183v.903h.771v-.903h.16c.063 0 .11.016.139.047a.27.27 0 01.064.127 4.795 4.795 0 00.115.372c.026.075.055.145.084.211.03.066.058.115.083.146h.846a1.813 1.813 0 01-.242-.416 11.774 11.774 0 01-.181-.45.552.552 0 00-.153-.234.594.594 0 00-.27-.109V7.2a.627.627 0 00.242-.101.575.575 0 00.162-.21c.035-.068.066-.142.094-.22.028-.079.057-.156.085-.23.028-.076.061-.148.099-.217a.798.798 0 01.136-.184h-.818a.88.88 0 00-.09.16 7.435 7.435 0 00-.176.428l-.05.141a.314.314 0 01-.072.134c-.027.024-.065.036-.116.036h-.14zM17.137 8.45h.983l.334-.738a8.108 8.108 0 00.242-.628 7.537 7.537 0 00.153-.496l.065.01a8.603 8.603 0 00-.108 1.124v.728h.743V6.037h-.978l-.334.739a5.59 5.59 0 00-.129.313 12.31 12.31 0 00-.212.609 6.664 6.664 0 00-.058.202l-.062-.01a5.98 5.98 0 00.066-.51c.01-.108.018-.217.026-.327.008-.11.012-.208.012-.296v-.72h-.743zM20.02 6.037V8.45h1.161c.135 0 .264-.01.386-.03a.996.996 0 00.32-.106.597.597 0 00.218-.205.608.608 0 00.083-.331.57.57 0 00-.031-.182.458.458 0 00-.103-.169.592.592 0 00-.196-.132.856.856 0 00-.3-.063v-.056a.861.861 0 00.249-.085.523.523 0 00.292-.456c0-.22-.08-.374-.24-.463-.16-.09-.377-.135-.65-.135zm1.124 1.929h-.377V7.49h.386a.4.4 0 01.2.051c.061.035.092.096.092.184 0 .084-.028.146-.083.183a.38.38 0 01-.218.057zm-.09-.96h-.287v-.489h.325c.072 0 .134.017.186.052.051.034.077.094.077.179 0 .087-.03.152-.09.195a.356.356 0 01-.21.063zM23.476 8.013c-.1 0-.182-.03-.247-.09a.3.3 0 01-.096-.23.322.322 0 01.153-.285.698.698 0 01.22-.087c.093-.022.21-.036.351-.042v.174c0 .072-.006.142-.019.21a.528.528 0 01-.066.178.38.38 0 01-.12.125.318.318 0 01-.176.047zm-.338.503c.106 0 .2-.013.28-.038a.823.823 0 00.211-.099.648.648 0 00.155-.143c.043-.055.08-.114.11-.176l.062.033c-.019.06-.036.118-.052.176a.597.597 0 00-.023.153v.028h.747V6.813c0-.125-.015-.24-.044-.343a.602.602 0 00-.16-.268.759.759 0 00-.32-.174 1.85 1.85 0 00-.52-.061c-.213 0-.39.023-.533.07a.87.87 0 00-.337.189.59.59 0 00-.164.27.77.77 0 00-.02.317h.64a.459.459 0 01-.004-.145.265.265 0 01.05-.125.28.28 0 01.112-.087.44.44 0 01.181-.033c.12 0 .207.03.263.087.057.058.085.14.085.247v.17c-.154.006-.315.02-.484.042a1.67 1.67 0 00-.466.127.887.887 0 00-.348.27c-.09.118-.136.277-.136.477a.677.677 0 00.185.461.715.715 0 00.53.212zM25.052 8.45h.77v-.903h.692v.903h.771V6.037h-.77v.899h-.692v-.899h-.771zM27.756 8.45h.983l.333-.738a8.108 8.108 0 00.243-.628 7.537 7.537 0 00.152-.496l.066.01c-.01.05-.02.12-.033.21a8.603 8.603 0 00-.075.913v.729h.743V6.037h-.978l-.334.739a5.59 5.59 0 00-.13.313 12.31 12.31 0 00-.21.609 6.664 6.664 0 00-.06.202l-.06-.01a5.98 5.98 0 00.066-.51l.025-.327c.008-.11.012-.208.012-.296v-.72h-.743zM32.835 7.646h-.668c.012.147-.017.25-.09.31a.451.451 0 01-.296.09.378.378 0 01-.204-.052.406.406 0 01-.134-.139.645.645 0 01-.076-.202 1.235 1.235 0 01-.023-.247h1.495c.01-.053.016-.118.02-.193l.004-.179a1.49 1.49 0 00-.054-.404.869.869 0 00-.184-.34.894.894 0 00-.34-.236 1.377 1.377 0 00-.523-.087c-.216 0-.4.034-.555.103a1.02 1.02 0 00-.378.285c-.099.12-.17.26-.216.418a1.823 1.823 0 00-.069.506c0 .182.024.348.07.499a.976.976 0 00.59.647c.153.06.334.09.544.09.179 0 .34-.019.482-.058a.974.974 0 00.355-.172.674.674 0 00.207-.272.735.735 0 00.043-.367zM31.78 6.423c.141 0 .239.045.292.134.053.09.08.224.08.402v.024h-.81a.712.712 0 01.114-.41c.072-.1.18-.15.324-.15zM34.086 8.45h.77v-.903h.692v.903h.771V6.037h-.77v.899h-.692v-.899h-.771zM37.726 8.013c-.1 0-.183-.03-.247-.09a.3.3 0 01-.097-.23.322.322 0 01.153-.285.698.698 0 01.221-.087c.093-.022.21-.036.35-.042v.174c0 .072-.006.142-.018.21a.528.528 0 01-.066.178.38.38 0 01-.12.125.318.318 0 01-.176.047zm-.34.503c.108 0 .2-.013.28-.038a.823.823 0 00.212-.099.648.648 0 00.156-.143c.042-.055.079-.114.11-.176l.061.033c-.019.06-.036.118-.052.176a.597.597 0 00-.023.153v.028h.748V6.813c0-.125-.015-.24-.045-.343a.602.602 0 00-.16-.268.759.759 0 00-.32-.174 1.85 1.85 0 00-.52-.061c-.213 0-.39.023-.533.07a.87.87 0 00-.336.189.59.59 0 00-.165.27.77.77 0 00-.019.317h.64a.459.459 0 01-.005-.145.265.265 0 01.05-.125.28.28 0 01.112-.087.44.44 0 01.181-.033c.12 0 .207.03.264.087.056.058.084.14.084.247v.17c-.153.006-.315.02-.484.042a1.67 1.67 0 00-.466.127.887.887 0 00-.348.27c-.09.118-.136.277-.136.477a.677.677 0 00.186.461.715.715 0 00.529.212zM39.3 6.037V8.45h1.163c.134 0 .263-.01.385-.03a.996.996 0 00.32-.106.597.597 0 00.219-.205.608.608 0 00.082-.331.57.57 0 00-.03-.182.458.458 0 00-.104-.169.592.592 0 00-.195-.132.856.856 0 00-.301-.063v-.056a.861.861 0 00.249-.085.523.523 0 00.292-.456c0-.22-.08-.374-.24-.463-.16-.09-.377-.135-.65-.135zm1.125 1.929h-.376V7.49h.385a.4.4 0 01.2.051c.061.035.092.096.092.184 0 .084-.028.146-.082.183a.38.38 0 01-.22.057zm-.09-.96h-.286v-.489h.324c.072 0 .134.017.186.052.052.034.078.094.078.179 0 .087-.03.152-.09.195a.356.356 0 01-.211.063zM43.994 7.5h0-.649a.727.727 0 01-.002.27.32.32 0 01-.082.156.289.289 0 01-.13.073.572.572 0 01-.34-.015.284.284 0 01-.14-.12.697.697 0 01-.082-.237 2.158 2.158 0 01-.028-.386c0-.15.009-.275.026-.373a.728.728 0 01.078-.238.282.282 0 01.136-.125.588.588 0 01.357-.014c.05.014.093.04.127.078.035.038.06.088.076.153a.6.6 0 01-.005.247h.649c.037-.314-.03-.56-.205-.736-.174-.178-.441-.266-.802-.266-.19 0-.364.026-.52.078-.154.051-.286.13-.394.235a1.036 1.036 0 00-.25.397c-.057.16-.086.348-.086.564 0 .22.029.41.087.57.058.16.14.292.249.397.108.105.24.182.395.233.155.05.328.075.52.075.194 0 .36-.026.496-.078a.84.84 0 00.329-.214.718.718 0 00.17-.322c.029-.124.036-.258.02-.402zM46.6 7.646h-.668c.012.147-.017.25-.09.31a.451.451 0 01-.296.09.378.378 0 01-.204-.052.406.406 0 01-.134-.139.645.645 0 01-.076-.202 1.235 1.235 0 01-.023-.247h1.495c.01-.053.016-.118.02-.193l.004-.179a1.49 1.49 0 00-.054-.404.869.869 0 00-.184-.34.894.894 0 00-.34-.236 1.377 1.377 0 00-.523-.087c-.216 0-.4.034-.555.103a1.02 1.02 0 00-.378.285c-.099.12-.171.26-.216.418a1.823 1.823 0 00-.069.506c0 .182.024.348.07.499a.976.976 0 00.59.647c.153.06.334.09.544.09.179 0 .34-.019.482-.058a.974.974 0 00.355-.172.674.674 0 00.207-.272.735.735 0 00.043-.367zm-1.054-1.223c.141 0 .238.045.292.134.053.09.08.224.08.402v.024h-.81a.712.712 0 01.114-.41c.072-.1.18-.15.324-.15zM47.004 8.45h.771V6.649h.828v-.612h-1.599zM51.232 7.839h-.254V6.037H49.05v.621c0 .126-.004.257-.012.395a1.988 1.988 0 01-.056.381.808.808 0 01-.132.29.277.277 0 01-.233.115h-.038v1.194h.71V8.45h1.233v.583h.71zm-1.025 0h-.837v-.047a.591.591 0 00.197-.141.568.568 0 00.115-.22c.027-.088.044-.197.052-.324s.012-.28.012-.458h.46zM52.473 8.013c-.1 0-.182-.03-.247-.09a.3.3 0 01-.096-.23.322.322 0 01.153-.285.698.698 0 01.22-.087c.093-.022.21-.036.351-.042v.174c0 .072-.006.142-.019.21a.528.528 0 01-.065.178.38.38 0 01-.12.125.318.318 0 01-.177.047zm-.338.503c.106 0 .2-.013.28-.038a.823.823 0 00.211-.099.648.648 0 00.155-.143c.043-.055.08-.114.11-.176l.062.033c-.019.06-.036.118-.052.176a.597.597 0 00-.023.153v.028h.748V6.813c0-.125-.015-.24-.045-.343a.602.602 0 00-.16-.268.759.759 0 00-.32-.174 1.85 1.85 0 00-.52-.061c-.213 0-.39.023-.533.07a.87.87 0 00-.337.189.59.59 0 00-.164.27.77.77 0 00-.019.317h.64a.459.459 0 01-.005-.145.265.265 0 01.05-.125.28.28 0 01.112-.087.44.44 0 01.181-.033c.12 0 .207.03.264.087.056.058.084.14.084.247v.17c-.153.006-.315.02-.484.042a1.67 1.67 0 00-.466.127.887.887 0 00-.348.27c-.09.118-.136.277-.136.477a.677.677 0 00.186.461.715.715 0 00.529.212z" stroke-width=".0047"/></g></svg>