<svg width="208.45" height="26" viewBox="0 0 208.45 26" xmlns="http://www.w3.org/2000/svg"><g fill="#fff" stroke="#000"><path d="M.366.756H2.07v.402H.822V2.37q.144-.024.306-.024.534 0 .864.318.342.324.342.882 0 .546-.294.876-.348.402-1.074.402-.378 0-.6-.042zm.456 1.992v1.686q.114.018.234.018.39 0 .618-.276.18-.246.18-.6 0-.36-.21-.6-.228-.246-.594-.246-.102 0-.228.018zM3.654 4.848h-.006q-.414 0-.678-.381-.264-.381-.264-1.113 0-.75.282-1.128.282-.378.69-.378.414 0 .675.381.261.381.261 1.113 0 .774-.285 1.14-.285.366-.675.366zm.012-.366h.006q.186 0 .3-.198.114-.198.147-.432.033-.234.033-.504t-.033-.501q-.033-.231-.15-.432-.117-.201-.309-.201-.144 0-.249.111-.105.111-.153.294t-.069.36q-.021.177-.021.369 0 .204.021.384.021.18.072.36.051.18.153.285.102.105.252.105zM5.13 1.896h.462v1.23h.858v-1.23h.462V4.8H6.45V3.522h-.858V4.8H5.13zM7.272 1.896h.486l.384 1.668q.03.126.066.324.036.198.054.276h.012q.036-.198.126-.594l.342-1.674h.456l-.474 1.866q-.342 1.38-.72 1.872-.24.306-.522.438l-.168-.39q.228-.132.408-.366.174-.228.264-.492.03-.084.03-.144 0-.072-.012-.108zM10.884 4.374l.066.354q-.186.108-.48.108-.486 0-.774-.381-.288-.381-.288-1.089 0-.648.309-1.08.309-.432.837-.432.258 0 .408.096l-.09.372q-.156-.078-.33-.078-.33 0-.501.327-.171.327-.171.795 0 .51.183.798.183.288.501.288.18 0 .33-.078zM12.288 4.812V1.908q.318-.06.654-.06.198 0 .375.033t.342.108q.165.075.264.222.099.147.099.357 0 .252-.162.438t-.414.252v.012q.324.054.51.243t.186.483q0 .24-.114.414t-.309.264q-.195.09-.402.129-.207.039-.435.039-.306 0-.594-.03zm.456-2.604v.918h.204q.234 0 .432-.138.198-.138.198-.354 0-.45-.6-.45-.09 0-.234.024zm-.006 1.248v1.038q.162.018.234.018.3 0 .504-.123.204-.123.204-.393t-.219-.405q-.219-.135-.525-.135zM15.594 4.812V1.908q.318-.06.654-.06.198 0 .375.033t.342.108q.165.075.264.222.099.147.099.357 0 .252-.162.438t-.414.252v.012q.324.054.51.243t.186.483q0 .24-.114.414t-.309.264q-.195.09-.402.129-.207.039-.435.039-.306 0-.594-.03zm.456-2.604v.918h.204q.234 0 .432-.138.198-.138.198-.354 0-.45-.6-.45-.09 0-.234.024zm-.006 1.248v1.038q.162.018.234.018.3 0 .504-.123.204-.123.204-.393t-.219-.405q-.219-.135-.525-.135zM17.958 1.896h.42v.996q0 .858-.042 1.392h.012q.096-.276.432-1.134l.486-1.254h.486V4.8h-.426v-.96q0-.696.048-1.416h-.018q-.12.438-.348 1.008-.36.9-.576 1.368h-.474zM20.706 1.896h1.476V4.44l.246.006-.024 1.128h-.354l-.03-.774h-1.506l-.03.774h-.354l-.024-1.128.192-.006q.186-.282.276-.618.132-.486.132-1.08zm.408.372v.426q0 .714-.126 1.152-.09.342-.228.588h.966V2.268zM24.534 3.39H23.19q.006 1.08.684 1.08.276 0 .48-.108l.078.336q-.246.138-.642.138-.51 0-.78-.387t-.27-1.071q0-.702.27-1.116.27-.414.708-.414.414 0 .621.369.207.369.207.909 0 .12-.012.264zm-1.338-.342h.906q.006-.408-.123-.624-.129-.216-.309-.216-.21 0-.333.255-.123.255-.141.585zM27.606.6l-.024.402q-.066.03-.258.075t-.27.069q-.42.084-.606.474-.138.318-.18.756h.018q.072-.204.252-.342.18-.138.408-.138.384 0 .615.348.231.348.231 1.08 0 .75-.249 1.14-.249.39-.693.39-.282 0-.483-.165t-.3-.444q-.099-.279-.141-.561-.042-.282-.042-.606 0-1.122.276-1.656.252-.522.81-.666.06-.018.306-.069.246-.051.33-.087zm-.276 2.766V3.36q0-.18-.021-.348-.021-.168-.069-.348-.048-.18-.153-.288-.105-.108-.249-.108-.282 0-.414.324-.096.252-.096.618 0 .168.018.348.018.18.066.405.048.225.159.369t.273.144q.15 0 .252-.114.102-.114.15-.3t.066-.351q.018-.165.018-.345zM29.982 3.39h-1.344q.006 1.08.684 1.08.276 0 .48-.108l.078.336q-.246.138-.642.138-.51 0-.78-.387t-.27-1.071q0-.702.27-1.116.27-.414.708-.414.414 0 .621.369.207.369.207.909 0 .12-.012.264zm-1.338-.342h.906q.006-.408-.123-.624-.129-.216-.309-.216-.21 0-.333.255-.123.255-.141.585zM31.842 4.374l.066.354q-.186.108-.48.108-.486 0-.774-.381-.288-.381-.288-1.089 0-.648.309-1.08.309-.432.837-.432.258 0 .408.096l-.09.372q-.156-.078-.33-.078-.33 0-.501.327-.171.327-.171.795 0 .51.183.798.183.288.501.288.18 0 .33-.078zM32.304 1.896h1.758V4.8H33.6V2.28h-.834V4.8h-.462zM34.824 1.896h1.536V4.8h-.462V2.274h-.636v.924q0 .696-.096 1.062-.096.366-.39.51-.144.072-.312.072l-.078-.366q.144-.024.24-.132.198-.198.198-1.116zM38.532 2.88v1.26q0 .474.03.66h-.414l-.03-.306H38.1q-.198.354-.576.354-.3 0-.495-.228t-.195-.6q0-.516.351-.783t.885-.273v-.09q0-.318-.102-.489-.102-.171-.36-.171-.264 0-.48.15l-.102-.324q.27-.192.678-.192.828 0 .828 1.032zm-.45 1.002v-.588q-.798 0-.798.678 0 .264.105.39t.249.126q.156 0 .27-.114.114-.114.156-.324.018-.078.018-.168zM38.868 1.896h1.782v.384h-.66V4.8h-.462V2.28h-.66zM40.992 1.896h.462v1.23h.858v-1.23h.462V4.8h-.462V3.522h-.858V4.8h-.462zM44.244 4.848h-.006q-.414 0-.678-.381-.264-.381-.264-1.113 0-.75.282-1.128.282-.378.69-.378.414 0 .675.381.261.381.261 1.113 0 .774-.285 1.14-.285.366-.675.366zm.012-.366h.006q.186 0 .3-.198.114-.198.147-.432.033-.234.033-.504t-.033-.501q-.033-.231-.15-.432-.117-.201-.309-.201-.144 0-.249.111-.105.111-.153.294t-.069.36q-.021.177-.021.369 0 .204.021.384.021.18.072.36.051.18.153.285.102.105.252.105zM45.72 1.896h1.356v.39h-.894V4.8h-.462zM48.186 4.848h-.006q-.414 0-.678-.381-.264-.381-.264-1.113 0-.75.282-1.128.282-.378.69-.378.414 0 .675.381.261.381.261 1.113 0 .774-.285 1.14-.285.366-.675.366zm.012-.366h.006q.186 0 .3-.198.114-.198.147-.432.033-.234.033-.504t-.033-.501q-.033-.231-.15-.432-.117-.201-.309-.201-.144 0-.249.111-.105.111-.153.294t-.069.36q-.021.177-.021.369 0 .204.021.384.021.18.072.36.051.18.153.285.102.105.252.105zM51.426 4.848h-.006q-.414 0-.678-.381-.264-.381-.264-1.113 0-.75.282-1.128.282-.378.69-.378.414 0 .675.381.261.381.261 1.113 0 .774-.285 1.14-.285.366-.675.366zm.012-.366h.006q.186 0 .3-.198.114-.198.147-.432.033-.234.033-.504t-.033-.501q-.033-.231-.15-.432-.117-.201-.309-.201-.144 0-.249.111-.105.111-.153.294t-.069.36q-.021.177-.021.369 0 .204.021.384.021.18.072.36.051.18.153.285.102.105.252.105zM54.522.6l-.024.402q-.066.03-.258.075t-.27.069q-.42.084-.606.474-.138.318-.18.756h.018q.072-.204.252-.342.18-.138.408-.138.384 0 .615.348.231.348.231 1.08 0 .75-.249 1.14-.249.39-.693.39-.282 0-.483-.165t-.3-.444q-.099-.279-.141-.561-.042-.282-.042-.606 0-1.122.276-1.656.252-.522.81-.666.06-.018.306-.069.246-.051.33-.087zm-.276 2.766V3.36q0-.18-.021-.348-.021-.168-.069-.348-.048-.18-.153-.288-.105-.108-.249-.108-.282 0-.414.324-.096.252-.096.618 0 .168.018.348.018.18.066.405.048.225.159.369t.273.144q.15 0 .252-.114.102-.114.15-.3t.066-.351q.018-.165.018-.345zM56.58 4.374l.066.354q-.186.108-.48.108-.486 0-.774-.381-.288-.381-.288-1.089 0-.648.309-1.08.309-.432.837-.432.258 0 .408.096l-.09.372q-.156-.078-.33-.078-.33 0-.501.327-.171.327-.171.795 0 .51.183.798.183.288.501.288.18 0 .33-.078zM57.324 1.896h1.536V4.8h-.462V2.274h-.636v.924q0 .696-.096 1.062-.096.366-.39.51-.144.072-.312.072l-.078-.366q.144-.024.24-.132.198-.198.198-1.116zM59.214 1.896h.486l.384 1.668q.03.126.066.324.036.198.054.276h.012q.036-.198.126-.594l.342-1.674h.456l-.474 1.866q-.342 1.38-.72 1.872-.24.306-.522.438l-.168-.39q.228-.132.408-.366.174-.228.264-.492.03-.084.03-.144 0-.072-.012-.108zM61.332 1.896h.51l.708 1.278h.096V1.896h.438v1.278h.102l.702-1.278h.51l-.864 1.332q.492.096.654.792.132.558.234.78h-.45q-.09-.156-.198-.642-.096-.366-.252-.519-.156-.153-.39-.153h-.048V4.8h-.438V3.486h-.048q-.288 0-.411.15t-.243.552q-.108.444-.186.612h-.45q.054-.114.24-.756.192-.72.654-.816zM64.794 1.896h.42v.996q0 .858-.042 1.392h.012q.096-.276.432-1.134l.486-1.254h.486V4.8h-.426v-.96q0-.696.048-1.416h-.018q-.12.438-.348 1.008-.36.9-.576 1.368h-.474zM67.23 4.812V1.908q.318-.06.654-.06.198 0 .375.033t.342.108q.165.075.264.222.099.147.099.357 0 .252-.162.438t-.414.252v.012q.324.054.51.243t.186.483q0 .24-.114.414t-.309.264q-.195.09-.402.129-.207.039-.435.039-.306 0-.594-.03zm.456-2.604v.918h.204q.234 0 .432-.138.198-.138.198-.354 0-.45-.6-.45-.09 0-.234.024zm-.006 1.248v1.038q.162.018.234.018.3 0 .504-.123.204-.123.204-.393t-.219-.405q-.219-.135-.525-.135zM71.124 2.88v1.26q0 .474.03.66h-.414l-.03-.306h-.018q-.198.354-.576.354-.3 0-.495-.228t-.195-.6q0-.516.351-.783t.885-.273v-.09q0-.318-.102-.489-.102-.171-.36-.171-.264 0-.48.15l-.102-.324q.27-.192.678-.192.828 0 .828 1.032zm-.45 1.002v-.588q-.798 0-.798.678 0 .264.105.39t.249.126q.156 0 .27-.114.114-.114.156-.324.018-.078.018-.168zM71.778 1.896h.462v1.23h.858v-1.23h.462V4.8h-.462V3.522h-.858V4.8h-.462zM74.208 1.896h.42v.996q0 .858-.042 1.392h.012q.096-.276.432-1.134l.486-1.254h.486V4.8h-.426v-.96q0-.696.048-1.416h-.018q-.12.438-.348 1.008-.36.9-.576 1.368h-.474zM78.276 1.914V4.8h-.45V3.558h-.138q-.276 0-.426.138-.066.06-.12.168-.054.108-.078.198-.024.09-.063.264-.039.174-.063.258-.042.138-.078.216h-.486q.09-.15.132-.3.018-.06.057-.222.039-.162.066-.258.027-.096.081-.219.054-.123.126-.201.138-.15.36-.192v-.012q-.276-.054-.459-.237t-.183-.477q0-.378.294-.606.27-.216.804-.216.384 0 .624.054zm-.45 1.332V2.202q-.078-.024-.198-.024-.264 0-.438.129t-.174.387q0 .258.189.405.189.147.441.147zM79.902.756h.45v1.836h.084l.858-1.836h.504l-.99 1.89q.342.072.507.333.165.261.255.693.024.102.06.285l.06.3q.024.117.066.27.042.153.084.273h-.468q-.054-.144-.234-1.008-.09-.432-.237-.645-.147-.213-.477-.213h-.072V4.8h-.45zM83.814 2.88v1.26q0 .474.03.66h-.414l-.03-.306h-.018q-.198.354-.576.354-.3 0-.495-.228t-.195-.6q0-.516.351-.783t.885-.273v-.09q0-.318-.102-.489-.102-.171-.36-.171-.264 0-.48.15l-.102-.324q.27-.192.678-.192.828 0 .828 1.032zm-.45 1.002v-.588q-.798 0-.798.678 0 .264.105.39t.249.126q.156 0 .27-.114.114-.114.156-.324.018-.078.018-.168zM84.462 5.952v-3.15q0-.09-.024-.906h.414l.024.366h.012q.21-.414.612-.414.39 0 .615.393.225.393.225 1.101 0 .756-.261 1.131t-.633.375q-.354 0-.51-.33h-.012v1.434zm.462-2.958v.744q0 .144.024.24.108.486.42.486.27 0 .39-.312t.12-.798q0-.492-.126-.801-.126-.309-.384-.309-.156 0-.282.162-.126.162-.144.366-.018.072-.018.222zM86.532 1.896h1.782v.384h-.66V4.8h-.462V2.28h-.66zM88.656 1.896h.456v1.026q.144-.018.276-.018.444 0 .744.246t.3.684q0 .456-.324.714-.342.282-.858.282-.294 0-.594-.048zm.456 1.38v1.176q.108.018.204.018.27 0 .456-.168t.186-.444q0-.282-.189-.438-.189-.156-.465-.156-.072 0-.192.012zm1.62-1.38h.444V4.8h-.444zM92.766 1.896h1.758V4.8h-.462V2.28h-.834V4.8h-.462zM95.16 5.952v-3.15q0-.09-.024-.906h.414l.024.366h.012q.21-.414.612-.414.39 0 .615.393.225.393.225 1.101 0 .756-.261 1.131t-.633.375q-.354 0-.51-.33h-.012v1.434zm.462-2.958v.744q0 .144.024.24.108.486.42.486.27 0 .39-.312t.12-.798q0-.492-.126-.801-.126-.309-.384-.309-.156 0-.282.162-.126.162-.144.366-.018.072-.018.222zM99.228 3.39h-1.344q.006 1.08.684 1.08.276 0 .48-.108l.078.336q-.246.138-.642.138-.51 0-.78-.387t-.27-1.071q0-.702.27-1.116.27-.414.708-.414.414 0 .621.369.207.369.207.909 0 .12-.012.264zm-1.338-.342h.906q.006-.408-.123-.624-.129-.216-.309-.216-.21 0-.333.255-.123.255-.141.585zM100.05 1.896h1.476V4.44l.246.006-.024 1.128h-.354l-.03-.774h-1.506l-.03.774h-.354l-.024-1.128.192-.006q.186-.282.276-.618.132-.486.132-1.08zm.408.372v.426q0 .714-.126 1.152-.09.342-.228.588h.966V2.268zM103.032 4.848h-.006q-.414 0-.678-.381-.264-.381-.264-1.113 0-.75.282-1.128.282-.378.69-.378.414 0 .675.381.261.381.261 1.113 0 .774-.285 1.14-.285.366-.675.366zm.012-.366h.006q.186 0 .3-.198.114-.198.147-.432.033-.234.033-.504t-.033-.501q-.033-.231-.15-.432-.117-.201-.309-.201-.144 0-.249.111-.105.111-.153.294t-.069.36q-.021.177-.021.369 0 .204.021.384.021.18.072.36.051.18.153.285.102.105.252.105zM105.858 4.374l.066.354q-.186.108-.48.108-.486 0-.774-.381-.288-.381-.288-1.089 0-.648.309-1.08.309-.432.837-.432.258 0 .408.096l-.09.372q-.156-.078-.33-.078-.33 0-.501.327-.171.327-.171.795 0 .51.183.798.183.288.501.288.18 0 .33-.078zM106.2 1.896h1.782v.384h-.66V4.8h-.462V2.28h-.66zM109.806 2.88v1.26q0 .474.03.66h-.414l-.03-.306h-.018q-.198.354-.576.354-.3 0-.495-.228t-.195-.6q0-.516.351-.783t.885-.273v-.09q0-.318-.102-.489-.102-.171-.36-.171-.264 0-.48.15l-.102-.324q.27-.192.678-.192.828 0 .828 1.032zm-.45 1.002v-.588q-.798 0-.798.678 0 .264.105.39t.249.126q.156 0 .27-.114.114-.114.156-.324.018-.078.018-.168zM110.46 4.812V1.908q.318-.06.654-.06.198 0 .375.033t.342.108q.165.075.264.222.099.147.099.357 0 .252-.162.438t-.414.252v.012q.324.054.51.243t.186.483q0 .24-.114.414t-.309.264q-.195.09-.402.129-.207.039-.435.039-.306 0-.594-.03zm.456-2.604v.918h.204q.234 0 .432-.138.198-.138.198-.354 0-.45-.6-.45-.09 0-.234.024zm-.006 1.248v1.038q.162.018.234.018.3 0 .504-.123.204-.123.204-.393t-.219-.405q-.219-.135-.525-.135zM112.944 1.896h1.536V4.8h-.462V2.274h-.636v.924q0 .696-.096 1.062-.096.366-.39.51-.144.072-.312.072l-.078-.366q.144-.024.24-.132.198-.198.198-1.116zM116.754 1.914V4.8h-.45V3.558h-.138q-.276 0-.426.138-.066.06-.12.168-.054.108-.078.198-.024.09-.063.264-.039.174-.063.258-.042.138-.078.216h-.486q.09-.15.132-.3.018-.06.057-.222.039-.162.066-.258.027-.096.081-.219.054-.123.126-.201.138-.15.36-.192v-.012q-.276-.054-.459-.237t-.183-.477q0-.378.294-.606.27-.216.804-.216.384 0 .624.054zm-.45 1.332V2.202q-.078-.024-.198-.024-.264 0-.438.129t-.174.387q0 .258.189.405.189.147.441.147zM119.064 3.39h-1.344q.006 1.08.684 1.08.276 0 .48-.108l.078.336q-.246.138-.642.138-.51 0-.78-.387t-.27-1.071q0-.702.27-1.116.27-.414.708-.414.414 0 .621.369.207.369.207.909 0 .12-.012.264zm-1.338-.342h.906q.006-.408-.123-.624-.129-.216-.309-.216-.21 0-.333.255-.123.255-.141.585zM119.28 1.896h1.782v.384h-.66V4.8h-.462V2.28h-.66zM122.688 4.374l.066.354q-.186.108-.48.108-.486 0-.774-.381-.288-.381-.288-1.089 0-.648.309-1.08.309-.432.837-.432.258 0 .408.096l-.09.372q-.156-.078-.33-.078-.33 0-.501.327-.171.327-.171.795 0 .51.183.798.183.288.501.288.18 0 .33-.078zM124.86 1.914V4.8h-.45V3.558h-.138q-.276 0-.426.138-.066.06-.12.168-.054.108-.078.198-.024.09-.063.264-.039.174-.063.258-.042.138-.078.216h-.486q.09-.15.132-.3.018-.06.057-.222.039-.162.066-.258.027-.096.081-.219.054-.123.126-.201.138-.15.36-.192v-.012q-.276-.054-.459-.237t-.183-.477q0-.378.294-.606.27-.216.804-.216.384 0 .624.054zm-.45 1.332V2.202q-.078-.024-.198-.024-.264 0-.438.129t-.174.387q0 .258.189.405.189.147.441.147zM126.444 1.896h.462v1.23h.858v-1.23h.462V4.8h-.462V3.522h-.858V4.8h-.462zM129.696 4.848h-.006q-.414 0-.678-.381-.264-.381-.264-1.113 0-.75.282-1.128.282-.378.69-.378.414 0 .675.381.261.381.261 1.113 0 .774-.285 1.14-.285.366-.675.366zm.012-.366h.006q.186 0 .3-.198.114-.198.147-.432.033-.234.033-.504t-.033-.501q-.033-.231-.15-.432-.117-.201-.309-.201-.144 0-.249.111-.105.111-.153.294t-.069.36q-.021.177-.021.369 0 .204.021.384.021.18.072.36.051.18.153.285.102.105.252.105zM131.172 4.812V1.908q.318-.06.654-.06.198 0 .375.033t.342.108q.165.075.264.222.099.147.099.357 0 .252-.162.438t-.414.252v.012q.324.054.51.243t.186.483q0 .24-.114.414t-.309.264q-.195.09-.402.129-.207.039-.435.039-.306 0-.594-.03zm.456-2.604v.918h.204q.234 0 .432-.138.198-.138.198-.354 0-.45-.6-.45-.09 0-.234.024zm-.006 1.248v1.038q.162.018.234.018.3 0 .504-.123.204-.123.204-.393t-.219-.405q-.219-.135-.525-.135zM133.536 1.896h.456v1.026q.144-.018.276-.018.444 0 .744.246t.3.684q0 .456-.324.714-.342.282-.858.282-.294 0-.594-.048zm.456 1.38v1.176q.108.018.204.018.27 0 .456-.168t.186-.444q0-.282-.189-.438-.189-.156-.465-.156-.072 0-.192.012zm1.62-1.38h.444V4.8h-.444zM136.608 4.8l.204-2.904h.54l.384 1.272q.144.492.258.93h.012q.15-.594.246-.93l.372-1.272h.552l.198 2.904h-.432l-.06-1.248q-.03-.618-.042-1.224h-.012q-.15.63-.288 1.116l-.396 1.338h-.336l-.378-1.29q-.156-.558-.294-1.164h-.018q0 .42-.036 1.248l-.054 1.224zM140.874 1.896h.45v1.26h.066l.762-1.26h.51l-.906 1.308q.51.084.708.822.168.6.24.774h-.474q-.06-.144-.21-.678-.084-.318-.231-.474-.147-.156-.417-.156h-.048V4.8h-.45zM143.346 1.896h1.536V4.8h-.462V2.274h-.636v.924q0 .696-.096 1.062-.096.366-.39.51-.144.072-.312.072l-.078-.366q.144-.024.24-.132.198-.198.198-1.116zM145.524 1.896h.42v.996q0 .858-.042 1.392h.012q.096-.276.432-1.134l.486-1.254h.486V4.8h-.426v-.96q0-.696.048-1.416h-.018q-.12.438-.348 1.008-.36.9-.576 1.368h-.474zM149.628 3.39h-1.344q.006 1.08.684 1.08.276 0 .48-.108l.078.336q-.246.138-.642.138-.51 0-.78-.387t-.27-1.071q0-.702.27-1.116.27-.414.708-.414.414 0 .621.369.207.369.207.909 0 .12-.012.264zm-1.338-.342h.906q.006-.408-.123-.624-.129-.216-.309-.216-.21 0-.333.255-.123.255-.141.585zM150.138 1.896h.462v1.23h.858v-1.23h.462V4.8h-.462V3.522h-.858V4.8h-.462zM152.28 1.896h1.782v.384h-.66V4.8h-.462V2.28h-.66zM155.886 2.88v1.26q0 .474.03.66h-.414l-.03-.306h-.018q-.198.354-.576.354-.3 0-.495-.228t-.195-.6q0-.516.351-.783t.885-.273v-.09q0-.318-.102-.489-.102-.171-.36-.171-.264 0-.48.15l-.102-.324q.27-.192.678-.192.828 0 .828 1.032zm-.45 1.002v-.588q-.798 0-.798.678 0 .264.105.39t.249.126q.156 0 .27-.114.114-.114.156-.324.018-.078.018-.168zM156.444 4.8l.204-2.904h.54l.384 1.272q.144.492.258.93h.012q.15-.594.246-.93l.372-1.272h.552l.198 2.904h-.432l-.06-1.248q-.03-.618-.042-1.224h-.012q-.15.63-.288 1.116l-.396 1.338h-.336l-.378-1.29q-.156-.558-.294-1.164h-.018q0 .42-.036 1.248l-.054 1.224zM159.864 5.514l-.318.042q.24-.672.348-1.398l.522-.06q-.108.378-.27.801-.162.423-.282.615zM162.696 4.848h-.006q-.414 0-.678-.381-.264-.381-.264-1.113 0-.75.282-1.128.282-.378.69-.378.414 0 .675.381.261.381.261 1.113 0 .774-.285 1.14-.285.366-.675.366zm.012-.366h.006q.186 0 .3-.198.114-.198.147-.432.033-.234.033-.504t-.033-.501q-.033-.231-.15-.432-.117-.201-.309-.201-.144 0-.249.111-.105.111-.153.294t-.069.36q-.021.177-.021.369 0 .204.021.384.021.18.072.36.051.18.153.285.102.105.252.105zM165.066.696h.42v1.152q.48.06.756.438t.276 1.062q0 .69-.27 1.068-.27.378-.762.432v1.104h-.42V4.848q-.48-.054-.75-.429t-.27-1.065q0-.678.27-1.056t.75-.444zm.006 3.834V2.166q-.318.078-.456.414-.138.336-.138.768t.138.771q.138.339.456.411zm.414-2.364V4.53q.6-.144.6-1.182 0-.27-.045-.495-.045-.225-.186-.426-.141-.201-.369-.261zM167.856 4.848h-.006q-.414 0-.678-.381-.264-.381-.264-1.113 0-.75.282-1.128.282-.378.69-.378.414 0 .675.381.261.381.261 1.113 0 .774-.285 1.14-.285.366-.675.366zm.012-.366h.006q.186 0 .3-.198.114-.198.147-.432.033-.234.033-.504t-.033-.501q-.033-.231-.15-.432-.117-.201-.309-.201-.144 0-.249.111-.105.111-.153.294t-.069.36q-.021.177-.021.369 0 .204.021.384.021.18.072.36.051.18.153.285.102.105.252.105zM169.326 5.952v-3.15q0-.09-.024-.906h.414l.024.366h.012q.21-.414.612-.414.39 0 .615.393.225.393.225 1.101 0 .756-.261 1.131t-.633.375q-.354 0-.51-.33h-.012v1.434zm.462-2.958v.744q0 .144.024.24.108.486.42.486.27 0 .39-.312t.12-.798q0-.492-.126-.801-.126-.309-.384-.309-.156 0-.282.162-.126.162-.144.366-.018.072-.018.222zM171.63 4.8l.204-2.904h.54l.384 1.272q.144.492.258.93h.012q.15-.594.246-.93l.372-1.272h.552l.198 2.904h-.432l-.06-1.248q-.03-.618-.042-1.224h-.012q-.15.63-.288 1.116l-.396 1.338h-.336l-.378-1.29q-.156-.558-.294-1.164h-.018q0 .42-.036 1.248L172.05 4.8zM174.954 1.896h.42v.996q0 .858-.042 1.392h.012q.096-.276.432-1.134l.486-1.254h.486V4.8h-.426v-.96q0-.696.048-1.416h-.018q-.12.438-.348 1.008-.36.9-.576 1.368h-.474zM177.39 4.812V1.908q.318-.06.654-.06.198 0 .375.033t.342.108q.165.075.264.222.099.147.099.357 0 .252-.162.438t-.414.252v.012q.324.054.51.243t.186.483q0 .24-.114.414t-.309.264q-.195.09-.402.129-.207.039-.435.039-.306 0-.594-.03zm.456-2.604v.918h.204q.234 0 .432-.138.198-.138.198-.354 0-.45-.6-.45-.09 0-.234.024zm-.006 1.248v1.038q.162.018.234.018.3 0 .504-.123.204-.123.204-.393t-.219-.405q-.219-.135-.525-.135zM179.754 1.896h.456v2.52h.762v-2.52h.456v2.52h.768v-2.52h.456V4.8h-2.898zM183.294 1.896h.42v.996q0 .858-.042 1.392h.012q.096-.276.432-1.134l.486-1.254h.486V4.8h-.426v-.96q0-.696.048-1.416h-.018q-.12.438-.348 1.008-.36.9-.576 1.368h-.474zM185.634 4.8l.204-2.904h.54l.384 1.272q.144.492.258.93h.012q.15-.594.246-.93l.372-1.272h.552L188.4 4.8h-.432l-.06-1.248q-.03-.618-.042-1.224h-.012q-.15.63-.288 1.116l-.396 1.338h-.336l-.378-1.29q-.156-.558-.294-1.164h-.018q0 .42-.036 1.248l-.054 1.224z" stroke-width=".006"/></g><g fill="#fff" stroke="#000"><path d="M.366 7.356h.45v1.836H.9l.858-1.836h.504l-.99 1.89q.342.072.507.333.165.261.255.693.024.102.06.285l.06.3q.024.117.066.27.042.153.084.273h-.468q-.054-.144-.234-1.008-.09-.432-.237-.645-.147-.213-.477-.213H.816V11.4h-.45zM4.278 9.48v1.26q0 .474.03.66h-.414l-.03-.306h-.018q-.198.354-.576.354-.3 0-.495-.228t-.195-.6q0-.516.351-.783t.885-.273v-.09q0-.318-.102-.489-.102-.171-.36-.171-.264 0-.48.15l-.102-.324q.27-.192.678-.192.828 0 .828 1.032zm-.45 1.002v-.588q-.798 0-.798.678 0 .264.105.39t.249.126q.156 0 .27-.114.114-.114.156-.324.018-.078.018-.168zM4.926 12.552v-3.15q0-.09-.024-.906h.414l.024.366h.012q.21-.414.612-.414.39 0 .615.393.225.393.225 1.101 0 .756-.261 1.131t-.633.375q-.354 0-.51-.33h-.012v1.434zm.462-2.958v.744q0 .144.024.24.108.486.42.486.27 0 .39-.312t.12-.798q0-.492-.126-.801-.126-.309-.384-.309-.156 0-.282.162-.126.162-.144.366-.018.072-.018.222zM6.996 8.496h1.782v.384h-.66v2.52h-.462V8.88h-.66zM8.964 8.496h.486l.384 1.668q.03.126.066.324.036.198.054.276h.012q.036-.198.126-.594l.342-1.674h.456l-.474 1.866q-.342 1.38-.72 1.872-.24.306-.522.438l-.168-.39q.228-.132.408-.366.174-.228.264-.492.03-.084.03-.144 0-.072-.012-.108zM12.528 11.4V7.77h-.738v-.414h1.938v.414h-.738v3.63zM14.538 11.4h-.462V8.496h.462zm-.24-3.354h-.006q-.114 0-.189-.084t-.075-.216q0-.132.078-.216.078-.084.192-.084.126 0 .201.081.075.081.075.219t-.075.219q-.075.081-.201.081zM15.18 11.4V9.246q0-.198-.012-.45t-.012-.3h.402l.024.348h.012q.216-.396.666-.396.318 0 .51.246t.192.756v1.95H16.5V9.528q0-.69-.402-.69-.15 0-.273.123-.123.123-.159.351-.024.09-.024.258v1.83zM18.066 7.248v2.598h.012q.138-.294.156-.324l.576-1.026h.498L18.54 9.72l.84 1.68h-.516l-.63-1.368-.168.27V11.4h-.462V7.248zM20.466 11.448h-.006q-.414 0-.678-.381-.264-.381-.264-1.113 0-.75.282-1.128.282-.378.69-.378.414 0 .675.381.261.381.261 1.113 0 .774-.285 1.14-.285.366-.675.366zm.012-.366h.006q.186 0 .3-.198.114-.198.147-.432.033-.234.033-.504t-.033-.501q-.033-.231-.15-.432-.117-.201-.309-.201-.144 0-.249.111-.105.111-.153.294t-.069.36q-.021.177-.021.369 0 .204.021.384.021.18.072.36.051.18.153.285.102.105.252.105zM23.838 11.4h-.462V8.844H22.5V11.4h-.462V8.844h-.366v-.348h.366v-.144q0-.57.264-.852.216-.228.6-.228.168 0 .3.054l-.084.366q-.096-.042-.222-.042-.216 0-.306.174t-.09.522v.15h.876v-.18q0-.582.258-.87.222-.246.582-.246.216 0 .36.072l-.072.36q-.12-.048-.258-.048-.408 0-.408.726v.186h.528v.348h-.528zM25.626 11.382V7.416q.312-.078.678-.078.594 0 .894.276.264.252.264.696 0 .312-.165.549-.165.237-.459.351v.018q.354.09.552.363.198.273.198.669 0 .48-.288.798-.324.366-1.068.366-.384 0-.606-.042zm.462-3.654v1.35h.21q.288 0 .495-.204.207-.204.207-.51 0-.666-.666-.666-.156 0-.246.03zm0 1.698v1.614q.078.018.234.018.36 0 .573-.21.213-.21.213-.594 0-.396-.234-.609-.234-.213-.582-.219zM28.086 11.4V7.248h.462V11.4zM30.762 9.48v1.26q0 .474.03.66h-.414l-.03-.306h-.018q-.198.354-.576.354-.3 0-.495-.228t-.195-.6q0-.516.351-.783t.885-.273v-.09q0-.318-.102-.489-.102-.171-.36-.171-.264 0-.48.15l-.102-.324q.27-.192.678-.192.828 0 .828 1.032zm-.45 1.002v-.588q-.798 0-.798.678 0 .264.105.39t.249.126q.156 0 .27-.114.114-.114.156-.324.018-.078.018-.168zM32.766 10.974l.066.354q-.186.108-.48.108-.486 0-.774-.381-.288-.381-.288-1.089 0-.648.309-1.08.309-.432.837-.432.258 0 .408.096l-.09.372q-.156-.078-.33-.078-.33 0-.501.327-.171.327-.171.795 0 .51.183.798.183.288.501.288.18 0 .33-.078zM33.684 7.248v2.598h.012q.138-.294.156-.324l.576-1.026h.498l-.768 1.224.84 1.68h-.516l-.63-1.368-.168.27V11.4h-.462V7.248zM36.294 11.412V8.508q.318-.06.654-.06.198 0 .375.033t.342.108q.165.075.264.222.099.147.099.357 0 .252-.162.438t-.414.252v.012q.324.054.51.243t.186.483q0 .24-.114.414t-.309.264q-.195.09-.402.129-.207.039-.435.039-.306 0-.594-.03zm.456-2.604v.918h.204q.234 0 .432-.138.198-.138.198-.354 0-.45-.6-.45-.09 0-.234.024zm-.006 1.248v1.038q.162.018.234.018.3 0 .504-.123.204-.123.204-.393t-.219-.405q-.219-.135-.525-.135zM39.6 8.496h1.758V11.4h-.462V8.88h-.834v2.52H39.6zM43.668 9.99h-1.344q.006 1.08.684 1.08.276 0 .48-.108l.078.336q-.246.138-.642.138-.51 0-.78-.387t-.27-1.071q0-.702.27-1.116.27-.414.708-.414.414 0 .621.369.207.369.207.909 0 .12-.012.264zm-1.338-.342h.906q.006-.408-.123-.624-.129-.216-.309-.216-.21 0-.333.255-.123.255-.141.585zM44.172 12.552v-3.15q0-.09-.024-.906h.414l.024.366h.012q.21-.414.612-.414.39 0 .615.393.225.393.225 1.101 0 .756-.261 1.131t-.633.375q-.354 0-.51-.33h-.012v1.434zm.462-2.958v.744q0 .144.024.24.108.486.42.486.27 0 .39-.312t.12-.798q0-.492-.126-.801-.126-.309-.384-.309-.156 0-.282.162-.126.162-.144.366-.018.072-.018.222zM46.572 8.496h.42v.996q0 .858-.042 1.392h.012q.096-.276.432-1.134l.486-1.254h.486V11.4h-.426v-.96q0-.696.048-1.416h-.018q-.12.438-.348 1.008-.36.9-.576 1.368h-.474zM49.83 11.448h-.006q-.414 0-.678-.381-.264-.381-.264-1.113 0-.75.282-1.128.282-.378.69-.378.414 0 .675.381.261.381.261 1.113 0 .774-.285 1.14-.285.366-.675.366zm.012-.366h.006q.186 0 .3-.198.114-.198.147-.432.033-.234.033-.504t-.033-.501q-.033-.231-.15-.432-.117-.201-.309-.201-.144 0-.249.111-.105.111-.153.294t-.069.36q-.021.177-.021.369 0 .204.021.384.021.18.072.36.051.18.153.285.102.105.252.105zM51.558 8.496h1.476v2.544l.246.006-.024 1.128h-.354l-.03-.774h-1.506l-.03.774h-.354l-.024-1.128.192-.006q.186-.282.276-.618.132-.486.132-1.08zm.408.372v.426q0 .714-.126 1.152-.09.342-.228.588h.966V8.868zM56.04 10.974l.066.354q-.186.108-.48.108-.486 0-.774-.381-.288-.381-.288-1.089 0-.648.309-1.08.309-.432.837-.432.258 0 .408.096l-.09.372q-.156-.078-.33-.078-.33 0-.501.327-.171.327-.171.795 0 .51.183.798.183.288.501.288.18 0 .33-.078zM58.26 11.448h-.006q-.456 0-.714-.522-.258-.522-.258-1.47 0-.972.27-1.488t.756-.516q.468 0 .714.525.246.525.246 1.467 0 1.014-.279 1.509-.279.495-.729.495zm.018-.396h.006q.522 0 .522-1.602 0-.726-.129-1.164-.129-.438-.393-.438-.27 0-.405.429t-.135 1.173q-.006.738.126 1.17.132.432.408.432zM59.598 11.268l.102-.366q.27.162.564.162.306 0 .489-.21t.183-.564q0-.378-.216-.594-.216-.216-.57-.216h-.108v-.348h.09q.246 0 .474-.183.228-.183.228-.513 0-.288-.141-.444-.141-.156-.375-.156-.228 0-.486.186l-.096-.348q.27-.222.696-.222.402 0 .633.252.231.252.231.642 0 .3-.15.546-.15.246-.432.372v.012q.294.078.489.336t.195.69q0 .492-.3.819-.3.327-.816.327-.426 0-.684-.18zM64.536 9.48v1.26q0 .474.03.66h-.414l-.03-.306h-.018q-.198.354-.576.354-.3 0-.495-.228t-.195-.6q0-.516.351-.783t.885-.273v-.09q0-.318-.102-.489-.102-.171-.36-.171-.264 0-.48.15l-.102-.324q.27-.192.678-.192.828 0 .828 1.032zm-.45 1.002v-.588q-.798 0-.798.678 0 .264.105.39t.249.126q.156 0 .27-.114.114-.114.156-.324.018-.078.018-.168zM65.19 8.496h1.758V11.4h-.462V8.88h-.834v2.52h-.462zM67.584 12.552v-3.15q0-.09-.024-.906h.414l.024.366h.012q.21-.414.612-.414.39 0 .615.393.225.393.225 1.101 0 .756-.261 1.131t-.633.375q-.354 0-.51-.33h-.012v1.434zm.462-2.958v.744q0 .144.024.24.108.486.42.486.27 0 .39-.312t.12-.798q0-.492-.126-.801-.126-.309-.384-.309-.156 0-.282.162-.126.162-.144.366-.018.072-.018.222zM71.652 9.99h-1.344q.006 1.08.684 1.08.276 0 .48-.108l.078.336q-.246.138-.642.138-.51 0-.78-.387t-.27-1.071q0-.702.27-1.116.27-.414.708-.414.414 0 .621.369.207.369.207.909 0 .12-.012.264zm-1.338-.342h.906q.006-.408-.123-.624-.129-.216-.309-.216-.21 0-.333.255-.123.255-.141.585zM72.306 8.496h1.536V11.4h-.462V8.874h-.636v.924q0 .696-.096 1.062-.096.366-.39.51-.144.072-.312.072l-.078-.366q.144-.024.24-.132.198-.198.198-1.116zM76.116 8.514V11.4h-.45v-1.242h-.138q-.276 0-.426.138-.066.06-.12.168-.054.108-.078.198-.024.09-.063.264-.039.174-.063.258-.042.138-.078.216h-.486q.09-.15.132-.3.018-.06.057-.222.039-.162.066-.258.027-.096.081-.219.054-.123.126-.201.138-.15.36-.192v-.012q-.276-.054-.459-.237t-.183-.477q0-.378.294-.606.27-.216.804-.216.384 0 .624.054zm-.45 1.332V8.802q-.078-.024-.198-.024-.264 0-.438.129t-.174.387q0 .258.189.405.189.147.441.147zM79.44 11.4h-1.872v-.3l.324-.444q.258-.36.369-.522.111-.162.3-.48.189-.318.267-.585.078-.267.078-.525 0-.33-.141-.513t-.411-.183q-.252 0-.564.216l-.114-.348q.318-.264.762-.264.462 0 .696.3.234.3.234.768 0 .492-.255.99t-.711 1.11l-.258.36v.012h1.296zM80.826 11.448h-.006q-.456 0-.714-.522-.258-.522-.258-1.47 0-.972.27-1.488t.756-.516q.468 0 .714.525.246.525.246 1.467 0 1.014-.279 1.509-.279.495-.729.495zm.018-.396h.006q.522 0 .522-1.602 0-.726-.129-1.164-.129-.438-.393-.438-.27 0-.405.429T80.31 9.45q-.006.738.126 1.17.132.432.408.432zM84.06 11.4h-1.872v-.3l.324-.444q.258-.36.369-.522.111-.162.3-.48.189-.318.267-.585.078-.267.078-.525 0-.33-.141-.513t-.411-.183q-.252 0-.564.216l-.114-.348q.318-.264.762-.264.462 0 .696.3.234.3.234.768 0 .492-.255.99t-.711 1.11l-.258.36v.012h1.296zM84.474 11.268l.102-.366q.27.162.564.162.306 0 .489-.21t.183-.564q0-.378-.216-.594-.216-.216-.57-.216h-.108v-.348h.09q.246 0 .474-.183.228-.183.228-.513 0-.288-.141-.444-.141-.156-.375-.156-.228 0-.486.186l-.096-.348q.27-.222.696-.222.402 0 .633.252.231.252.231.642 0 .3-.15.546-.15.246-.432.372v.012q.294.078.489.336t.195.69q0 .492-.3.819-.3.327-.816.327-.426 0-.684-.18zM86.94 8.496h1.356v.39h-.894V11.4h-.462zM88.59 11.448h-.006q-.126 0-.213-.096t-.087-.252q0-.15.09-.249t.216-.099q.138 0 .222.096.084.096.084.252 0 .162-.081.255t-.225.093zM90.42 8.496h1.758V11.4h-.462V8.88h-.834v2.52h-.462zM93.642 11.448h-.006q-.414 0-.678-.381-.264-.381-.264-1.113 0-.75.282-1.128.282-.378.69-.378.414 0 .675.381.261.381.261 1.113 0 .774-.285 1.14-.285.366-.675.366zm.012-.366h.006q.186 0 .3-.198.114-.198.147-.432.033-.234.033-.504t-.033-.501q-.033-.231-.15-.432-.117-.201-.309-.201-.144 0-.249.111-.105.111-.153.294t-.069.36q-.021.177-.021.369 0 .204.021.384.021.18.072.36.051.18.153.285.102.105.252.105zM96.864 11.4V7.968h-.012l-.648.372-.09-.36.822-.48h.378v3.9zM99.96 7.452v.39q-.114 0-.276.036-.81.204-1.002 1.41h.018q.252-.372.66-.372.372 0 .606.324.234.324.234.876 0 .576-.255.954t-.705.378q-.498 0-.762-.444t-.264-1.146q0-1.068.504-1.758.168-.24.423-.399.255-.159.525-.213.096-.018.294-.036zm-.72 3.636h.006q.21 0 .351-.231t.141-.705q0-.432-.141-.657-.141-.225-.381-.225-.348 0-.51.42-.03.09-.03.234.006.576.159.87.153.294.405.294zM103.152 9.48v1.26q0 .474.03.66h-.414l-.03-.306h-.018q-.198.354-.576.354-.3 0-.495-.228t-.195-.6q0-.516.351-.783t.885-.273v-.09q0-.318-.102-.489-.102-.171-.36-.171-.264 0-.48.15l-.102-.324q.27-.192.678-.192.828 0 .828 1.032zm-.45 1.002v-.588q-.798 0-.798.678 0 .264.105.39t.249.126q.156 0 .27-.114.114-.114.156-.324.018-.078.018-.168zM103.806 8.496h1.758V11.4h-.462V8.88h-.834v2.52h-.462zM106.2 12.552v-3.15q0-.09-.024-.906h.414l.024.366h.012q.21-.414.612-.414.39 0 .615.393.225.393.225 1.101 0 .756-.261 1.131t-.633.375q-.354 0-.51-.33h-.012v1.434zm.462-2.958v.744q0 .144.024.24.108.486.42.486.27 0 .39-.312t.12-.798q0-.492-.126-.801-.126-.309-.384-.309-.156 0-.282.162-.126.162-.144.366-.018.072-.018.222zM110.268 9.99h-1.344q.006 1.08.684 1.08.276 0 .48-.108l.078.336q-.246.138-.642.138-.51 0-.78-.387t-.27-1.071q0-.702.27-1.116.27-.414.708-.414.414 0 .621.369.207.369.207.909 0 .12-.012.264zm-1.338-.342h.906q.006-.408-.123-.624-.129-.216-.309-.216-.21 0-.333.255-.123.255-.141.585zM110.922 8.496h1.536V11.4h-.462V8.874h-.636v.924q0 .696-.096 1.062-.096.366-.39.51-.144.072-.312.072l-.078-.366q.144-.024.24-.132.198-.198.198-1.116zM114.732 8.514V11.4h-.45v-1.242h-.138q-.276 0-.426.138-.066.06-.12.168-.054.108-.078.198-.024.09-.063.264-.039.174-.063.258-.042.138-.078.216h-.486q.09-.15.132-.3.018-.06.057-.222.039-.162.066-.258.027-.096.081-.219.054-.123.126-.201.138-.15.36-.192v-.012q-.276-.054-.459-.237t-.183-.477q0-.378.294-.606.27-.216.804-.216.384 0 .624.054zm-.45 1.332V8.802q-.078-.024-.198-.024-.264 0-.438.129t-.174.387q0 .258.189.405.189.147.441.147zM118.056 11.4h-1.872v-.3l.324-.444q.258-.36.369-.522.111-.162.3-.48.189-.318.267-.585.078-.267.078-.525 0-.33-.141-.513t-.411-.183q-.252 0-.564.216l-.114-.348q.318-.264.762-.264.462 0 .696.3.234.3.234.768 0 .492-.255.99t-.711 1.11l-.258.36v.012h1.296zM119.442 11.448h-.006q-.456 0-.714-.522-.258-.522-.258-1.47 0-.972.27-1.488t.756-.516q.468 0 .714.525.246.525.246 1.467 0 1.014-.279 1.509-.279.495-.729.495zm.018-.396h.006q.522 0 .522-1.602 0-.726-.129-1.164-.129-.438-.393-.438-.27 0-.405.429t-.135 1.173q-.006.738.126 1.17.132.432.408.432zM122.676 11.4h-1.872v-.3l.324-.444q.258-.36.369-.522.111-.162.3-.48.189-.318.267-.585.078-.267.078-.525 0-.33-.141-.513t-.411-.183q-.252 0-.564.216l-.114-.348q.318-.264.762-.264.462 0 .696.3.234.3.234.768 0 .492-.255.99t-.711 1.11l-.258.36v.012h1.296zM123.09 11.268l.102-.366q.27.162.564.162.306 0 .489-.21t.183-.564q0-.378-.216-.594-.216-.216-.57-.216h-.108v-.348h.09q.246 0 .474-.183.228-.183.228-.513 0-.288-.141-.444-.141-.156-.375-.156-.228 0-.486.186l-.096-.348q.27-.222.696-.222.402 0 .633.252.231.252.231.642 0 .3-.15.546-.15.246-.432.372v.012q.294.078.489.336t.195.69q0 .492-.3.819-.3.327-.816.327-.426 0-.684-.18zM125.556 8.496h1.356v.39h-.894V11.4h-.462zM127.206 11.448h-.006q-.126 0-.213-.096t-.087-.252q0-.15.09-.249t.216-.099q.138 0 .222.096.084.096.084.252 0 .162-.081.255t-.225.093zM129.72 7.248h.36q-.624.984-.624 2.442 0 1.434.624 2.43h-.36q-.654-.954-.654-2.436.018-1.518.654-2.436zM130.554 11.412V8.508q.318-.06.654-.06.198 0 .375.033t.342.108q.165.075.264.222.099.147.099.357 0 .252-.162.438t-.414.252v.012q.324.054.51.243t.186.483q0 .24-.114.414t-.309.264q-.195.09-.402.129-.207.039-.435.039-.306 0-.594-.03zm.456-2.604v.918h.204q.234 0 .432-.138.198-.138.198-.354 0-.45-.6-.45-.09 0-.234.024zm-.006 1.248v1.038q.162.018.234.018.3 0 .504-.123.204-.123.204-.393t-.219-.405q-.219-.135-.525-.135zM132.918 8.496h.45v1.26h.066l.762-1.26h.51l-.906 1.308q.51.084.708.822.168.6.24.774h-.474q-.06-.144-.21-.678-.084-.318-.231-.474-.147-.156-.417-.156h-.048V11.4h-.45zM135.39 8.496h1.536V11.4h-.462V8.874h-.636v.924q0 .696-.096 1.062-.096.366-.39.51-.144.072-.312.072l-.078-.366q.144-.024.24-.132.198-.198.198-1.116zM137.568 8.496h.45v1.218h.36q.048-.63.303-.948.255-.318.609-.318.39 0 .645.387t.255 1.113q0 .768-.276 1.134-.276.366-.648.366t-.621-.345q-.249-.345-.273-1.017h-.354V11.4h-.45zm1.71 2.586h.006q.132 0 .225-.108t.138-.291q.045-.183.066-.363.021-.18.021-.372 0-.186-.021-.366t-.069-.363q-.048-.183-.144-.294-.096-.111-.228-.111-.138 0-.234.111t-.141.294q-.045.183-.066.36-.021.177-.021.369 0 .45.108.792t.36.342zM140.646 8.496h.462v1.11q0 .516.402.516.204 0 .426-.132V8.496h.462v2.916h-.462v-1.086h-.012q-.228.15-.552.15-.342 0-.534-.204t-.192-.594zM143.046 8.496h.42v.996q0 .858-.042 1.392h.012q.096-.276.432-1.134l.486-1.254h.486V11.4h-.426v-.96q0-.696.048-1.416h-.018q-.12.438-.348 1.008-.36.9-.576 1.368h-.474zM145.194 8.496h1.782v.384h-.66v2.52h-.462V8.88h-.66zM148.92 9.99h-1.344q.006 1.08.684 1.08.276 0 .48-.108l.078.336q-.246.138-.642.138-.51 0-.78-.387t-.27-1.071q0-.702.27-1.116.27-.414.708-.414.414 0 .621.369.207.369.207.909 0 .12-.012.264zm-1.338-.342h.906q.006-.408-.123-.624-.129-.216-.309-.216-.21 0-.333.255-.123.255-.141.585zM149.574 8.496h1.536V11.4h-.462V8.874h-.636v.924q0 .696-.096 1.062-.096.366-.39.51-.144.072-.312.072l-.078-.366q.144-.024.24-.132.198-.198.198-1.116zM151.752 8.496h.456v1.026q.042 0 .138-.009t.138-.009q.48 0 .795.237.315.237.315.699 0 .45-.324.708-.342.282-.924.282-.294 0-.594-.048zm.456 1.38v1.182q.144.012.204.012.306 0 .507-.156t.201-.456q0-.3-.204-.447-.204-.147-.516-.147-.072 0-.192.012zM154.08 8.496h.462v1.23h.858v-1.23h.462V11.4h-.462v-1.278h-.858V11.4h-.462zM157.332 11.448h-.006q-.414 0-.678-.381-.264-.381-.264-1.113 0-.75.282-1.128.282-.378.69-.378.414 0 .675.381.261.381.261 1.113 0 .774-.285 1.14-.285.366-.675.366zm.012-.366h.006q.186 0 .3-.198.114-.198.147-.432.033-.234.033-.504t-.033-.501q-.033-.231-.15-.432-.117-.201-.309-.201-.144 0-.249.111-.105.111-.153.294t-.069.36q-.021.177-.021.369 0 .204.021.384.021.18.072.36.051.18.153.285.102.105.252.105zM158.994 12.12h-.36q.624-.984.624-2.442 0-1.446-.624-2.43h.36q.654.93.654 2.43-.018 1.494-.654 2.442zM160.602 11.448h-.006q-.126 0-.213-.096t-.087-.252q0-.15.09-.249t.216-.099q.138 0 .222.096.084.096.084.252 0 .162-.081.255t-.225.093zM164.16 10.944l.078.384q-.204.108-.582.108-.618 0-.987-.504t-.369-1.5q0-.57.132-.999.132-.429.348-.663.216-.234.456-.342.24-.108.498-.108.348 0 .498.102l-.102.39q-.192-.084-.402-.084-.378 0-.66.402-.282.402-.282 1.254 0 .864.267 1.254t.687.39q.228 0 .42-.084zM164.664 12.552v-3.15q0-.09-.024-.906h.414l.024.366h.012q.21-.414.612-.414.39 0 .615.393.225.393.225 1.101 0 .756-.261 1.131t-.633.375q-.354 0-.51-.33h-.012v1.434zm.462-2.958v.744q0 .144.024.24.108.486.42.486.27 0 .39-.312t.12-.798q0-.492-.126-.801-.126-.309-.384-.309-.156 0-.282.162-.126.162-.144.366-.018.072-.018.222zM167.886 11.448h-.006q-.414 0-.678-.381-.264-.381-.264-1.113 0-.75.282-1.128.282-.378.69-.378.414 0 .675.381.261.381.261 1.113 0 .774-.285 1.14-.285.366-.675.366zm.012-.366h.006q.186 0 .3-.198.114-.198.147-.432.033-.234.033-.504t-.033-.501q-.033-.231-.15-.432-.117-.201-.309-.201-.144 0-.249.111-.105.111-.153.294t-.069.36q-.021.177-.021.369 0 .204.021.384.021.18.072.36.051.18.153.285.102.105.252.105zM169.362 8.496h.45v1.26h.066l.762-1.26h.51l-.906 1.308q.51.084.708.822.168.6.24.774h-.474q-.06-.144-.21-.678-.084-.318-.231-.474-.147-.156-.417-.156h-.048V11.4h-.45zM171.564 8.496h.42v.996q0 .858-.042 1.392h.012q.096-.276.432-1.134l.486-1.254h.486V11.4h-.426v-.96q0-.696.048-1.416h-.018q-.12.438-.348 1.008-.36.9-.576 1.368h-.474zM176.472 9.48v1.26q0 .474.03.66h-.414l-.03-.306h-.018q-.198.354-.576.354-.3 0-.495-.228t-.195-.6q0-.516.351-.783t.885-.273v-.09q0-.318-.102-.489-.102-.171-.36-.171-.264 0-.48.15l-.102-.324q.27-.192.678-.192.828 0 .828 1.032zm-.45 1.002v-.588q-.798 0-.798.678 0 .264.105.39t.249.126q.156 0 .27-.114.114-.114.156-.324.018-.078.018-.168zM177.126 8.496h.45v1.26h.066l.762-1.26h.51l-.906 1.308q.51.084.708.822.168.6.24.774h-.474q-.06-.144-.21-.678-.084-.318-.231-.474-.147-.156-.417-.156h-.048V11.4h-.45zM179.328 8.496h.462v2.52h.828v-2.52h.462v2.544l.246.006-.024 1.128h-.354l-.03-.774h-1.59zM181.794 8.496h.42v.996q0 .858-.042 1.392h.012q.096-.276.432-1.134l.486-1.254h.486V11.4h-.426v-.96q0-.696.048-1.416h-.018q-.12.438-.348 1.008-.36.9-.576 1.368h-.474zM184.23 8.496h.42v.996q0 .858-.042 1.392h.012q.096-.276.432-1.134l.486-1.254h.486V11.4h-.426v-.96q0-.696.048-1.416h-.018q-.12.438-.348 1.008-.36.9-.576 1.368h-.474z" stroke-width=".006"/></g><g fill="#fff" stroke="#000"><path d="M1.674 17.574l.066.354q-.186.108-.48.108-.486 0-.774-.381-.288-.381-.288-1.089 0-.648.309-1.08.309-.432.837-.432.258 0 .408.096l-.09.372q-.156-.078-.33-.078-.33 0-.501.327-.171.327-.171.795 0 .51.183.798.183.288.501.288.18 0 .33-.078zM3.894 18.048h-.006q-.456 0-.714-.522-.258-.522-.258-1.47 0-.972.27-1.488t.756-.516q.468 0 .714.525.246.525.246 1.467 0 1.014-.279 1.509-.279.495-.729.495zm.018-.396h.006q.522 0 .522-1.602 0-.726-.129-1.164-.129-.438-.393-.438-.27 0-.405.429t-.135 1.173q-.006.738.126 1.17.132.432.408.432zM5.232 17.868l.102-.366q.27.162.564.162.306 0 .489-.21t.183-.564q0-.378-.216-.594-.216-.216-.57-.216h-.108v-.348h.09q.246 0 .474-.183.228-.183.228-.513 0-.288-.141-.444-.141-.156-.375-.156-.228 0-.486.186l-.096-.348q.27-.222.696-.222.402 0 .633.252.231.252.231.642 0 .3-.15.546-.15.246-.432.372v.012q.294.078.489.336t.195.69q0 .492-.3.819-.3.327-.816.327-.426 0-.684-.18zM10.17 16.08v1.26q0 .474.03.66h-.414l-.03-.306h-.018q-.198.354-.576.354-.3 0-.495-.228t-.195-.6q0-.516.351-.783t.885-.273v-.09q0-.318-.102-.489-.102-.171-.36-.171-.264 0-.48.15l-.102-.324q.27-.192.678-.192.828 0 .828 1.032zm-.45 1.002v-.588q-.798 0-.798.678 0 .264.105.39t.249.126q.156 0 .27-.114.114-.114.156-.324.018-.078.018-.168zM10.824 15.096h1.758V18h-.462v-2.52h-.834V18h-.462zM13.218 19.152v-3.15q0-.09-.024-.906h.414l.024.366h.012q.21-.414.612-.414.39 0 .615.393.225.393.225 1.101 0 .756-.261 1.131t-.633.375q-.354 0-.51-.33h-.012v1.434zm.462-2.958v.744q0 .144.024.24.108.486.42.486.27 0 .39-.312t.12-.798q0-.492-.126-.801-.126-.309-.384-.309-.156 0-.282.162-.126.162-.144.366-.018.072-.018.222zM17.286 16.59h-1.344q.006 1.08.684 1.08.276 0 .48-.108l.078.336q-.246.138-.642.138-.51 0-.78-.387t-.27-1.071q0-.702.27-1.116.27-.414.708-.414.414 0 .621.369.207.369.207.909 0 .12-.012.264zm-1.338-.342h.906q.006-.408-.123-.624-.129-.216-.309-.216-.21 0-.333.255-.123.255-.141.585zM17.94 15.096h1.536V18h-.462v-2.526h-.636v.924q0 .696-.096 1.062-.096.366-.39.51-.144.072-.312.072l-.078-.366q.144-.024.24-.132.198-.198.198-1.116zM21.75 15.114V18h-.45v-1.242h-.138q-.276 0-.426.138-.066.06-.12.168-.054.108-.078.198-.024.09-.063.264-.039.174-.063.258-.042.138-.078.216h-.486q.09-.15.132-.3.018-.06.057-.222.039-.162.066-.258.027-.096.081-.219.054-.123.126-.201.138-.15.36-.192v-.012q-.276-.054-.459-.237t-.183-.477q0-.378.294-.606.27-.216.804-.216.384 0 .624.054zm-.45 1.332v-1.044q-.078-.024-.198-.024-.264 0-.438.129t-.174.387q0 .258.189.405.189.147.441.147zM25.074 18h-1.872v-.3l.324-.444q.258-.36.369-.522.111-.162.3-.48.189-.318.267-.585.078-.267.078-.525 0-.33-.141-.513t-.411-.183q-.252 0-.564.216l-.114-.348q.318-.264.762-.264.462 0 .696.3.234.3.234.768 0 .492-.255.99t-.711 1.11l-.258.36v.012h1.296zM26.46 18.048h-.006q-.456 0-.714-.522-.258-.522-.258-1.47 0-.972.27-1.488t.756-.516q.468 0 .714.525.246.525.246 1.467 0 1.014-.279 1.509-.279.495-.729.495zm.018-.396h.006q.522 0 .522-1.602 0-.726-.129-1.164-.129-.438-.393-.438-.27 0-.405.429t-.135 1.173q-.006.738.126 1.17.132.432.408.432zM29.694 18h-1.872v-.3l.324-.444q.258-.36.369-.522.111-.162.3-.48.189-.318.267-.585.078-.267.078-.525 0-.33-.141-.513t-.411-.183q-.252 0-.564.216l-.114-.348q.318-.264.762-.264.462 0 .696.3.234.3.234.768 0 .492-.255.99t-.711 1.11l-.258.36v.012h1.296zM30.108 17.868l.102-.366q.27.162.564.162.306 0 .489-.21t.183-.564q0-.378-.216-.594-.216-.216-.57-.216h-.108v-.348h.09q.246 0 .474-.183.228-.183.228-.513 0-.288-.141-.444-.141-.156-.375-.156-.228 0-.486.186l-.096-.348q.27-.222.696-.222.402 0 .633.252.231.252.231.642 0 .3-.15.546-.15.246-.432.372v.012q.294.078.489.336t.195.69q0 .492-.3.819-.3.327-.816.327-.426 0-.684-.18zM32.574 15.096h1.356v.39h-.894V18h-.462zM34.224 18.048h-.006q-.126 0-.213-.096t-.087-.252q0-.15.09-.249t.216-.099q.138 0 .222.096.084.096.084.252 0 .162-.081.255t-.225.093zM36.054 15.096h1.758V18h-.462v-2.52h-.834V18h-.462zM39.276 18.048h-.006q-.414 0-.678-.381-.264-.381-.264-1.113 0-.75.282-1.128.282-.378.69-.378.414 0 .675.381.261.381.261 1.113 0 .774-.285 1.14-.285.366-.675.366zm.012-.366h.006q.186 0 .3-.198.114-.198.147-.432.033-.234.033-.504t-.033-.501q-.033-.231-.15-.432-.117-.201-.309-.201-.144 0-.249.111-.105.111-.153.294t-.069.36q-.021.177-.021.369 0 .204.021.384.021.18.072.36.051.18.153.285.102.105.252.105zM42.498 18v-3.432h-.012l-.648.372-.09-.36.822-.48h.378V18zM45.594 14.052v.39q-.114 0-.276.036-.81.204-1.002 1.41h.018q.252-.372.66-.372.372 0 .606.324.234.324.234.876 0 .576-.255.954t-.705.378q-.498 0-.762-.444t-.264-1.146q0-1.068.504-1.758.168-.24.423-.399.255-.159.525-.213.096-.018.294-.036zm-.72 3.636h.006q.21 0 .351-.231t.141-.705q0-.432-.141-.657-.141-.225-.381-.225-.348 0-.51.42-.03.09-.03.234.006.576.159.87.153.294.405.294zM48.786 16.08v1.26q0 .474.03.66h-.414l-.03-.306h-.018q-.198.354-.576.354-.3 0-.495-.228t-.195-.6q0-.516.351-.783t.885-.273v-.09q0-.318-.102-.489-.102-.171-.36-.171-.264 0-.48.15l-.102-.324q.27-.192.678-.192.828 0 .828 1.032zm-.45 1.002v-.588q-.798 0-.798.678 0 .264.105.39t.249.126q.156 0 .27-.114.114-.114.156-.324.018-.078.018-.168zM49.44 15.096h1.758V18h-.462v-2.52h-.834V18h-.462zM51.834 19.152v-3.15q0-.09-.024-.906h.414l.024.366h.012q.21-.414.612-.414.39 0 .615.393.225.393.225 1.101 0 .756-.261 1.131t-.633.375q-.354 0-.51-.33h-.012v1.434zm.462-2.958v.744q0 .144.024.24.108.486.42.486.27 0 .39-.312t.12-.798q0-.492-.126-.801-.126-.309-.384-.309-.156 0-.282.162-.126.162-.144.366-.018.072-.018.222zM55.902 16.59h-1.344q.006 1.08.684 1.08.276 0 .48-.108l.078.336q-.246.138-.642.138-.51 0-.78-.387t-.27-1.071q0-.702.27-1.116.27-.414.708-.414.414 0 .621.369.207.369.207.909 0 .12-.012.264zm-1.338-.342h.906q.006-.408-.123-.624-.129-.216-.309-.216-.21 0-.333.255-.123.255-.141.585zM56.556 15.096h1.536V18h-.462v-2.526h-.636v.924q0 .696-.096 1.062-.096.366-.39.51-.144.072-.312.072l-.078-.366q.144-.024.24-.132.198-.198.198-1.116zM60.366 15.114V18h-.45v-1.242h-.138q-.276 0-.426.138-.066.06-.12.168-.054.108-.078.198-.024.09-.063.264-.039.174-.063.258-.042.138-.078.216h-.486q.09-.15.132-.3.018-.06.057-.222.039-.162.066-.258.027-.096.081-.219.054-.123.126-.201.138-.15.36-.192v-.012q-.276-.054-.459-.237t-.183-.477q0-.378.294-.606.27-.216.804-.216.384 0 .624.054zm-.45 1.332v-1.044q-.078-.024-.198-.024-.264 0-.438.129t-.174.387q0 .258.189.405.189.147.441.147zM63.69 18h-1.872v-.3l.324-.444q.258-.36.369-.522.111-.162.3-.48.189-.318.267-.585.078-.267.078-.525 0-.33-.141-.513t-.411-.183q-.252 0-.564.216l-.114-.348q.318-.264.762-.264.462 0 .696.3.234.3.234.768 0 .492-.255.99t-.711 1.11l-.258.36v.012h1.296zM65.076 18.048h-.006q-.456 0-.714-.522-.258-.522-.258-1.47 0-.972.27-1.488t.756-.516q.468 0 .714.525.246.525.246 1.467 0 1.014-.279 1.509-.279.495-.729.495zm.018-.396h.006q.522 0 .522-1.602 0-.726-.129-1.164-.129-.438-.393-.438-.27 0-.405.429t-.135 1.173q-.006.738.126 1.17.132.432.408.432zM68.31 18h-1.872v-.3l.324-.444q.258-.36.369-.522.111-.162.3-.48.189-.318.267-.585.078-.267.078-.525 0-.33-.141-.513t-.411-.183q-.252 0-.564.216l-.114-.348q.318-.264.762-.264.462 0 .696.3.234.3.234.768 0 .492-.255.99t-.711 1.11l-.258.36v.012h1.296zM68.724 17.868l.102-.366q.27.162.564.162.306 0 .489-.21t.183-.564q0-.378-.216-.594-.216-.216-.57-.216h-.108v-.348h.09q.246 0 .474-.183.228-.183.228-.513 0-.288-.141-.444-.141-.156-.375-.156-.228 0-.486.186l-.096-.348q.27-.222.696-.222.402 0 .633.252.231.252.231.642 0 .3-.15.546-.15.246-.432.372v.012q.294.078.489.336t.195.69q0 .492-.3.819-.3.327-.816.327-.426 0-.684-.18zM71.19 15.096h1.356v.39h-.894V18h-.462zM72.84 18.048h-.006q-.126 0-.213-.096t-.087-.252q0-.15.09-.249t.216-.099q.138 0 .222.096.084.096.084.252 0 .162-.081.255t-.225.093zM73.824 18.714l-.318.042q.24-.672.348-1.398l.522-.06q-.108.378-.27.801-.162.423-.282.615zM75.834 15.096h.462v1.23h.858v-1.23h.462V18h-.462v-1.278h-.858V18h-.462zM79.932 16.59h-1.344q.006 1.08.684 1.08.276 0 .48-.108l.078.336q-.246.138-.642.138-.51 0-.78-.387t-.27-1.071q0-.702.27-1.116.27-.414.708-.414.414 0 .621.369.207.369.207.909 0 .12-.012.264zm-1.338-.342h.906q.006-.408-.123-.624-.129-.216-.309-.216-.21 0-.333.255-.123.255-.141.585zM81.384 18.012v-2.904q.318-.06.654-.06.198 0 .375.033t.342.108q.165.075.264.222.099.147.099.357 0 .252-.162.438t-.414.252v.012q.324.054.51.243t.186.483q0 .24-.114.414t-.309.264q-.195.09-.402.129-.207.039-.435.039-.306 0-.594-.03zm.456-2.604v.918h.204q.234 0 .432-.138.198-.138.198-.354 0-.45-.6-.45-.09 0-.234.024zm-.006 1.248v1.038q.162.018.234.018.3 0 .504-.123.204-.123.204-.393t-.219-.405q-.219-.135-.525-.135zM83.748 15.096h.45v1.26h.066l.762-1.26h.51l-.906 1.308q.51.084.708.822.168.6.24.774h-.474q-.06-.144-.21-.678-.084-.318-.231-.474-.147-.156-.417-.156h-.048V18h-.45zM86.22 15.096h1.536V18h-.462v-2.526h-.636v.924q0 .696-.096 1.062-.096.366-.39.51-.144.072-.312.072l-.078-.366q.144-.024.24-.132.198-.198.198-1.116zM88.398 15.096h.45v1.218h.36q.048-.63.303-.948.255-.318.609-.318.39 0 .645.387t.255 1.113q0 .768-.276 1.134-.276.366-.648.366t-.621-.345q-.249-.345-.273-1.017h-.354V18h-.45zm1.71 2.586h.006q.132 0 .225-.108t.138-.291q.045-.183.066-.363.021-.18.021-.372 0-.186-.021-.366t-.069-.363q-.048-.183-.144-.294-.096-.111-.228-.111-.138 0-.234.111t-.141.294q-.045.183-.066.36-.021.177-.021.369 0 .45.108.792t.36.342zM91.476 15.096h.462v1.11q0 .516.402.516.204 0 .426-.132v-1.494h.462v2.916h-.462v-1.086h-.012q-.228.15-.552.15-.342 0-.534-.204t-.192-.594zM95.406 16.08v1.26q0 .474.03.66h-.414l-.03-.306h-.018q-.198.354-.576.354-.3 0-.495-.228t-.195-.6q0-.516.351-.783t.885-.273v-.09q0-.318-.102-.489-.102-.171-.36-.171-.264 0-.48.15l-.102-.324q.27-.192.678-.192.828 0 .828 1.032zm-.45 1.002v-.588q-.798 0-.798.678 0 .264.105.39t.249.126q.156 0 .27-.114.114-.114.156-.324.018-.078.018-.168zM97.692 15.114V18h-.45v-1.242h-.138q-.276 0-.426.138-.066.06-.12.168-.054.108-.078.198-.024.09-.063.264-.039.174-.063.258-.042.138-.078.216h-.486q.09-.15.132-.3.018-.06.057-.222.039-.162.066-.258.027-.096.081-.219.054-.123.126-.201.138-.15.36-.192v-.012q-.276-.054-.459-.237t-.183-.477q0-.378.294-.606.27-.216.804-.216.384 0 .624.054zm-.45 1.332v-1.044q-.078-.024-.198-.024-.264 0-.438.129t-.174.387q0 .258.189.405.189.147.441.147zM100.626 17.574l.066.354q-.186.108-.48.108-.486 0-.774-.381-.288-.381-.288-1.089 0-.648.309-1.08.309-.432.837-.432.258 0 .408.096l-.09.372q-.156-.078-.33-.078-.33 0-.501.327-.171.327-.171.795 0 .51.183.798.183.288.501.288.18 0 .33-.078zM101.082 19.152v-3.15q0-.09-.024-.906h.414l.024.366h.012q.21-.414.612-.414.39 0 .615.393.225.393.225 1.101 0 .756-.261 1.131t-.633.375q-.354 0-.51-.33h-.012v1.434zm.462-2.958v.744q0 .144.024.24.108.486.42.486.27 0 .39-.312t.12-.798q0-.492-.126-.801-.126-.309-.384-.309-.156 0-.282.162-.126.162-.144.366-.018.072-.018.222zM104.304 18.048h-.006q-.414 0-.678-.381-.264-.381-.264-1.113 0-.75.282-1.128.282-.378.69-.378.414 0 .675.381.261.381.261 1.113 0 .774-.285 1.14-.285.366-.675.366zm.012-.366h.006q.186 0 .3-.198.114-.198.147-.432.033-.234.033-.504t-.033-.501q-.033-.231-.15-.432-.117-.201-.309-.201-.144 0-.249.111-.105.111-.153.294t-.069.36q-.021.177-.021.369 0 .204.021.384.021.18.072.36.051.18.153.285.102.105.252.105zM105.78 15.096h.45v1.26h.066l.762-1.26h.51l-.906 1.308q.51.084.708.822.168.6.24.774h-.474q-.06-.144-.21-.678-.084-.318-.231-.474-.147-.156-.417-.156h-.048V18h-.45zM108.924 15.096h1.758V18h-.462v-2.52h-.834V18h-.462zM111.318 19.152v-3.15q0-.09-.024-.906h.414l.024.366h.012q.21-.414.612-.414.39 0 .615.393.225.393.225 1.101 0 .756-.261 1.131t-.633.375q-.354 0-.51-.33h-.012v1.434zm.462-2.958v.744q0 .144.024.24.108.486.42.486.27 0 .39-.312t.12-.798q0-.492-.126-.801-.126-.309-.384-.309-.156 0-.282.162-.126.162-.144.366-.018.072-.018.222zM115.386 16.59h-1.344q.006 1.08.684 1.08.276 0 .48-.108l.078.336q-.246.138-.642.138-.51 0-.78-.387t-.27-1.071q0-.702.27-1.116.27-.414.708-.414.414 0 .621.369.207.369.207.909 0 .12-.012.264zm-1.338-.342h.906q.006-.408-.123-.624-.129-.216-.309-.216-.21 0-.333.255-.123.255-.141.585zM116.208 15.096h1.476v2.544l.246.006-.024 1.128h-.354l-.03-.774h-1.506l-.03.774h-.354l-.024-1.128.192-.006q.186-.282.276-.618.132-.486.132-1.08zm.408.372v.426q0 .714-.126 1.152-.09.342-.228.588h.966v-2.166zM119.19 18.048h-.006q-.414 0-.678-.381-.264-.381-.264-1.113 0-.75.282-1.128.282-.378.69-.378.414 0 .675.381.261.381.261 1.113 0 .774-.285 1.14-.285.366-.675.366zm.012-.366h.006q.186 0 .3-.198.114-.198.147-.432.033-.234.033-.504t-.033-.501q-.033-.231-.15-.432-.117-.201-.309-.201-.144 0-.249.111-.105.111-.153.294t-.069.36q-.021.177-.021.369 0 .204.021.384.021.18.072.36.051.18.153.285.102.105.252.105zM122.016 17.574l.066.354q-.186.108-.48.108-.486 0-.774-.381-.288-.381-.288-1.089 0-.648.309-1.08.309-.432.837-.432.258 0 .408.096l-.09.372q-.156-.078-.33-.078-.33 0-.501.327-.171.327-.171.795 0 .51.183.798.183.288.501.288.18 0 .33-.078zM122.358 15.096h1.782v.384h-.66V18h-.462v-2.52h-.66zM125.964 16.08v1.26q0 .474.03.66h-.414l-.03-.306h-.018q-.198.354-.576.354-.3 0-.495-.228t-.195-.6q0-.516.351-.783t.885-.273v-.09q0-.318-.102-.489-.102-.171-.36-.171-.264 0-.48.15l-.102-.324q.27-.192.678-.192.828 0 .828 1.032zm-.45 1.002v-.588q-.798 0-.798.678 0 .264.105.39t.249.126q.156 0 .27-.114.114-.114.156-.324.018-.078.018-.168zM126.618 18.012v-2.904q.318-.06.654-.06.198 0 .375.033t.342.108q.165.075.264.222.099.147.099.357 0 .252-.162.438t-.414.252v.012q.324.054.51.243t.186.483q0 .24-.114.414t-.309.264q-.195.09-.402.129-.207.039-.435.039-.306 0-.594-.03zm.456-2.604v.918h.204q.234 0 .432-.138.198-.138.198-.354 0-.45-.6-.45-.09 0-.234.024zm-.006 1.248v1.038q.162.018.234.018.3 0 .504-.123.204-.123.204-.393t-.219-.405q-.219-.135-.525-.135zM129.102 15.096h1.536V18h-.462v-2.526h-.636v.924q0 .696-.096 1.062-.096.366-.39.51-.144.072-.312.072l-.078-.366q.144-.024.24-.132.198-.198.198-1.116zM132.948 16.59h-1.344q.006 1.08.684 1.08.276 0 .48-.108l.078.336q-.246.138-.642.138-.51 0-.78-.387t-.27-1.071q0-.702.27-1.116.27-.414.708-.414.414 0 .621.369.207.369.207.909 0 .12-.012.264zm-1.338-.342h.906q.006-.408-.123-.624-.129-.216-.309-.216-.21 0-.333.255-.123.255-.141.585zM133.458 15.096h.462v1.23h.858v-1.23h.462V18h-.462v-1.278h-.858V18h-.462zM135.888 15.096h.42v.996q0 .858-.042 1.392h.012q.096-.276.432-1.134l.486-1.254h.486V18h-.426v-.96q0-.696.048-1.416h-.018q-.12.438-.348 1.008-.36.9-.576 1.368h-.474zM139.956 15.114V18h-.45v-1.242h-.138q-.276 0-.426.138-.066.06-.12.168-.054.108-.078.198-.024.09-.063.264-.039.174-.063.258-.042.138-.078.216h-.486q.09-.15.132-.3.018-.06.057-.222.039-.162.066-.258.027-.096.081-.219.054-.123.126-.201.138-.15.36-.192v-.012q-.276-.054-.459-.237t-.183-.477q0-.378.294-.606.27-.216.804-.216.384 0 .624.054zm-.45 1.332v-1.044q-.078-.024-.198-.024-.264 0-.438.129t-.174.387q0 .258.189.405.189.147.441.147zM141.582 13.956h1.704v.402h-1.248v1.212q.144-.024.306-.024.534 0 .864.318.342.324.342.882 0 .546-.294.876-.348.402-1.074.402-.378 0-.6-.042zm.456 1.992v1.686q.114.018.234.018.39 0 .618-.276.18-.246.18-.6 0-.36-.21-.6-.228-.246-.594-.246-.102 0-.228.018zM144.87 18.048h-.006q-.414 0-.678-.381-.264-.381-.264-1.113 0-.75.282-1.128.282-.378.69-.378.414 0 .675.381.261.381.261 1.113 0 .774-.285 1.14-.285.366-.675.366zm.012-.366h.006q.186 0 .3-.198.114-.198.147-.432.033-.234.033-.504t-.033-.501q-.033-.231-.15-.432-.117-.201-.309-.201-.144 0-.249.111-.105.111-.153.294t-.069.36q-.021.177-.021.369 0 .204.021.384.021.18.072.36.051.18.153.285.102.105.252.105zM146.346 15.096h.462v1.23h.858v-1.23h.462V18h-.462v-1.278h-.858V18h-.462zM148.488 15.096h.486l.384 1.668q.03.126.066.324.036.198.054.276h.012q.036-.198.126-.594l.342-1.674h.456l-.474 1.866q-.342 1.38-.72 1.872-.24.306-.522.438l-.168-.39q.228-.132.408-.366.174-.228.264-.492.03-.084.03-.144 0-.072-.012-.108zM152.1 17.574l.066.354q-.186.108-.48.108-.486 0-.774-.381-.288-.381-.288-1.089 0-.648.309-1.08.309-.432.837-.432.258 0 .408.096l-.09.372q-.156-.078-.33-.078-.33 0-.501.327-.171.327-.171.795 0 .51.183.798.183.288.501.288.18 0 .33-.078zM154.128 16.08v1.26q0 .474.03.66h-.414l-.03-.306h-.018q-.198.354-.576.354-.3 0-.495-.228t-.195-.6q0-.516.351-.783t.885-.273v-.09q0-.318-.102-.489-.102-.171-.36-.171-.264 0-.48.15l-.102-.324q.27-.192.678-.192.828 0 .828 1.032zm-.45 1.002v-.588q-.798 0-.798.678 0 .264.105.39t.249.126q.156 0 .27-.114.114-.114.156-.324.018-.078.018-.168zM155.058 18.048h-.006q-.126 0-.213-.096t-.087-.252q0-.15.09-.249t.216-.099q.138 0 .222.096.084.096.084.252 0 .162-.081.255t-.225.093zM156.924 13.956h2.028V18h-.462v-3.642h-1.104V18h-.462zM160.458 18.048h-.006q-.414 0-.678-.381-.264-.381-.264-1.113 0-.75.282-1.128.282-.378.69-.378.414 0 .675.381.261.381.261 1.113 0 .774-.285 1.14-.285.366-.675.366zm.012-.366h.006q.186 0 .3-.198.114-.198.147-.432.033-.234.033-.504t-.033-.501q-.033-.231-.15-.432-.117-.201-.309-.201-.144 0-.249.111-.105.111-.153.294t-.069.36q-.021.177-.021.369 0 .204.021.384.021.18.072.36.051.18.153.285.102.105.252.105zM162.186 15.096h1.476v2.544l.246.006-.024 1.128h-.354L163.5 18h-1.506l-.03.774h-.354l-.024-1.128.192-.006q.186-.282.276-.618.132-.486.132-1.08zm.408.372v.426q0 .714-.126 1.152-.09.342-.228.588h.966v-2.166zM164.37 19.152v-3.15q0-.09-.024-.906h.414l.024.366h.012q.21-.414.612-.414.39 0 .615.393.225.393.225 1.101 0 .756-.261 1.131t-.633.375q-.354 0-.51-.33h-.012v1.434zm.462-2.958v.744q0 .144.024.24.108.486.42.486.27 0 .39-.312t.12-.798q0-.492-.126-.801-.126-.309-.384-.309-.156 0-.282.162-.126.162-.144.366-.018.072-.018.222zM167.592 18.048h-.006q-.414 0-.678-.381-.264-.381-.264-1.113 0-.75.282-1.128.282-.378.69-.378.414 0 .675.381.261.381.261 1.113 0 .774-.285 1.14-.285.366-.675.366zm.012-.366h.006q.186 0 .3-.198.114-.198.147-.432.033-.234.033-.504t-.033-.501q-.033-.231-.15-.432-.117-.201-.309-.201-.144 0-.249.111-.105.111-.153.294t-.069.36q-.021.177-.021.369 0 .204.021.384.021.18.072.36.051.18.153.285.102.105.252.105zM170.688 13.8l-.024.402q-.066.03-.258.075t-.27.069q-.42.084-.606.474-.138.318-.18.756h.018q.072-.204.252-.342.18-.138.408-.138.384 0 .615.348.231.348.231 1.08 0 .75-.249 1.14-.249.39-.693.39-.282 0-.483-.165t-.3-.444q-.099-.279-.141-.561-.042-.282-.042-.606 0-1.122.276-1.656.252-.522.81-.666.06-.018.306-.069.246-.051.33-.087zm-.276 2.766v-.006q0-.18-.021-.348-.021-.168-.069-.348-.048-.18-.153-.288-.105-.108-.249-.108-.282 0-.414.324-.096.252-.096.618 0 .168.018.348.018.18.066.405.048.225.159.369t.273.144q.15 0 .252-.114.102-.114.15-.3t.066-.351q.018-.165.018-.345zM171.396 15.096h.462v1.23h.858v-1.23h.462V18h-.462v-1.278h-.858V18h-.462zM175.494 16.59h-1.344q.006 1.08.684 1.08.276 0 .48-.108l.078.336q-.246.138-.642.138-.51 0-.78-.387t-.27-1.071q0-.702.27-1.116.27-.414.708-.414.414 0 .621.369.207.369.207.909 0 .12-.012.264zm-1.338-.342h.906q.006-.408-.123-.624-.129-.216-.309-.216-.21 0-.333.255-.123.255-.141.585zM177.672 16.59h-1.344q.006 1.08.684 1.08.276 0 .48-.108l.078.336q-.246.138-.642.138-.51 0-.78-.387t-.27-1.071q0-.702.27-1.116.27-.414.708-.414.414 0 .621.369.207.369.207.909 0 .12-.012.264zm-1.338-.342h.906q.006-.408-.123-.624-.129-.216-.309-.216-.21 0-.333.255-.123.255-.141.585z" stroke-width=".006"/></g><g fill="#fff" stroke="#000"><path d="M.324 21.696h.462v1.23h.858v-1.23h.462V24.6h-.462v-1.278H.786V24.6H.324zM4.284 22.68v1.26q0 .474.03.66H3.9l-.03-.306h-.018q-.198.354-.576.354-.3 0-.495-.228t-.195-.6q0-.516.351-.783t.885-.273v-.09q0-.318-.102-.489-.102-.171-.36-.171-.264 0-.48.15l-.102-.324q.27-.192.678-.192.828 0 .828 1.032zm-.45 1.002v-.588q-.798 0-.798.678 0 .264.105.39t.249.126q.156 0 .27-.114.114-.114.156-.324.018-.078.018-.168zM5.982 21.204l.462-.186v.678h.558v.348h-.558v1.728q0 .48.3.48.114 0 .186-.018l.024.354q-.132.048-.342.048-.306 0-.456-.174-.174-.192-.174-.732v-1.686h-.354v-.348h.354zM7.872 24.6H7.41v-2.904h.462zm-.24-3.354h-.006q-.114 0-.189-.084t-.075-.216q0-.132.078-.216.078-.084.192-.084.126 0 .201.081.075.081.075.219t-.075.219q-.075.081-.201.081zM8.514 24.6v-2.154q0-.198-.012-.45t-.012-.3h.402l.024.348h.012q.216-.396.666-.396.318 0 .51.246t.192.756v1.95h-.462v-1.872q0-.69-.402-.69-.15 0-.273.123-.123.123-.159.351-.024.09-.024.258v1.83zM11.4 20.448v2.598h.012q.138-.294.156-.324l.576-1.026h.498l-.768 1.224.84 1.68h-.516l-.63-1.368-.168.27V24.6h-.462v-4.152zM13.8 24.648h-.006q-.414 0-.678-.381-.264-.381-.264-1.113 0-.75.282-1.128.282-.378.69-.378.414 0 .675.381.261.381.261 1.113 0 .774-.285 1.14-.285.366-.675.366zm.012-.366h.006q.186 0 .3-.198.114-.198.147-.432.033-.234.033-.504t-.033-.501q-.033-.231-.15-.432-.117-.201-.309-.201-.144 0-.249.111-.105.111-.153.294t-.069.36q-.021.177-.021.369 0 .204.021.384.021.18.072.36.051.18.153.285.102.105.252.105zM17.172 24.6h-.462v-2.556h-.876V24.6h-.462v-2.556h-.366v-.348h.366v-.144q0-.57.264-.852.216-.228.6-.228.168 0 .3.054l-.084.366q-.096-.042-.222-.042-.216 0-.306.174t-.09.522v.15h.876v-.18q0-.582.258-.87.222-.246.582-.246.216 0 .36.072l-.072.36q-.12-.048-.258-.048-.408 0-.408.726v.186h.528v.348h-.528zM18.048 24.648h-.006q-.126 0-.213-.096t-.087-.252q0-.15.09-.249t.216-.099q.138 0 .222.096.084.096.084.252 0 .162-.081.255t-.225.093zM18.93 24.6v-2.154q0-.144-.012-.429-.012-.285-.012-.321h.414l.024.456h.012q.072-.216.243-.36.171-.144.369-.144.066 0 .096.006v.474q-.03-.006-.096-.006-.216 0-.369.174t-.189.432q-.018.12-.018.264V24.6zM22.164 21.696v2.112q0 .192.012.489l.012.303h-.402l-.036-.306h-.012q-.078.132-.243.243-.165.111-.375.111-.708 0-.708-1.116v-1.836h.462v1.77q0 .378.084.585.084.207.306.207.18 0 .285-.126.105-.126.129-.264.024-.102.024-.258v-1.914zM23.046 24.648h-.006q-.126 0-.213-.096t-.087-.252q0-.15.09-.249t.216-.099q.138 0 .222.096.084.096.084.252 0 .162-.081.255t-.225.093zM24.912 24.6v-3.984q.3-.078.672-.078.6 0 .9.294.294.294.294.84 0 .504-.246.828-.156.216-.414.333-.258.117-.54.117-.138 0-.204-.006V24.6zm.462-3.654v1.614q.108.012.186.012.348 0 .552-.225.204-.225.204-.645 0-.348-.162-.567-.162-.219-.522-.219-.156 0-.258.03zM28.788 23.19h-1.344q.006 1.08.684 1.08.276 0 .48-.108l.078.336q-.246.138-.642.138-.51 0-.78-.387t-.27-1.071q0-.702.27-1.116.27-.414.708-.414.414 0 .621.369.207.369.207.909 0 .12-.012.264zm-1.338-.342h.906q.006-.408-.123-.624-.129-.216-.309-.216-.21 0-.333.255-.123.255-.141.585zM29.298 21.696h.45v1.26h.066l.762-1.26h.51l-.906 1.308q.51.084.708.822.168.6.24.774h-.474q-.06-.144-.21-.678-.084-.318-.231-.474-.147-.156-.417-.156h-.048V24.6h-.45zM31.77 21.696h1.536V24.6h-.462v-2.526h-.636v.924q0 .696-.096 1.062-.096.366-.39.51-.144.072-.312.072l-.078-.366q.144-.024.24-.132.198-.198.198-1.116zM35.478 22.68v1.26q0 .474.03.66h-.414l-.03-.306h-.018q-.198.354-.576.354-.3 0-.495-.228t-.195-.6q0-.516.351-.783t.885-.273v-.09q0-.318-.102-.489-.102-.171-.36-.171-.264 0-.48.15l-.102-.324q.27-.192.678-.192.828 0 .828 1.032zm-.45 1.002v-.588q-.798 0-.798.678 0 .264.105.39t.249.126q.156 0 .27-.114.114-.114.156-.324.018-.078.018-.168zM36.036 24.6l.204-2.904h.54l.384 1.272q.144.492.258.93h.012q.15-.594.246-.93l.372-1.272h.552l.198 2.904h-.432l-.06-1.248q-.03-.618-.042-1.224h-.012q-.15.63-.288 1.116l-.396 1.338h-.336l-.378-1.29q-.156-.558-.294-1.164h-.018q0 .42-.036 1.248l-.054 1.224zM40.89 22.68v1.26q0 .474.03.66h-.414l-.03-.306h-.018q-.198.354-.576.354-.3 0-.495-.228t-.195-.6q0-.516.351-.783t.885-.273v-.09q0-.318-.102-.489-.102-.171-.36-.171-.264 0-.48.15l-.102-.324q.27-.192.678-.192.828 0 .828 1.032zm-.45 1.002v-.588q-.798 0-.798.678 0 .264.105.39t.249.126q.156 0 .27-.114.114-.114.156-.324.018-.078.018-.168zM41.82 24.648h-.006q-.126 0-.213-.096t-.087-.252q0-.15.09-.249t.216-.099q.138 0 .222.096.084.096.084.252 0 .162-.081.255t-.225.093zM43.686 24.6v-3.984q.3-.078.672-.078.6 0 .9.294.294.294.294.84 0 .504-.246.828-.156.216-.414.333-.258.117-.54.117-.138 0-.204-.006V24.6zm.462-3.654v1.614q.108.012.186.012.348 0 .552-.225.204-.225.204-.645 0-.348-.162-.567-.162-.219-.522-.219-.156 0-.258.03zM47.562 23.19h-1.344q.006 1.08.684 1.08.276 0 .48-.108l.078.336q-.246.138-.642.138-.51 0-.78-.387t-.27-1.071q0-.702.27-1.116.27-.414.708-.414.414 0 .621.369.207.369.207.909 0 .12-.012.264zm-1.338-.342h.906q.006-.408-.123-.624-.129-.216-.309-.216-.21 0-.333.255-.123.255-.141.585zM48.072 21.696h.45v1.26h.066l.762-1.26h.51l-.906 1.308q.51.084.708.822.168.6.24.774h-.474q-.06-.144-.21-.678-.084-.318-.231-.474-.147-.156-.417-.156h-.048V24.6h-.45zM50.544 21.696h1.536V24.6h-.462v-2.526h-.636v.924q0 .696-.096 1.062-.096.366-.39.51-.144.072-.312.072l-.078-.366q.144-.024.24-.132.198-.198.198-1.116zM54.252 22.68v1.26q0 .474.03.66h-.414l-.03-.306h-.018q-.198.354-.576.354-.3 0-.495-.228t-.195-.6q0-.516.351-.783t.885-.273v-.09q0-.318-.102-.489-.102-.171-.36-.171-.264 0-.48.15l-.102-.324q.27-.192.678-.192.828 0 .828 1.032zm-.45 1.002v-.588q-.798 0-.798.678 0 .264.105.39t.249.126q.156 0 .27-.114.114-.114.156-.324.018-.078.018-.168zM54.81 24.6l.204-2.904h.54l.384 1.272q.144.492.258.93h.012q.15-.594.246-.93l.372-1.272h.552l.198 2.904h-.432l-.06-1.248q-.03-.618-.042-1.224h-.012q-.15.63-.288 1.116l-.396 1.338h-.336l-.378-1.29q-.156-.558-.294-1.164h-.018q0 .42-.036 1.248L55.23 24.6zM58.932 24.648h-.006q-.414 0-.678-.381-.264-.381-.264-1.113 0-.75.282-1.128.282-.378.69-.378.414 0 .675.381.261.381.261 1.113 0 .774-.285 1.14-.285.366-.675.366zm.012-.366h.006q.186 0 .3-.198.114-.198.147-.432.033-.234.033-.504t-.033-.501q-.033-.231-.15-.432-.117-.201-.309-.201-.144 0-.249.111-.105.111-.153.294t-.069.36q-.021.177-.021.369 0 .204.021.384.021.18.072.36.051.18.153.285.102.105.252.105zM60.66 21.696h1.476v2.544l.246.006-.024 1.128h-.354l-.03-.774h-1.506l-.03.774h-.354l-.024-1.128.192-.006q.186-.282.276-.618.132-.486.132-1.08zm.408.372v.426q0 .714-.126 1.152-.09.342-.228.588h.966v-2.166zM64.404 22.68v1.26q0 .474.03.66h-.414l-.03-.306h-.018q-.198.354-.576.354-.3 0-.495-.228t-.195-.6q0-.516.351-.783t.885-.273v-.09q0-.318-.102-.489-.102-.171-.36-.171-.264 0-.48.15l-.102-.324q.27-.192.678-.192.828 0 .828 1.032zm-.45 1.002v-.588q-.798 0-.798.678 0 .264.105.39t.249.126q.156 0 .27-.114.114-.114.156-.324.018-.078.018-.168zM64.74 21.696h1.782v.384h-.66v2.52H65.4v-2.52h-.66zM68.466 23.19h-1.344q.006 1.08.684 1.08.276 0 .48-.108l.078.336q-.246.138-.642.138-.51 0-.78-.387t-.27-1.071q0-.702.27-1.116.27-.414.708-.414.414 0 .621.369.207.369.207.909 0 .12-.012.264zm-1.338-.342h.906q.006-.408-.123-.624-.129-.216-.309-.216-.21 0-.333.255-.123.255-.141.585zM69.12 21.696h1.536V24.6h-.462v-2.526h-.636v.924q0 .696-.096 1.062-.096.366-.39.51-.144.072-.312.072l-.078-.366q.144-.024.24-.132.198-.198.198-1.116zM71.298 21.696h.456v1.026q.042 0 .138-.009t.138-.009q.48 0 .795.237.315.237.315.699 0 .45-.324.708-.342.282-.924.282-.294 0-.594-.048zm.456 1.38v1.182q.144.012.204.012.306 0 .507-.156t.201-.456q0-.3-.204-.447-.204-.147-.516-.147-.072 0-.192.012zM73.902 24.648h-.006q-.126 0-.213-.096t-.087-.252q0-.15.09-.249t.216-.099q.138 0 .222.096.084.096.084.252 0 .162-.081.255t-.225.093zM77.154 23.388h-.9L75.99 24.6h-.45l.924-4.044h.51l.9 4.044h-.456zm-.834-.372h.768l-.21-1.026q-.06-.294-.162-.924h-.018q-.09.564-.168.93zM79.218 24.648h-.006q-.516 0-.819-.537-.303-.537-.303-1.539 0-.984.324-1.524t.864-.54q.516 0 .81.537.294.537.294 1.503 0 1.074-.321 1.587-.321.513-.843.513zm.024-.408h.006q.186 0 .318-.147t.204-.399q.072-.252.102-.528t.03-.6q0-.306-.03-.579-.03-.273-.102-.525t-.207-.399q-.135-.147-.321-.147-.246 0-.405.264-.159.264-.213.615-.054.351-.054.777 0 .318.033.597.033.279.105.528t.21.396q.138.147.324.147zM82.656 22.038l-.618 1.05.618 1.044h-.378l-.612-1.044.618-1.05zm.858 0l-.624 1.05.624 1.044h-.378l-.612-1.044.618-1.05zM84.474 24.6v-3.63h-.738v-.414h1.938v.414h-.738v3.63zM85.584 21.696h.42v.996q0 .858-.042 1.392h.012q.096-.276.432-1.134l.486-1.254h.486V24.6h-.426v-.96q0-.696.048-1.416h-.018q-.12.438-.348 1.008-.36.9-.576 1.368h-.474zM88.02 21.696h.462v1.23h.858v-1.23h.462V24.6h-.462v-1.278h-.858V24.6h-.462zM90.45 21.696h.456v1.026q.042 0 .138-.009t.138-.009q.48 0 .795.237.315.237.315.699 0 .45-.324.708-.342.282-.924.282-.294 0-.594-.048zm.456 1.38v1.182q.144.012.204.012.306 0 .507-.156t.201-.456q0-.3-.204-.447-.204-.147-.516-.147-.072 0-.192.012zM92.778 21.696h.45v1.26h.066l.762-1.26h.51l-.906 1.308q.51.084.708.822.168.6.24.774h-.474q-.06-.144-.21-.678-.084-.318-.231-.474-.147-.156-.417-.156h-.048V24.6h-.45zM95.802 24.648h-.006q-.414 0-.678-.381-.264-.381-.264-1.113 0-.75.282-1.128.282-.378.69-.378.414 0 .675.381.261.381.261 1.113 0 .774-.285 1.14-.285.366-.675.366zm.012-.366h.006q.186 0 .3-.198.114-.198.147-.432.033-.234.033-.504t-.033-.501q-.033-.231-.15-.432-.117-.201-.309-.201-.144 0-.249.111-.105.111-.153.294t-.069.36q-.021.177-.021.369 0 .204.021.384.021.18.072.36.051.18.153.285.102.105.252.105zM98.172 20.496h.42v1.152q.48.06.756.438t.276 1.062q0 .69-.27 1.068-.27.378-.762.432v1.104h-.42v-1.104q-.48-.054-.75-.429t-.27-1.065q0-.678.27-1.056t.75-.444zm.006 3.834v-2.364q-.318.078-.456.414-.138.336-.138.768t.138.771q.138.339.456.411zm.414-2.364v2.364q.6-.144.6-1.182 0-.27-.045-.495-.045-.225-.186-.426-.141-.201-.369-.261zM101.034 20.496h.42v1.152q.48.06.756.438t.276 1.062q0 .69-.27 1.068-.27.378-.762.432v1.104h-.42v-1.104q-.48-.054-.75-.429t-.27-1.065q0-.678.27-1.056t.75-.444zm.006 3.834v-2.364q-.318.078-.456.414-.138.336-.138.768t.138.771q.138.339.456.411zm.414-2.364v2.364q.6-.144.6-1.182 0-.27-.045-.495-.045-.225-.186-.426-.141-.201-.369-.261zM103.986 20.556h1.704v.402h-1.248v1.212q.144-.024.306-.024.534 0 .864.318.342.324.342.882 0 .546-.294.876-.348.402-1.074.402-.378 0-.6-.042zm.456 1.992v1.686q.114.018.234.018.39 0 .618-.276.18-.246.18-.6 0-.36-.21-.6-.228-.246-.594-.246-.102 0-.228.018zM107.982 22.68v1.26q0 .474.03.66h-.414l-.03-.306h-.018q-.198.354-.576.354-.3 0-.495-.228t-.195-.6q0-.516.351-.783t.885-.273v-.09q0-.318-.102-.489-.102-.171-.36-.171-.264 0-.48.15l-.102-.324q.27-.192.678-.192.828 0 .828 1.032zm-.45 1.002v-.588q-.798 0-.798.678 0 .264.105.39t.249.126q.156 0 .27-.114.114-.114.156-.324.018-.078.018-.168zM108.636 21.696h.462v1.23h.858v-1.23h.462V24.6h-.462v-1.278h-.858V24.6h-.462zM111.066 21.696h.45v1.26h.066l.762-1.26h.51l-.906 1.308q.51.084.708.822.168.6.24.774h-.474q-.06-.144-.21-.678-.084-.318-.231-.474-.147-.156-.417-.156h-.048V24.6h-.45zM113.694 23.088l-.624-1.05h.372l.618 1.05-.606 1.044h-.384zm.852 0l-.618-1.05h.372l.618 1.05-.612 1.044h-.378zM115.488 25.314l-.318.042q.24-.672.348-1.398l.522-.06q-.108.378-.27.801-.162.423-.282.615zM117.618 21.696h1.536V24.6h-.462v-2.526h-.636v.924q0 .696-.096 1.062-.096.366-.39.51-.144.072-.312.072l-.078-.366q.144-.024.24-.132.198-.198.198-1.116zM119.796 21.696h.42v.996q0 .858-.042 1.392h.012q.096-.276.432-1.134l.486-1.254h.486V24.6h-.426v-.96q0-.696.048-1.416h-.018q-.12.438-.348 1.008-.36.9-.576 1.368h-.474zM122.232 21.696h.462v2.52h.828v-2.52h.462v2.544l.246.006-.024 1.128h-.354l-.03-.774h-1.59zM126.336 23.19h-1.344q.006 1.08.684 1.08.276 0 .48-.108l.078.336q-.246.138-.642.138-.51 0-.78-.387t-.27-1.071q0-.702.27-1.116.27-.414.708-.414.414 0 .621.369.207.369.207.909 0 .12-.012.264zm-1.338-.342h.906q.006-.408-.123-.624-.129-.216-.309-.216-.21 0-.333.255-.123.255-.141.585zM126.846 21.696h.462v1.23h.858v-1.23h.462V24.6h-.462v-1.278h-.858V24.6h-.462zM129.486 23.262l.006-.336h.156q.234 0 .414-.138.18-.138.18-.366 0-.21-.129-.321-.129-.111-.333-.111-.246 0-.516.15l-.09-.294q.3-.198.72-.198.36 0 .585.192.225.192.225.528 0 .258-.165.438t-.429.252v.006q.312.048.507.24t.195.492q0 .408-.315.63-.315.222-.753.222-.39 0-.684-.162l.102-.33q.276.144.546.144.282 0 .459-.147.177-.147.177-.357 0-.276-.204-.405t-.486-.129zM131.328 21.696h.42v.996q0 .858-.042 1.392h.012q.096-.276.432-1.134l.486-1.254h.486V24.6h-.426v-.96q0-.696.048-1.416h-.018q-.12.438-.348 1.008-.36.9-.576 1.368h-.474zM135.396 21.714V24.6h-.45v-1.242h-.138q-.276 0-.426.138-.066.06-.12.168-.054.108-.078.198-.024.09-.063.264-.039.174-.063.258-.042.138-.078.216h-.486q.09-.15.132-.3.018-.06.057-.222.039-.162.066-.258.027-.096.081-.219.054-.123.126-.201.138-.15.36-.192v-.012q-.276-.054-.459-.237t-.183-.477q0-.378.294-.606.27-.216.804-.216.384 0 .624.054zm-.45 1.332v-1.044q-.078-.024-.198-.024-.264 0-.438.129t-.174.387q0 .258.189.405.189.147.441.147zM140.004 20.676h.006q.336 0 .516.249t.18.735q0 .51-.207.753t-.507.243q-.324 0-.522-.255t-.198-.735q0-.48.207-.735t.525-.255zm-.018.27h-.006q-.174 0-.258.225-.084.225-.084.495 0 .282.087.501.087.219.261.219.354 0 .354-.72t-.354-.72zm.624 2.244h-1.242v-.282h1.242zm-3.186 1.41h-.408v-4.002h.426l.702 1.884q.324.858.492 1.398h.006q-.048-1.02-.048-1.836v-1.446h.402V24.6h-.432l-.72-1.926q-.216-.558-.456-1.362h-.006q.042.756.042 1.896zM142.95 24.6h-1.872v-.3l.324-.444q.258-.36.369-.522.111-.162.3-.48.189-.318.267-.585.078-.267.078-.525 0-.33-.141-.513t-.411-.183q-.252 0-.564.216l-.114-.348q.318-.264.762-.264.462 0 .696.3.234.3.234.768 0 .492-.255.99t-.711 1.11l-.258.36v.012h1.296zM145.11 20.652v.39q-.114 0-.276.036-.81.204-1.002 1.41h.018q.252-.372.66-.372.372 0 .606.324.234.324.234.876 0 .576-.255.954t-.705.378q-.498 0-.762-.444t-.264-1.146q0-1.068.504-1.758.168-.24.423-.399.255-.159.525-.213.096-.018.294-.036zm-.72 3.636h.006q.21 0 .351-.231t.141-.705q0-.432-.141-.657-.141-.225-.381-.225-.348 0-.51.42-.03.09-.03.234.006.576.159.87.153.294.405.294zM145.728 20.7h1.878v.276l-1.26 3.624h-.45l1.236-3.48v-.012h-1.404zM147.984 24.468l.102-.366q.27.162.564.162.306 0 .489-.21t.183-.564q0-.378-.216-.594-.216-.216-.57-.216h-.108v-.348h.09q.246 0 .474-.183.228-.183.228-.513 0-.288-.141-.444-.141-.156-.375-.156-.228 0-.486.186l-.096-.348q.27-.222.696-.222.402 0 .633.252.231.252.231.642 0 .3-.15.546-.15.246-.432.372v.012q.294.078.489.336t.195.69q0 .492-.3.819-.3.327-.816.327-.426 0-.684-.18zM150.726 24.648h-.006q-.126 0-.213-.096t-.087-.252q0-.15.09-.249t.216-.099q.138 0 .222.096.084.096.084.252 0 .162-.081.255t-.225.093zM153.372 24.648h-.006q-.456 0-.714-.522-.258-.522-.258-1.47 0-.972.27-1.488t.756-.516q.468 0 .714.525.246.525.246 1.467 0 1.014-.279 1.509-.279.495-.729.495zm.018-.396h.006q.522 0 .522-1.602 0-.726-.129-1.164-.129-.438-.393-.438-.27 0-.405.429t-.135 1.173q-.006.738.126 1.17.132.432.408.432zM156.162 21.402h.342v1.428h1.38v.33h-1.38v1.44h-.342v-1.44h-1.374v-.33h1.374z" stroke-width=".006"/></g></svg>