<svg width="458.25" height="18" viewBox="0 0 458.25 18" xmlns="http://www.w3.org/2000/svg"><g fill="#fff" stroke="#000"><path d="M.972 12.96V2.203q.81-.21 1.814-.21 1.62 0 2.43.793.794.794.794 2.268 0 1.361-.664 2.236-.421.583-1.118.9-.696.315-1.458.315-.372 0-.55-.016v4.471zm1.247-9.866v4.358q.292.032.503.032.94 0 1.49-.607.55-.608.55-1.742 0-.94-.437-1.53-.437-.592-1.409-.592-.421 0-.697.081zM11.437 9.153H7.808q.017 2.916 1.847 2.916.745 0 1.296-.292l.21.908q-.663.372-1.733.372-1.377 0-2.106-1.045-.729-1.045-.729-2.891 0-1.896.73-3.014Q8.05 4.99 9.233 4.99q1.118 0 1.677.996.559.996.559 2.454 0 .324-.033.713zM7.825 8.23h2.446q.016-1.102-.332-1.685-.349-.583-.835-.583-.567 0-.899.688-.332.689-.38 1.58zM12.814 5.12h1.215V8.52h.178l2.058-3.402h1.377l-2.446 3.532q1.377.227 1.911 2.22.454 1.62.648 2.089h-1.28q-.162-.389-.567-1.83-.226-.86-.623-1.28-.397-.422-1.126-.422h-.13v3.532h-1.215zM19.489 5.12h4.147v7.84h-1.248V6.14h-1.717v2.495q0 1.879-.259 2.867-.26.988-1.053 1.377-.389.194-.842.194l-.211-.988q.389-.065.648-.356.535-.535.535-3.013zM29.5 7.776v3.402q0 1.28.081 1.782h-1.118l-.08-.826h-.05q-.534.956-1.554.956-.81 0-1.337-.616-.526-.616-.526-1.62 0-1.393.947-2.114.948-.721 2.39-.737V7.76q0-.859-.276-1.32-.275-.462-.972-.462-.712 0-1.296.405l-.275-.875q.729-.518 1.83-.518 2.236 0 2.236 2.786zm-1.215 2.705V8.894q-2.154 0-2.154 1.83 0 .713.283 1.053.284.34.672.34.422 0 .73-.307.307-.308.42-.875.05-.21.05-.454zM31.007 12.96l.55-7.84h1.459l1.036 3.434q.39 1.328.697 2.51h.032q.405-1.603.665-2.51l1.004-3.435h1.49l.535 7.841h-1.166l-.162-3.37q-.081-1.668-.114-3.304h-.032q-.405 1.7-.778 3.013l-1.069 3.612h-.907l-1.02-3.483q-.422-1.506-.795-3.142h-.048q0 1.134-.097 3.37l-.146 3.304zM44.113 7.776v3.402q0 1.28.08 1.782h-1.117l-.081-.826h-.049q-.534.956-1.555.956-.81 0-1.337-.616-.526-.616-.526-1.62 0-1.393.948-2.114.947-.721 2.39-.737V7.76q0-.859-.276-1.32-.276-.462-.972-.462-.713 0-1.296.405l-.276-.875q.73-.518 1.831-.518 2.236 0 2.236 2.786zm-1.215 2.705V8.894q-2.155 0-2.155 1.83 0 .713.283 1.053.284.34.673.34.421 0 .729-.307.308-.308.421-.875.049-.21.049-.454zM46.624 13.09h-.017q-.34 0-.575-.26-.235-.259-.235-.68 0-.405.243-.672.243-.268.584-.268.372 0 .599.26.227.259.227.68 0 .437-.219.689-.219.25-.607.25zM51.662 12.96V2.203q.81-.21 1.814-.21 1.62 0 2.43.793.794.794.794 2.268 0 1.361-.664 2.236-.421.583-1.118.9-.697.315-1.458.315-.373 0-.55-.016v4.471zm1.247-9.866v4.358q.292.032.502.032.94 0 1.49-.607.552-.608.552-1.742 0-.94-.438-1.53-.437-.592-1.41-.592-.42 0-.696.081zM62.127 9.153h-3.629q.016 2.916 1.847 2.916.745 0 1.296-.292l.21.908q-.664.372-1.733.372-1.377 0-2.106-1.045-.729-1.045-.729-2.891 0-1.896.73-3.014.728-1.117 1.91-1.117 1.119 0 1.677.996.56.996.56 2.454 0 .324-.033.713zm-3.613-.923h2.447q.016-1.102-.333-1.685-.348-.583-.834-.583-.567 0-.899.688-.332.689-.38 1.58zM63.504 5.12h1.215V8.52h.178l2.058-3.402h1.377l-2.447 3.532q1.377.227 1.912 2.22.454 1.62.648 2.089h-1.28q-.162-.389-.567-1.83-.227-.86-.623-1.28-.397-.422-1.126-.422h-.13v3.532h-1.215zM70.178 5.12h4.148v7.84h-1.248V6.14h-1.717v2.495q0 1.879-.26 2.867-.258.988-1.052 1.377-.389.194-.843.194l-.21-.988q.389-.065.648-.356.534-.535.534-3.013zM80.19 7.776v3.402q0 1.28.081 1.782h-1.118l-.08-.826h-.05q-.534.956-1.555.956-.81 0-1.336-.616-.527-.616-.527-1.62 0-1.393.948-2.114.948-.721 2.39-.737V7.76q0-.859-.276-1.32-.275-.462-.972-.462-.713 0-1.296.405l-.275-.875q.729-.518 1.83-.518 2.236 0 2.236 2.786zm-1.215 2.705V8.894q-2.155 0-2.155 1.83 0 .713.284 1.053.283.34.672.34.421 0 .73-.307.307-.308.42-.875.049-.21.049-.454zM81.697 12.96l.55-7.84h1.458l1.037 3.434q.389 1.328.697 2.51h.032q.405-1.603.664-2.51l1.005-3.435h1.49l.535 7.841h-1.167l-.162-3.37q-.08-1.668-.113-3.304h-.032q-.405 1.7-.778 3.013l-1.07 3.612h-.906l-1.021-3.483q-.421-1.506-.794-3.142h-.048q0 1.134-.098 3.37l-.145 3.304zM92.826 13.09h-.016q-1.118 0-1.83-1.03-.714-1.028-.714-3.004 0-2.025.762-3.046.761-1.02 1.863-1.02 1.118 0 1.822 1.028.705 1.029.705 3.005 0 2.09-.77 3.078-.769.989-1.822.989zm.032-.989h.017q.502 0 .81-.534.307-.535.396-1.167.09-.631.09-1.36 0-.73-.09-1.353-.089-.624-.405-1.166-.315-.543-.834-.543-.389 0-.672.3-.284.3-.413.793-.13.494-.187.972-.056.478-.056.997 0 .55.056 1.036.057.486.195.972t.413.77q.275.283.68.283zM97.492 5.12h3.985v6.868l.664.016-.065 3.046h-.956l-.08-2.09h-4.067l-.08 2.09h-.957l-.064-3.046.518-.016q.502-.761.745-1.669.357-1.312.357-2.916zm1.101 1.004v1.15q0 1.928-.34 3.11-.243.924-.616 1.588h2.609V6.124zM107.6 7.776v3.402q0 1.28.081 1.782h-1.117l-.081-.826h-.049q-.535.956-1.555.956-.81 0-1.337-.616-.526-.616-.526-1.62 0-1.393.947-2.114.948-.721 2.39-.737V7.76q0-.859-.275-1.32-.276-.462-.972-.462-.713 0-1.296.405l-.276-.875q.73-.518 1.83-.518 2.236 0 2.236 2.786zm-1.215 2.705V8.894q-2.154 0-2.154 1.83 0 .713.283 1.053.284.34.673.34.42 0 .729-.307.307-.308.42-.875.05-.21.05-.454zM108.508 5.12h4.811v1.036h-1.782v6.804h-1.247V6.156h-1.782zM118.568 9.153h-3.629q.016 2.916 1.847 2.916.745 0 1.296-.292l.21.908q-.664.372-1.733.372-1.377 0-2.106-1.045-.729-1.045-.729-2.891 0-1.896.729-3.014.729-1.117 1.912-1.117 1.117 0 1.676.996.56.996.56 2.454 0 .324-.033.713zm-3.613-.923h2.446q.017-1.102-.332-1.685-.348-.583-.834-.583-.567 0-.9.688-.331.689-.38 1.58zM120.334 5.12h4.147v7.84h-1.248V6.14h-1.717v2.495q0 1.879-.259 2.867-.26.988-1.053 1.377-.389.194-.842.194l-.211-.988q.389-.065.648-.356.535-.535.535-3.013zM126.214 5.12h1.231v2.77q.114 0 .373-.025.26-.024.373-.024 1.296 0 2.146.64.85.64.85 1.887 0 1.215-.874 1.912-.924.761-2.495.761-.794 0-1.604-.13zm1.231 3.725v3.192q.39.032.551.032.826 0 1.37-.421.542-.421.542-1.231t-.551-1.207q-.55-.397-1.393-.397-.195 0-.519.032zM133.245 13.09h-.016q-.34 0-.575-.26-.235-.259-.235-.68 0-.405.243-.672.243-.268.583-.268.373 0 .6.26.226.259.226.68 0 .437-.219.689-.218.25-.607.25zM142.025 9.688h-2.43l-.712 3.272h-1.215l2.494-10.919h1.377l2.43 10.919h-1.23zm-2.251-1.005h2.073l-.567-2.77q-.162-.794-.437-2.495h-.049q-.243 1.523-.453 2.511zM147.598 13.09h-.016q-1.393 0-2.211-1.45-.818-1.45-.818-4.156 0-2.656.874-4.114.875-1.458 2.333-1.458 1.393 0 2.187 1.45.794 1.45.794 4.058 0 2.9-.867 4.285-.866 1.385-2.276 1.385zm.065-1.102h.016q.502 0 .859-.397.356-.397.55-1.077.195-.68.276-1.426.081-.745.081-1.62 0-.826-.081-1.563t-.275-1.418q-.195-.68-.56-1.077-.364-.397-.866-.397-.664 0-1.094.713-.429.713-.575 1.66-.145.948-.145 2.098 0 .859.089 1.612.089.754.283 1.426.195.672.567 1.07.373.396.875.396zM156.88 6.043l-1.668 2.835 1.669 2.818h-1.02l-1.653-2.818 1.668-2.835zm2.317 0l-1.684 2.835 1.684 2.818h-1.02l-1.653-2.818 1.669-2.835zM161.79 12.96V3.159h-1.993V2.041h5.232V3.16h-1.992v9.801zM164.786 5.12h1.134v2.688q0 2.317-.113 3.759h.032q.26-.745 1.167-3.062l1.312-3.386h1.312v7.841h-1.15v-2.592q0-1.88.13-3.823h-.049q-.324 1.182-.94 2.721-.972 2.43-1.555 3.694h-1.28zM171.364 5.12h1.247v3.32h2.317V5.12h1.247v7.84h-1.247V9.51h-2.317v3.45h-1.247zM177.925 5.12h1.23v2.77q.114 0 .373-.025.26-.024.373-.024 1.296 0 2.146.64.851.64.851 1.887 0 1.215-.875 1.912-.923.761-2.495.761-.793 0-1.603-.13zm1.23 3.725v3.192q.39.032.552.032.826 0 1.368-.421.543-.421.543-1.231t-.55-1.207q-.551-.397-1.394-.397-.194 0-.518.032zM184.21 5.12h1.215V8.52h.178l2.058-3.402h1.377l-2.446 3.532q1.377.227 1.911 2.22.454 1.62.648 2.089h-1.28q-.162-.389-.567-1.83-.226-.86-.623-1.28-.397-.422-1.126-.422h-.13v3.532h-1.215zM192.375 13.09h-.016q-1.118 0-1.83-1.03-.714-1.028-.714-3.004 0-2.025.762-3.046.761-1.02 1.863-1.02 1.118 0 1.822 1.028.705 1.029.705 3.005 0 2.09-.77 3.078-.769.989-1.822.989zm.032-.989h.017q.502 0 .81-.534.307-.535.396-1.167.09-.631.09-1.36 0-.73-.09-1.353-.089-.624-.405-1.166-.315-.543-.834-.543-.389 0-.672.3-.284.3-.413.793-.13.494-.187.972-.056.478-.056.997 0 .55.056 1.036.057.486.195.972t.413.77q.275.283.68.283zM198.774 1.88h1.134v3.11q1.296.162 2.041 1.182.745 1.02.745 2.868 0 1.863-.729 2.883t-2.057 1.167v2.98h-1.134v-2.98q-1.296-.146-2.025-1.159-.729-1.012-.729-2.875 0-1.83.729-2.851t2.025-1.2zm.016 10.351V5.848q-.858.21-1.231 1.118-.373.907-.373 2.074 0 1.166.373 2.081.373.916 1.231 1.11zm1.118-6.383v6.383q1.62-.389 1.62-3.191 0-.73-.122-1.337-.121-.607-.502-1.15-.38-.543-.996-.705zM206.501 1.88h1.134v3.11q1.296.162 2.042 1.182.745 1.02.745 2.868 0 1.863-.73 2.883-.728 1.02-2.057 1.167v2.98h-1.134v-2.98q-1.296-.146-2.025-1.159-.729-1.012-.729-2.875 0-1.83.73-2.851.728-1.021 2.024-1.2zm.017 10.351V5.848q-.859.21-1.232 1.118-.372.907-.372 2.074 0 1.166.372 2.081.373.916 1.232 1.11zm1.117-6.383v6.383q1.62-.389 1.62-3.191 0-.73-.121-1.337-.122-.607-.502-1.15-.381-.543-.997-.705zM214.472 2.041h4.6v1.086h-3.369v3.272q.389-.065.826-.065 1.442 0 2.333.859.923.875.923 2.381 0 1.474-.793 2.365-.94 1.086-2.9 1.086-1.02 0-1.62-.114zm1.231 5.379v4.552q.308.048.632.048 1.053 0 1.668-.745.486-.664.486-1.62 0-.972-.567-1.62-.615-.664-1.603-.664-.276 0-.616.049zM225.261 7.776v3.402q0 1.28.081 1.782h-1.118l-.08-.826h-.05q-.534.956-1.555.956-.81 0-1.336-.616-.527-.616-.527-1.62 0-1.393.948-2.114.948-.721 2.39-.737V7.76q0-.859-.276-1.32-.275-.462-.972-.462-.713 0-1.296.405l-.275-.875q.729-.518 1.83-.518 2.236 0 2.236 2.786zm-1.215 2.705V8.894q-2.155 0-2.155 1.83 0 .713.284 1.053.283.34.672.34.421 0 .73-.307.307-.308.42-.875.049-.21.049-.454zM227.027 5.12h1.247v3.32h2.317V5.12h1.247v7.84h-1.247V9.51h-2.317v3.45h-1.247zM233.588 5.12h1.215V8.52h.178l2.057-3.402h1.377l-2.446 3.532q1.377.227 1.912 2.22.453 1.62.648 2.089h-1.28q-.162-.389-.567-1.83-.227-.86-.624-1.28-.397-.422-1.126-.422h-.13v3.532h-1.214zM240.683 8.878L239 6.043h1.004l1.669 2.835-1.637 2.818H239zm2.3 0l-1.668-2.835h1.005l1.668 2.835-1.652 2.818h-1.02zM245.527 14.888l-.858.113q.648-1.814.94-3.774l1.409-.162q-.292 1.02-.73 2.162-.437 1.142-.76 1.66zM251.278 5.12h4.147v7.84h-1.247V6.14h-1.717v2.495q0 1.879-.26 2.867-.259.988-1.052 1.377-.39.194-.843.194l-.21-.988q.388-.065.648-.356.534-.535.534-3.013zM257.159 5.12h1.134v2.688q0 2.317-.114 3.759h.033q.259-.745 1.166-3.062l1.312-3.386h1.313v7.841h-1.15v-2.592q0-1.88.129-3.823h-.049q-.324 1.182-.94 2.721-.971 2.43-1.554 3.694h-1.28zM263.736 5.12h1.247v6.803h2.236V5.12h1.247v6.869l.665.016-.065 3.046h-.956l-.081-2.09h-4.293zM274.817 9.153h-3.629q.016 2.916 1.847 2.916.745 0 1.296-.292l.21.908q-.664.372-1.733.372-1.377 0-2.106-1.045-.729-1.045-.729-2.891 0-1.896.729-3.014.729-1.117 1.912-1.117 1.117 0 1.676.996.56.996.56 2.454 0 .324-.033.713zm-3.613-.923h2.446q.017-1.102-.332-1.685-.348-.583-.834-.583-.567 0-.9.688-.331.689-.38 1.58zM276.194 5.12h1.247v3.32h2.317V5.12h1.247v7.84h-1.247V9.51h-2.317v3.45h-1.247zM283.322 9.347l.016-.907h.421q.632 0 1.118-.372.486-.373.486-.989 0-.567-.348-.866-.349-.3-.9-.3-.664 0-1.393.405l-.243-.794q.81-.534 1.944-.534.972 0 1.58.518.607.518.607 1.426 0 .696-.445 1.182-.446.486-1.158.68v.017q.842.13 1.369.648.526.518.526 1.328 0 1.102-.85 1.701-.851.6-2.034.6-1.053 0-1.846-.438l.275-.89q.745.388 1.474.388.762 0 1.24-.397.477-.397.477-.964 0-.745-.55-1.093-.551-.349-1.313-.349zM288.295 5.12h1.134v2.688q0 2.317-.113 3.759h.032q.26-.745 1.167-3.062l1.312-3.386h1.312v7.841h-1.15v-2.592q0-1.88.13-3.823h-.05q-.323 1.182-.939 2.721-.972 2.43-1.555 3.694h-1.28zM299.279 5.168v7.792h-1.215V9.607h-.373q-.745 0-1.15.372-.178.162-.324.454-.146.291-.21.534-.065.243-.17.713-.106.47-.17.697-.114.372-.211.583h-1.313q.243-.405.357-.81.048-.162.154-.6.105-.437.178-.696.073-.26.219-.591.145-.332.34-.543.372-.405.972-.518v-.033q-.745-.146-1.24-.64-.494-.494-.494-1.288 0-1.02.794-1.636.73-.583 2.171-.583 1.037 0 1.685.146zm-1.215 3.596V5.945q-.21-.064-.535-.064-.713 0-1.182.348-.47.348-.47 1.045 0 .696.51 1.093t1.19.397zM311.72 2.365h.017q.907 0 1.393.673.486.672.486 1.984 0 1.377-.56 2.033-.558.656-1.368.656-.875 0-1.41-.688-.534-.689-.534-1.985 0-1.296.559-1.984.559-.689 1.417-.689zm-.048.73h-.016q-.47 0-.697.607-.227.607-.227 1.336 0 .762.235 1.353t.705.591q.956 0 .956-1.944t-.956-1.944zm1.685 6.058h-3.354v-.761h3.354zm-8.603 3.807h-1.101V2.155h1.15l1.895 5.086q.875 2.317 1.329 3.775h.016q-.13-2.754-.13-4.957V2.155H309V12.96h-1.167l-1.944-5.2q-.583-1.507-1.23-3.678h-.017q.113 2.042.113 5.12zM319.675 12.96h-5.055v-.81l.875-1.199q.697-.972.996-1.41.3-.437.81-1.295.51-.859.721-1.58.21-.72.21-1.417 0-.891-.38-1.385t-1.11-.494q-.68 0-1.522.583l-.308-.94q.858-.713 2.057-.713 1.248 0 1.88.81.631.81.631 2.074 0 1.328-.688 2.673-.689 1.345-1.92 2.997l-.697.972v.032h3.5zM325.507 2.3v1.053q-.308 0-.746.098-2.187.55-2.705 3.807h.049q.68-1.005 1.782-1.005 1.004 0 1.636.875.632.875.632 2.365 0 1.555-.689 2.576-.688 1.02-1.903 1.02-1.345 0-2.058-1.198-.713-1.199-.713-3.094 0-2.884 1.361-4.747.454-.648 1.142-1.077.689-.43 1.418-.575.259-.049.794-.098zm-1.944 9.818h.016q.567 0 .948-.624.38-.624.38-1.904 0-1.166-.38-1.773-.381-.608-1.03-.608-.939 0-1.376 1.134-.081.243-.081.632.016 1.555.43 2.349.412.794 1.093.794zM327.175 2.43h5.07v.745l-3.401 9.785h-1.215l3.337-9.396v-.032h-3.79zM333.266 12.604l.276-.989q.729.438 1.523.438.826 0 1.32-.567.494-.567.494-1.523 0-1.02-.583-1.604-.583-.583-1.54-.583h-.29v-.94h.242q.664 0 1.28-.494t.616-1.385q0-.777-.381-1.199-.38-.42-1.013-.42-.615 0-1.312.501l-.259-.94q.729-.599 1.88-.599 1.085 0 1.708.68.624.681.624 1.734 0 .81-.405 1.474-.405.665-1.166 1.005v.032q.793.21 1.32.907.526.697.526 1.863 0 1.329-.81 2.212-.81.883-2.203.883-1.15 0-1.847-.486zM340.67 13.09h-.016q-.34 0-.575-.26-.235-.259-.235-.68 0-.405.243-.672.243-.268.583-.268.372 0 .6.26.226.259.226.68 0 .437-.219.689-.218.25-.607.25zM347.814 13.09h-.016q-1.231 0-1.928-1.41-.697-1.41-.697-3.969 0-2.624.73-4.017.728-1.394 2.04-1.394 1.264 0 1.928 1.418.665 1.417.665 3.96 0 2.739-.754 4.075-.753 1.337-1.968 1.337zm.049-1.07h.016q1.41 0 1.41-4.325 0-1.96-.35-3.143-.347-1.182-1.06-1.182-.73 0-1.094 1.158-.364 1.158-.364 3.167-.016 1.993.34 3.159.356 1.166 1.102 1.166zM355.347 4.325h.923v3.856h3.726v.891h-3.726v3.888h-.923V9.072h-3.71v-.891h3.71z" stroke-width=".0162"/></g></svg>