<svg xmlns="http://www.w3.org/2000/svg" width="320.667" height="40"><path fill="#FFF" stroke="#FFF" stroke-width=".01" d="M.61.76h2.84v.67H1.37v2.02q.24-.04.51-.04.89 0 1.44.53.57.54.57 1.47 0 .91-.49 1.46-.58.67-1.79.67-.63 0-1-.07zm.76 3.32v2.81q.19.03.39.03.65 0 1.03-.46.3-.41.3-1 0-.6-.35-1-.38-.41-.99-.41-.17 0-.38.03zm4.72 3.5h-.01q-.69 0-1.13-.635-.44-.635-.44-1.855 0-1.25.47-1.88.47-.63 1.15-.63.69 0 1.125.635.435.635.435 1.855 0 1.29-.475 1.9-.475.61-1.125.61zm.02-.61h.01q.31 0 .5-.33t.245-.72q.055-.39.055-.84 0-.45-.055-.835-.055-.385-.25-.72Q6.42 3.19 6.1 3.19q-.24 0-.415.185t-.255.49q-.08.305-.115.6t-.035.615q0 .34.035.64t.12.6q.085.3.255.475.17.175.42.175zm2.44-4.31h.77v2.05h1.43V2.66h.77V7.5h-.77V5.37H9.32V7.5h-.77zm3.57 0h.81l.64 2.78q.05.21.11.54.06.33.09.46h.02q.06-.33.21-.99l.57-2.79h.76l-.79 3.11q-.57 2.3-1.2 3.12-.4.51-.87.73l-.28-.65q.38-.22.68-.61.29-.38.44-.82.05-.14.05-.24 0-.12-.02-.18zm6.02 4.13.11.59q-.31.18-.8.18-.81 0-1.29-.635t-.48-1.815q0-1.08.515-1.8t1.395-.72q.43 0 .68.16l-.15.62q-.26-.13-.55-.13-.55 0-.835.545-.285.545-.285 1.325 0 .85.305 1.33.305.48.835.48.3 0 .55-.13zm2.34.73V2.68q.53-.1 1.09-.1.33 0 .625.055t.57.18q.275.125.44.37.165.245.165.595 0 .42-.27.73t-.69.42v.02q.54.09.85.405.31.315.31.805 0 .4-.19.69-.19.29-.515.44-.325.15-.67.215-.345.065-.725.065-.51 0-.99-.05zm.76-4.34v1.53h.34q.39 0 .72-.23.33-.23.33-.59 0-.75-1-.75-.15 0-.39.04zm-.01 2.08v1.73q.27.03.39.03.5 0 .84-.205.34-.205.34-.655 0-.45-.365-.675-.365-.225-.875-.225zm4.76 2.26V2.68q.53-.1 1.09-.1.33 0 .625.055t.57.18q.275.125.44.37.165.245.165.595 0 .42-.27.73t-.69.42v.02q.54.09.85.405.31.315.31.805 0 .4-.19.69-.19.29-.515.44-.325.15-.67.215-.345.065-.725.065-.51 0-.99-.05zm.76-4.34v1.53h.34q.39 0 .72-.23.33-.23.33-.59 0-.75-1-.75-.15 0-.39.04zm-.01 2.08v1.73q.27.03.39.03.5 0 .84-.205.34-.205.34-.655 0-.45-.365-.675-.365-.225-.875-.225zm3.19-2.6h.7v1.66q0 1.43-.07 2.32h.02q.16-.46.72-1.89l.81-2.09h.81V7.5h-.71V5.9q0-1.16.08-2.36h-.03q-.2.73-.58 1.68-.6 1.5-.96 2.28h-.79zm4.58 0h2.46V6.9l.41.01-.04 1.88h-.59L36.7 7.5h-2.51l-.05 1.29h-.59l-.04-1.88.32-.01q.31-.47.46-1.03.22-.81.22-1.8zm.68.62v.71q0 1.19-.21 1.92-.15.57-.38.98h1.61V3.28zm5.7 1.87h-2.24q.01 1.8 1.14 1.8.46 0 .8-.18l.13.56q-.41.23-1.07.23-.85 0-1.3-.645-.45-.645-.45-1.785 0-1.17.45-1.86.45-.69 1.18-.69.69 0 1.035.615t.345 1.515q0 .2-.02.44zm-2.23-.57h1.51q.01-.68-.205-1.04t-.515-.36q-.35 0-.555.425-.205.425-.235.975zM46.01.5l-.04.67q-.11.05-.43.125t-.45.115q-.7.14-1.01.79-.23.53-.3 1.26h.03q.12-.34.42-.57.3-.23.68-.23.64 0 1.025.58.385.58.385 1.8 0 1.25-.415 1.9-.415.65-1.155.65-.47 0-.805-.275-.335-.275-.5-.74-.165-.465-.235-.935-.07-.47-.07-1.01 0-1.87.46-2.76.42-.87 1.35-1.11.1-.03.51-.115.41-.085.55-.145zm-.46 4.61V5.1q0-.3-.035-.58-.035-.28-.115-.58-.08-.3-.255-.48t-.415-.18q-.47 0-.69.54-.16.42-.16 1.03 0 .28.03.58.03.3.11.675.08.375.265.615t.455.24q.25 0 .42-.19.17-.19.25-.5.08-.31.11-.585.03-.275.03-.575zm4.42.04h-2.24q.01 1.8 1.14 1.8.46 0 .8-.18l.13.56q-.41.23-1.07.23-.85 0-1.3-.645-.45-.645-.45-1.785 0-1.17.45-1.86.45-.69 1.18-.69.69 0 1.035.615t.345 1.515q0 .2-.02.44zm-2.23-.57h1.51q.01-.68-.205-1.04t-.515-.36q-.35 0-.555.425-.205.425-.235.975zm5.33 2.21.11.59q-.31.18-.8.18-.81 0-1.29-.635t-.48-1.815q0-1.08.515-1.8t1.395-.72q.43 0 .68.16l-.15.62q-.26-.13-.55-.13-.55 0-.835.545-.285.545-.285 1.325 0 .85.305 1.33.305.48.835.48.3 0 .55-.13zm.77-4.13h2.93V7.5H56V3.3h-1.39v4.2h-.77zm4.2 0h2.56V7.5h-.77V3.29h-1.06v1.54q0 1.16-.16 1.77-.16.61-.65.85-.24.12-.52.12l-.13-.61q.24-.04.4-.22.33-.33.33-1.86zm6.18 1.64v2.1q0 .79.05 1.1h-.69l-.05-.51h-.03q-.33.59-.96.59-.5 0-.825-.38-.325-.38-.325-1 0-.86.585-1.305.585-.445 1.475-.455v-.15q0-.53-.17-.815-.17-.285-.6-.285-.44 0-.8.25l-.17-.54q.45-.32 1.13-.32 1.38 0 1.38 1.72zm-.75 1.67v-.98q-1.33 0-1.33 1.13 0 .44.175.65.175.21.415.21.26 0 .45-.19t.26-.54q.03-.13.03-.28zm1.31-3.31h2.97v.64h-1.1v4.2h-.77V3.3h-1.1zm3.54 0h.77v2.05h1.43V2.66h.77V7.5h-.77V5.37h-1.43V7.5h-.77zm5.42 4.92h-.01q-.69 0-1.13-.635-.44-.635-.44-1.855 0-1.25.47-1.88.47-.63 1.15-.63.69 0 1.125.635.435.635.435 1.855 0 1.29-.475 1.9-.475.61-1.125.61zm.02-.61h.01q.31 0 .5-.33t.245-.72q.055-.39.055-.84 0-.45-.055-.835-.055-.385-.25-.72-.195-.335-.515-.335-.24 0-.415.185t-.255.49q-.08.305-.115.6t-.035.615q0 .34.035.64t.12.6q.085.3.255.475.17.175.42.175zm2.44-4.31h2.26v.65h-1.49V7.5h-.77zm4.11 4.92h-.01q-.69 0-1.13-.635-.44-.635-.44-1.855 0-1.25.47-1.88.47-.63 1.15-.63.69 0 1.125.635.435.635.435 1.855 0 1.29-.475 1.9-.475.61-1.125.61zm.02-.61h.01q.31 0 .5-.33t.245-.72q.055-.39.055-.84 0-.45-.055-.835-.055-.385-.25-.72-.195-.335-.515-.335-.24 0-.415.185t-.255.49q-.08.305-.115.6t-.035.615q0 .34.035.64t.12.6q.085.3.255.475.17.175.42.175zm5.38.61h-.01q-.69 0-1.13-.635-.44-.635-.44-1.855 0-1.25.47-1.88.47-.63 1.15-.63.69 0 1.125.635.435.635.435 1.855 0 1.29-.475 1.9-.475.61-1.125.61zm.02-.61h.01q.31 0 .5-.33t.245-.72q.055-.39.055-.84 0-.45-.055-.835-.055-.385-.25-.72-.195-.335-.515-.335-.24 0-.415.185t-.255.49q-.08.305-.115.6t-.035.615q0 .34.035.64t.12.6q.085.3.255.475.17.175.42.175zM90.87.5l-.04.67q-.11.05-.43.125t-.45.115q-.7.14-1.01.79-.23.53-.3 1.26h.03q.12-.34.42-.57.3-.23.68-.23.64 0 1.025.58.385.58.385 1.8 0 1.25-.415 1.9-.415.65-1.155.65-.47 0-.805-.275-.335-.275-.5-.74-.165-.465-.235-.935Q88 5.17 88 4.63q0-1.87.46-2.76.42-.87 1.35-1.11.1-.03.51-.115.41-.085.55-.145zm-.46 4.61V5.1q0-.3-.035-.58-.035-.28-.115-.58-.08-.3-.255-.48t-.415-.18q-.47 0-.69.54-.16.42-.16 1.03 0 .28.03.58.03.3.11.675.08.375.265.615t.455.24q.25 0 .42-.19.17-.19.25-.5.08-.31.11-.585.03-.275.03-.575zm3.89 1.68.11.59q-.31.18-.8.18-.81 0-1.29-.635t-.48-1.815q0-1.08.515-1.8t1.395-.72q.43 0 .68.16l-.15.62q-.26-.13-.55-.13-.55 0-.835.545-.285.545-.285 1.325 0 .85.305 1.33.305.48.835.48.3 0 .55-.13zm1.24-4.13h2.56V7.5h-.77V3.29h-1.06v1.54q0 1.16-.16 1.77-.16.61-.65.85-.24.12-.52.12l-.13-.61q.24-.04.4-.22.33-.33.33-1.86zm3.15 0h.81l.64 2.78q.05.21.11.54.06.33.09.46h.02q.06-.33.21-.99l.57-2.79h.76l-.79 3.11q-.57 2.3-1.2 3.12-.4.51-.87.73l-.28-.65q.38-.22.68-.61.29-.38.44-.82.05-.14.05-.24 0-.12-.02-.18zm3.53 0h.85l1.18 2.13h.16V2.66h.73v2.13h.17l1.17-2.13h.85l-1.44 2.22q.82.16 1.09 1.32.22.93.39 1.3h-.75q-.15-.26-.33-1.07-.16-.61-.42-.865t-.65-.255h-.08V7.5h-.73V5.31h-.08q-.48 0-.685.25-.205.25-.405.92-.18.74-.31 1.02h-.75q.09-.19.4-1.26.32-1.2 1.09-1.36zm5.77 0h.7v1.66q0 1.43-.07 2.32h.02q.16-.46.72-1.89l.81-2.09h.81V7.5h-.71V5.9q0-1.16.08-2.36h-.03q-.2.73-.58 1.68-.6 1.5-.96 2.28h-.79zm4.06 4.86V2.68q.53-.1 1.09-.1.33 0 .625.055t.57.18q.275.125.44.37.165.245.165.595 0 .42-.27.73t-.69.42v.02q.54.09.85.405.31.315.31.805 0 .4-.19.69-.19.29-.515.44-.325.15-.67.215-.345.065-.725.065-.51 0-.99-.05zm.76-4.34v1.53h.34q.39 0 .72-.23.33-.23.33-.59 0-.75-1-.75-.15 0-.39.04zm-.01 2.08v1.73q.27.03.39.03.5 0 .84-.205.34-.205.34-.655 0-.45-.365-.675-.365-.225-.875-.225zm5.74-.96v2.1q0 .79.05 1.1h-.69l-.05-.51h-.03q-.33.59-.96.59-.5 0-.825-.38-.325-.38-.325-1 0-.86.585-1.305.585-.445 1.475-.455v-.15q0-.53-.17-.815-.17-.285-.6-.285-.44 0-.8.25l-.17-.54q.45-.32 1.13-.32 1.38 0 1.38 1.72zm-.75 1.67v-.98q-1.33 0-1.33 1.13 0 .44.175.65.175.21.415.21.26 0 .45-.19t.26-.54q.03-.13.03-.28zm1.84-3.31h.77v2.05h1.43V2.66h.77V7.5h-.77V5.37h-1.43V7.5h-.77zm4.05 0h.7v1.66q0 1.43-.07 2.32h.02q.16-.46.72-1.89l.81-2.09h.81V7.5h-.71V5.9q0-1.16.08-2.36h-.03q-.2.73-.58 1.68-.6 1.5-.96 2.28h-.79zm6.78.03V7.5h-.75V5.43h-.23q-.46 0-.71.23-.11.1-.2.28-.09.18-.13.33-.04.15-.105.44-.065.29-.105.43-.07.23-.13.36h-.81q.15-.25.22-.5.03-.1.095-.37t.11-.43q.045-.16.135-.365.09-.205.21-.335.23-.25.6-.32v-.02q-.46-.09-.765-.395-.305-.305-.305-.795 0-.63.49-1.01.45-.36 1.34-.36.64 0 1.04.09zm-.75 2.22V3.17q-.13-.04-.33-.04-.44 0-.73.215t-.29.645q0 .43.315.675.315.245.735.245zm3.46-4.15h.75v3.06h.14l1.43-3.06h.84l-1.65 3.15q.57.12.845.555.275.435.425 1.155.04.17.1.475l.1.5q.04.195.11.45t.14.455h-.78q-.09-.24-.39-1.68-.15-.72-.395-1.075-.245-.355-.795-.355h-.12V7.5h-.75zm6.52 3.54v2.1q0 .79.05 1.1h-.69l-.05-.51h-.03q-.33.59-.96.59-.5 0-.825-.38-.325-.38-.325-1 0-.86.585-1.305.585-.445 1.475-.455v-.15q0-.53-.17-.815-.17-.285-.6-.285-.44 0-.8.25l-.17-.54q.45-.32 1.13-.32 1.38 0 1.38 1.72zm-.75 1.67v-.98q-1.33 0-1.33 1.13 0 .44.175.65.175.21.415.21.26 0 .45-.19t.26-.54q.03-.13.03-.28zm1.83 3.45V4.17q0-.15-.04-1.51h.69l.04.61h.02q.35-.69 1.02-.69.65 0 1.025.655.375.655.375 1.835 0 1.26-.435 1.885t-1.055.625q-.59 0-.85-.55h-.02v2.39zm.77-4.93v1.24q0 .24.04.4.18.81.7.81.45 0 .65-.52t.2-1.33q0-.82-.21-1.335t-.64-.515q-.26 0-.47.27-.21.27-.24.61-.03.12-.03.37zm2.68-1.83h2.97v.64h-1.1v4.2h-.77V3.3h-1.1zm3.54 0h.76v1.71q.24-.03.46-.03.74 0 1.24.41t.5 1.14q0 .76-.54 1.19-.57.47-1.43.47-.49 0-.99-.08zm.76 2.3v1.96q.18.03.34.03.45 0 .76-.28t.31-.74q0-.47-.315-.73t-.775-.26q-.12 0-.32.02zm2.7-2.3h.74V7.5h-.74zm3.39 0h2.93V7.5h-.77V3.3h-1.39v4.2h-.77zm3.99 6.76V4.17q0-.15-.04-1.51h.69l.04.61h.02q.35-.69 1.02-.69.65 0 1.025.655.375.655.375 1.835 0 1.26-.435 1.885t-1.055.625q-.59 0-.85-.55h-.02v2.39zm.77-4.93v1.24q0 .24.04.4.18.81.7.81.45 0 .65-.52t.2-1.33q0-.82-.21-1.335t-.64-.515q-.26 0-.47.27-.21.27-.24.61-.03.12-.03.37zm6.01.66h-2.24q.01 1.8 1.14 1.8.46 0 .8-.18l.13.56q-.41.23-1.07.23-.85 0-1.3-.645-.45-.645-.45-1.785 0-1.17.45-1.86.45-.69 1.18-.69.69 0 1.035.615t.345 1.515q0 .2-.02.44zm-2.23-.57h1.51q.01-.68-.205-1.04t-.515-.36q-.35 0-.555.425-.205.425-.235.975zm3.6-1.92h2.46V6.9l.41.01-.04 1.88h-.59l-.05-1.29h-2.51l-.05 1.29h-.59l-.04-1.88.32-.01q.31-.47.46-1.03.22-.81.22-1.8zm.68.62v.71q0 1.19-.21 1.92-.15.57-.38.98h1.61V3.28zm4.29 4.3h-.01q-.69 0-1.13-.635-.44-.635-.44-1.855 0-1.25.47-1.88.47-.63 1.15-.63.69 0 1.125.635.435.635.435 1.855 0 1.29-.475 1.9-.475.61-1.125.61zm.02-.61h.01q.31 0 .5-.33t.245-.72q.055-.39.055-.84 0-.45-.055-.835-.055-.385-.25-.72-.195-.335-.515-.335-.24 0-.415.185t-.255.49q-.08.305-.115.6t-.035.615q0 .34.035.64t.12.6q.085.3.255.475.17.175.42.175zm4.69-.18.11.59q-.31.18-.8.18-.81 0-1.29-.635t-.48-1.815q0-1.08.515-1.8t1.395-.72q.43 0 .68.16l-.15.62q-.26-.13-.55-.13-.55 0-.835.545-.285.545-.285 1.325 0 .85.305 1.33.305.48.835.48.3 0 .55-.13zm.57-4.13h2.97v.64h-1.1v4.2h-.77V3.3H177zm6.01 1.64v2.1q0 .79.05 1.1h-.69l-.05-.51h-.03q-.33.59-.96.59-.5 0-.825-.38-.325-.38-.325-1 0-.86.585-1.305.585-.445 1.475-.455v-.15q0-.53-.17-.815-.17-.285-.6-.285-.44 0-.8.25l-.17-.54q.45-.32 1.13-.32 1.38 0 1.38 1.72zm-.75 1.67v-.98q-1.33 0-1.33 1.13 0 .44.175.65.175.21.415.21.26 0 .45-.19t.26-.54q.03-.13.03-.28zm1.84 1.55V2.68q.53-.1 1.09-.1.33 0 .625.055t.57.18q.275.125.44.37.165.245.165.595 0 .42-.27.73t-.69.42v.02q.54.09.85.405.31.315.31.805 0 .4-.19.69-.19.29-.515.44-.325.15-.67.215-.345.065-.725.065-.51 0-.99-.05zm.76-4.34v1.53h.34q.39 0 .72-.23.33-.23.33-.59 0-.75-1-.75-.15 0-.39.04zm-.01 2.08v1.73q.27.03.39.03.5 0 .84-.205.34-.205.34-.655 0-.45-.365-.675-.365-.225-.875-.225zm3.39-2.6h2.56V7.5h-.77V3.29h-1.06v1.54q0 1.16-.16 1.77-.16.61-.65.85-.24.12-.52.12l-.13-.61q.24-.04.4-.22.33-.33.33-1.86zm6.35.03V7.5h-.75V5.43h-.23q-.46 0-.71.23-.11.1-.2.28-.09.18-.13.33-.04.15-.105.44-.065.29-.105.43-.07.23-.13.36h-.81q.15-.25.22-.5.03-.1.095-.37t.11-.43q.045-.16.135-.365.09-.205.21-.335.23-.25.6-.32v-.02q-.46-.09-.765-.395-.305-.305-.305-.795 0-.63.49-1.01.45-.36 1.34-.36.64 0 1.04.09zm-.75 2.22V3.17q-.13-.04-.33-.04-.44 0-.73.215t-.29.645q0 .43.315.675.315.245.735.245zm4.6.24h-2.24q.01 1.8 1.14 1.8.46 0 .8-.18l.13.56q-.41.23-1.07.23-.85 0-1.3-.645-.45-.645-.45-1.785 0-1.17.45-1.86.45-.69 1.18-.69.69 0 1.035.615t.345 1.515q0 .2-.02.44zm-2.23-.57h1.51q.01-.68-.205-1.04T197 3.18q-.35 0-.555.425-.205.425-.235.975zm2.59-1.92h2.97v.64h-1.1v4.2h-.77V3.3h-1.1zm5.68 4.13.11.59q-.31.18-.8.18-.81 0-1.29-.635t-.48-1.815q0-1.08.515-1.8t1.395-.72q.43 0 .68.16l-.15.62q-.26-.13-.55-.13-.55 0-.835.545-.285.545-.285 1.325 0 .85.305 1.33.305.48.835.48.3 0 .55-.13zm3.62-4.1V7.5h-.75V5.43h-.23q-.46 0-.71.23-.11.1-.2.28-.09.18-.13.33-.04.15-.105.44-.065.29-.105.43-.07.23-.13.36h-.81q.15-.25.22-.5.03-.1.095-.37t.11-.43q.045-.16.135-.365.09-.205.21-.335.23-.25.6-.32v-.02q-.46-.09-.765-.395-.305-.305-.305-.795 0-.63.49-1.01.45-.36 1.34-.36.64 0 1.04.09zm-.75 2.22V3.17q-.13-.04-.33-.04-.44 0-.73.215t-.29.645q0 .43.315.675.315.245.735.245zm3.39-2.25h.77v2.05h1.43V2.66h.77V7.5h-.77V5.37h-1.43V7.5h-.77zm5.42 4.92h-.01q-.69 0-1.13-.635-.44-.635-.44-1.855 0-1.25.47-1.88.47-.63 1.15-.63.69 0 1.125.635.435.635.435 1.855 0 1.29-.475 1.9-.475.61-1.125.61zm.02-.61h.01q.31 0 .5-.33t.245-.72q.055-.39.055-.84 0-.45-.055-.835-.055-.385-.25-.72-.195-.335-.515-.335-.24 0-.415.185t-.255.49q-.08.305-.115.6t-.035.615q0 .34.035.64t.12.6q.085.3.255.475.17.175.42.175zm2.44.55V2.68q.53-.1 1.09-.1.33 0 .625.055t.57.18q.275.125.44.37.165.245.165.595 0 .42-.27.73t-.69.42v.02q.54.09.85.405.31.315.31.805 0 .4-.19.69-.19.29-.515.44-.325.15-.67.215-.345.065-.725.065-.51 0-.99-.05zm.76-4.34v1.53h.34q.39 0 .72-.23.33-.23.33-.59 0-.75-1-.75-.15 0-.39.04zm-.01 2.08v1.73q.27.03.39.03.5 0 .84-.205.34-.205.34-.655 0-.45-.365-.675-.365-.225-.875-.225zm3.19-2.6h.76v1.71q.24-.03.46-.03.74 0 1.24.41t.5 1.14q0 .76-.54 1.19-.57.47-1.43.47-.49 0-.99-.08zm.76 2.3v1.96q.18.03.34.03.45 0 .76-.28t.31-.74q0-.47-.315-.73t-.775-.26q-.12 0-.32.02zm2.7-2.3h.74V7.5h-.74zm1.66 4.84.34-4.84h.9l.64 2.12q.24.82.43 1.55h.02q.25-.99.41-1.55l.62-2.12h.92l.33 4.84h-.72l-.1-2.08q-.05-1.03-.07-2.04h-.02q-.25 1.05-.48 1.86l-.66 2.23h-.56l-.63-2.15q-.26-.93-.49-1.94h-.03q0 .7-.06 2.08l-.09 2.04zm7.11-4.84h.75v2.1h.11l1.27-2.1h.85l-1.51 2.18q.85.14 1.18 1.37.28 1 .4 1.29h-.79q-.1-.24-.35-1.13-.14-.53-.385-.79t-.695-.26h-.08V7.5h-.75zm4.12 0h2.56V7.5h-.77V3.29h-1.06v1.54q0 1.16-.16 1.77-.16.61-.65.85-.24.12-.52.12l-.13-.61q.24-.04.4-.22.33-.33.33-1.86zm3.63 0h.7v1.66q0 1.43-.07 2.32h.02q.16-.46.72-1.89l.81-2.09h.81V7.5h-.71V5.9q0-1.16.08-2.36h-.03q-.2.73-.58 1.68-.6 1.5-.96 2.28h-.79zm6.84 2.49h-2.24q.01 1.8 1.14 1.8.46 0 .8-.18l.13.56q-.41.23-1.07.23-.85 0-1.3-.645-.45-.645-.45-1.785 0-1.17.45-1.86.45-.69 1.18-.69.69 0 1.035.615t.345 1.515q0 .2-.02.44zm-2.23-.57h1.51q.01-.68-.205-1.04t-.515-.36q-.35 0-.555.425-.205.425-.235.975zm3.08-1.92h.77v2.05h1.43V2.66h.77V7.5h-.77V5.37H251V7.5h-.77zm3.57 0h2.97v.64h-1.1v4.2h-.77V3.3h-1.1zm6.01 1.64v2.1q0 .79.05 1.1h-.69l-.05-.51h-.03q-.33.59-.96.59-.5 0-.825-.38-.325-.38-.325-1 0-.86.585-1.305.585-.445 1.475-.455v-.15q0-.53-.17-.815-.17-.285-.6-.285-.44 0-.8.25l-.17-.54q.45-.32 1.13-.32 1.38 0 1.38 1.72zm-.75 1.67v-.98q-1.33 0-1.33 1.13 0 .44.175.65.175.21.415.21.26 0 .45-.19t.26-.54q.03-.13.03-.28zm1.68 1.53.34-4.84h.9l.64 2.12q.24.82.43 1.55h.02q.25-.99.41-1.55l.62-2.12h.92l.33 4.84h-.72l-.1-2.08q-.05-1.03-.07-2.04h-.02q-.25 1.05-.48 1.86l-.66 2.23h-.56l-.63-2.15q-.26-.93-.49-1.94h-.03q0 .7-.06 2.08l-.09 2.04zm5.7 1.19-.53.07q.4-1.12.58-2.33l.87-.1q-.18.63-.45 1.335t-.47 1.025zM1.91 17.58H1.9q-.69 0-1.13-.635-.44-.635-.44-1.855 0-1.25.47-1.88.47-.63 1.15-.63.69 0 1.125.635.435.635.435 1.855 0 1.29-.475 1.9-.475.61-1.125.61zm.02-.61h.01q.31 0 .5-.33t.245-.72q.055-.39.055-.84 0-.45-.055-.835-.055-.385-.25-.72-.195-.335-.515-.335-.24 0-.415.185t-.255.49q-.08.305-.115.6t-.035.615q0 .34.035.64t.12.6q.085.3.255.475.17.175.42.175zm3.93-6.31h.7v1.92q.8.1 1.26.73.46.63.46 1.77 0 1.15-.45 1.78-.45.63-1.27.72v1.84h-.7v-1.84q-.8-.09-1.25-.715-.45-.625-.45-1.775 0-1.13.45-1.76.45-.63 1.25-.74zm.01 6.39v-3.94q-.53.13-.76.69-.23.56-.23 1.28t.23 1.285q.23.565.76.685zm.69-3.94v3.94q1-.24 1-1.97 0-.45-.075-.825-.075-.375-.31-.71-.235-.335-.615-.435zm3.95 4.47h-.01q-.69 0-1.13-.635-.44-.635-.44-1.855 0-1.25.47-1.88.47-.63 1.15-.63.69 0 1.125.635.435.635.435 1.855 0 1.29-.475 1.9-.475.61-1.125.61zm.02-.61h.01q.31 0 .5-.33t.245-.72q.055-.39.055-.84 0-.45-.055-.835-.055-.385-.25-.72-.195-.335-.515-.335-.24 0-.415.185t-.255.49q-.08.305-.115.6t-.035.615q0 .34.035.64t.12.6q.085.3.255.475.17.175.42.175zm2.43 2.45v-5.25q0-.15-.04-1.51h.69l.04.61h.02q.35-.69 1.02-.69.65 0 1.025.655.375.655.375 1.835 0 1.26-.435 1.885t-1.055.625q-.59 0-.85-.55h-.02v2.39zm.77-4.93v1.24q0 .24.04.4.18.81.7.81.45 0 .65-.52t.2-1.33q0-.82-.21-1.335t-.64-.515q-.26 0-.47.27-.21.27-.24.61-.03.12-.03.37zm3.07 3.01.34-4.84h.9l.64 2.12q.24.82.43 1.55h.02q.25-.99.41-1.55l.62-2.12h.92l.33 4.84h-.72l-.1-2.08q-.05-1.03-.07-2.04h-.02q-.25 1.05-.48 1.86l-.66 2.23h-.56l-.63-2.15q-.26-.93-.49-1.94h-.03q0 .7-.06 2.08l-.09 2.04zm5.54-4.84h.7v1.66q0 1.43-.07 2.32h.02q.16-.46.72-1.89l.81-2.09h.81v4.84h-.71v-1.6q0-1.16.08-2.36h-.03q-.2.73-.58 1.68-.6 1.5-.96 2.28h-.79zm4.06 4.86v-4.84q.53-.1 1.09-.1.33 0 .625.055t.57.18q.275.125.44.37.165.245.165.595 0 .42-.27.73t-.69.42v.02q.54.09.85.405.31.315.31.805 0 .4-.19.69-.19.29-.515.44-.325.15-.67.215-.345.065-.725.065-.51 0-.99-.05zm.76-4.34v1.53h.34q.39 0 .72-.23.33-.23.33-.59 0-.75-1-.75-.15 0-.39.04zm-.01 2.08v1.73q.27.03.39.03.5 0 .84-.205.34-.205.34-.655 0-.45-.365-.675-.365-.225-.875-.225zm3.19-2.6h.76v4.2h1.27v-4.2h.76v4.2h1.28v-4.2h.76v4.84h-4.83zm5.9 0h.7v1.66q0 1.43-.07 2.32h.02q.16-.46.72-1.89l.81-2.09h.81v4.84h-.71v-1.6q0-1.16.08-2.36h-.03q-.2.73-.58 1.68-.6 1.5-.96 2.28h-.79zm3.9 4.84.34-4.84h.9l.64 2.12q.24.82.43 1.55h.02q.25-.99.41-1.55l.62-2.12h.92l.33 4.84h-.72l-.1-2.08q-.05-1.03-.07-2.04h-.02q-.25 1.05-.48 1.86l-.66 2.23h-.56l-.63-2.15q-.26-.93-.49-1.94h-.03q0 .7-.06 2.08l-.09 2.04zm7.18-6.74h.75v3.06h.14l1.43-3.06h.84l-1.65 3.15q.57.12.845.555.275.435.425 1.155.04.17.1.475l.1.5q.04.195.11.45t.14.455h-.78q-.09-.24-.39-1.68-.15-.72-.395-1.075-.245-.355-.795-.355h-.12v3.11h-.75zm6.52 3.54v2.1q0 .79.05 1.1h-.69l-.05-.51h-.03q-.33.59-.96.59-.5 0-.825-.38-.325-.38-.325-1 0-.86.585-1.305.585-.445 1.475-.455v-.15q0-.53-.17-.815-.17-.285-.6-.285-.44 0-.8.25l-.17-.54q.45-.32 1.13-.32 1.38 0 1.38 1.72zm-.75 1.67v-.98q-1.33 0-1.33 1.13 0 .44.175.65.175.21.415.21.26 0 .45-.19t.26-.54q.03-.13.03-.28zm1.83 3.45v-5.25q0-.15-.04-1.51h.69l.04.61h.02q.35-.69 1.02-.69.65 0 1.025.655.375.655.375 1.835 0 1.26-.435 1.885t-1.055.625q-.59 0-.85-.55h-.02v2.39zm.77-4.93v1.24q0 .24.04.4.18.81.7.81.45 0 .65-.52t.2-1.33q0-.82-.21-1.335t-.64-.515q-.26 0-.47.27-.21.27-.24.61-.03.12-.03.37zm2.68-1.83h2.97v.64h-1.1v4.2h-.77v-4.2h-1.1zm3.28 0h.81l.64 2.78q.05.21.11.54.06.33.09.46h.02q.06-.33.21-.99l.57-2.79h.76l-.79 3.11q-.57 2.3-1.2 3.12-.4.51-.87.73l-.28-.65q.38-.22.68-.61.29-.38.44-.82.05-.14.05-.24 0-.12-.02-.18zm5.94 4.84v-6.05h-1.23v-.69h3.23v.69h-1.23v6.05zm3.35 0h-.77v-4.84h.77zm-.4-5.59h-.01q-.19 0-.315-.14t-.125-.36q0-.22.13-.36.13-.14.32-.14.21 0 .335.135.125.135.125.365 0 .23-.125.365-.125.135-.335.135zm1.47 5.59v-3.59q0-.33-.02-.75t-.02-.5h.67l.04.58h.02q.36-.66 1.11-.66.53 0 .85.41.32.41.32 1.26v3.25h-.77v-3.12q0-1.15-.67-1.15-.25 0-.455.205-.205.205-.265.585-.04.15-.04.43v3.05zm4.81-6.92v4.33h.02q.23-.49.26-.54l.96-1.71h.83l-1.28 2.04 1.4 2.8h-.86l-1.05-2.28-.28.45v1.83h-.77v-6.92zm4 7h-.01q-.69 0-1.13-.635-.44-.635-.44-1.855 0-1.25.47-1.88.47-.63 1.15-.63.69 0 1.125.635.435.635.435 1.855 0 1.29-.475 1.9-.475.61-1.125.61zm.02-.61h.01q.31 0 .5-.33t.245-.72q.055-.39.055-.84 0-.45-.055-.835-.055-.385-.25-.72-.195-.335-.515-.335-.24 0-.415.185t-.255.49q-.08.305-.115.6t-.035.615q0 .34.035.64t.12.6q.085.3.255.475.17.175.42.175zm5.6.53h-.77v-4.26h-1.46v4.26h-.77v-4.26h-.61v-.58h.61v-.24q0-.95.44-1.42.36-.38 1-.38.28 0 .5.09l-.14.61q-.16-.07-.37-.07-.36 0-.51.29-.15.29-.15.87v.25h1.46v-.3q0-.97.43-1.45.37-.41.97-.41.36 0 .6.12l-.12.6q-.2-.08-.43-.08-.68 0-.68 1.21v.31h.88v.58h-.88zm2.98-.03v-6.61q.52-.13 1.13-.13.99 0 1.49.46.44.42.44 1.16 0 .52-.275.915t-.765.585v.03q.59.15.92.605.33.455.33 1.115 0 .8-.48 1.33-.54.61-1.78.61-.64 0-1.01-.07zm.77-6.09v2.25h.35q.48 0 .825-.34t.345-.85q0-1.11-1.11-1.11-.26 0-.41.05zm0 2.83v2.69q.13.03.39.03.6 0 .955-.35t.355-.99q0-.66-.39-1.015-.39-.355-.97-.365zm3.33 3.29v-6.92h.77v6.92zm4.46-3.2v2.1q0 .79.05 1.1h-.69l-.05-.51h-.03q-.33.59-.96.59-.5 0-.825-.38-.325-.38-.325-1 0-.86.585-1.305.585-.445 1.475-.455v-.15q0-.53-.17-.815-.17-.285-.6-.285-.44 0-.8.25l-.17-.54q.45-.32 1.13-.32 1.38 0 1.38 1.72zm-.75 1.67v-.98q-1.33 0-1.33 1.13 0 .44.175.65.175.21.415.21.26 0 .45-.19t.26-.54q.03-.13.03-.28zm4.09.82.11.59q-.31.18-.8.18-.81 0-1.29-.635t-.48-1.815q0-1.08.515-1.8t1.395-.72q.43 0 .68.16l-.15.62q-.26-.13-.55-.13-.55 0-.835.545-.285.545-.285 1.325 0 .85.305 1.33.305.48.835.48.3 0 .55-.13zm1.53-6.21v4.33h.02q.23-.49.26-.54l.96-1.71h.83l-1.28 2.04 1.4 2.8h-.86l-1.05-2.28-.28.45v1.83h-.77v-6.92zm4.35 6.94v-4.84q.53-.1 1.09-.1.33 0 .625.055t.57.18q.275.125.44.37.165.245.165.595 0 .42-.27.73t-.69.42v.02q.54.09.85.405.31.315.31.805 0 .4-.19.69-.19.29-.515.44-.325.15-.67.215-.345.065-.725.065-.51 0-.99-.05zm.76-4.34v1.53h.34q.39 0 .72-.23.33-.23.33-.59 0-.75-1-.75-.15 0-.39.04zm-.01 2.08v1.73q.27.03.39.03.5 0 .84-.205.34-.205.34-.655 0-.45-.365-.675-.365-.225-.875-.225zm4.76-2.6h2.93v4.84h-.77v-4.2h-1.39v4.2h-.77zm6.78 2.49h-2.24q.01 1.8 1.14 1.8.46 0 .8-.18l.13.56q-.41.23-1.07.23-.85 0-1.3-.645-.45-.645-.45-1.785 0-1.17.45-1.86.45-.69 1.18-.69.69 0 1.035.615t.345 1.515q0 .2-.02.44zm-2.23-.57h1.51q.01-.68-.205-1.04t-.515-.36q-.35 0-.555.425-.205.425-.235.975zm3.07 4.84v-5.25q0-.15-.04-1.51h.69l.04.61h.02q.35-.69 1.02-.69.65 0 1.025.655.375.655.375 1.835 0 1.26-.435 1.885t-1.055.625q-.59 0-.85-.55h-.02v2.39zm.77-4.93v1.24q0 .24.04.4.18.81.7.81.45 0 .65-.52t.2-1.33q0-.82-.21-1.335t-.64-.515q-.26 0-.47.27-.21.27-.24.61-.03.12-.03.37zm3.23-1.83h.7v1.66q0 1.43-.07 2.32h.02q.16-.46.72-1.89l.81-2.09h.81v4.84h-.71v-1.6q0-1.16.08-2.36h-.03q-.2.73-.58 1.68-.6 1.5-.96 2.28h-.79zm5.43 4.92h-.01q-.69 0-1.13-.635-.44-.635-.44-1.855 0-1.25.47-1.88.47-.63 1.15-.63.69 0 1.125.635.435.635.435 1.855 0 1.29-.475 1.9-.475.61-1.125.61zm.02-.61h.01q.31 0 .5-.33t.245-.72q.055-.39.055-.84 0-.45-.055-.835-.055-.385-.25-.72-.195-.335-.515-.335-.24 0-.415.185t-.255.49q-.08.305-.115.6t-.035.615q0 .34.035.64t.12.6q.085.3.255.475.17.175.42.175zm2.86-4.31h2.46v4.24l.41.01-.04 1.88h-.59l-.05-1.29h-2.51l-.05 1.29h-.59l-.04-1.88.32-.01q.31-.47.46-1.03.22-.81.22-1.8zm.68.62v.71q0 1.19-.21 1.92-.15.57-.38.98h1.61v-3.61zm6.79 3.51.11.59q-.31.18-.8.18-.81 0-1.29-.635t-.48-1.815q0-1.08.515-1.8t1.395-.72q.43 0 .68.16l-.15.62q-.26-.13-.55-.13-.55 0-.835.545-.285.545-.285 1.325 0 .85.305 1.33.305.48.835.48.3 0 .55-.13zm3.7.79h-.01q-.76 0-1.19-.87-.43-.87-.43-2.45 0-1.62.45-2.48.45-.86 1.26-.86.78 0 1.19.875.41.875.41 2.445 0 1.69-.465 2.515-.465.825-1.215.825zm.03-.66h.01q.87 0 .87-2.67 0-1.21-.215-1.94t-.655-.73q-.45 0-.675.715-.225.715-.225 1.955-.01 1.23.21 1.95t.68.72zm2.2.36.17-.61q.45.27.94.27.51 0 .815-.35.305-.35.305-.94 0-.63-.36-.99t-.95-.36h-.18v-.58h.15q.41 0 .79-.305.38-.305.38-.855 0-.48-.235-.74t-.625-.26q-.38 0-.81.31l-.16-.58q.45-.37 1.16-.37.67 0 1.055.42.385.42.385 1.07 0 .5-.25.91-.25.41-.72.62v.02q.49.13.815.56.325.43.325 1.15 0 .82-.5 1.365t-1.36.545q-.71 0-1.14-.3zm8.23-2.98v2.1q0 .79.05 1.1h-.69l-.05-.51h-.03q-.33.59-.96.59-.5 0-.825-.38-.325-.38-.325-1 0-.86.585-1.305.585-.445 1.475-.455v-.15q0-.53-.17-.815-.17-.285-.6-.285-.44 0-.8.25l-.17-.54q.45-.32 1.13-.32 1.38 0 1.38 1.72zm-.75 1.67v-.98q-1.33 0-1.33 1.13 0 .44.175.65.175.21.415.21.26 0 .45-.19t.26-.54q.03-.13.03-.28zm1.84-3.31h2.93v4.84h-.77v-4.2h-1.39v4.2h-.77zm3.99 6.76v-5.25q0-.15-.04-1.51h.69l.04.61h.02q.35-.69 1.02-.69.65 0 1.025.655.375.655.375 1.835 0 1.26-.435 1.885t-1.055.625q-.59 0-.85-.55h-.02v2.39zm.77-4.93v1.24q0 .24.04.4.18.81.7.81.45 0 .65-.52t.2-1.33q0-.82-.21-1.335t-.64-.515q-.26 0-.47.27-.21.27-.24.61-.03.12-.03.37zm6.01.66h-2.24q.01 1.8 1.14 1.8.46 0 .8-.18l.13.56q-.41.23-1.07.23-.85 0-1.3-.645-.45-.645-.45-1.785 0-1.17.45-1.86.45-.69 1.18-.69.69 0 1.035.615t.345 1.515q0 .2-.02.44zm-2.23-.57h1.51q.01-.68-.205-1.04t-.515-.36q-.35 0-.555.425-.205.425-.235.975zm3.32-1.92h2.56v4.84h-.77v-4.21h-1.06v1.54q0 1.16-.16 1.77-.16.61-.65.85-.24.12-.52.12l-.13-.61q.24-.04.4-.22.33-.33.33-1.86zm6.35.03v4.81h-.75v-2.07h-.23q-.46 0-.71.23-.11.1-.2.28-.09.18-.13.33-.04.15-.105.44-.065.29-.105.43-.07.23-.13.36h-.81q.15-.25.22-.5.03-.1.095-.37t.11-.43q.045-.16.135-.365.09-.205.21-.335.23-.25.6-.32v-.02q-.46-.09-.765-.395-.305-.305-.305-.795 0-.63.49-1.01.45-.36 1.34-.36.64 0 1.04.09zm-.75 2.22v-1.74q-.13-.04-.33-.04-.44 0-.73.215t-.29.645q0 .43.315.675.315.245.735.245zm6.29 2.59h-3.12V17l.54-.74q.43-.6.615-.87t.5-.8q.315-.53.445-.975.13-.445.13-.875 0-.55-.235-.855-.235-.305-.685-.305-.42 0-.94.36l-.19-.58q.53-.44 1.27-.44.77 0 1.16.5.39.5.39 1.28 0 .82-.425 1.65t-1.185 1.85l-.43.6v.02h2.16zm2.31.08h-.01q-.76 0-1.19-.87-.43-.87-.43-2.45 0-1.62.45-2.48.45-.86 1.26-.86.78 0 1.19.875.41.875.41 2.445 0 1.69-.465 2.515-.465.825-1.215.825zm.03-.66h.01q.87 0 .87-2.67 0-1.21-.215-1.94t-.655-.73q-.45 0-.675.715-.225.715-.225 1.955-.01 1.23.21 1.95t.68.72zm5.36.58h-3.12V17l.54-.74q.43-.6.615-.87t.5-.8q.315-.53.445-.975.13-.445.13-.875 0-.55-.235-.855-.235-.305-.685-.305-.42 0-.94.36l-.19-.58q.53-.44 1.27-.44.77 0 1.16.5.39.5.39 1.28 0 .82-.425 1.65t-1.185 1.85l-.43.6v.02h2.16zm.69-.22.17-.61q.45.27.94.27.51 0 .815-.35.305-.35.305-.94 0-.63-.36-.99t-.95-.36h-.18v-.58h.15q.41 0 .79-.305.38-.305.38-.855 0-.48-.235-.74t-.625-.26q-.38 0-.81.31l-.16-.58q.45-.37 1.16-.37.67 0 1.055.42.385.42.385 1.07 0 .5-.25.91-.25.41-.72.62v.02q.49.13.815.56.325.43.325 1.15 0 .82-.5 1.365t-1.36.545q-.71 0-1.14-.3zm4.11-4.62h2.26v.65h-1.49v4.19h-.77zm2.75 4.92h-.01q-.21 0-.355-.16t-.145-.42q0-.25.15-.415.15-.165.36-.165.23 0 .37.16.14.16.14.42 0 .27-.135.425-.135.155-.375.155zm3.05-4.92h2.93v4.84h-.77v-4.2h-1.39v4.2h-.77zm5.37 4.92h-.01q-.69 0-1.13-.635-.44-.635-.44-1.855 0-1.25.47-1.88.47-.63 1.15-.63.69 0 1.125.635.435.635.435 1.855 0 1.29-.475 1.9-.475.61-1.125.61zm.02-.61h.01q.31 0 .5-.33t.245-.72q.055-.39.055-.84 0-.45-.055-.835-.055-.385-.25-.72-.195-.335-.515-.335-.24 0-.415.185t-.255.49q-.08.305-.115.6t-.035.615q0 .34.035.64t.12.6q.085.3.255.475.17.175.42.175zm5.35.53v-5.72h-.02l-1.08.62-.15-.6 1.37-.8h.63v6.5zm5.16-6.58v.65q-.19 0-.46.06-1.35.34-1.67 2.35h.03q.42-.62 1.1-.62.62 0 1.01.54t.39 1.46q0 .96-.425 1.59-.425.63-1.175.63-.83 0-1.27-.74-.44-.74-.44-1.91 0-1.78.84-2.93.28-.4.705-.665.425-.265.875-.355.16-.03.49-.06zm-1.2 6.06h.01q.35 0 .585-.385t.235-1.175q0-.72-.235-1.095t-.635-.375q-.58 0-.85.7-.05.15-.05.39.01.96.265 1.45t.675.49zm6.52-2.68v2.1q0 .79.05 1.1h-.69l-.05-.51h-.03q-.33.59-.96.59-.5 0-.825-.38-.325-.38-.325-1 0-.86.585-1.305.585-.445 1.475-.455v-.15q0-.53-.17-.815-.17-.285-.6-.285-.44 0-.8.25l-.17-.54q.45-.32 1.13-.32 1.38 0 1.38 1.72zm-.75 1.67v-.98q-1.33 0-1.33 1.13 0 .44.175.65.175.21.415.21.26 0 .45-.19t.26-.54q.03-.13.03-.28zm1.84-3.31h2.93v4.84h-.77v-4.2h-1.39v4.2h-.77zm3.99 6.76v-5.25q0-.15-.04-1.51h.69l.04.61h.02q.35-.69 1.02-.69.65 0 1.025.655.375.655.375 1.835 0 1.26-.435 1.885t-1.055.625q-.59 0-.85-.55h-.02v2.39zm.77-4.93v1.24q0 .24.04.4.18.81.7.81.45 0 .65-.52t.2-1.33q0-.82-.21-1.335t-.64-.515q-.26 0-.47.27-.21.27-.24.61-.03.12-.03.37zm6.01.66h-2.24q.01 1.8 1.14 1.8.46 0 .8-.18l.13.56q-.41.23-1.07.23-.85 0-1.3-.645-.45-.645-.45-1.785 0-1.17.45-1.86.45-.69 1.18-.69.69 0 1.035.615t.345 1.515q0 .2-.02.44zm-2.23-.57h1.51q.01-.68-.205-1.04t-.515-.36q-.35 0-.555.425-.205.425-.235.975zm3.32-1.92h2.56v4.84h-.77v-4.21h-1.06v1.54q0 1.16-.16 1.77-.16.61-.65.85-.24.12-.52.12l-.13-.61q.24-.04.4-.22.33-.33.33-1.86zm6.35.03v4.81h-.75v-2.07h-.23q-.46 0-.71.23-.11.1-.2.28-.09.18-.13.33-.04.15-.105.44-.065.29-.105.43-.07.23-.13.36h-.81q.15-.25.22-.5.03-.1.095-.37t.11-.43q.045-.16.135-.365.09-.205.21-.335.23-.25.6-.32v-.02q-.46-.09-.765-.395-.305-.305-.305-.795 0-.63.49-1.01.45-.36 1.34-.36.64 0 1.04.09zm-.75 2.22v-1.74q-.13-.04-.33-.04-.44 0-.73.215t-.29.645q0 .43.315.675.315.245.735.245zm6.29 2.59h-3.12V17l.54-.74q.43-.6.615-.87t.5-.8q.315-.53.445-.975.13-.445.13-.875 0-.55-.235-.855-.235-.305-.685-.305-.42 0-.94.36l-.19-.58q.53-.44 1.27-.44.77 0 1.16.5.39.5.39 1.28 0 .82-.425 1.65t-1.185 1.85l-.43.6v.02h2.16zm2.31.08h-.01q-.76 0-1.19-.87-.43-.87-.43-2.45 0-1.62.45-2.48.45-.86 1.26-.86.78 0 1.19.875.41.875.41 2.445 0 1.69-.465 2.515-.465.825-1.215.825zm.03-.66h.01q.87 0 .87-2.67 0-1.21-.215-1.94t-.655-.73q-.45 0-.675.715-.225.715-.225 1.955-.01 1.23.21 1.95t.68.72zm5.36.58h-3.12V17l.54-.74q.43-.6.615-.87t.5-.8q.315-.53.445-.975.13-.445.13-.875 0-.55-.235-.855-.235-.305-.685-.305-.42 0-.94.36l-.19-.58q.53-.44 1.27-.44.77 0 1.16.5.39.5.39 1.28 0 .82-.425 1.65t-1.185 1.85l-.43.6v.02h2.16zm.69-.22.17-.61q.45.27.94.27.51 0 .815-.35.305-.35.305-.94 0-.63-.36-.99t-.95-.36h-.18v-.58h.15q.41 0 .79-.305.38-.305.38-.855 0-.48-.235-.74t-.625-.26q-.38 0-.81.31l-.16-.58q.45-.37 1.16-.37.67 0 1.055.42.385.42.385 1.07 0 .5-.25.91-.25.41-.72.62v.02q.49.13.815.56.325.43.325 1.15 0 .82-.5 1.365t-1.36.545q-.71 0-1.14-.3zm4.11-4.62h2.26v.65h-1.49v4.19h-.77zm2.75 4.92h-.01q-.21 0-.355-.16t-.145-.42q0-.25.15-.415.15-.165.36-.165.23 0 .37.16.14.16.14.42 0 .27-.135.425-.135.155-.375.155zm2.62-7h.6q-1.04 1.64-1.04 4.07 0 2.39 1.04 4.05h-.6q-1.09-1.59-1.09-4.06.03-2.53 1.09-4.06zm1.39 6.94v-4.84q.53-.1 1.09-.1.33 0 .625.055t.57.18q.275.125.44.37.165.245.165.595 0 .42-.27.73t-.69.42v.02q.54.09.85.405.31.315.31.805 0 .4-.19.69-.19.29-.515.44-.325.15-.67.215-.345.065-.725.065-.51 0-.99-.05zm.76-4.34v1.53h.34q.39 0 .72-.23.33-.23.33-.59 0-.75-1-.75-.15 0-.39.04zm-.01 2.08v1.73q.27.03.39.03.5 0 .84-.205.34-.205.34-.655 0-.45-.365-.675-.365-.225-.875-.225zm3.19-2.6h.75v2.1h.11l1.27-2.1h.85l-1.51 2.18q.85.14 1.18 1.37.28 1 .4 1.29h-.79q-.1-.24-.35-1.13-.14-.53-.385-.79t-.695-.26h-.08v2.18h-.75zm4.12 0h2.56v4.84h-.77v-4.21h-1.06v1.54q0 1.16-.16 1.77-.16.61-.65.85-.24.12-.52.12l-.13-.61q.24-.04.4-.22.33-.33.33-1.86zm3.63 0h.75v2.03h.6q.08-1.05.505-1.58t1.015-.53q.65 0 1.075.645.425.645.425 1.855 0 1.28-.46 1.89-.46.61-1.08.61-.62 0-1.035-.575-.415-.575-.455-1.695h-.59v2.19h-.75zm2.85 4.31h.01q.22 0 .375-.18t.23-.485q.075-.305.11-.605t.035-.62q0-.31-.035-.61t-.115-.605q-.08-.305-.24-.49-.16-.185-.38-.185-.23 0-.39.185t-.235.49q-.075.305-.11.6t-.035.615q0 .75.18 1.32.18.57.6.57zm2.28-4.31h.77v1.85q0 .86.67.86.34 0 .71-.22v-2.49h.77v4.86h-.77v-1.81h-.02q-.38.25-.92.25-.57 0-.89-.34-.32-.34-.32-.99zm4 0h.7v1.66q0 1.43-.07 2.32h.02q.16-.46.72-1.89l.81-2.09h.81v4.84h-.71v-1.6q0-1.16.08-2.36h-.03q-.2.73-.58 1.68-.6 1.5-.96 2.28h-.79zm3.58 0h2.97v.64H289v4.2h-.77v-4.2h-1.1zm6.21 2.49h-2.24q.01 1.8 1.14 1.8.46 0 .8-.18l.13.56q-.41.23-1.07.23-.85 0-1.3-.645-.45-.645-.45-1.785 0-1.17.45-1.86.45-.69 1.18-.69.69 0 1.035.615t.345 1.515q0 .2-.02.44zm-2.23-.57h1.51q.01-.68-.205-1.04t-.515-.36q-.35 0-.555.425-.205.425-.235.975zm3.32-1.92h2.56v4.84h-.77v-4.21h-1.06v1.54q0 1.16-.16 1.77-.16.61-.65.85-.24.12-.52.12l-.13-.61q.24-.04.4-.22.33-.33.33-1.86zm3.63 0h.76v1.71q.07 0 .23-.015t.23-.015q.8 0 1.325.395.525.395.525 1.165 0 .75-.54 1.18-.57.47-1.54.47-.49 0-.99-.08zm.76 2.3v1.97q.24.02.34.02.51 0 .845-.26.335-.26.335-.76t-.34-.745q-.34-.245-.86-.245-.12 0-.32.02zm3.12-2.3h.77v2.05h1.43v-2.05h.77v4.84h-.77v-2.13h-1.43v2.13h-.77zm5.42 4.92h-.01q-.69 0-1.13-.635-.44-.635-.44-1.855 0-1.25.47-1.88.47-.63 1.15-.63.69 0 1.125.635.435.635.435 1.855 0 1.29-.475 1.9-.475.61-1.125.61zm.02-.61h.01q.31 0 .5-.33t.245-.72q.055-.39.055-.84 0-.45-.055-.835-.055-.385-.25-.72-.195-.335-.515-.335-.24 0-.415.185t-.255.49q-.08.305-.115.6t-.035.615q0 .34.035.64t.12.6q.085.3.255.475.17.175.42.175zm2.75 1.73h-.6q1.04-1.64 1.04-4.07 0-2.41-1.04-4.05h.6q1.09 1.55 1.09 4.05-.03 2.49-1.09 4.07zm2.68-1.12h-.01q-.21 0-.355-.16T312.3 17q0-.25.15-.415.15-.165.36-.165.23 0 .37.16.14.16.14.42 0 .27-.135.425-.135.155-.375.155zM3.42 26.74l.13.64q-.34.18-.97.18-1.03 0-1.645-.84t-.615-2.5q0-.95.22-1.665.22-.715.58-1.105t.76-.57q.4-.18.83-.18.58 0 .83.17l-.17.65q-.32-.14-.67-.14-.63 0-1.1.67-.47.67-.47 2.09 0 1.44.445 2.09.445.65 1.145.65.38 0 .7-.14zm.84 2.68v-5.25q0-.15-.04-1.51h.69l.04.61h.02q.35-.69 1.02-.69.65 0 1.025.655.375.655.375 1.835 0 1.26-.435 1.885T5.9 27.58q-.59 0-.85-.55h-.02v2.39zm.77-4.93v1.24q0 .24.04.4.18.81.7.81.45 0 .65-.52t.2-1.33q0-.82-.21-1.335t-.64-.515q-.26 0-.47.27-.21.27-.24.61-.03.12-.03.37zm4.6 3.09h-.01q-.69 0-1.13-.635-.44-.635-.44-1.855 0-1.25.47-1.88.47-.63 1.15-.63.69 0 1.125.635.435.635.435 1.855 0 1.29-.475 1.9-.475.61-1.125.61zm.02-.61h.01q.31 0 .5-.33t.245-.72q.055-.39.055-.84 0-.45-.055-.835-.055-.385-.25-.72-.195-.335-.515-.335-.24 0-.415.185t-.255.49q-.08.305-.115.6t-.035.615q0 .34.035.64t.12.6q.085.3.255.475.17.175.42.175zm2.44-4.31h.75v2.1h.11l1.27-2.1h.85l-1.51 2.18q.85.14 1.18 1.37.28 1 .4 1.29h-.79q-.1-.24-.35-1.13-.14-.53-.385-.79t-.695-.26h-.08v2.18h-.75zm3.67 0h.7v1.66q0 1.43-.07 2.32h.02q.16-.46.72-1.89l.81-2.09h.81v4.84h-.71v-1.6q0-1.16.08-2.36h-.03q-.2.73-.58 1.68-.6 1.5-.96 2.28h-.79zm8.18 1.64v2.1q0 .79.05 1.1h-.69l-.05-.51h-.03q-.33.59-.96.59-.5 0-.825-.38-.325-.38-.325-1 0-.86.585-1.305.585-.445 1.475-.455v-.15q0-.53-.17-.815-.17-.285-.6-.285-.44 0-.8.25l-.17-.54q.45-.32 1.13-.32 1.38 0 1.38 1.72zm-.75 1.67v-.98q-1.33 0-1.33 1.13 0 .44.175.65.175.21.415.21.26 0 .45-.19t.26-.54q.03-.13.03-.28zm1.84-3.31h.75v2.1h.11l1.27-2.1h.85l-1.51 2.18q.85.14 1.18 1.37.28 1 .4 1.29h-.79q-.1-.24-.35-1.13-.14-.53-.385-.79t-.695-.26h-.08v2.18h-.75zm3.67 0h.77v4.2h1.38v-4.2h.77v4.24l.41.01-.04 1.88h-.59l-.05-1.29H28.7zm4.11 0h.7v1.66q0 1.43-.07 2.32h.02q.16-.46.72-1.89l.81-2.09h.81v4.84h-.71v-1.6q0-1.16.08-2.36h-.03q-.2.73-.58 1.68-.6 1.5-.96 2.28h-.79zm4.06 0h.7v1.66q0 1.43-.07 2.32h.02q.16-.46.72-1.89l.81-2.09h.81v4.84h-.71v-1.6q0-1.16.08-2.36h-.03q-.2.73-.58 1.68-.6 1.5-.96 2.28h-.79zm7.88 4.13.11.59q-.31.18-.8.18-.81 0-1.29-.635t-.48-1.815q0-1.08.515-1.8t1.395-.72q.43 0 .68.16l-.15.62q-.26-.13-.55-.13-.55 0-.835.545-.285.545-.285 1.325 0 .85.305 1.33.305.48.835.48.3 0 .55-.13zm3.7.79h-.01q-.76 0-1.19-.87-.43-.87-.43-2.45 0-1.62.45-2.48.45-.86 1.26-.86.78 0 1.19.875.41.875.41 2.445 0 1.69-.465 2.515-.465.825-1.215.825zm.03-.66h.01q.87 0 .87-2.67 0-1.21-.215-1.94t-.655-.73q-.45 0-.675.715-.225.715-.225 1.955-.01 1.23.21 1.95t.68.72zm2.2.36.17-.61q.45.27.94.27.51 0 .815-.35.305-.35.305-.94 0-.63-.36-.99t-.95-.36h-.18v-.58h.15q.41 0 .79-.305.38-.305.38-.855 0-.48-.235-.74t-.625-.26q-.38 0-.81.31l-.16-.58q.45-.37 1.16-.37.67 0 1.055.42.385.42.385 1.07 0 .5-.25.91-.25.41-.72.62v.02q.49.13.815.56.325.43.325 1.15 0 .82-.5 1.365t-1.36.545q-.71 0-1.14-.3zm8.23-2.98v2.1q0 .79.05 1.1h-.69l-.05-.51h-.03q-.33.59-.96.59-.5 0-.825-.38-.325-.38-.325-1 0-.86.585-1.305.585-.445 1.475-.455v-.15q0-.53-.17-.815-.17-.285-.6-.285-.44 0-.8.25l-.17-.54q.45-.32 1.13-.32 1.38 0 1.38 1.72zm-.75 1.67v-.98q-1.33 0-1.33 1.13 0 .44.175.65.175.21.415.21.26 0 .45-.19t.26-.54q.03-.13.03-.28zM60 22.66h2.93v4.84h-.77v-4.2h-1.39v4.2H60zm3.99 6.76v-5.25q0-.15-.04-1.51h.69l.04.61h.02q.35-.69 1.02-.69.65 0 1.025.655.375.655.375 1.835 0 1.26-.435 1.885t-1.055.625q-.59 0-.85-.55h-.02v2.39zm.77-4.93v1.24q0 .24.04.4.18.81.7.81.45 0 .65-.52t.2-1.33q0-.82-.21-1.335t-.64-.515q-.26 0-.47.27-.21.27-.24.61-.03.12-.03.37zm6.01.66h-2.24q.01 1.8 1.14 1.8.46 0 .8-.18l.13.56q-.41.23-1.07.23-.85 0-1.3-.645-.45-.645-.45-1.785 0-1.17.45-1.86.45-.69 1.18-.69.69 0 1.035.615t.345 1.515q0 .2-.02.44zm-2.23-.57h1.51q.01-.68-.205-1.04t-.515-.36q-.35 0-.555.425-.205.425-.235.975zm3.32-1.92h2.56v4.84h-.77v-4.21h-1.06v1.54q0 1.16-.16 1.77-.16.61-.65.85-.24.12-.52.12l-.13-.61q.24-.04.4-.22.33-.33.33-1.86zm6.35.03v4.81h-.75v-2.07h-.23q-.46 0-.71.23-.11.1-.2.28-.09.18-.13.33-.04.15-.105.44-.065.29-.105.43-.07.23-.13.36h-.81q.15-.25.22-.5.03-.1.095-.37t.11-.43q.045-.16.135-.365.09-.205.21-.335.23-.25.6-.32v-.02q-.46-.09-.765-.395-.305-.305-.305-.795 0-.63.49-1.01.45-.36 1.34-.36.64 0 1.04.09zm-.75 2.22v-1.74q-.13-.04-.33-.04-.44 0-.73.215t-.29.645q0 .43.315.675.315.245.735.245zm6.29 2.59h-3.12V27l.54-.74q.43-.6.615-.87t.5-.8q.315-.53.445-.975.13-.445.13-.875 0-.55-.235-.855-.235-.305-.685-.305-.42 0-.94.36l-.19-.58q.53-.44 1.27-.44.77 0 1.16.5.39.5.39 1.28 0 .82-.425 1.65T82.02 26.2l-.43.6v.02h2.16zm2.31.08h-.01q-.76 0-1.19-.87-.43-.87-.43-2.45 0-1.62.45-2.48.45-.86 1.26-.86.78 0 1.19.875.41.875.41 2.445 0 1.69-.465 2.515-.465.825-1.215.825zm.03-.66h.01q.87 0 .87-2.67 0-1.21-.215-1.94t-.655-.73q-.45 0-.675.715-.225.715-.225 1.955-.01 1.23.21 1.95t.68.72zm5.36.58h-3.12V27l.54-.74q.43-.6.615-.87t.5-.8q.315-.53.445-.975.13-.445.13-.875 0-.55-.235-.855-.235-.305-.685-.305-.42 0-.94.36l-.19-.58q.53-.44 1.27-.44.77 0 1.16.5.39.5.39 1.28 0 .82-.425 1.65T89.72 26.2l-.43.6v.02h2.16zm.69-.22.17-.61q.45.27.94.27.51 0 .815-.35.305-.35.305-.94 0-.63-.36-.99t-.95-.36h-.18v-.58h.15q.41 0 .79-.305.38-.305.38-.855 0-.48-.235-.74t-.625-.26q-.38 0-.81.31l-.16-.58q.45-.37 1.16-.37.67 0 1.055.42.385.42.385 1.07 0 .5-.25.91-.25.41-.72.62v.02q.49.13.815.56.325.43.325 1.15 0 .82-.5 1.365t-1.36.545q-.71 0-1.14-.3zm4.11-4.62h2.26v.65h-1.49v4.19h-.77zM99 27.58h-.01q-.21 0-.355-.16T98.49 27q0-.25.15-.415.15-.165.36-.165.23 0 .37.16.14.16.14.42 0 .27-.135.425-.135.155-.375.155zm3.05-4.92h2.93v4.84h-.77v-4.2h-1.39v4.2h-.77zm5.37 4.92h-.01q-.69 0-1.13-.635-.44-.635-.44-1.855 0-1.25.47-1.88.47-.63 1.15-.63.69 0 1.125.635.435.635.435 1.855 0 1.29-.475 1.9-.475.61-1.125.61zm.02-.61h.01q.31 0 .5-.33t.245-.72q.055-.39.055-.84 0-.45-.055-.835-.055-.385-.25-.72-.195-.335-.515-.335-.24 0-.415.185t-.255.49q-.08.305-.115.6t-.035.615q0 .34.035.64t.12.6q.085.3.255.475.17.175.42.175zm5.35.53v-5.72h-.02l-1.08.62-.15-.6 1.37-.8h.63v6.5zm5.16-6.58v.65q-.19 0-.46.06-1.35.34-1.67 2.35h.03q.42-.62 1.1-.62.62 0 1.01.54t.39 1.46q0 .96-.425 1.59-.425.63-1.175.63-.83 0-1.27-.74-.44-.74-.44-1.91 0-1.78.84-2.93.28-.4.705-.665.425-.265.875-.355.16-.03.49-.06zm-1.2 6.06h.01q.35 0 .585-.385t.235-1.175q0-.72-.235-1.095t-.635-.375q-.58 0-.85.7-.05.15-.05.39.01.96.265 1.45t.675.49zm6.52-2.68v2.1q0 .79.05 1.1h-.69l-.05-.51h-.03q-.33.59-.96.59-.5 0-.825-.38-.325-.38-.325-1 0-.86.585-1.305.585-.445 1.475-.455v-.15q0-.53-.17-.815-.17-.285-.6-.285-.44 0-.8.25l-.17-.54q.45-.32 1.13-.32 1.38 0 1.38 1.72zm-.75 1.67v-.98q-1.33 0-1.33 1.13 0 .44.175.65.175.21.415.21.26 0 .45-.19t.26-.54q.03-.13.03-.28zm1.84-3.31h2.93v4.84h-.77v-4.2h-1.39v4.2h-.77zm3.99 6.76v-5.25q0-.15-.04-1.51h.69l.04.61h.02q.35-.69 1.02-.69.65 0 1.025.655.375.655.375 1.835 0 1.26-.435 1.885t-1.055.625q-.59 0-.85-.55h-.02v2.39zm.77-4.93v1.24q0 .24.04.4.18.81.7.81.45 0 .65-.52t.2-1.33q0-.82-.21-1.335t-.64-.515q-.26 0-.47.27-.21.27-.24.61-.03.12-.03.37zm6.01.66h-2.24q.01 1.8 1.14 1.8.46 0 .8-.18l.13.56q-.41.23-1.07.23-.85 0-1.3-.645-.45-.645-.45-1.785 0-1.17.45-1.86.45-.69 1.18-.69.69 0 1.035.615t.345 1.515q0 .2-.02.44zm-2.23-.57h1.51q.01-.68-.205-1.04t-.515-.36q-.35 0-.555.425-.205.425-.235.975zm3.32-1.92h2.56v4.84h-.77v-4.21h-1.06v1.54q0 1.16-.16 1.77-.16.61-.65.85-.24.12-.52.12l-.13-.61q.24-.04.4-.22.33-.33.33-1.86zm6.35.03v4.81h-.75v-2.07h-.23q-.46 0-.71.23-.11.1-.2.28-.09.18-.13.33-.04.15-.105.44-.065.29-.105.43-.07.23-.13.36h-.81q.15-.25.22-.5.03-.1.095-.37t.11-.43q.045-.16.135-.365.09-.205.21-.335.23-.25.6-.32v-.02q-.46-.09-.765-.395-.305-.305-.305-.795 0-.63.49-1.01.45-.36 1.34-.36.64 0 1.04.09zm-.75 2.22v-1.74q-.13-.04-.33-.04-.44 0-.73.215t-.29.645q0 .43.315.675.315.245.735.245zm6.29 2.59h-3.12V27l.54-.74q.43-.6.615-.87t.5-.8q.315-.53.445-.975.13-.445.13-.875 0-.55-.235-.855-.235-.305-.685-.305-.42 0-.94.36l-.19-.58q.53-.44 1.27-.44.77 0 1.16.5.39.5.39 1.28 0 .82-.425 1.65t-1.185 1.85l-.43.6v.02h2.16zm2.31.08h-.01q-.76 0-1.19-.87-.43-.87-.43-2.45 0-1.62.45-2.48.45-.86 1.26-.86.78 0 1.19.875.41.875.41 2.445 0 1.69-.465 2.515-.465.825-1.215.825zm.03-.66h.01q.87 0 .87-2.67 0-1.21-.215-1.94t-.655-.73q-.45 0-.675.715-.225.715-.225 1.955-.01 1.23.21 1.95t.68.72zm5.36.58h-3.12V27l.54-.74q.43-.6.615-.87t.5-.8q.315-.53.445-.975.13-.445.13-.875 0-.55-.235-.855-.235-.305-.685-.305-.42 0-.94.36l-.19-.58q.53-.44 1.27-.44.77 0 1.16.5.39.5.39 1.28 0 .82-.425 1.65t-1.185 1.85l-.43.6v.02h2.16zm.69-.22.17-.61q.45.27.94.27.51 0 .815-.35.305-.35.305-.94 0-.63-.36-.99t-.95-.36h-.18v-.58h.15q.41 0 .79-.305.38-.305.38-.855 0-.48-.235-.74t-.625-.26q-.38 0-.81.31l-.16-.58q.45-.37 1.16-.37.67 0 1.055.42.385.42.385 1.07 0 .5-.25.91-.25.41-.72.62v.02q.49.13.815.56.325.43.325 1.15 0 .82-.5 1.365t-1.36.545q-.71 0-1.14-.3zm4.11-4.62h2.26v.65h-1.49v4.19h-.77zm2.75 4.92h-.01q-.21 0-.355-.16t-.145-.42q0-.25.15-.415.15-.165.36-.165.23 0 .37.16.14.16.14.42 0 .27-.135.425-.135.155-.375.155zm1.64 1.11-.53.07q.4-1.12.58-2.33l.87-.1q-.18.63-.45 1.335T165 28.69zm3.35-6.03h.77v2.05h1.43v-2.05h.77v4.84h-.77v-2.13h-1.43v2.13h-.77zm6.83 2.49h-2.24q.01 1.8 1.14 1.8.46 0 .8-.18l.13.56q-.41.23-1.07.23-.85 0-1.3-.645-.45-.645-.45-1.785 0-1.17.45-1.86.45-.69 1.18-.69.69 0 1.035.615t.345 1.515q0 .2-.02.44zm-2.23-.57h1.51q.01-.68-.205-1.04t-.515-.36q-.35 0-.555.425-.205.425-.235.975zm4.65 2.94v-4.84q.53-.1 1.09-.1.33 0 .625.055t.57.18q.275.125.44.37.165.245.165.595 0 .42-.27.73t-.69.42v.02q.54.09.85.405.31.315.31.805 0 .4-.19.69-.19.29-.515.44-.325.15-.67.215-.345.065-.725.065-.51 0-.99-.05zm.76-4.34v1.53h.34q.39 0 .72-.23.33-.23.33-.59 0-.75-1-.75-.15 0-.39.04zm-.01 2.08v1.73q.27.03.39.03.5 0 .84-.205.34-.205.34-.655 0-.45-.365-.675-.365-.225-.875-.225zm3.19-2.6h.75v2.1h.11l1.27-2.1h.85l-1.51 2.18q.85.14 1.18 1.37.28 1 .4 1.29h-.79q-.1-.24-.35-1.13-.14-.53-.385-.79t-.695-.26h-.08v2.18h-.75zm4.12 0h2.56v4.84h-.77v-4.21h-1.06v1.54q0 1.16-.16 1.77-.16.61-.65.85-.24.12-.52.12l-.13-.61q.24-.04.4-.22.33-.33.33-1.86zm3.63 0h.75v2.03h.6q.08-1.05.505-1.58t1.015-.53q.65 0 1.075.645.425.645.425 1.855 0 1.28-.46 1.89-.46.61-1.08.61-.62 0-1.035-.575-.415-.575-.455-1.695h-.59v2.19h-.75zm2.85 4.31h.01q.22 0 .375-.18t.23-.485q.075-.305.11-.605t.035-.62q0-.31-.035-.61t-.115-.605q-.08-.305-.24-.49-.16-.185-.38-.185-.23 0-.39.185t-.235.49q-.075.305-.11.6t-.035.615q0 .75.18 1.32.18.57.6.57zm2.28-4.31h.77v1.85q0 .86.67.86.34 0 .71-.22v-2.49h.77v4.86h-.77v-1.81h-.02q-.38.25-.92.25-.57 0-.89-.34-.32-.34-.32-.99zm6.55 1.64v2.1q0 .79.05 1.1h-.69l-.05-.51h-.03q-.33.59-.96.59-.5 0-.825-.38-.325-.38-.325-1 0-.86.585-1.305.585-.445 1.475-.455v-.15q0-.53-.17-.815-.17-.285-.6-.285-.44 0-.8.25l-.17-.54q.45-.32 1.13-.32 1.38 0 1.38 1.72zm-.75 1.67v-.98q-1.33 0-1.33 1.13 0 .44.175.65.175.21.415.21.26 0 .45-.19t.26-.54q.03-.13.03-.28zm4.56-3.28v4.81h-.75v-2.07h-.23q-.46 0-.71.23-.11.1-.2.28-.09.18-.13.33-.04.15-.105.44-.065.29-.105.43-.07.23-.13.36h-.81q.15-.25.22-.5.03-.1.095-.37t.11-.43q.045-.16.135-.365.09-.205.21-.335.23-.25.6-.32v-.02q-.46-.09-.765-.395-.305-.305-.305-.795 0-.63.49-1.01.45-.36 1.34-.36.64 0 1.04.09zm-.75 2.22v-1.74q-.13-.04-.33-.04-.44 0-.73.215t-.29.645q0 .43.315.675.315.245.735.245zm5.64 1.88.11.59q-.31.18-.8.18-.81 0-1.29-.635t-.48-1.815q0-1.08.515-1.8t1.395-.72q.43 0 .68.16l-.15.62q-.26-.13-.55-.13-.55 0-.835.545-.285.545-.285 1.325 0 .85.305 1.33.305.48.835.48.3 0 .55-.13zm.76 2.63v-5.25q0-.15-.04-1.51h.69l.04.61h.02q.35-.69 1.02-.69.65 0 1.025.655.375.655.375 1.835 0 1.26-.435 1.885t-1.055.625q-.59 0-.85-.55h-.02v2.39zm.77-4.93v1.24q0 .24.04.4.18.81.7.81.45 0 .65-.52t.2-1.33q0-.82-.21-1.335t-.64-.515q-.26 0-.47.27-.21.27-.24.61-.03.12-.03.37zm4.6 3.09h-.01q-.69 0-1.13-.635-.44-.635-.44-1.855 0-1.25.47-1.88.47-.63 1.15-.63.69 0 1.125.635.435.635.435 1.855 0 1.29-.475 1.9-.475.61-1.125.61zm.02-.61h.01q.31 0 .5-.33t.245-.72q.055-.39.055-.84 0-.45-.055-.835-.055-.385-.25-.72-.195-.335-.515-.335-.24 0-.415.185t-.255.49q-.08.305-.115.6t-.035.615q0 .34.035.64t.12.6q.085.3.255.475.17.175.42.175zm2.44-4.31h.75v2.1h.11l1.27-2.1h.85l-1.51 2.18q.85.14 1.18 1.37.28 1 .4 1.29h-.79q-.1-.24-.35-1.13-.14-.53-.385-.79t-.695-.26h-.08v2.18h-.75zm5.24 0h2.93v4.84h-.77v-4.2h-1.39v4.2h-.77zm3.99 6.76v-5.25q0-.15-.04-1.51h.69l.04.61h.02q.35-.69 1.02-.69.65 0 1.025.655.375.655.375 1.835 0 1.26-.435 1.885t-1.055.625q-.59 0-.85-.55h-.02v2.39zm.77-4.93v1.24q0 .24.04.4.18.81.7.81.45 0 .65-.52t.2-1.33q0-.82-.21-1.335t-.64-.515q-.26 0-.47.27-.21.27-.24.61-.03.12-.03.37zm6.01.66h-2.24q.01 1.8 1.14 1.8.46 0 .8-.18l.13.56q-.41.23-1.07.23-.85 0-1.3-.645-.45-.645-.45-1.785 0-1.17.45-1.86.45-.69 1.18-.69.69 0 1.035.615t.345 1.515q0 .2-.02.44zm-2.23-.57h1.51q.01-.68-.205-1.04t-.515-.36q-.35 0-.555.425-.205.425-.235.975zm3.6-1.92h2.46v4.24l.41.01-.04 1.88h-.59l-.05-1.29h-2.51l-.05 1.29h-.59l-.04-1.88.32-.01q.31-.47.46-1.03.22-.81.22-1.8zm.68.62v.71q0 1.19-.21 1.92-.15.57-.38.98h1.61v-3.61zm4.29 4.3h-.01q-.69 0-1.13-.635-.44-.635-.44-1.855 0-1.25.47-1.88.47-.63 1.15-.63.69 0 1.125.635.435.635.435 1.855 0 1.29-.475 1.9-.475.61-1.125.61zm.02-.61h.01q.31 0 .5-.33t.245-.72q.055-.39.055-.84 0-.45-.055-.835-.055-.385-.25-.72-.195-.335-.515-.335-.24 0-.415.185t-.255.49q-.08.305-.115.6t-.035.615q0 .34.035.64t.12.6q.085.3.255.475.17.175.42.175zm4.69-.18.11.59q-.31.18-.8.18-.81 0-1.29-.635t-.48-1.815q0-1.08.515-1.8t1.395-.72q.43 0 .68.16l-.15.62q-.26-.13-.55-.13-.55 0-.835.545-.285.545-.285 1.325 0 .85.305 1.33.305.48.835.48.3 0 .55-.13zm.57-4.13h2.97v.64h-1.1v4.2h-.77v-4.2h-1.1zm6.01 1.64v2.1q0 .79.05 1.1h-.69l-.05-.51h-.03q-.33.59-.96.59-.5 0-.825-.38-.325-.38-.325-1 0-.86.585-1.305.585-.445 1.475-.455v-.15q0-.53-.17-.815-.17-.285-.6-.285-.44 0-.8.25l-.17-.54q.45-.32 1.13-.32 1.38 0 1.38 1.72zm-.75 1.67v-.98q-1.33 0-1.33 1.13 0 .44.175.65.175.21.415.21.26 0 .45-.19t.26-.54q.03-.13.03-.28zm1.84 1.55v-4.84q.53-.1 1.09-.1.33 0 .625.055t.57.18q.275.125.44.37.165.245.165.595 0 .42-.27.73t-.69.42v.02q.54.09.85.405.31.315.31.805 0 .4-.19.69-.19.29-.515.44-.325.15-.67.215-.345.065-.725.065-.51 0-.99-.05zm.76-4.34v1.53h.34q.39 0 .72-.23.33-.23.33-.59 0-.75-1-.75-.15 0-.39.04zm-.01 2.08v1.73q.27.03.39.03.5 0 .84-.205.34-.205.34-.655 0-.45-.365-.675-.365-.225-.875-.225zm3.39-2.6h2.56v4.84h-.77v-4.21h-1.06v1.54q0 1.16-.16 1.77-.16.61-.65.85-.24.12-.52.12l-.13-.61q.24-.04.4-.22.33-.33.33-1.86zm6.41 2.49h-2.24q.01 1.8 1.14 1.8.46 0 .8-.18l.13.56q-.41.23-1.07.23-.85 0-1.3-.645-.45-.645-.45-1.785 0-1.17.45-1.86.45-.69 1.18-.69.69 0 1.035.615t.345 1.515q0 .2-.02.44zm-2.23-.57h1.51q.01-.68-.205-1.04t-.515-.36q-.35 0-.555.425-.205.425-.235.975zm3.08-1.92h.77v2.05h1.43v-2.05h.77v4.84h-.77v-2.13h-1.43v2.13h-.77zm4.05 0h.7v1.66q0 1.43-.07 2.32h.02q.16-.46.72-1.89l.81-2.09h.81v4.84h-.71v-1.6q0-1.16.08-2.36h-.03q-.2.73-.58 1.68-.6 1.5-.96 2.28h-.79zm6.78.03v4.81h-.75v-2.07h-.23q-.46 0-.71.23-.11.1-.2.28-.09.18-.13.33-.04.15-.105.44-.065.29-.105.43-.07.23-.13.36h-.81q.15-.25.22-.5.03-.1.095-.37t.11-.43q.045-.16.135-.365.09-.205.21-.335.23-.25.6-.32v-.02q-.46-.09-.765-.395-.305-.305-.305-.795 0-.63.49-1.01.45-.36 1.34-.36.64 0 1.04.09zm-.75 2.22v-1.74q-.13-.04-.33-.04-.44 0-.73.215t-.29.645q0 .43.315.675.315.245.735.245zm3.46-4.15h2.84v.67h-2.08v2.02q.24-.04.51-.04.89 0 1.44.53.57.54.57 1.47 0 .91-.49 1.46-.58.67-1.79.67-.63 0-1-.07zm.76 3.32v2.81q.19.03.39.03.65 0 1.03-.46.3-.41.3-1 0-.6-.35-1-.38-.41-.99-.41-.17 0-.38.03zm4.72 3.5h-.01q-.69 0-1.13-.635-.44-.635-.44-1.855 0-1.25.47-1.88.47-.63 1.15-.63.69 0 1.125.635.435.635.435 1.855 0 1.29-.475 1.9-.475.61-1.125.61zm.02-.61h.01q.31 0 .5-.33t.245-.72q.055-.39.055-.84 0-.45-.055-.835-.055-.385-.25-.72-.195-.335-.515-.335-.24 0-.415.185t-.255.49q-.08.305-.115.6t-.035.615q0 .34.035.64t.12.6q.085.3.255.475.17.175.42.175zm2.44-4.31h.77v2.05h1.43v-2.05h.77v4.84h-.77v-2.13h-1.43v2.13h-.77zm3.57 0h.81l.64 2.78q.05.21.11.54.06.33.09.46h.02q.06-.33.21-.99l.57-2.79h.76l-.79 3.11q-.57 2.3-1.2 3.12-.4.51-.87.73l-.28-.65q.38-.22.68-.61.29-.38.44-.82.05-.14.05-.24 0-.12-.02-.18zm6.02 4.13.11.59q-.31.18-.8.18-.81 0-1.29-.635T293 25.11q0-1.08.515-1.8t1.395-.72q.43 0 .68.16l-.15.62q-.26-.13-.55-.13-.55 0-.835.545-.285.545-.285 1.325 0 .85.305 1.33.305.48.835.48.3 0 .55-.13zm3.38-2.49v2.1q0 .79.05 1.1h-.69l-.05-.51h-.03q-.33.59-.96.59-.5 0-.825-.38-.325-.38-.325-1 0-.86.585-1.305.585-.445 1.475-.455v-.15q0-.53-.17-.815-.17-.285-.6-.285-.44 0-.8.25l-.17-.54q.45-.32 1.13-.32 1.38 0 1.38 1.72zm-.75 1.67v-.98q-1.33 0-1.33 1.13 0 .44.175.65.175.21.415.21.26 0 .45-.19t.26-.54q.03-.13.03-.28zm2.3 1.61h-.01q-.21 0-.355-.16t-.145-.42q0-.25.15-.415.15-.165.36-.165.23 0 .37.16.14.16.14.42 0 .27-.135.425-.135.155-.375.155zM.6 30.76h3.38v6.74h-.77v-6.07H1.37v6.07H.6zm5.89 6.82h-.01q-.69 0-1.13-.635-.44-.635-.44-1.855 0-1.25.47-1.88.47-.63 1.15-.63.69 0 1.125.635.435.635.435 1.855 0 1.29-.475 1.9-.475.61-1.125.61zm.02-.61h.01q.31 0 .5-.33t.245-.72q.055-.39.055-.84 0-.45-.055-.835-.055-.385-.25-.72-.195-.335-.515-.335-.24 0-.415.185t-.255.49q-.08.305-.115.6t-.035.615q0 .34.035.64t.12.6q.085.3.255.475.17.175.42.175zm2.86-4.31h2.46v4.24l.41.01-.04 1.88h-.59l-.05-1.29H9.05L9 38.79h-.59l-.04-1.88.32-.01q.31-.47.46-1.03.22-.81.22-1.8zm.68.62v.71q0 1.19-.21 1.92-.15.57-.38.98h1.61v-3.61zm2.96 6.14v-5.25q0-.15-.04-1.51h.69l.04.61h.02q.35-.69 1.02-.69.65 0 1.025.655.375.655.375 1.835 0 1.26-.435 1.885t-1.055.625q-.59 0-.85-.55h-.02v2.39zm.77-4.93v1.24q0 .24.04.4.18.81.7.81.45 0 .65-.52t.2-1.33q0-.82-.21-1.335t-.64-.515q-.26 0-.47.27-.21.27-.24.61-.03.12-.03.37zm4.6 3.09h-.01q-.69 0-1.13-.635-.44-.635-.44-1.855 0-1.25.47-1.88.47-.63 1.15-.63.69 0 1.125.635.435.635.435 1.855 0 1.29-.475 1.9-.475.61-1.125.61zm.02-.61h.01q.31 0 .5-.33t.245-.72q.055-.39.055-.84 0-.45-.055-.835-.055-.385-.25-.72-.195-.335-.515-.335-.24 0-.415.185t-.255.49q-.08.305-.115.6t-.035.615q0 .34.035.64t.12.6q.085.3.255.475.17.175.42.175zm5.14-6.47-.04.67q-.11.05-.43.125t-.45.115q-.7.14-1.01.79-.23.53-.3 1.26h.03q.12-.34.42-.57.3-.23.68-.23.64 0 1.025.58.385.58.385 1.8 0 1.25-.415 1.9-.415.65-1.155.65-.47 0-.805-.275-.335-.275-.5-.74-.165-.465-.235-.935-.07-.47-.07-1.01 0-1.87.46-2.76.42-.87 1.35-1.11.1-.03.51-.115.41-.085.55-.145zm-.46 4.61v-.01q0-.3-.035-.58-.035-.28-.115-.58-.08-.3-.255-.48t-.415-.18q-.47 0-.69.54-.16.42-.16 1.03 0 .28.03.58.03.3.11.675.08.375.265.615t.455.24q.25 0 .42-.19.17-.19.25-.5.08-.31.11-.585.03-.275.03-.575zm1.64-2.45h.77v2.05h1.43v-2.05h.77v4.84h-.77v-2.13h-1.43v2.13h-.77zm6.83 2.49h-2.24q.01 1.8 1.14 1.8.46 0 .8-.18l.13.56q-.41.23-1.07.23-.85 0-1.3-.645-.45-.645-.45-1.785 0-1.17.45-1.86.45-.69 1.18-.69.69 0 1.035.615t.345 1.515q0 .2-.02.44zm-2.23-.57h1.51q.01-.68-.205-1.04t-.515-.36q-.35 0-.555.425-.205.425-.235.975zm5.86.57h-2.24q.01 1.8 1.14 1.8.46 0 .8-.18l.13.56q-.41.23-1.07.23-.85 0-1.3-.645-.45-.645-.45-1.785 0-1.17.45-1.86.45-.69 1.18-.69.69 0 1.035.615t.345 1.515q0 .2-.02.44zm-2.23-.57h1.51q.01-.68-.205-1.04t-.515-.36q-.35 0-.555.425-.205.425-.235.975zm4.65-1.92h.77v2.05h1.43v-2.05h.77v4.84h-.77v-2.13h-1.43v2.13h-.77zm6.6 1.64v2.1q0 .79.05 1.1h-.69l-.05-.51h-.03q-.33.59-.96.59-.5 0-.825-.38-.325-.38-.325-1 0-.86.585-1.305.585-.445 1.475-.455v-.15q0-.53-.17-.815-.17-.285-.6-.285-.44 0-.8.25l-.17-.54q.45-.32 1.13-.32 1.38 0 1.38 1.72zm-.75 1.67v-.98q-1.33 0-1.33 1.13 0 .44.175.65.175.21.415.21.26 0 .45-.19t.26-.54q.03-.13.03-.28zm3.58-4.13.77-.31v1.13h.93v.58h-.93v2.88q0 .8.5.8.19 0 .31-.03l.04.59q-.22.08-.57.08-.51 0-.76-.29-.29-.32-.29-1.22v-2.81h-.59v-.58h.59zm3.15 5.66h-.77v-4.84h.77zm-.4-5.59h-.01q-.19 0-.315-.14t-.125-.36q0-.22.13-.36.13-.14.32-.14.21 0 .335.135.125.135.125.365 0 .23-.125.365-.125.135-.335.135zm1.47 5.59v-3.59q0-.33-.02-.75t-.02-.5h.67l.04.58h.02q.36-.66 1.11-.66.53 0 .85.41.32.41.32 1.26v3.25h-.77v-3.12q0-1.15-.67-1.15-.25 0-.455.205-.205.205-.265.585-.04.15-.04.43v3.05zm4.81-6.92v4.33h.02q.23-.49.26-.54l.96-1.71h.83l-1.28 2.04 1.4 2.8h-.86l-1.05-2.28-.28.45v1.83h-.77v-6.92zm4 7h-.01q-.69 0-1.13-.635-.44-.635-.44-1.855 0-1.25.47-1.88.47-.63 1.15-.63.69 0 1.125.635.435.635.435 1.855 0 1.29-.475 1.9-.475.61-1.125.61zm.02-.61h.01q.31 0 .5-.33t.245-.72q.055-.39.055-.84 0-.45-.055-.835-.055-.385-.25-.72-.195-.335-.515-.335-.24 0-.415.185t-.255.49q-.08.305-.115.6t-.035.615q0 .34.035.64t.12.6q.085.3.255.475.17.175.42.175zm5.6.53h-.77v-4.26h-1.46v4.26h-.77v-4.26h-.61v-.58h.61v-.24q0-.95.44-1.42.36-.38 1-.38.28 0 .5.09l-.14.61q-.16-.07-.37-.07-.36 0-.51.29-.15.29-.15.87v.25h1.46v-.3q0-.97.43-1.45.37-.41.97-.41.36 0 .6.12l-.12.6q-.2-.08-.43-.08-.68 0-.68 1.21v.31h.88v.58h-.88zm1.46.08h-.01q-.21 0-.355-.16T66.63 37q0-.25.15-.415.15-.165.36-.165.23 0 .37.16.14.16.14.42 0 .27-.135.425-.135.155-.375.155zm1.47-.08v-3.59q0-.24-.02-.715t-.02-.535h.69l.04.76h.02q.12-.36.405-.6.285-.24.615-.24.11 0 .16.01v.79q-.05-.01-.16-.01-.36 0-.615.29t-.315.72q-.03.2-.03.44v2.68zM74 32.66v3.52q0 .32.02.815l.02.505h-.67l-.06-.51h-.02q-.13.22-.405.405-.275.185-.625.185-1.18 0-1.18-1.86v-3.06h.77v2.95q0 .63.14.975t.51.345q.3 0 .475-.21t.215-.44q.04-.17.04-.43v-3.19zm1.47 4.92h-.01q-.21 0-.355-.16T74.96 37q0-.25.15-.415.15-.165.36-.165.23 0 .37.16.14.16.14.42 0 .27-.135.425-.135.155-.375.155zm3.11-.08v-6.64q.5-.13 1.12-.13 1 0 1.5.49.49.49.49 1.4 0 .84-.41 1.38-.26.36-.69.555-.43.195-.9.195-.23 0-.34-.01v2.76zm.77-6.09v2.69q.18.02.31.02.58 0 .92-.375.34-.375.34-1.075 0-.58-.27-.945t-.87-.365q-.26 0-.43.05zm5.69 3.74H82.8q.01 1.8 1.14 1.8.46 0 .8-.18l.13.56q-.41.23-1.07.23-.85 0-1.3-.645-.45-.645-.45-1.785 0-1.17.45-1.86.45-.69 1.18-.69.69 0 1.035.615t.345 1.515q0 .2-.02.44zm-2.23-.57h1.51q.01-.68-.205-1.04t-.515-.36q-.35 0-.555.425-.205.425-.235.975zm3.08-1.92h.75v2.1h.11l1.27-2.1h.85l-1.51 2.18q.85.14 1.18 1.37.28 1 .4 1.29h-.79q-.1-.24-.35-1.13-.14-.53-.385-.79t-.695-.26h-.08v2.18h-.75zm4.12 0h2.56v4.84h-.77v-4.21h-1.06v1.54q0 1.16-.16 1.77-.16.61-.65.85-.24.12-.52.12l-.13-.61q.24-.04.4-.22.33-.33.33-1.86zm6.18 1.64v2.1q0 .79.05 1.1h-.69l-.05-.51h-.03q-.33.59-.96.59-.5 0-.825-.38-.325-.38-.325-1 0-.86.585-1.305.585-.445 1.475-.455v-.15q0-.53-.17-.815-.17-.285-.6-.285-.44 0-.8.25l-.17-.54q.45-.32 1.13-.32 1.38 0 1.38 1.72zm-.75 1.67v-.98q-1.33 0-1.33 1.13 0 .44.175.65.175.21.415.21.26 0 .45-.19t.26-.54q.03-.13.03-.28zm1.68 1.53.34-4.84h.9l.64 2.12q.24.82.43 1.55h.02q.25-.99.41-1.55l.62-2.12h.92l.33 4.84h-.72l-.1-2.08q-.05-1.03-.07-2.04h-.02q-.25 1.05-.48 1.86l-.66 2.23h-.56l-.63-2.15q-.26-.93-.49-1.94h-.03q0 .7-.06 2.08l-.09 2.04zm8.09-3.2v2.1q0 .79.05 1.1h-.69l-.05-.51h-.03q-.33.59-.96.59-.5 0-.825-.38-.325-.38-.325-1 0-.86.585-1.305.585-.445 1.475-.455v-.15q0-.53-.17-.815-.17-.285-.6-.285-.44 0-.8.25l-.17-.54q.45-.32 1.13-.32 1.38 0 1.38 1.72zm-.75 1.67v-.98q-1.33 0-1.33 1.13 0 .44.175.65.175.21.415.21.26 0 .45-.19t.26-.54q.03-.13.03-.28zm2.3 1.61h-.01q-.21 0-.355-.16t-.145-.42q0-.25.15-.415.15-.165.36-.165.23 0 .37.16.14.16.14.42 0 .27-.135.425-.135.155-.375.155zm3.11-.08v-6.64q.5-.13 1.12-.13 1 0 1.5.49.49.49.49 1.4 0 .84-.41 1.38-.26.36-.69.555-.43.195-.9.195-.23 0-.34-.01v2.76zm.77-6.09v2.69q.18.02.31.02.58 0 .92-.375.34-.375.34-1.075 0-.58-.27-.945t-.87-.365q-.26 0-.43.05zm5.69 3.74h-2.24q.01 1.8 1.14 1.8.46 0 .8-.18l.13.56q-.41.23-1.07.23-.85 0-1.3-.645-.45-.645-.45-1.785 0-1.17.45-1.86.45-.69 1.18-.69.69 0 1.035.615t.345 1.515q0 .2-.02.44zm-2.23-.57h1.51q.01-.68-.205-1.04t-.515-.36q-.35 0-.555.425-.205.425-.235.975zm3.08-1.92h.75v2.1h.11l1.27-2.1h.85l-1.51 2.18q.85.14 1.18 1.37.28 1 .4 1.29h-.79q-.1-.24-.35-1.13-.14-.53-.385-.79t-.695-.26h-.08v2.18h-.75zm4.12 0h2.56v4.84h-.77v-4.21h-1.06v1.54q0 1.16-.16 1.77-.16.61-.65.85-.24.12-.52.12l-.13-.61q.24-.04.4-.22.33-.33.33-1.86zm6.18 1.64v2.1q0 .79.05 1.1h-.69l-.05-.51h-.03q-.33.59-.96.59-.5 0-.825-.38-.325-.38-.325-1 0-.86.585-1.305.585-.445 1.475-.455v-.15q0-.53-.17-.815-.17-.285-.6-.285-.44 0-.8.25l-.17-.54q.45-.32 1.13-.32 1.38 0 1.38 1.72zm-.75 1.67v-.98q-1.33 0-1.33 1.13 0 .44.175.65.175.21.415.21.26 0 .45-.19t.26-.54q.03-.13.03-.28zm1.68 1.53.34-4.84h.9l.64 2.12q.24.82.43 1.55h.02q.25-.99.41-1.55l.62-2.12h.92l.33 4.84h-.72l-.1-2.08q-.05-1.03-.07-2.04h-.02q-.25 1.05-.48 1.86l-.66 2.23h-.56l-.63-2.15q-.26-.93-.49-1.94h-.03q0 .7-.06 2.08l-.09 2.04zm6.87.08h-.01q-.69 0-1.13-.635-.44-.635-.44-1.855 0-1.25.47-1.88.47-.63 1.15-.63.69 0 1.125.635.435.635.435 1.855 0 1.29-.475 1.9-.475.61-1.125.61zm.02-.61h.01q.31 0 .5-.33t.245-.72q.055-.39.055-.84 0-.45-.055-.835-.055-.385-.25-.72-.195-.335-.515-.335-.24 0-.415.185t-.255.49q-.08.305-.115.6t-.035.615q0 .34.035.64t.12.6q.085.3.255.475.17.175.42.175zm2.86-4.31h2.46v4.24l.41.01-.04 1.88h-.59l-.05-1.29h-2.51l-.05 1.29h-.59l-.04-1.88.32-.01q.31-.47.46-1.03.22-.81.22-1.8zm.68.62v.71q0 1.19-.21 1.92-.15.57-.38.98h1.61v-3.61zm5.56 1.02v2.1q0 .79.05 1.1h-.69l-.05-.51h-.03q-.33.59-.96.59-.5 0-.825-.38-.325-.38-.325-1 0-.86.585-1.305.585-.445 1.475-.455v-.15q0-.53-.17-.815-.17-.285-.6-.285-.44 0-.8.25l-.17-.54q.45-.32 1.13-.32 1.38 0 1.38 1.72zm-.75 1.67v-.98q-1.33 0-1.33 1.13 0 .44.175.65.175.21.415.21.26 0 .45-.19t.26-.54q.03-.13.03-.28zm1.31-3.31h2.97v.64h-1.1v4.2h-.77v-4.2h-1.1zm6.21 2.49h-2.24q.01 1.8 1.14 1.8.46 0 .8-.18l.13.56q-.41.23-1.07.23-.85 0-1.3-.645-.45-.645-.45-1.785 0-1.17.45-1.86.45-.69 1.18-.69.69 0 1.035.615t.345 1.515q0 .2-.02.44zm-2.23-.57h1.51q.01-.68-.205-1.04t-.515-.36q-.35 0-.555.425-.205.425-.235.975zm3.32-1.92h2.56v4.84h-.77v-4.21h-1.06v1.54q0 1.16-.16 1.77-.16.61-.65.85-.24.12-.52.12l-.13-.61q.24-.04.4-.22.33-.33.33-1.86zm3.63 0h.76v1.71q.07 0 .23-.015t.23-.015q.8 0 1.325.395.525.395.525 1.165 0 .75-.54 1.18-.57.47-1.54.47-.49 0-.99-.08zm.76 2.3v1.97q.24.02.34.02.51 0 .845-.26.335-.26.335-.76t-.34-.745q-.34-.245-.86-.245-.12 0-.32.02zm3.58 2.62h-.01q-.21 0-.355-.16t-.145-.42q0-.25.15-.415.15-.165.36-.165.23 0 .37.16.14.16.14.42 0 .27-.135.425-.135.155-.375.155zm5.42-2.1h-1.5l-.44 2.02h-.75l1.54-6.74h.85l1.5 6.74h-.76zm-1.39-.62h1.28l-.35-1.71q-.1-.49-.27-1.54h-.03q-.15.94-.28 1.55zm4.83 2.72h-.01q-.86 0-1.365-.895t-.505-2.565q0-1.64.54-2.54.54-.9 1.44-.9.86 0 1.35.895.49.895.49 2.505 0 1.79-.535 2.645t-1.405.855zm.04-.68h.01q.31 0 .53-.245.22-.245.34-.665.12-.42.17-.88.05-.46.05-1 0-.51-.05-.965-.05-.455-.17-.875-.12-.42-.345-.665-.225-.245-.535-.245-.41 0-.675.44-.265.44-.355 1.025-.09.585-.09 1.295 0 .53.055.995.055.465.175.88t.35.66q.23.245.54.245zm5.69-3.67-1.03 1.75 1.03 1.74h-.63l-1.02-1.74 1.03-1.75zm1.43 0-1.04 1.75 1.04 1.74h-.63l-1.02-1.74 1.03-1.75zm1.6 4.27v-6.05h-1.23v-.69h3.23v.69h-1.23v6.05zm1.85-4.84h.7v1.66q0 1.43-.07 2.32h.02q.16-.46.72-1.89l.81-2.09h.81v4.84h-.71v-1.6q0-1.16.08-2.36h-.03q-.2.73-.58 1.68-.6 1.5-.96 2.28h-.79zm4.06 0h.77v2.05h1.43v-2.05h.77v4.84h-.77v-2.13h-1.43v2.13h-.77zm4.05 0h.76v1.71q.07 0 .23-.015t.23-.015q.8 0 1.325.395.525.395.525 1.165 0 .75-.54 1.18-.57.47-1.54.47-.49 0-.99-.08zm.76 2.3v1.97q.24.02.34.02.51 0 .845-.26.335-.26.335-.76t-.34-.745q-.34-.245-.86-.245-.12 0-.32.02zm3.12-2.3h.75v2.1h.11l1.27-2.1h.85l-1.51 2.18q.85.14 1.18 1.37.28 1 .4 1.29h-.79q-.1-.24-.35-1.13-.14-.53-.385-.79t-.695-.26h-.08v2.18h-.75zm5.04 4.92h-.01q-.69 0-1.13-.635-.44-.635-.44-1.855 0-1.25.47-1.88.47-.63 1.15-.63.69 0 1.125.635.435.635.435 1.855 0 1.29-.475 1.9-.475.61-1.125.61zm.02-.61h.01q.31 0 .5-.33t.245-.72q.055-.39.055-.84 0-.45-.055-.835-.055-.385-.25-.72-.195-.335-.515-.335-.24 0-.415.185t-.255.49q-.08.305-.115.6t-.035.615q0 .34.035.64t.12.6q.085.3.255.475.17.175.42.175zm3.93-6.31h.7v1.92q.8.1 1.26.73.46.63.46 1.77 0 1.15-.45 1.78-.45.63-1.27.72v1.84h-.7v-1.84q-.8-.09-1.25-.715-.45-.625-.45-1.775 0-1.13.45-1.76.45-.63 1.25-.74zm.01 6.39v-3.94q-.53.13-.76.69-.23.56-.23 1.28t.23 1.285q.23.565.76.685zm.69-3.94v3.94q1-.24 1-1.97 0-.45-.075-.825-.075-.375-.31-.71-.235-.335-.615-.435zm4.07-2.45h.7v1.92q.8.1 1.26.73.46.63.46 1.77 0 1.15-.45 1.78-.45.63-1.27.72v1.84h-.7v-1.84q-.8-.09-1.25-.715-.45-.625-.45-1.775 0-1.13.45-1.76.45-.63 1.25-.74zm.01 6.39v-3.94q-.53.13-.76.69-.23.56-.23 1.28t.23 1.285q.23.565.76.685zm.69-3.94v3.94q1-.24 1-1.97 0-.45-.075-.825-.075-.375-.31-.71-.235-.335-.615-.435zm4.22-2.35h2.84v.67h-2.08v2.02q.24-.04.51-.04.89 0 1.44.53.57.54.57 1.47 0 .91-.49 1.46-.58.67-1.79.67-.63 0-1-.07zm.76 3.32v2.81q.19.03.39.03.65 0 1.03-.46.3-.41.3-1 0-.6-.35-1-.38-.41-.99-.41-.17 0-.38.03zm5.9.22v2.1q0 .79.05 1.1h-.69l-.05-.51h-.03q-.33.59-.96.59-.5 0-.825-.38-.325-.38-.325-1 0-.86.585-1.305.585-.445 1.475-.455v-.15q0-.53-.17-.815-.17-.285-.6-.285-.44 0-.8.25l-.17-.54q.45-.32 1.13-.32 1.38 0 1.38 1.72zm-.75 1.67v-.98q-1.33 0-1.33 1.13 0 .44.175.65.175.21.415.21.26 0 .45-.19t.26-.54q.03-.13.03-.28zm1.84-3.31h.77v2.05h1.43v-2.05h.77v4.84h-.77v-2.13h-1.43v2.13h-.77zm4.05 0h.75v2.1h.11l1.27-2.1h.85l-1.51 2.18q.85.14 1.18 1.37.28 1 .4 1.29h-.79q-.1-.24-.35-1.13-.14-.53-.385-.79t-.695-.26h-.08v2.18h-.75zm4.38 2.32-1.04-1.75h.62l1.03 1.75-1.01 1.74h-.64zm1.42 0-1.03-1.75h.62l1.03 1.75-1.02 1.74h-.63zm1.57 3.71-.53.07q.4-1.12.58-2.33l.87-.1q-.18.63-.45 1.335t-.47 1.025zm3.55-6.03h2.56v4.84h-.77v-4.21h-1.06v1.54q0 1.16-.16 1.77-.16.61-.65.85-.24.12-.52.12l-.13-.61q.24-.04.4-.22.33-.33.33-1.86zm3.63 0h.7v1.66q0 1.43-.07 2.32h.02q.16-.46.72-1.89l.81-2.09h.81v4.84H239v-1.6q0-1.16.08-2.36h-.03q-.2.73-.58 1.68-.6 1.5-.96 2.28h-.79zm4.06 0h.77v4.2h1.38v-4.2h.77v4.24l.41.01-.04 1.88h-.59l-.05-1.29h-2.65zm6.84 2.49h-2.24q.01 1.8 1.14 1.8.46 0 .8-.18l.13.56q-.41.23-1.07.23-.85 0-1.3-.645-.45-.645-.45-1.785 0-1.17.45-1.86.45-.69 1.18-.69.69 0 1.035.615t.345 1.515q0 .2-.02.44zm-2.23-.57h1.51q.01-.68-.205-1.04t-.515-.36q-.35 0-.555.425-.205.425-.235.975zm3.08-1.92h.77v2.05h1.43v-2.05h.77v4.84h-.77v-2.13h-1.43v2.13h-.77zm4.4 2.61.01-.56h.26q.39 0 .69-.23.3-.23.3-.61 0-.35-.215-.535-.215-.185-.555-.185-.41 0-.86.25l-.15-.49q.5-.33 1.2-.33.6 0 .975.32t.375.88q0 .43-.275.73t-.715.42v.01q.52.08.845.4.325.32.325.82 0 .68-.525 1.05t-1.255.37q-.65 0-1.14-.27l.17-.55q.46.24.91.24.47 0 .765-.245.295-.245.295-.595 0-.46-.34-.675-.34-.215-.81-.215zm3.07-2.61h.7v1.66q0 1.43-.07 2.32h.02q.16-.46.72-1.89l.81-2.09h.81v4.84h-.71v-1.6q0-1.16.08-2.36h-.03q-.2.73-.58 1.68-.6 1.5-.96 2.28h-.79zm6.78.03v4.81h-.75v-2.07h-.23q-.46 0-.71.23-.11.1-.2.28-.09.18-.13.33-.04.15-.105.44-.065.29-.105.43-.07.23-.13.36h-.81q.15-.25.22-.5.03-.1.095-.37t.11-.43q.045-.16.135-.365.09-.205.21-.335.23-.25.6-.32v-.02q-.46-.09-.765-.395-.305-.305-.305-.795 0-.63.49-1.01.45-.36 1.34-.36.64 0 1.04.09zm-.75 2.22v-1.74q-.13-.04-.33-.04-.44 0-.73.215t-.29.645q0 .43.315.675.315.245.735.245zm8.43-3.95h.01q.56 0 .86.415.3.415.3 1.225 0 .85-.345 1.255-.345.405-.845.405-.54 0-.87-.425-.33-.425-.33-1.225t.345-1.225q.345-.425.875-.425zm-.03.45h-.01q-.29 0-.43.375t-.14.825q0 .47.145.835t.435.365q.59 0 .59-1.2t-.59-1.2zm1.04 3.74h-2.07v-.47h2.07zm-5.31 2.35h-.68v-6.67h.71l1.17 3.14q.54 1.43.82 2.33h.01q-.08-1.7-.08-3.06v-2.41h.67v6.67H268l-1.2-3.21q-.36-.93-.76-2.27h-.01q.07 1.26.07 3.16zm9.21 0h-3.12V37l.54-.74q.43-.6.615-.87t.5-.8q.315-.53.445-.975.13-.445.13-.875 0-.55-.235-.855-.235-.305-.685-.305-.42 0-.94.36l-.19-.58q.53-.44 1.27-.44.77 0 1.16.5.39.5.39 1.28 0 .82-.425 1.65t-1.185 1.85l-.43.6v.02h2.16zm3.6-6.58v.65q-.19 0-.46.06-1.35.34-1.67 2.35h.03q.42-.62 1.1-.62.62 0 1.01.54t.39 1.46q0 .96-.425 1.59-.425.63-1.175.63-.83 0-1.27-.74-.44-.74-.44-1.91 0-1.78.84-2.93.28-.4.705-.665.425-.265.875-.355.16-.03.49-.06zm-1.2 6.06h.01q.35 0 .585-.385t.235-1.175q0-.72-.235-1.095t-.635-.375q-.58 0-.85.7-.05.15-.05.39.01.96.265 1.45t.675.49zm2.23-5.98h3.13v.46l-2.1 6.04h-.75l2.06-5.8v-.02h-2.34zm3.76 6.28.17-.61q.45.27.94.27.51 0 .815-.35.305-.35.305-.94 0-.63-.36-.99t-.95-.36h-.18v-.58h.15q.41 0 .79-.305.38-.305.38-.855 0-.48-.235-.74t-.625-.26q-.38 0-.81.31l-.16-.58q.45-.37 1.16-.37.67 0 1.055.42.385.42.385 1.07 0 .5-.25.91-.25.41-.72.62v.02q.49.13.815.56.325.43.325 1.15 0 .82-.5 1.365t-1.36.545q-.71 0-1.14-.3zm4.57.3h-.01q-.21 0-.355-.16t-.145-.42q0-.25.15-.415.15-.165.36-.165.23 0 .37.16.14.16.14.42 0 .27-.135.425-.135.155-.375.155zm4.41 0h-.01q-.76 0-1.19-.87-.43-.87-.43-2.45 0-1.62.45-2.48.45-.86 1.26-.86.78 0 1.19.875.41.875.41 2.445 0 1.69-.465 2.515-.465.825-1.215.825zm.03-.66h.01q.87 0 .87-2.67 0-1.21-.215-1.94t-.655-.73q-.45 0-.675.715-.225.715-.225 1.955-.01 1.23.21 1.95t.68.72zm4.62-4.75h.57v2.38h2.3v.55h-2.3v2.4h-.57v-2.4h-2.29v-.55h2.29z"/></svg>