<svg xmlns="http://www.w3.org/2000/svg" fill="none" preserveAspectRatio="none" viewBox="0 0 143 48"><rect width="143" height="48" fill="#FFDD2D" data-color-group="0" rx="5"/><path fill="#333" d="M39.373 19.421c-2.97 0-4.845 2.145-4.845 5.55s1.875 5.55 4.845 5.55c2.97 0 4.845-2.145 4.845-5.55s-1.875-5.55-4.845-5.55Zm0 1.26c2.085 0 3.405 1.665 3.405 4.29s-1.32 4.29-3.405 4.29c-2.1 0-3.405-1.665-3.405-4.29s1.305-4.29 3.405-4.29Zm12.198-1.05h-1.32v3.465c-.435-.39-.975-.6-1.56-.6-1.86 0-3.06 1.56-3.06 3.99s1.2 4.005 3.075 4.005c.585 0 1.11-.195 1.545-.57v3.165h1.32v-3.165c.45.375.975.57 1.56.57 1.875 0 3.075-1.575 3.075-4.005 0-2.43-1.2-3.99-3.06-3.99-.585 0-1.125.21-1.575.6v-3.465Zm-2.55 3.93c.48 0 .9.195 1.23.555v4.77c-.33.345-.75.54-1.23.54-1.215 0-2.01-1.155-2.01-2.94s.795-2.925 2.01-2.925Zm3.78 0c1.23 0 2.025 1.14 2.025 2.925s-.795 2.94-2.025 2.94c-.48 0-.885-.195-1.23-.54v-4.77c.345-.36.75-.555 1.23-.555Zm8.398-1.08c-2.235 0-3.615 1.53-3.615 4.02 0 2.49 1.38 4.02 3.615 4.02 2.235 0 3.63-1.53 3.63-4.02 0-2.49-1.395-4.02-3.63-4.02Zm0 1.08c1.395 0 2.25 1.125 2.25 2.94s-.855 2.94-2.25 2.94c-1.38 0-2.235-1.125-2.235-2.94s.855-2.94 2.235-2.94Zm9.081-1.065c-1.02 0-1.92.495-2.325 1.29h-.03v-1.095H66.62v10.395h1.32v-3.855h.03c.42.765 1.305 1.26 2.325 1.26 1.935 0 3.18-1.575 3.18-4.005 0-2.43-1.245-3.99-3.195-3.99Zm-.33 1.065c1.305 0 2.145 1.14 2.145 2.925s-.84 2.94-2.145 2.94c-1.26 0-2.07-1.125-2.07-2.94 0-1.8.81-2.925 2.07-2.925Zm14.493 6.75v-7.62h-2.13l-1.38 3.51a68.128 68.128 0 0 0-1.065 2.925h-.03c-.33-.96-.705-1.98-1.08-2.925l-1.365-3.51h-2.13v7.62h1.26v-3.705c0-.945-.015-1.89-.03-2.835h.03c.345.945.705 1.875 1.08 2.85l1.455 3.69h1.59l1.44-3.69c.39-.975.735-1.905 1.095-2.85h.015c-.015.945-.03 1.89-.03 2.835v3.705h1.275Zm9.323 0v-7.62h-2.01l-1.875 3.195a61.544 61.544 0 0 0-1.77 3.165h-.03a130 130 0 0 0 .045-3.42v-2.94h-1.35v7.62h2.01l1.875-3.195a97.31 97.31 0 0 0 1.77-3.165h.03a130 130 0 0 0-.045 3.42v2.94h1.35Zm7.641-6.57v-1.035l-6.555-.015v1.05h2.61v6.57h1.35v-6.57h2.595Zm2.407 1.77v-2.82h-1.32v7.62h3.18c1.89 0 2.925-.885 2.925-2.4 0-1.5-1.035-2.4-2.925-2.4h-1.86Zm0 1.02h1.785c1.11 0 1.665.45 1.665 1.38 0 .93-.555 1.38-1.665 1.38h-1.785v-2.76Z" data-color-group="1"/></svg>