<?xml version="1.0" encoding="UTF-8"?>
<!DOCTYPE svg PUBLIC "-//W3C//DTD SVG 1.1//EN" "http://www.w3.org/Graphics/SVG/1.1/DTD/svg11.dtd">
<!-- Creator: CorelDRAW X7 -->
<svg xmlns="http://www.w3.org/2000/svg" xml:space="preserve" width="210mm" height="30mm" version="1.1" style="shape-rendering:geometricPrecision; text-rendering:geometricPrecision; image-rendering:optimizeQuality; fill-rule:evenodd; clip-rule:evenodd"
viewBox="0 0 21000 3000"
 xmlns:xlink="http://www.w3.org/1999/xlink">
 <defs>
  <style type="text/css">
   <![CDATA[
    .fil1 {fill:white;fill-rule:nonzero}
    .fil0 {fill:url(#id0);fill-rule:nonzero}
    .fil6 {fill:url(#id1);fill-rule:nonzero}
    .fil3 {fill:url(#id2);fill-rule:nonzero}
    .fil5 {fill:url(#id3);fill-rule:nonzero}
    .fil2 {fill:url(#id4);fill-rule:nonzero}
    .fil4 {fill:url(#id5);fill-rule:nonzero}
    .fil7 {fill:url(#id6);fill-rule:nonzero}
    .fil8 {fill:url(#id7);fill-rule:nonzero}
   ]]>
  </style>
  <linearGradient id="id0" gradientUnits="userSpaceOnUse" x1="1028.51" y1="2800.96" x2="1028.55" y2="181.15">
   <stop offset="0" style="stop-opacity:1; stop-color:#006832"/>
   <stop offset="0.211765" style="stop-opacity:1; stop-color:#037F39"/>
   <stop offset="1" style="stop-opacity:1; stop-color:#07C840"/>
  </linearGradient>
  <linearGradient id="id1" gradientUnits="userSpaceOnUse" xlink:href="#id0" x1="17097.2" y1="2800.96" x2="17097.3" y2="181.15">
  </linearGradient>
  <linearGradient id="id2" gradientUnits="userSpaceOnUse" xlink:href="#id0" x1="6827.74" y1="2866.27" x2="6827.79" y2="120.11">
  </linearGradient>
  <linearGradient id="id3" gradientUnits="userSpaceOnUse" xlink:href="#id0" x1="12807" y1="2800.96" x2="12807.1" y2="181.15">
  </linearGradient>
  <linearGradient id="id4" gradientUnits="userSpaceOnUse" xlink:href="#id0" x1="4383.4" y1="2800.96" x2="4383.46" y2="181.15">
  </linearGradient>
  <linearGradient id="id5" gradientUnits="userSpaceOnUse" xlink:href="#id0" x1="9789.27" y1="2866.27" x2="9789.32" y2="120.11">
  </linearGradient>
  <linearGradient id="id6" gradientUnits="userSpaceOnUse" xlink:href="#id0" x1="19420.9" y1="2866.27" x2="19421" y2="181.15">
  </linearGradient>
  <linearGradient id="id7" gradientUnits="userSpaceOnUse" xlink:href="#id0" x1="15411.3" y1="2879.88" x2="15411.3" y2="1830.24">
  </linearGradient>
 </defs>
 <g id="Слой_x0020_1">
  <metadata id="CorelCorpID_0Corel-Layer"/>
  <path class="fil0" d="M2645 181l-273 827 -273 -827 -604 0 -273 827 -274 -827 -931 0 864 2620 681 0 235 -707 234 707 681 0 865 -2620 -932 0zm-220 2313l0 0 -141 0 -487 -1536 -487 1536 -142 0 -661 -2006 169 0 560 1698 561 -1769 560 1769 560 -1698 169 0 -661 2006z"/>
  <path class="fil1" d="M5319 1614c86,-106 130,-245 130,-412 0,-117 -23,-222 -68,-310 -46,-88 -109,-163 -188,-223 -78,-59 -171,-105 -276,-136 -105,-30 -220,-45 -343,-45l-445 0 0 2006 162 0 0 -583 283 0c94,0 188,-9 277,-27l362 610 190 0 -392 -659c127,-50 230,-124 308,-221zm-1028 -972l0 0 283 0c225,0 402,49 528,147 125,97 186,231 186,413 0,180 -61,315 -186,410 -125,97 -303,146 -528,146l-283 0 0 -1116z"/>
  <path class="fil2" d="M5497 1935c57,-44 110,-98 156,-159 46,-60 87,-138 124,-230 37,-92 55,-206 55,-337 0,-164 -29,-313 -89,-440 -59,-128 -142,-237 -248,-324 -105,-87 -230,-153 -372,-197 -143,-45 -298,-67 -464,-67l-913 0 0 2620 878 0 0 -566 335 566 1030 0 -492 -866zm-395 -1146c-126,-98 -303,-147 -528,-147l-283 0 0 1116 283 0c225,0 403,-49 528,-146 125,-95 186,-230 186,-410 0,-182 -61,-316 -186,-413zm-235 590l0 0c-63,40 -141,60 -231,60l-12 0 0 -506 12 0c90,0 168,21 231,60 58,39 87,101 87,193 0,92 -29,156 -87,193zm536 1115l0 0 -190 0 -362 -610c-89,18 -183,27 -277,27l-283 0 0 583 -162 0 0 -2006 445 0c123,0 238,15 343,45 105,31 198,77 276,136 79,60 142,135 188,223 45,88 68,193 68,310 0,167 -44,306 -130,412 -78,97 -181,171 -308,221l392 659z"/>
  <path class="fil3" d="M8686 959c-71,-166 -171,-313 -295,-437 -123,-123 -271,-223 -437,-294 -167,-72 -346,-108 -533,-108 -188,0 -367,36 -534,108 -166,71 -314,171 -437,294 -124,124 -223,271 -294,437 -72,167 -109,346 -109,534 0,188 37,367 109,534 71,166 170,313 294,437 123,124 271,222 437,294 167,72 347,108 534,108 187,0 366,-36 533,-108 166,-72 314,-170 437,-294 124,-124 223,-271 295,-437 71,-167 108,-347 108,-534 0,-188 -37,-367 -108,-534zm-481 203c-44,-102 -106,-193 -183,-270 -78,-78 -169,-140 -270,-184 -102,-44 -214,-66 -331,-66 -118,0 -230,22 -332,66 -101,44 -192,106 -270,184 -77,77 -139,168 -183,270 -44,101 -66,213 -66,331 0,118 22,229 66,331 44,102 106,193 183,270 78,78 169,139 270,184 102,44 214,66 332,66 117,0 229,-22 331,-66 101,-45 192,-106 270,-184 77,-77 139,-168 183,-270 44,-102 67,-213 67,-331 0,-118 -23,-229 -67,-331zm-318 528l0 0c-27,61 -63,115 -108,161 -46,45 -101,82 -162,109 -121,52 -272,52 -393,0 -61,-27 -116,-64 -161,-109 -46,-46 -82,-100 -109,-161 -26,-61 -39,-127 -39,-197 0,-69 13,-136 39,-197 27,-61 63,-115 109,-161 46,-45 100,-81 161,-108 61,-27 127,-40 197,-40 69,0 135,13 196,40 61,27 116,63 161,108 46,46 82,100 109,161 27,62 39,128 39,197 0,70 -12,136 -39,197zm467 197l0 0c-52,122 -126,230 -217,322 -92,92 -201,165 -323,217 -122,53 -254,80 -393,80 -139,0 -272,-27 -394,-80 -122,-52 -231,-125 -322,-217 -92,-92 -165,-200 -218,-322 -52,-122 -79,-255 -79,-394 0,-139 27,-272 79,-394 53,-122 126,-230 218,-322 91,-92 200,-165 322,-218 122,-52 255,-79 394,-79 139,0 271,27 393,79 122,53 231,126 323,218 91,92 165,200 217,322 53,122 79,255 79,394 0,139 -26,271 -79,394z"/>
  <path class="fil1" d="M8354 1099c-52,-122 -126,-230 -217,-322 -92,-92 -201,-165 -323,-218 -122,-52 -254,-79 -393,-79 -139,0 -272,27 -394,79 -122,53 -231,126 -322,218 -92,92 -165,200 -218,322 -52,122 -79,255 -79,394 0,139 27,272 79,394 53,122 126,230 218,322 91,92 200,165 322,217 122,53 255,80 394,80 139,0 271,-27 393,-80 122,-52 231,-125 323,-217 91,-92 165,-200 217,-322 53,-123 79,-255 79,-394 0,-139 -26,-272 -79,-394zm-933 1245l0 0c-118,0 -230,-22 -332,-66 -101,-45 -192,-106 -270,-184 -77,-77 -139,-168 -183,-270 -44,-102 -66,-213 -66,-331 0,-118 22,-230 66,-331 44,-102 106,-193 183,-270 78,-78 169,-140 270,-184 102,-44 214,-66 332,-66 117,0 229,22 331,66 101,44 192,106 270,184 77,77 139,168 183,270 44,102 67,213 67,331 0,118 -23,229 -67,331 -44,102 -106,193 -183,270 -78,78 -169,139 -270,184 -102,44 -214,66 -331,66z"/>
  <path class="fil4" d="M11647 959c-72,-166 -170,-313 -294,-437 -124,-123 -271,-223 -437,-294 -167,-72 -346,-108 -534,-108 -188,0 -368,36 -534,108 -167,71 -314,171 -437,294 -124,124 -223,271 -294,437 -72,167 -108,346 -108,534 0,188 36,367 108,534 71,166 170,313 294,437 123,124 270,222 437,294 167,72 346,108 534,108 187,0 367,-36 534,-108 166,-72 313,-170 437,-294 124,-124 222,-271 294,-437 72,-167 108,-347 108,-534 0,-188 -36,-367 -108,-534zm-480 203c-45,-102 -106,-193 -184,-270 -77,-78 -168,-140 -270,-184 -102,-44 -213,-66 -331,-66 -118,0 -230,22 -331,66 -102,44 -193,106 -270,184 -78,77 -139,168 -184,270 -44,101 -67,213 -67,331 0,118 23,229 67,331 44,102 106,193 184,270 77,78 168,139 270,184 101,44 213,66 331,66 118,0 229,-22 331,-66 102,-45 193,-106 270,-184 78,-77 139,-168 184,-270 44,-102 66,-213 66,-331 0,-118 -22,-229 -66,-331zm-319 528l0 0c-26,61 -63,115 -109,161 -45,45 -99,82 -160,109 -122,52 -272,52 -394,0 -61,-27 -115,-64 -161,-109 -45,-46 -82,-100 -108,-161 -27,-61 -40,-127 -40,-197 0,-69 13,-136 40,-197 26,-61 63,-115 108,-161 46,-45 100,-81 161,-108 61,-27 128,-40 197,-40 69,0 136,13 197,40 61,27 115,63 160,108 46,46 83,100 109,161 26,62 40,128 40,197 0,70 -14,136 -40,197zm467 197l0 0c-53,122 -125,230 -217,322 -92,92 -200,165 -322,217 -122,53 -255,80 -394,80 -139,0 -272,-27 -394,-80 -122,-52 -230,-125 -322,-217 -92,-92 -165,-200 -218,-322 -52,-122 -79,-255 -79,-394 0,-139 27,-272 79,-394 53,-122 126,-230 218,-322 92,-92 200,-165 322,-218 122,-52 255,-79 394,-79 139,0 272,27 394,79 122,53 230,126 322,218 92,92 164,200 217,322 53,122 79,255 79,394 0,139 -26,271 -79,394z"/>
  <path class="fil1" d="M11315 1099c-53,-122 -125,-230 -217,-322 -92,-92 -200,-165 -322,-218 -122,-52 -255,-79 -394,-79 -139,0 -272,27 -394,79 -122,53 -230,126 -322,218 -92,92 -165,200 -218,322 -52,122 -79,255 -79,394 0,139 27,272 79,394 53,122 126,230 218,322 92,92 200,165 322,217 122,53 255,80 394,80 139,0 272,-27 394,-80 122,-52 230,-125 322,-217 92,-92 164,-200 217,-322 53,-123 79,-255 79,-394 0,-139 -26,-272 -79,-394zm-933 1245l0 0c-118,0 -230,-22 -331,-66 -102,-45 -193,-106 -270,-184 -78,-77 -140,-168 -184,-270 -44,-102 -67,-213 -67,-331 0,-118 23,-230 67,-331 45,-102 106,-193 184,-270 77,-78 168,-140 270,-184 101,-44 213,-66 331,-66 118,0 229,22 331,66 102,44 193,106 270,184 78,77 139,168 184,270 44,102 66,213 66,331 0,118 -22,229 -66,331 -45,102 -106,193 -184,270 -77,78 -168,139 -270,184 -102,44 -213,66 -331,66z"/>
  <path class="fil5" d="M14048 181l-648 958 -650 -958 -722 0 0 2620 878 0 0 -851 494 722 492 -722 0 851 878 0 0 -2620 -722 0zm339 2313l0 0 -162 0 0 -1691 -825 1205 -828 -1206 0 1692 -161 0 0 -2006 147 0 842 1238 839 -1238 148 0 0 2006z"/>
  <polygon class="fil1" points="14387,488 14387,2494 14225,2494 14225,803 13400,2008 12572,802 12572,2494 12411,2494 12411,488 12558,488 13400,1726 14239,488 "/>
  <path class="fil1" d="M18033 1614c86,-106 130,-245 130,-412 0,-117 -23,-222 -69,-310 -45,-88 -108,-163 -187,-223 -78,-59 -172,-105 -276,-136 -105,-30 -220,-45 -343,-45l-445 0 0 2006 162 0 0 -583 283 0c94,0 187,-9 276,-27l363 610 190 0 -392 -659c126,-50 230,-124 308,-221zm-1028 -972l0 0 283 0c224,0 402,49 528,147 125,97 185,231 185,413 0,180 -60,315 -185,410 -126,97 -303,146 -528,146l-283 0 0 -1116z"/>
  <path class="fil6" d="M18211 1935c57,-44 110,-98 156,-159 46,-60 87,-138 123,-230 37,-92 56,-206 56,-337 0,-164 -29,-313 -89,-440 -59,-128 -143,-237 -248,-324 -105,-87 -231,-153 -372,-197 -142,-45 -299,-67 -464,-67l-913 0 0 2620 878 0 0 -566 335 566 1029 0 -491 -866zm-395 -1146c-126,-98 -304,-147 -528,-147l-283 0 0 1116 283 0c225,0 402,-49 528,-146 125,-95 185,-230 185,-410 0,-182 -60,-316 -185,-413zm-236 590l0 0c-62,40 -140,60 -231,60l-11 0 0 -506 11 0c91,0 169,21 231,60 59,39 87,101 87,193 0,92 -28,156 -87,193zm537 1115l0 0 -190 0 -363 -610c-89,18 -182,27 -276,27l-283 0 0 583 -162 0 0 -2006 445 0c123,0 238,15 343,45 104,31 198,77 276,136 79,60 142,135 187,223 46,88 69,193 69,310 0,167 -44,306 -130,412 -78,97 -182,171 -308,221l392 659z"/>
  <path class="fil1" d="M20599 488l0 1323c0,223 -62,396 -185,515 -123,119 -300,180 -524,180 -225,0 -401,-61 -522,-180 -123,-119 -184,-292 -184,-515l0 -1323 162 0 0 1323c0,359 178,533 544,533 366,0 544,-174 544,-533l0 -1323 165 0z"/>
  <path class="fil7" d="M20100 181l0 1623c0,81 -16,144 -48,186 -31,39 -86,59 -162,59 -77,0 -131,-20 -162,-59 -32,-42 -49,-105 -49,-186l0 -1623 -878 0 0 1657c0,172 25,324 76,452 52,130 126,238 221,323 95,84 211,148 345,190 133,42 283,63 447,63 163,0 313,-21 446,-63 134,-42 250,-105 347,-190 96,-85 171,-193 223,-323 51,-128 77,-280 77,-452l0 -1657 -883 0zm499 1630l0 0c0,223 -62,396 -185,515 -123,119 -300,180 -524,180 -225,0 -401,-61 -522,-180 -123,-119 -184,-292 -184,-515l0 -1323 162 0 0 1323c0,359 178,533 544,533 366,0 544,-174 544,-533l0 -1323 165 0 0 1323z"/>
  <path class="fil8" d="M15638 1830c-290,0 -525,235 -525,525 0,290 235,525 525,525 290,0 525,-235 525,-525 0,-290 -235,-525 -525,-525zm0 739l0 0c-118,0 -214,-96 -214,-214 0,-118 96,-214 214,-214 118,0 214,96 214,214 0,118 -96,214 -214,214z"/>
  <path class="fil1" d="M15852 2355c0,118 -96,214 -214,214 -118,0 -214,-96 -214,-214 0,-118 96,-214 214,-214 118,0 214,96 214,214z"/>
  <polygon class="fil1" points="3086,488 2425,2494 2284,2494 1797,958 1310,2494 1168,2494 507,488 676,488 1236,2186 1797,417 2357,2186 2917,488 "/>
 </g>
</svg>
