<svg width="36" height="36" viewBox="0 0 36 36" fill="none" xmlns="http://www.w3.org/2000/svg">
<path fill-rule="evenodd" clip-rule="evenodd" d="M27.6128 18.134C30.1471 17.8362 32.6992 17.7662 35.25 17.699C35.1924 22.6229 32.975 27.4769 29.2333 30.6854C26.1474 33.4149 22.0598 34.941 17.949 34.9972C18.0656 31.8711 18.0615 28.712 18.6858 25.6338C19.107 23.4985 20.213 21.4578 21.9789 20.1486C23.5843 18.8874 25.626 18.3947 27.6128 18.134Z" fill="#BE2729"/>
<path fill-rule="evenodd" clip-rule="evenodd" d="M0.253967 17.6934C3.29184 17.8073 6.35441 17.81 9.34974 18.374C11.3572 18.7569 13.3261 19.6544 14.6859 21.2189C16.3242 23.0002 16.9142 25.4525 17.1681 27.7965C17.4247 30.1885 17.4837 32.5969 17.5523 35.0012C12.6387 34.9408 7.7869 32.7273 4.57751 28.9973C1.85111 25.8999 0.314341 21.8131 0.253967 17.6934Z" fill="#BE2729"/>
<path fill-rule="evenodd" clip-rule="evenodd" d="M17.9474 0.00268555C22.9502 0.0548342 27.8871 2.35761 31.0978 6.20289C33.7186 9.27143 35.1895 13.2745 35.2471 17.3051C32.3012 17.198 29.3333 17.1857 26.4217 16.6779C24.3566 16.3197 22.3094 15.4565 20.8948 13.8687C19.4403 12.3372 18.7693 10.2499 18.4675 8.20101C18.0737 5.48516 18.038 2.73637 17.9474 0.00268555Z" fill="#BE2729"/>
<path fill-rule="evenodd" clip-rule="evenodd" d="M7.7747 3.14539C10.6136 1.12806 14.0823 0.069989 17.5538 0C17.4138 3.34849 17.4742 6.75463 16.6537 10.0276C16.076 12.3922 14.4953 14.5001 12.3274 15.6281C10.2431 16.6766 7.87761 16.9154 5.58343 17.0801C3.8079 17.1899 2.02827 17.2763 0.25 17.2873C0.313117 11.7252 3.17261 6.28254 7.7747 3.14539Z" fill="#BE2729"/>
</svg>
