<svg width="41" height="33" viewBox="0 0 41 33" fill="none" xmlns="http://www.w3.org/2000/svg">
<path d="M40.5736 4.01653C39.2113 4.57531 37.7591 4.95261 36.2407 5.13409C37.849 4.17891 39.1025 2.69361 39.76 0.916974C39.8025 0.807128 39.6796 0.702058 39.5755 0.764145C38.0571 1.61903 36.3968 2.24467 34.6277 2.58854C33.1235 0.993388 30.9807 0 28.6014 0C24.0463 0 20.3472 3.67267 20.3472 8.205C20.3472 8.84974 20.4229 9.47539 20.5601 10.0772C13.7249 9.73328 7.65609 6.49045 3.58812 1.55694C3.5692 1.53306 3.52663 1.53306 3.51244 1.56172C2.82656 2.76047 2.42923 4.15026 2.42923 5.63079C2.42923 8.41036 3.82464 10.8747 5.95796 12.36C6.00053 12.3887 5.97687 12.4555 5.92484 12.4508C4.66661 12.3839 3.4746 12.0353 2.42923 11.4669C2.40085 11.4526 2.36301 11.4717 2.36774 11.5051C2.38666 11.8681 2.50491 13.4728 2.9259 14.5092C3.96654 17.0691 6.20866 19.0272 8.99002 19.5812C8.29468 19.7627 7.56149 19.8725 6.80939 19.8725C6.30799 19.8725 5.81606 19.8248 5.32885 19.734C5.29573 19.7292 5.26735 19.7627 5.27681 19.7961C6.3411 22.9721 9.3022 25.2932 12.8262 25.4126C12.8735 25.4126 12.8924 25.4747 12.8546 25.5033C10.0448 27.6572 6.53503 28.9324 2.71303 28.9324C2.04607 28.9324 1.39804 28.8942 0.75 28.8178C4.40172 31.1436 8.74404 32.5 13.4033 32.5C19.8269 32.5 25.0159 30.2649 28.8663 26.8644C32.7546 23.4306 35.2757 18.817 36.3258 14.1128C36.6948 12.4603 36.8887 10.7888 36.8887 9.16018C36.8887 8.80676 36.8793 8.45334 36.8604 8.09993C38.3551 7.02535 39.6654 5.71198 40.7249 4.21712C40.8006 4.1025 40.6918 3.96877 40.5736 4.01653Z" fill="#BE2729"/>
</svg>
