<svg xmlns="http://www.w3.org/2000/svg" width="27" height="27" viewBox="0 0 27 27" fill="none">
<path fill-rule="evenodd" clip-rule="evenodd" d="M13.6382 0C6.37532 0 0.486412 5.88891 0.486412 13.1518C0.486412 15.6358 1.17653 17.9598 2.37385 19.9429L0 27L7.28162 24.6698C9.16699 25.7112 11.333 26.3057 13.6382 26.3057C20.9032 26.3057 26.7901 20.4168 26.7901 13.1539C26.7901 5.88891 20.9032 0 13.6382 0ZM13.6382 24.1002C11.414 24.1002 9.34368 23.433 7.61421 22.2897L3.40696 23.6367L4.77473 19.5708C3.46308 17.7644 2.68981 15.5485 2.68981 13.1518C2.68981 7.11533 7.60174 2.2034 13.6382 2.2034C19.6768 2.2034 24.5867 7.11533 24.5867 13.1518C24.5867 19.1883 19.6747 24.1002 13.6382 24.1002ZM19.8057 16.141C19.4752 15.9601 17.8559 15.0871 17.5524 14.9624C17.2489 14.8397 17.0265 14.7753 16.7895 15.1016C16.5525 15.428 15.8811 16.1597 15.6774 16.3779C15.4737 16.5941 15.2762 16.6149 14.9457 16.4341C14.6173 16.2532 13.5488 15.8583 12.3079 14.6672C11.3434 13.7401 10.7114 12.6155 10.5264 12.2725C10.3435 11.9296 10.5244 11.7549 10.699 11.5928C10.8549 11.4473 11.0503 11.2124 11.2249 11.0233C11.3995 10.8341 11.4619 10.6969 11.5824 10.4766C11.703 10.2562 11.6552 10.0587 11.5762 9.88829C11.4993 9.71784 10.8881 8.04034 10.6345 7.35853C10.3809 6.67673 10.0962 6.77858 9.90076 6.77027C9.70537 6.76403 9.48295 6.72662 9.25845 6.7183C9.03395 6.70999 8.6681 6.78066 8.34799 7.10494C8.02787 7.42921 7.12988 8.20872 7.06752 9.86127C7.00516 11.5117 8.14843 13.1539 8.30849 13.3846C8.46855 13.6154 10.4911 17.1949 13.8523 18.6686C17.2156 20.1403 17.2323 19.6914 17.8496 19.6581C18.467 19.6248 19.866 18.9202 20.1757 18.1469C20.4854 17.3736 20.5104 16.7022 20.4314 16.5588C20.3545 16.4133 20.1341 16.3197 19.8057 16.141Z" fill="#BE2729"/>
</svg>