<svg xmlns="http://www.w3.org/2000/svg" fill="none" viewBox="0 0 143 64"><rect width="143" height="64" fill="#000" rx="16"/><path fill="#fff" fill-rule="evenodd" d="M35.025 16c-.078 6.285-.506 9.817-2.861 12.174-2.356 2.357-5.885 2.786-12.164 2.864v.93c6.28.077 9.808.506 12.163 2.864 2.356 2.357 2.784 5.889 2.862 12.174h.929c.078-6.285.506-9.817 2.861-12.174 2.355-2.358 5.885-2.787 12.164-2.865v-.929c-6.28-.078-9.809-.507-12.164-2.864-2.355-2.357-2.783-5.89-2.861-12.174h-.929z" clip-rule="evenodd"/><path fill="#fff" d="M61.65 48v-4.87h12.485V48h3.792v-8.028h-2.18V19.785H61.482l-.403 11.588c-.134 3.762-.537 6.82-1.61 8.6h-1.612V48h3.793zm2.988-16.09l.302-8.967h6.745v17.03h-8.39c.705-1.58 1.208-4.3 1.343-8.062zM84.742 40.308c-2.047 0-4.061-.739-5.135-1.545v3.258c.772.639 2.719 1.445 5.605 1.445 4.262 0 6.51-1.915 6.51-5.307 0-1.982-1.241-3.326-3.456-3.796 2.08-.672 2.953-2.15 2.953-4.03 0-2.856-2.249-4.435-5.873-4.435-2.618 0-4.33.807-5.303 1.411v3.258c1.074-.705 2.551-1.511 4.732-1.511 1.477 0 2.417.705 2.417 1.948 0 1.31-.806 2.015-2.45 2.015h-2.517v3.023h2.517c2.047 0 2.852.605 2.852 2.083 0 1.344-.973 2.183-2.852 2.183zM106.833 41.988V38.73c-1.242.84-3.323 1.578-5.269 1.578-2.92 0-4.027-1.377-4.195-4.198H107v-2.117c0-5.878-2.584-8.095-6.578-8.095-4.866 0-7.182 3.729-7.182 8.835 0 5.878 2.886 8.733 7.987 8.733 2.551 0 4.43-.672 5.605-1.478zm-6.477-12.932c1.98 0 2.584 1.646 2.584 3.762v.336h-5.571c.1-2.687 1.074-4.098 2.987-4.098zM119.006 26.234v6.685h-5.336v-6.685h-3.994V43.13h3.994v-7.054h5.336v7.054H123V26.234h-3.994z"/></svg>