<svg xmlns="http://www.w3.org/2000/svg" fill="none" viewBox="0 0 100 100"><path fill="#E60023" d="M49.98 0C22.336 0 0 22.378 0 49.98c0 21.184 13.163 39.284 31.756 46.565-.452-3.95-.822-10.037.165-14.357.905-3.907 5.841-24.845 5.841-24.845s-1.48-3.003-1.48-7.405c0-6.952 4.03-12.135 9.05-12.135 4.277 0 6.334 3.209 6.334 7.035 0 4.278-2.715 10.695-4.155 16.66-1.193 4.977 2.51 9.05 7.405 9.05 8.885 0 15.713-9.38 15.713-22.872 0-11.97-8.597-20.321-20.896-20.321-14.233 0-22.584 10.654-22.584 21.678 0 4.278 1.646 8.886 3.703 11.395.41.493.452.946.329 1.44-.37 1.563-1.235 4.977-1.399 5.676-.206.905-.74 1.11-1.687.658-6.17-2.961-10.037-12.093-10.037-19.416 0-15.754 11.436-30.234 33.032-30.234 17.318 0 30.81 12.34 30.81 28.877 0 17.236-10.86 31.098-25.915 31.098-5.06 0-9.831-2.632-11.435-5.759l-3.127 11.888c-1.11 4.36-4.154 9.79-6.211 13.123A50.201 50.201 0 0050.02 100C77.622 100 100 77.622 100 50.02 99.959 22.379 77.581 0 49.98 0z"/></svg>