<svg width="26" height="38" viewBox="0 0 26 38" fill="none" xmlns="http://www.w3.org/2000/svg">
<path d="M1 37V1H25V37L12.7551 28.5L1 37Z" stroke="#BE2729"/>
<path d="M12.5245 8.46353C12.6741 8.00287 13.3259 8.00287 13.4755 8.46353L14.9084 12.8734C14.9753 13.0794 15.1673 13.2188 15.3839 13.2188H20.0207C20.505 13.2188 20.7064 13.8387 20.3146 14.1234L16.5633 16.8488C16.3881 16.9761 16.3148 17.2018 16.3817 17.4078L17.8145 21.8176C17.9642 22.2783 17.437 22.6613 17.0451 22.3766L13.2939 19.6512C13.1186 19.5239 12.8814 19.5239 12.7061 19.6512L8.95488 22.3766C8.56303 22.6613 8.03578 22.2783 8.18546 21.8176L9.6183 17.4078C9.68524 17.2018 9.61191 16.9761 9.43667 16.8488L5.68544 14.1234C5.29358 13.8387 5.49497 13.2188 5.97933 13.2188H10.6161C10.8327 13.2188 11.0247 13.0794 11.0916 12.8734L12.5245 8.46353Z" stroke="#BE2729"/>
</svg>
